%TF.GenerationSoftware,KiCad,Pcbnew,7.0.9*%
%TF.CreationDate,2024-03-24T12:36:57+01:00*%
%TF.ProjectId,PowerPiNano,506f7765-7250-4694-9e61-6e6f2e6b6963,rev?*%
%TF.SameCoordinates,Original*%
%TF.FileFunction,Drillmap*%
%TF.FilePolarity,Positive*%
%FSLAX45Y45*%
G04 Gerber Fmt 4.5, Leading zero omitted, Abs format (unit mm)*
G04 Created by KiCad (PCBNEW 7.0.9) date 2024-03-24 12:36:57*
%MOMM*%
%LPD*%
G01*
G04 APERTURE LIST*
%ADD10C,0.100000*%
%ADD11C,0.200000*%
G04 APERTURE END LIST*
D10*
X12500000Y-7900000D02*
G75*
G03*
X12200000Y-8200000I0J-300000D01*
G01*
X12200000Y-12900000D02*
G75*
G03*
X12500000Y-13200000I300000J0D01*
G01*
X12200000Y-12900000D02*
X12200000Y-8200000D01*
X17500000Y-8200000D02*
G75*
G03*
X17200000Y-7900000I-300000J0D01*
G01*
X17500000Y-8200000D02*
X17500000Y-12900000D01*
X17200000Y-13200000D02*
X12500000Y-13200000D01*
X17200000Y-13200000D02*
G75*
G03*
X17500000Y-12900000I0J300000D01*
G01*
X12500000Y-7900000D02*
X17200000Y-7900000D01*
D11*
D10*
X13450000Y-8791000D02*
X13490000Y-8831000D01*
X13490000Y-8791000D02*
X13450000Y-8831000D01*
X13470000Y-9600000D02*
X13510000Y-9640000D01*
X13510000Y-9600000D02*
X13470000Y-9640000D01*
X13479950Y-10710000D02*
X13519950Y-10750000D01*
X13519950Y-10710000D02*
X13479950Y-10750000D01*
X13479995Y-10909900D02*
X13519995Y-10949900D01*
X13519995Y-10909900D02*
X13479995Y-10949900D01*
X13480000Y-11109801D02*
X13520000Y-11149801D01*
X13520000Y-11109801D02*
X13480000Y-11149801D01*
X13480000Y-11309701D02*
X13520000Y-11349701D01*
X13520000Y-11309701D02*
X13480000Y-11349701D01*
X13480000Y-11209751D02*
X13520000Y-11249751D01*
X13520000Y-11209751D02*
X13480000Y-11249751D01*
X13480001Y-11009851D02*
X13520001Y-11049851D01*
X13520001Y-11009851D02*
X13480001Y-11049851D01*
X13480021Y-10809950D02*
X13520021Y-10849950D01*
X13520021Y-10809950D02*
X13480021Y-10849950D01*
X13710000Y-11469700D02*
X13750000Y-11509700D01*
X13750000Y-11469700D02*
X13710000Y-11509700D01*
X13712063Y-11884750D02*
X13752063Y-11924750D01*
X13752063Y-11884750D02*
X13712063Y-11924750D01*
X13839950Y-10124462D02*
X13879950Y-10164462D01*
X13879950Y-10124462D02*
X13839950Y-10164462D01*
X13900000Y-12330000D02*
X13940000Y-12370000D01*
X13940000Y-12330000D02*
X13900000Y-12370000D01*
X13900050Y-9499471D02*
X13940050Y-9539471D01*
X13940050Y-9499471D02*
X13900050Y-9539471D01*
X13915090Y-10002707D02*
X13955090Y-10042707D01*
X13955090Y-10002707D02*
X13915090Y-10042707D01*
X13969912Y-9911004D02*
X14009912Y-9951004D01*
X14009912Y-9911004D02*
X13969912Y-9951004D01*
X14050136Y-9850000D02*
X14090136Y-9890000D01*
X14090136Y-9850000D02*
X14050136Y-9890000D01*
X14130000Y-9290000D02*
X14170000Y-9330000D01*
X14170000Y-9290000D02*
X14130000Y-9330000D01*
X14158774Y-10087181D02*
X14198774Y-10127181D01*
X14198774Y-10087181D02*
X14158774Y-10127181D01*
X14180000Y-11450000D02*
X14220000Y-11490000D01*
X14220000Y-11450000D02*
X14180000Y-11490000D01*
X14180000Y-11570000D02*
X14220000Y-11610000D01*
X14220000Y-11570000D02*
X14180000Y-11610000D01*
X14190000Y-11310000D02*
X14230000Y-11350000D01*
X14230000Y-11310000D02*
X14190000Y-11350000D01*
X14242859Y-9990745D02*
X14282859Y-10030745D01*
X14282859Y-9990745D02*
X14242859Y-10030745D01*
X14272063Y-10180000D02*
X14312063Y-10220000D01*
X14312063Y-10180000D02*
X14272063Y-10220000D01*
X14333137Y-10120000D02*
X14373137Y-10160000D01*
X14373137Y-10120000D02*
X14333137Y-10160000D01*
X14333137Y-10240000D02*
X14373137Y-10280000D01*
X14373137Y-10240000D02*
X14333137Y-10280000D01*
X14347084Y-9892916D02*
X14387084Y-9932916D01*
X14387084Y-9892916D02*
X14347084Y-9932916D01*
X14350000Y-11720000D02*
X14390000Y-11760000D01*
X14390000Y-11720000D02*
X14350000Y-11760000D01*
X14390000Y-9720000D02*
X14430000Y-9760000D01*
X14430000Y-9720000D02*
X14390000Y-9760000D01*
X14392013Y-10470000D02*
X14432013Y-10510000D01*
X14432013Y-10470000D02*
X14392013Y-10510000D01*
X14393137Y-10180000D02*
X14433137Y-10220000D01*
X14433137Y-10180000D02*
X14393137Y-10220000D01*
X14393137Y-10300000D02*
X14433137Y-10340000D01*
X14433137Y-10300000D02*
X14393137Y-10340000D01*
X14402063Y-10050000D02*
X14442063Y-10090000D01*
X14442063Y-10050000D02*
X14402063Y-10090000D01*
X14453137Y-10120000D02*
X14493137Y-10160000D01*
X14493137Y-10120000D02*
X14453137Y-10160000D01*
X14453137Y-10240000D02*
X14493137Y-10280000D01*
X14493137Y-10240000D02*
X14453137Y-10280000D01*
X14477356Y-9578431D02*
X14517356Y-9618431D01*
X14517356Y-9578431D02*
X14477356Y-9618431D01*
X14511559Y-10372635D02*
X14551559Y-10412635D01*
X14551559Y-10372635D02*
X14511559Y-10412635D01*
X14513137Y-10180000D02*
X14553137Y-10220000D01*
X14553137Y-10180000D02*
X14513137Y-10220000D01*
X14557000Y-8207000D02*
X14597000Y-8247000D01*
X14597000Y-8207000D02*
X14557000Y-8247000D01*
X14575506Y-9638072D02*
X14615506Y-9678072D01*
X14615506Y-9638072D02*
X14575506Y-9678072D01*
X14580000Y-8780000D02*
X14620000Y-8820000D01*
X14620000Y-8780000D02*
X14580000Y-8820000D01*
X14600000Y-11570000D02*
X14640000Y-11610000D01*
X14640000Y-11570000D02*
X14600000Y-11610000D01*
X14600000Y-11700000D02*
X14640000Y-11740000D01*
X14640000Y-11700000D02*
X14600000Y-11740000D01*
X14610000Y-11440000D02*
X14650000Y-11480000D01*
X14650000Y-11440000D02*
X14610000Y-11480000D01*
X14640000Y-10260000D02*
X14680000Y-10300000D01*
X14680000Y-10260000D02*
X14640000Y-10300000D01*
X14670000Y-9680000D02*
X14710000Y-9720000D01*
X14710000Y-9680000D02*
X14670000Y-9720000D01*
X14728491Y-10175083D02*
X14768491Y-10215083D01*
X14768491Y-10175083D02*
X14728491Y-10215083D01*
X14729288Y-10557918D02*
X14769288Y-10597918D01*
X14769288Y-10557918D02*
X14729288Y-10597918D01*
X14749950Y-10850000D02*
X14789950Y-10890000D01*
X14789950Y-10850000D02*
X14749950Y-10890000D01*
X14769427Y-9699948D02*
X14809427Y-9739948D01*
X14809427Y-9699948D02*
X14769427Y-9739948D01*
X14840000Y-12685000D02*
X14880000Y-12725000D01*
X14880000Y-12685000D02*
X14840000Y-12725000D01*
X14868969Y-9708969D02*
X14908969Y-9748969D01*
X14908969Y-9708969D02*
X14868969Y-9748969D01*
X14997898Y-10605765D02*
X15037898Y-10645765D01*
X15037898Y-10605765D02*
X14997898Y-10645765D01*
X15072738Y-10680676D02*
X15112738Y-10720676D01*
X15112738Y-10680676D02*
X15072738Y-10720676D01*
X15080000Y-9920000D02*
X15120000Y-9960000D01*
X15120000Y-9920000D02*
X15080000Y-9960000D01*
X15085996Y-9585996D02*
X15125996Y-9625996D01*
X15125996Y-9585996D02*
X15085996Y-9625996D01*
X15120000Y-8200000D02*
X15160000Y-8240000D01*
X15160000Y-8200000D02*
X15120000Y-8240000D01*
X15120000Y-8750000D02*
X15160000Y-8790000D01*
X15160000Y-8750000D02*
X15120000Y-8790000D01*
X15273569Y-11566431D02*
X15313569Y-11606431D01*
X15313569Y-11566431D02*
X15273569Y-11606431D01*
X15292063Y-9380000D02*
X15332063Y-9420000D01*
X15332063Y-9380000D02*
X15292063Y-9420000D01*
X15397741Y-10762259D02*
X15437741Y-10802259D01*
X15437741Y-10762259D02*
X15397741Y-10802259D01*
X15496700Y-10804651D02*
X15536700Y-10844651D01*
X15536700Y-10804651D02*
X15496700Y-10844651D01*
X15500000Y-8880000D02*
X15540000Y-8920000D01*
X15540000Y-8880000D02*
X15500000Y-8920000D01*
X15580000Y-9380000D02*
X15620000Y-9420000D01*
X15620000Y-9380000D02*
X15580000Y-9420000D01*
X15690000Y-10730000D02*
X15730000Y-10770000D01*
X15730000Y-10730000D02*
X15690000Y-10770000D01*
X15740000Y-8900050D02*
X15780000Y-8940050D01*
X15780000Y-8900050D02*
X15740000Y-8940050D01*
X15764462Y-9484462D02*
X15804462Y-9524462D01*
X15804462Y-9484462D02*
X15764462Y-9524462D01*
X16080000Y-10210000D02*
X16120000Y-10250000D01*
X16120000Y-10210000D02*
X16080000Y-10250000D01*
X16090000Y-8420000D02*
X16130000Y-8460000D01*
X16130000Y-8420000D02*
X16090000Y-8460000D01*
X16313750Y-8390000D02*
X16353750Y-8430000D01*
X16353750Y-8390000D02*
X16313750Y-8430000D01*
X16314750Y-9576687D02*
X16354750Y-9616687D01*
X16354750Y-9576687D02*
X16314750Y-9616687D01*
X16314750Y-10166687D02*
X16354750Y-10206687D01*
X16354750Y-10166687D02*
X16314750Y-10206687D01*
X16314750Y-10756687D02*
X16354750Y-10796687D01*
X16354750Y-10756687D02*
X16314750Y-10796687D01*
X16314750Y-11346687D02*
X16354750Y-11386687D01*
X16354750Y-11346687D02*
X16314750Y-11386687D01*
X16314750Y-12536687D02*
X16354750Y-12576687D01*
X16354750Y-12536687D02*
X16314750Y-12576687D01*
X16316250Y-11946450D02*
X16356250Y-11986450D01*
X16356250Y-11946450D02*
X16316250Y-11986450D01*
X16318500Y-8986687D02*
X16358500Y-9026687D01*
X16358500Y-8986687D02*
X16318500Y-9026687D01*
X16950000Y-8270000D02*
X16990000Y-8310000D01*
X16990000Y-8270000D02*
X16950000Y-8310000D01*
X15352063Y-9900000D02*
G75*
G03*
X15352063Y-9900000I-40000J0D01*
G01*
X15352063Y-10388000D02*
G75*
G03*
X15352063Y-10388000I-40000J0D01*
G01*
X12441137Y-8432000D02*
X12441137Y-8532000D01*
X12391137Y-8482000D02*
X12491137Y-8482000D01*
X12441137Y-8686000D02*
X12441137Y-8786000D01*
X12391137Y-8736000D02*
X12491137Y-8736000D01*
X12441137Y-8940000D02*
X12441137Y-9040000D01*
X12391137Y-8990000D02*
X12491137Y-8990000D01*
X12441137Y-9194000D02*
X12441137Y-9294000D01*
X12391137Y-9244000D02*
X12491137Y-9244000D01*
X12441137Y-9448000D02*
X12441137Y-9548000D01*
X12391137Y-9498000D02*
X12491137Y-9498000D01*
X12441137Y-9702000D02*
X12441137Y-9802000D01*
X12391137Y-9752000D02*
X12491137Y-9752000D01*
X12441137Y-9956000D02*
X12441137Y-10056000D01*
X12391137Y-10006000D02*
X12491137Y-10006000D01*
X12441137Y-10210000D02*
X12441137Y-10310000D01*
X12391137Y-10260000D02*
X12491137Y-10260000D01*
X12441137Y-10464000D02*
X12441137Y-10564000D01*
X12391137Y-10514000D02*
X12491137Y-10514000D01*
X12441137Y-10718000D02*
X12441137Y-10818000D01*
X12391137Y-10768000D02*
X12491137Y-10768000D01*
X12441137Y-10972000D02*
X12441137Y-11072000D01*
X12391137Y-11022000D02*
X12491137Y-11022000D01*
X12441137Y-11226000D02*
X12441137Y-11326000D01*
X12391137Y-11276000D02*
X12491137Y-11276000D01*
X12441137Y-11480000D02*
X12441137Y-11580000D01*
X12391137Y-11530000D02*
X12491137Y-11530000D01*
X12441137Y-11734000D02*
X12441137Y-11834000D01*
X12391137Y-11784000D02*
X12491137Y-11784000D01*
X12441137Y-11988000D02*
X12441137Y-12088000D01*
X12391137Y-12038000D02*
X12491137Y-12038000D01*
X12441137Y-12242000D02*
X12441137Y-12342000D01*
X12391137Y-12292000D02*
X12491137Y-12292000D01*
X12441137Y-12496000D02*
X12441137Y-12596000D01*
X12391137Y-12546000D02*
X12491137Y-12546000D01*
X12441137Y-12750000D02*
X12441137Y-12850000D01*
X12391137Y-12800000D02*
X12491137Y-12800000D01*
X13062063Y-11044750D02*
X13062063Y-11144750D01*
X13012063Y-11094750D02*
X13112063Y-11094750D01*
X13062063Y-11298750D02*
X13062063Y-11398750D01*
X13012063Y-11348750D02*
X13112063Y-11348750D01*
X13062063Y-11552750D02*
X13062063Y-11652750D01*
X13012063Y-11602750D02*
X13112063Y-11602750D01*
X13062063Y-11806750D02*
X13062063Y-11906750D01*
X13012063Y-11856750D02*
X13112063Y-11856750D01*
X13062063Y-12060750D02*
X13062063Y-12160750D01*
X13012063Y-12110750D02*
X13112063Y-12110750D01*
X13062063Y-12314750D02*
X13062063Y-12414750D01*
X13012063Y-12364750D02*
X13112063Y-12364750D01*
X13062496Y-9074506D02*
X13062496Y-9174506D01*
X13012496Y-9124506D02*
X13112496Y-9124506D01*
X13062496Y-9328506D02*
X13062496Y-9428506D01*
X13012496Y-9378506D02*
X13112496Y-9378506D01*
X13062496Y-9582506D02*
X13062496Y-9682506D01*
X13012496Y-9632506D02*
X13112496Y-9632506D01*
X13062496Y-9836506D02*
X13062496Y-9936506D01*
X13012496Y-9886506D02*
X13112496Y-9886506D01*
X13062496Y-10090506D02*
X13062496Y-10190506D01*
X13012496Y-10140506D02*
X13112496Y-10140506D01*
X13062496Y-10344506D02*
X13062496Y-10444506D01*
X13012496Y-10394506D02*
X13112496Y-10394506D01*
X14727637Y-12960000D02*
X14727637Y-13060000D01*
X14677637Y-13010000D02*
X14777637Y-13010000D01*
X14981637Y-12960000D02*
X14981637Y-13060000D01*
X14931637Y-13010000D02*
X15031637Y-13010000D01*
X17267137Y-8432000D02*
X17267137Y-8532000D01*
X17217137Y-8482000D02*
X17317137Y-8482000D01*
X17267137Y-8686000D02*
X17267137Y-8786000D01*
X17217137Y-8736000D02*
X17317137Y-8736000D01*
X17267137Y-8940000D02*
X17267137Y-9040000D01*
X17217137Y-8990000D02*
X17317137Y-8990000D01*
X17267137Y-9194000D02*
X17267137Y-9294000D01*
X17217137Y-9244000D02*
X17317137Y-9244000D01*
X17267137Y-9448000D02*
X17267137Y-9548000D01*
X17217137Y-9498000D02*
X17317137Y-9498000D01*
X17267137Y-9702000D02*
X17267137Y-9802000D01*
X17217137Y-9752000D02*
X17317137Y-9752000D01*
X17267137Y-9956000D02*
X17267137Y-10056000D01*
X17217137Y-10006000D02*
X17317137Y-10006000D01*
X17267137Y-10210000D02*
X17267137Y-10310000D01*
X17217137Y-10260000D02*
X17317137Y-10260000D01*
X17267137Y-10464000D02*
X17267137Y-10564000D01*
X17217137Y-10514000D02*
X17317137Y-10514000D01*
X17267137Y-10718000D02*
X17267137Y-10818000D01*
X17217137Y-10768000D02*
X17317137Y-10768000D01*
X17267137Y-10972000D02*
X17267137Y-11072000D01*
X17217137Y-11022000D02*
X17317137Y-11022000D01*
X17267137Y-11226000D02*
X17267137Y-11326000D01*
X17217137Y-11276000D02*
X17317137Y-11276000D01*
X17267137Y-11480000D02*
X17267137Y-11580000D01*
X17217137Y-11530000D02*
X17317137Y-11530000D01*
X17267137Y-11734000D02*
X17267137Y-11834000D01*
X17217137Y-11784000D02*
X17317137Y-11784000D01*
X17267137Y-11988000D02*
X17267137Y-12088000D01*
X17217137Y-12038000D02*
X17317137Y-12038000D01*
X17267137Y-12242000D02*
X17267137Y-12342000D01*
X17217137Y-12292000D02*
X17317137Y-12292000D01*
X17267137Y-12496000D02*
X17267137Y-12596000D01*
X17217137Y-12546000D02*
X17317137Y-12546000D01*
X17267137Y-12750000D02*
X17267137Y-12850000D01*
X17217137Y-12800000D02*
X17317137Y-12800000D01*
D11*
X12455777Y-13516484D02*
X12455777Y-13316484D01*
X12455777Y-13316484D02*
X12503396Y-13316484D01*
X12503396Y-13316484D02*
X12531967Y-13326008D01*
X12531967Y-13326008D02*
X12551015Y-13345055D01*
X12551015Y-13345055D02*
X12560539Y-13364103D01*
X12560539Y-13364103D02*
X12570062Y-13402198D01*
X12570062Y-13402198D02*
X12570062Y-13430769D01*
X12570062Y-13430769D02*
X12560539Y-13468865D01*
X12560539Y-13468865D02*
X12551015Y-13487912D01*
X12551015Y-13487912D02*
X12531967Y-13506960D01*
X12531967Y-13506960D02*
X12503396Y-13516484D01*
X12503396Y-13516484D02*
X12455777Y-13516484D01*
X12655777Y-13516484D02*
X12655777Y-13383150D01*
X12655777Y-13421246D02*
X12665301Y-13402198D01*
X12665301Y-13402198D02*
X12674824Y-13392674D01*
X12674824Y-13392674D02*
X12693872Y-13383150D01*
X12693872Y-13383150D02*
X12712920Y-13383150D01*
X12779586Y-13516484D02*
X12779586Y-13383150D01*
X12779586Y-13316484D02*
X12770062Y-13326008D01*
X12770062Y-13326008D02*
X12779586Y-13335531D01*
X12779586Y-13335531D02*
X12789110Y-13326008D01*
X12789110Y-13326008D02*
X12779586Y-13316484D01*
X12779586Y-13316484D02*
X12779586Y-13335531D01*
X12903396Y-13516484D02*
X12884348Y-13506960D01*
X12884348Y-13506960D02*
X12874824Y-13487912D01*
X12874824Y-13487912D02*
X12874824Y-13316484D01*
X13008158Y-13516484D02*
X12989110Y-13506960D01*
X12989110Y-13506960D02*
X12979586Y-13487912D01*
X12979586Y-13487912D02*
X12979586Y-13316484D01*
X13236729Y-13516484D02*
X13236729Y-13316484D01*
X13236729Y-13316484D02*
X13303396Y-13459341D01*
X13303396Y-13459341D02*
X13370062Y-13316484D01*
X13370062Y-13316484D02*
X13370062Y-13516484D01*
X13551015Y-13516484D02*
X13551015Y-13411722D01*
X13551015Y-13411722D02*
X13541491Y-13392674D01*
X13541491Y-13392674D02*
X13522443Y-13383150D01*
X13522443Y-13383150D02*
X13484348Y-13383150D01*
X13484348Y-13383150D02*
X13465301Y-13392674D01*
X13551015Y-13506960D02*
X13531967Y-13516484D01*
X13531967Y-13516484D02*
X13484348Y-13516484D01*
X13484348Y-13516484D02*
X13465301Y-13506960D01*
X13465301Y-13506960D02*
X13455777Y-13487912D01*
X13455777Y-13487912D02*
X13455777Y-13468865D01*
X13455777Y-13468865D02*
X13465301Y-13449817D01*
X13465301Y-13449817D02*
X13484348Y-13440293D01*
X13484348Y-13440293D02*
X13531967Y-13440293D01*
X13531967Y-13440293D02*
X13551015Y-13430769D01*
X13646253Y-13383150D02*
X13646253Y-13583150D01*
X13646253Y-13392674D02*
X13665301Y-13383150D01*
X13665301Y-13383150D02*
X13703396Y-13383150D01*
X13703396Y-13383150D02*
X13722443Y-13392674D01*
X13722443Y-13392674D02*
X13731967Y-13402198D01*
X13731967Y-13402198D02*
X13741491Y-13421246D01*
X13741491Y-13421246D02*
X13741491Y-13478388D01*
X13741491Y-13478388D02*
X13731967Y-13497436D01*
X13731967Y-13497436D02*
X13722443Y-13506960D01*
X13722443Y-13506960D02*
X13703396Y-13516484D01*
X13703396Y-13516484D02*
X13665301Y-13516484D01*
X13665301Y-13516484D02*
X13646253Y-13506960D01*
X13827205Y-13497436D02*
X13836729Y-13506960D01*
X13836729Y-13506960D02*
X13827205Y-13516484D01*
X13827205Y-13516484D02*
X13817682Y-13506960D01*
X13817682Y-13506960D02*
X13827205Y-13497436D01*
X13827205Y-13497436D02*
X13827205Y-13516484D01*
X13827205Y-13392674D02*
X13836729Y-13402198D01*
X13836729Y-13402198D02*
X13827205Y-13411722D01*
X13827205Y-13411722D02*
X13817682Y-13402198D01*
X13817682Y-13402198D02*
X13827205Y-13392674D01*
X13827205Y-13392674D02*
X13827205Y-13411722D01*
D10*
X12155000Y-13825000D02*
X12195000Y-13865000D01*
X12195000Y-13825000D02*
X12155000Y-13865000D01*
D11*
X12493872Y-13736484D02*
X12512920Y-13736484D01*
X12512920Y-13736484D02*
X12531967Y-13746008D01*
X12531967Y-13746008D02*
X12541491Y-13755531D01*
X12541491Y-13755531D02*
X12551015Y-13774579D01*
X12551015Y-13774579D02*
X12560539Y-13812674D01*
X12560539Y-13812674D02*
X12560539Y-13860293D01*
X12560539Y-13860293D02*
X12551015Y-13898388D01*
X12551015Y-13898388D02*
X12541491Y-13917436D01*
X12541491Y-13917436D02*
X12531967Y-13926960D01*
X12531967Y-13926960D02*
X12512920Y-13936484D01*
X12512920Y-13936484D02*
X12493872Y-13936484D01*
X12493872Y-13936484D02*
X12474824Y-13926960D01*
X12474824Y-13926960D02*
X12465301Y-13917436D01*
X12465301Y-13917436D02*
X12455777Y-13898388D01*
X12455777Y-13898388D02*
X12446253Y-13860293D01*
X12446253Y-13860293D02*
X12446253Y-13812674D01*
X12446253Y-13812674D02*
X12455777Y-13774579D01*
X12455777Y-13774579D02*
X12465301Y-13755531D01*
X12465301Y-13755531D02*
X12474824Y-13746008D01*
X12474824Y-13746008D02*
X12493872Y-13736484D01*
X12646253Y-13917436D02*
X12655777Y-13926960D01*
X12655777Y-13926960D02*
X12646253Y-13936484D01*
X12646253Y-13936484D02*
X12636729Y-13926960D01*
X12636729Y-13926960D02*
X12646253Y-13917436D01*
X12646253Y-13917436D02*
X12646253Y-13936484D01*
X12827205Y-13803150D02*
X12827205Y-13936484D01*
X12779586Y-13726960D02*
X12731967Y-13869817D01*
X12731967Y-13869817D02*
X12855777Y-13869817D01*
X12970062Y-13736484D02*
X12989110Y-13736484D01*
X12989110Y-13736484D02*
X13008158Y-13746008D01*
X13008158Y-13746008D02*
X13017682Y-13755531D01*
X13017682Y-13755531D02*
X13027205Y-13774579D01*
X13027205Y-13774579D02*
X13036729Y-13812674D01*
X13036729Y-13812674D02*
X13036729Y-13860293D01*
X13036729Y-13860293D02*
X13027205Y-13898388D01*
X13027205Y-13898388D02*
X13017682Y-13917436D01*
X13017682Y-13917436D02*
X13008158Y-13926960D01*
X13008158Y-13926960D02*
X12989110Y-13936484D01*
X12989110Y-13936484D02*
X12970062Y-13936484D01*
X12970062Y-13936484D02*
X12951015Y-13926960D01*
X12951015Y-13926960D02*
X12941491Y-13917436D01*
X12941491Y-13917436D02*
X12931967Y-13898388D01*
X12931967Y-13898388D02*
X12922443Y-13860293D01*
X12922443Y-13860293D02*
X12922443Y-13812674D01*
X12922443Y-13812674D02*
X12931967Y-13774579D01*
X12931967Y-13774579D02*
X12941491Y-13755531D01*
X12941491Y-13755531D02*
X12951015Y-13746008D01*
X12951015Y-13746008D02*
X12970062Y-13736484D01*
X13160539Y-13736484D02*
X13179586Y-13736484D01*
X13179586Y-13736484D02*
X13198634Y-13746008D01*
X13198634Y-13746008D02*
X13208158Y-13755531D01*
X13208158Y-13755531D02*
X13217682Y-13774579D01*
X13217682Y-13774579D02*
X13227205Y-13812674D01*
X13227205Y-13812674D02*
X13227205Y-13860293D01*
X13227205Y-13860293D02*
X13217682Y-13898388D01*
X13217682Y-13898388D02*
X13208158Y-13917436D01*
X13208158Y-13917436D02*
X13198634Y-13926960D01*
X13198634Y-13926960D02*
X13179586Y-13936484D01*
X13179586Y-13936484D02*
X13160539Y-13936484D01*
X13160539Y-13936484D02*
X13141491Y-13926960D01*
X13141491Y-13926960D02*
X13131967Y-13917436D01*
X13131967Y-13917436D02*
X13122443Y-13898388D01*
X13122443Y-13898388D02*
X13112920Y-13860293D01*
X13112920Y-13860293D02*
X13112920Y-13812674D01*
X13112920Y-13812674D02*
X13122443Y-13774579D01*
X13122443Y-13774579D02*
X13131967Y-13755531D01*
X13131967Y-13755531D02*
X13141491Y-13746008D01*
X13141491Y-13746008D02*
X13160539Y-13736484D01*
X13312920Y-13936484D02*
X13312920Y-13803150D01*
X13312920Y-13822198D02*
X13322443Y-13812674D01*
X13322443Y-13812674D02*
X13341491Y-13803150D01*
X13341491Y-13803150D02*
X13370063Y-13803150D01*
X13370063Y-13803150D02*
X13389110Y-13812674D01*
X13389110Y-13812674D02*
X13398634Y-13831722D01*
X13398634Y-13831722D02*
X13398634Y-13936484D01*
X13398634Y-13831722D02*
X13408158Y-13812674D01*
X13408158Y-13812674D02*
X13427205Y-13803150D01*
X13427205Y-13803150D02*
X13455777Y-13803150D01*
X13455777Y-13803150D02*
X13474824Y-13812674D01*
X13474824Y-13812674D02*
X13484348Y-13831722D01*
X13484348Y-13831722D02*
X13484348Y-13936484D01*
X13579586Y-13936484D02*
X13579586Y-13803150D01*
X13579586Y-13822198D02*
X13589110Y-13812674D01*
X13589110Y-13812674D02*
X13608158Y-13803150D01*
X13608158Y-13803150D02*
X13636729Y-13803150D01*
X13636729Y-13803150D02*
X13655777Y-13812674D01*
X13655777Y-13812674D02*
X13665301Y-13831722D01*
X13665301Y-13831722D02*
X13665301Y-13936484D01*
X13665301Y-13831722D02*
X13674824Y-13812674D01*
X13674824Y-13812674D02*
X13693872Y-13803150D01*
X13693872Y-13803150D02*
X13722443Y-13803150D01*
X13722443Y-13803150D02*
X13741491Y-13812674D01*
X13741491Y-13812674D02*
X13751015Y-13831722D01*
X13751015Y-13831722D02*
X13751015Y-13936484D01*
X14141491Y-13726960D02*
X13970063Y-13984103D01*
X14398634Y-13736484D02*
X14417682Y-13736484D01*
X14417682Y-13736484D02*
X14436729Y-13746008D01*
X14436729Y-13746008D02*
X14446253Y-13755531D01*
X14446253Y-13755531D02*
X14455777Y-13774579D01*
X14455777Y-13774579D02*
X14465301Y-13812674D01*
X14465301Y-13812674D02*
X14465301Y-13860293D01*
X14465301Y-13860293D02*
X14455777Y-13898388D01*
X14455777Y-13898388D02*
X14446253Y-13917436D01*
X14446253Y-13917436D02*
X14436729Y-13926960D01*
X14436729Y-13926960D02*
X14417682Y-13936484D01*
X14417682Y-13936484D02*
X14398634Y-13936484D01*
X14398634Y-13936484D02*
X14379586Y-13926960D01*
X14379586Y-13926960D02*
X14370063Y-13917436D01*
X14370063Y-13917436D02*
X14360539Y-13898388D01*
X14360539Y-13898388D02*
X14351015Y-13860293D01*
X14351015Y-13860293D02*
X14351015Y-13812674D01*
X14351015Y-13812674D02*
X14360539Y-13774579D01*
X14360539Y-13774579D02*
X14370063Y-13755531D01*
X14370063Y-13755531D02*
X14379586Y-13746008D01*
X14379586Y-13746008D02*
X14398634Y-13736484D01*
X14551015Y-13917436D02*
X14560539Y-13926960D01*
X14560539Y-13926960D02*
X14551015Y-13936484D01*
X14551015Y-13936484D02*
X14541491Y-13926960D01*
X14541491Y-13926960D02*
X14551015Y-13917436D01*
X14551015Y-13917436D02*
X14551015Y-13936484D01*
X14684348Y-13736484D02*
X14703396Y-13736484D01*
X14703396Y-13736484D02*
X14722444Y-13746008D01*
X14722444Y-13746008D02*
X14731967Y-13755531D01*
X14731967Y-13755531D02*
X14741491Y-13774579D01*
X14741491Y-13774579D02*
X14751015Y-13812674D01*
X14751015Y-13812674D02*
X14751015Y-13860293D01*
X14751015Y-13860293D02*
X14741491Y-13898388D01*
X14741491Y-13898388D02*
X14731967Y-13917436D01*
X14731967Y-13917436D02*
X14722444Y-13926960D01*
X14722444Y-13926960D02*
X14703396Y-13936484D01*
X14703396Y-13936484D02*
X14684348Y-13936484D01*
X14684348Y-13936484D02*
X14665301Y-13926960D01*
X14665301Y-13926960D02*
X14655777Y-13917436D01*
X14655777Y-13917436D02*
X14646253Y-13898388D01*
X14646253Y-13898388D02*
X14636729Y-13860293D01*
X14636729Y-13860293D02*
X14636729Y-13812674D01*
X14636729Y-13812674D02*
X14646253Y-13774579D01*
X14646253Y-13774579D02*
X14655777Y-13755531D01*
X14655777Y-13755531D02*
X14665301Y-13746008D01*
X14665301Y-13746008D02*
X14684348Y-13736484D01*
X14941491Y-13936484D02*
X14827206Y-13936484D01*
X14884348Y-13936484D02*
X14884348Y-13736484D01*
X14884348Y-13736484D02*
X14865301Y-13765055D01*
X14865301Y-13765055D02*
X14846253Y-13784103D01*
X14846253Y-13784103D02*
X14827206Y-13793627D01*
X15122444Y-13736484D02*
X15027206Y-13736484D01*
X15027206Y-13736484D02*
X15017682Y-13831722D01*
X15017682Y-13831722D02*
X15027206Y-13822198D01*
X15027206Y-13822198D02*
X15046253Y-13812674D01*
X15046253Y-13812674D02*
X15093872Y-13812674D01*
X15093872Y-13812674D02*
X15112920Y-13822198D01*
X15112920Y-13822198D02*
X15122444Y-13831722D01*
X15122444Y-13831722D02*
X15131967Y-13850769D01*
X15131967Y-13850769D02*
X15131967Y-13898388D01*
X15131967Y-13898388D02*
X15122444Y-13917436D01*
X15122444Y-13917436D02*
X15112920Y-13926960D01*
X15112920Y-13926960D02*
X15093872Y-13936484D01*
X15093872Y-13936484D02*
X15046253Y-13936484D01*
X15046253Y-13936484D02*
X15027206Y-13926960D01*
X15027206Y-13926960D02*
X15017682Y-13917436D01*
X15198634Y-13736484D02*
X15331967Y-13736484D01*
X15331967Y-13736484D02*
X15246253Y-13936484D01*
X15398634Y-13736484D02*
X15398634Y-13774579D01*
X15474825Y-13736484D02*
X15474825Y-13774579D01*
X15770063Y-14012674D02*
X15760539Y-14003150D01*
X15760539Y-14003150D02*
X15741491Y-13974579D01*
X15741491Y-13974579D02*
X15731968Y-13955531D01*
X15731968Y-13955531D02*
X15722444Y-13926960D01*
X15722444Y-13926960D02*
X15712920Y-13879341D01*
X15712920Y-13879341D02*
X15712920Y-13841246D01*
X15712920Y-13841246D02*
X15722444Y-13793627D01*
X15722444Y-13793627D02*
X15731968Y-13765055D01*
X15731968Y-13765055D02*
X15741491Y-13746008D01*
X15741491Y-13746008D02*
X15760539Y-13717436D01*
X15760539Y-13717436D02*
X15770063Y-13707912D01*
X15827206Y-13736484D02*
X15960539Y-13736484D01*
X15960539Y-13736484D02*
X15874825Y-13936484D01*
X16065301Y-13822198D02*
X16046253Y-13812674D01*
X16046253Y-13812674D02*
X16036729Y-13803150D01*
X16036729Y-13803150D02*
X16027206Y-13784103D01*
X16027206Y-13784103D02*
X16027206Y-13774579D01*
X16027206Y-13774579D02*
X16036729Y-13755531D01*
X16036729Y-13755531D02*
X16046253Y-13746008D01*
X16046253Y-13746008D02*
X16065301Y-13736484D01*
X16065301Y-13736484D02*
X16103396Y-13736484D01*
X16103396Y-13736484D02*
X16122444Y-13746008D01*
X16122444Y-13746008D02*
X16131968Y-13755531D01*
X16131968Y-13755531D02*
X16141491Y-13774579D01*
X16141491Y-13774579D02*
X16141491Y-13784103D01*
X16141491Y-13784103D02*
X16131968Y-13803150D01*
X16131968Y-13803150D02*
X16122444Y-13812674D01*
X16122444Y-13812674D02*
X16103396Y-13822198D01*
X16103396Y-13822198D02*
X16065301Y-13822198D01*
X16065301Y-13822198D02*
X16046253Y-13831722D01*
X16046253Y-13831722D02*
X16036729Y-13841246D01*
X16036729Y-13841246D02*
X16027206Y-13860293D01*
X16027206Y-13860293D02*
X16027206Y-13898388D01*
X16027206Y-13898388D02*
X16036729Y-13917436D01*
X16036729Y-13917436D02*
X16046253Y-13926960D01*
X16046253Y-13926960D02*
X16065301Y-13936484D01*
X16065301Y-13936484D02*
X16103396Y-13936484D01*
X16103396Y-13936484D02*
X16122444Y-13926960D01*
X16122444Y-13926960D02*
X16131968Y-13917436D01*
X16131968Y-13917436D02*
X16141491Y-13898388D01*
X16141491Y-13898388D02*
X16141491Y-13860293D01*
X16141491Y-13860293D02*
X16131968Y-13841246D01*
X16131968Y-13841246D02*
X16122444Y-13831722D01*
X16122444Y-13831722D02*
X16103396Y-13822198D01*
X16379587Y-13936484D02*
X16379587Y-13736484D01*
X16465301Y-13936484D02*
X16465301Y-13831722D01*
X16465301Y-13831722D02*
X16455777Y-13812674D01*
X16455777Y-13812674D02*
X16436730Y-13803150D01*
X16436730Y-13803150D02*
X16408158Y-13803150D01*
X16408158Y-13803150D02*
X16389110Y-13812674D01*
X16389110Y-13812674D02*
X16379587Y-13822198D01*
X16589110Y-13936484D02*
X16570063Y-13926960D01*
X16570063Y-13926960D02*
X16560539Y-13917436D01*
X16560539Y-13917436D02*
X16551015Y-13898388D01*
X16551015Y-13898388D02*
X16551015Y-13841246D01*
X16551015Y-13841246D02*
X16560539Y-13822198D01*
X16560539Y-13822198D02*
X16570063Y-13812674D01*
X16570063Y-13812674D02*
X16589110Y-13803150D01*
X16589110Y-13803150D02*
X16617682Y-13803150D01*
X16617682Y-13803150D02*
X16636730Y-13812674D01*
X16636730Y-13812674D02*
X16646253Y-13822198D01*
X16646253Y-13822198D02*
X16655777Y-13841246D01*
X16655777Y-13841246D02*
X16655777Y-13898388D01*
X16655777Y-13898388D02*
X16646253Y-13917436D01*
X16646253Y-13917436D02*
X16636730Y-13926960D01*
X16636730Y-13926960D02*
X16617682Y-13936484D01*
X16617682Y-13936484D02*
X16589110Y-13936484D01*
X16770063Y-13936484D02*
X16751015Y-13926960D01*
X16751015Y-13926960D02*
X16741491Y-13907912D01*
X16741491Y-13907912D02*
X16741491Y-13736484D01*
X16922444Y-13926960D02*
X16903396Y-13936484D01*
X16903396Y-13936484D02*
X16865301Y-13936484D01*
X16865301Y-13936484D02*
X16846253Y-13926960D01*
X16846253Y-13926960D02*
X16836730Y-13907912D01*
X16836730Y-13907912D02*
X16836730Y-13831722D01*
X16836730Y-13831722D02*
X16846253Y-13812674D01*
X16846253Y-13812674D02*
X16865301Y-13803150D01*
X16865301Y-13803150D02*
X16903396Y-13803150D01*
X16903396Y-13803150D02*
X16922444Y-13812674D01*
X16922444Y-13812674D02*
X16931968Y-13831722D01*
X16931968Y-13831722D02*
X16931968Y-13850769D01*
X16931968Y-13850769D02*
X16836730Y-13869817D01*
X17008158Y-13926960D02*
X17027206Y-13936484D01*
X17027206Y-13936484D02*
X17065301Y-13936484D01*
X17065301Y-13936484D02*
X17084349Y-13926960D01*
X17084349Y-13926960D02*
X17093873Y-13907912D01*
X17093873Y-13907912D02*
X17093873Y-13898388D01*
X17093873Y-13898388D02*
X17084349Y-13879341D01*
X17084349Y-13879341D02*
X17065301Y-13869817D01*
X17065301Y-13869817D02*
X17036730Y-13869817D01*
X17036730Y-13869817D02*
X17017682Y-13860293D01*
X17017682Y-13860293D02*
X17008158Y-13841246D01*
X17008158Y-13841246D02*
X17008158Y-13831722D01*
X17008158Y-13831722D02*
X17017682Y-13812674D01*
X17017682Y-13812674D02*
X17036730Y-13803150D01*
X17036730Y-13803150D02*
X17065301Y-13803150D01*
X17065301Y-13803150D02*
X17084349Y-13812674D01*
X17160539Y-14012674D02*
X17170063Y-14003150D01*
X17170063Y-14003150D02*
X17189111Y-13974579D01*
X17189111Y-13974579D02*
X17198634Y-13955531D01*
X17198634Y-13955531D02*
X17208158Y-13926960D01*
X17208158Y-13926960D02*
X17217682Y-13879341D01*
X17217682Y-13879341D02*
X17217682Y-13841246D01*
X17217682Y-13841246D02*
X17208158Y-13793627D01*
X17208158Y-13793627D02*
X17198634Y-13765055D01*
X17198634Y-13765055D02*
X17189111Y-13746008D01*
X17189111Y-13746008D02*
X17170063Y-13717436D01*
X17170063Y-13717436D02*
X17160539Y-13707912D01*
D10*
X12195000Y-14109000D02*
G75*
G03*
X12195000Y-14109000I-40000J0D01*
G01*
D11*
X12493872Y-14000484D02*
X12512920Y-14000484D01*
X12512920Y-14000484D02*
X12531967Y-14010008D01*
X12531967Y-14010008D02*
X12541491Y-14019531D01*
X12541491Y-14019531D02*
X12551015Y-14038579D01*
X12551015Y-14038579D02*
X12560539Y-14076674D01*
X12560539Y-14076674D02*
X12560539Y-14124293D01*
X12560539Y-14124293D02*
X12551015Y-14162388D01*
X12551015Y-14162388D02*
X12541491Y-14181436D01*
X12541491Y-14181436D02*
X12531967Y-14190960D01*
X12531967Y-14190960D02*
X12512920Y-14200484D01*
X12512920Y-14200484D02*
X12493872Y-14200484D01*
X12493872Y-14200484D02*
X12474824Y-14190960D01*
X12474824Y-14190960D02*
X12465301Y-14181436D01*
X12465301Y-14181436D02*
X12455777Y-14162388D01*
X12455777Y-14162388D02*
X12446253Y-14124293D01*
X12446253Y-14124293D02*
X12446253Y-14076674D01*
X12446253Y-14076674D02*
X12455777Y-14038579D01*
X12455777Y-14038579D02*
X12465301Y-14019531D01*
X12465301Y-14019531D02*
X12474824Y-14010008D01*
X12474824Y-14010008D02*
X12493872Y-14000484D01*
X12646253Y-14181436D02*
X12655777Y-14190960D01*
X12655777Y-14190960D02*
X12646253Y-14200484D01*
X12646253Y-14200484D02*
X12636729Y-14190960D01*
X12636729Y-14190960D02*
X12646253Y-14181436D01*
X12646253Y-14181436D02*
X12646253Y-14200484D01*
X12770062Y-14086198D02*
X12751015Y-14076674D01*
X12751015Y-14076674D02*
X12741491Y-14067150D01*
X12741491Y-14067150D02*
X12731967Y-14048103D01*
X12731967Y-14048103D02*
X12731967Y-14038579D01*
X12731967Y-14038579D02*
X12741491Y-14019531D01*
X12741491Y-14019531D02*
X12751015Y-14010008D01*
X12751015Y-14010008D02*
X12770062Y-14000484D01*
X12770062Y-14000484D02*
X12808158Y-14000484D01*
X12808158Y-14000484D02*
X12827205Y-14010008D01*
X12827205Y-14010008D02*
X12836729Y-14019531D01*
X12836729Y-14019531D02*
X12846253Y-14038579D01*
X12846253Y-14038579D02*
X12846253Y-14048103D01*
X12846253Y-14048103D02*
X12836729Y-14067150D01*
X12836729Y-14067150D02*
X12827205Y-14076674D01*
X12827205Y-14076674D02*
X12808158Y-14086198D01*
X12808158Y-14086198D02*
X12770062Y-14086198D01*
X12770062Y-14086198D02*
X12751015Y-14095722D01*
X12751015Y-14095722D02*
X12741491Y-14105246D01*
X12741491Y-14105246D02*
X12731967Y-14124293D01*
X12731967Y-14124293D02*
X12731967Y-14162388D01*
X12731967Y-14162388D02*
X12741491Y-14181436D01*
X12741491Y-14181436D02*
X12751015Y-14190960D01*
X12751015Y-14190960D02*
X12770062Y-14200484D01*
X12770062Y-14200484D02*
X12808158Y-14200484D01*
X12808158Y-14200484D02*
X12827205Y-14190960D01*
X12827205Y-14190960D02*
X12836729Y-14181436D01*
X12836729Y-14181436D02*
X12846253Y-14162388D01*
X12846253Y-14162388D02*
X12846253Y-14124293D01*
X12846253Y-14124293D02*
X12836729Y-14105246D01*
X12836729Y-14105246D02*
X12827205Y-14095722D01*
X12827205Y-14095722D02*
X12808158Y-14086198D01*
X12970062Y-14000484D02*
X12989110Y-14000484D01*
X12989110Y-14000484D02*
X13008158Y-14010008D01*
X13008158Y-14010008D02*
X13017682Y-14019531D01*
X13017682Y-14019531D02*
X13027205Y-14038579D01*
X13027205Y-14038579D02*
X13036729Y-14076674D01*
X13036729Y-14076674D02*
X13036729Y-14124293D01*
X13036729Y-14124293D02*
X13027205Y-14162388D01*
X13027205Y-14162388D02*
X13017682Y-14181436D01*
X13017682Y-14181436D02*
X13008158Y-14190960D01*
X13008158Y-14190960D02*
X12989110Y-14200484D01*
X12989110Y-14200484D02*
X12970062Y-14200484D01*
X12970062Y-14200484D02*
X12951015Y-14190960D01*
X12951015Y-14190960D02*
X12941491Y-14181436D01*
X12941491Y-14181436D02*
X12931967Y-14162388D01*
X12931967Y-14162388D02*
X12922443Y-14124293D01*
X12922443Y-14124293D02*
X12922443Y-14076674D01*
X12922443Y-14076674D02*
X12931967Y-14038579D01*
X12931967Y-14038579D02*
X12941491Y-14019531D01*
X12941491Y-14019531D02*
X12951015Y-14010008D01*
X12951015Y-14010008D02*
X12970062Y-14000484D01*
X13160539Y-14000484D02*
X13179586Y-14000484D01*
X13179586Y-14000484D02*
X13198634Y-14010008D01*
X13198634Y-14010008D02*
X13208158Y-14019531D01*
X13208158Y-14019531D02*
X13217682Y-14038579D01*
X13217682Y-14038579D02*
X13227205Y-14076674D01*
X13227205Y-14076674D02*
X13227205Y-14124293D01*
X13227205Y-14124293D02*
X13217682Y-14162388D01*
X13217682Y-14162388D02*
X13208158Y-14181436D01*
X13208158Y-14181436D02*
X13198634Y-14190960D01*
X13198634Y-14190960D02*
X13179586Y-14200484D01*
X13179586Y-14200484D02*
X13160539Y-14200484D01*
X13160539Y-14200484D02*
X13141491Y-14190960D01*
X13141491Y-14190960D02*
X13131967Y-14181436D01*
X13131967Y-14181436D02*
X13122443Y-14162388D01*
X13122443Y-14162388D02*
X13112920Y-14124293D01*
X13112920Y-14124293D02*
X13112920Y-14076674D01*
X13112920Y-14076674D02*
X13122443Y-14038579D01*
X13122443Y-14038579D02*
X13131967Y-14019531D01*
X13131967Y-14019531D02*
X13141491Y-14010008D01*
X13141491Y-14010008D02*
X13160539Y-14000484D01*
X13312920Y-14200484D02*
X13312920Y-14067150D01*
X13312920Y-14086198D02*
X13322443Y-14076674D01*
X13322443Y-14076674D02*
X13341491Y-14067150D01*
X13341491Y-14067150D02*
X13370063Y-14067150D01*
X13370063Y-14067150D02*
X13389110Y-14076674D01*
X13389110Y-14076674D02*
X13398634Y-14095722D01*
X13398634Y-14095722D02*
X13398634Y-14200484D01*
X13398634Y-14095722D02*
X13408158Y-14076674D01*
X13408158Y-14076674D02*
X13427205Y-14067150D01*
X13427205Y-14067150D02*
X13455777Y-14067150D01*
X13455777Y-14067150D02*
X13474824Y-14076674D01*
X13474824Y-14076674D02*
X13484348Y-14095722D01*
X13484348Y-14095722D02*
X13484348Y-14200484D01*
X13579586Y-14200484D02*
X13579586Y-14067150D01*
X13579586Y-14086198D02*
X13589110Y-14076674D01*
X13589110Y-14076674D02*
X13608158Y-14067150D01*
X13608158Y-14067150D02*
X13636729Y-14067150D01*
X13636729Y-14067150D02*
X13655777Y-14076674D01*
X13655777Y-14076674D02*
X13665301Y-14095722D01*
X13665301Y-14095722D02*
X13665301Y-14200484D01*
X13665301Y-14095722D02*
X13674824Y-14076674D01*
X13674824Y-14076674D02*
X13693872Y-14067150D01*
X13693872Y-14067150D02*
X13722443Y-14067150D01*
X13722443Y-14067150D02*
X13741491Y-14076674D01*
X13741491Y-14076674D02*
X13751015Y-14095722D01*
X13751015Y-14095722D02*
X13751015Y-14200484D01*
X14141491Y-13990960D02*
X13970063Y-14248103D01*
X14398634Y-14000484D02*
X14417682Y-14000484D01*
X14417682Y-14000484D02*
X14436729Y-14010008D01*
X14436729Y-14010008D02*
X14446253Y-14019531D01*
X14446253Y-14019531D02*
X14455777Y-14038579D01*
X14455777Y-14038579D02*
X14465301Y-14076674D01*
X14465301Y-14076674D02*
X14465301Y-14124293D01*
X14465301Y-14124293D02*
X14455777Y-14162388D01*
X14455777Y-14162388D02*
X14446253Y-14181436D01*
X14446253Y-14181436D02*
X14436729Y-14190960D01*
X14436729Y-14190960D02*
X14417682Y-14200484D01*
X14417682Y-14200484D02*
X14398634Y-14200484D01*
X14398634Y-14200484D02*
X14379586Y-14190960D01*
X14379586Y-14190960D02*
X14370063Y-14181436D01*
X14370063Y-14181436D02*
X14360539Y-14162388D01*
X14360539Y-14162388D02*
X14351015Y-14124293D01*
X14351015Y-14124293D02*
X14351015Y-14076674D01*
X14351015Y-14076674D02*
X14360539Y-14038579D01*
X14360539Y-14038579D02*
X14370063Y-14019531D01*
X14370063Y-14019531D02*
X14379586Y-14010008D01*
X14379586Y-14010008D02*
X14398634Y-14000484D01*
X14551015Y-14181436D02*
X14560539Y-14190960D01*
X14560539Y-14190960D02*
X14551015Y-14200484D01*
X14551015Y-14200484D02*
X14541491Y-14190960D01*
X14541491Y-14190960D02*
X14551015Y-14181436D01*
X14551015Y-14181436D02*
X14551015Y-14200484D01*
X14684348Y-14000484D02*
X14703396Y-14000484D01*
X14703396Y-14000484D02*
X14722444Y-14010008D01*
X14722444Y-14010008D02*
X14731967Y-14019531D01*
X14731967Y-14019531D02*
X14741491Y-14038579D01*
X14741491Y-14038579D02*
X14751015Y-14076674D01*
X14751015Y-14076674D02*
X14751015Y-14124293D01*
X14751015Y-14124293D02*
X14741491Y-14162388D01*
X14741491Y-14162388D02*
X14731967Y-14181436D01*
X14731967Y-14181436D02*
X14722444Y-14190960D01*
X14722444Y-14190960D02*
X14703396Y-14200484D01*
X14703396Y-14200484D02*
X14684348Y-14200484D01*
X14684348Y-14200484D02*
X14665301Y-14190960D01*
X14665301Y-14190960D02*
X14655777Y-14181436D01*
X14655777Y-14181436D02*
X14646253Y-14162388D01*
X14646253Y-14162388D02*
X14636729Y-14124293D01*
X14636729Y-14124293D02*
X14636729Y-14076674D01*
X14636729Y-14076674D02*
X14646253Y-14038579D01*
X14646253Y-14038579D02*
X14655777Y-14019531D01*
X14655777Y-14019531D02*
X14665301Y-14010008D01*
X14665301Y-14010008D02*
X14684348Y-14000484D01*
X14817682Y-14000484D02*
X14941491Y-14000484D01*
X14941491Y-14000484D02*
X14874825Y-14076674D01*
X14874825Y-14076674D02*
X14903396Y-14076674D01*
X14903396Y-14076674D02*
X14922444Y-14086198D01*
X14922444Y-14086198D02*
X14931967Y-14095722D01*
X14931967Y-14095722D02*
X14941491Y-14114769D01*
X14941491Y-14114769D02*
X14941491Y-14162388D01*
X14941491Y-14162388D02*
X14931967Y-14181436D01*
X14931967Y-14181436D02*
X14922444Y-14190960D01*
X14922444Y-14190960D02*
X14903396Y-14200484D01*
X14903396Y-14200484D02*
X14846253Y-14200484D01*
X14846253Y-14200484D02*
X14827206Y-14190960D01*
X14827206Y-14190960D02*
X14817682Y-14181436D01*
X15131967Y-14200484D02*
X15017682Y-14200484D01*
X15074825Y-14200484D02*
X15074825Y-14000484D01*
X15074825Y-14000484D02*
X15055777Y-14029055D01*
X15055777Y-14029055D02*
X15036729Y-14048103D01*
X15036729Y-14048103D02*
X15017682Y-14057627D01*
X15312920Y-14000484D02*
X15217682Y-14000484D01*
X15217682Y-14000484D02*
X15208158Y-14095722D01*
X15208158Y-14095722D02*
X15217682Y-14086198D01*
X15217682Y-14086198D02*
X15236729Y-14076674D01*
X15236729Y-14076674D02*
X15284348Y-14076674D01*
X15284348Y-14076674D02*
X15303396Y-14086198D01*
X15303396Y-14086198D02*
X15312920Y-14095722D01*
X15312920Y-14095722D02*
X15322444Y-14114769D01*
X15322444Y-14114769D02*
X15322444Y-14162388D01*
X15322444Y-14162388D02*
X15312920Y-14181436D01*
X15312920Y-14181436D02*
X15303396Y-14190960D01*
X15303396Y-14190960D02*
X15284348Y-14200484D01*
X15284348Y-14200484D02*
X15236729Y-14200484D01*
X15236729Y-14200484D02*
X15217682Y-14190960D01*
X15217682Y-14190960D02*
X15208158Y-14181436D01*
X15398634Y-14000484D02*
X15398634Y-14038579D01*
X15474825Y-14000484D02*
X15474825Y-14038579D01*
X15770063Y-14276674D02*
X15760539Y-14267150D01*
X15760539Y-14267150D02*
X15741491Y-14238579D01*
X15741491Y-14238579D02*
X15731968Y-14219531D01*
X15731968Y-14219531D02*
X15722444Y-14190960D01*
X15722444Y-14190960D02*
X15712920Y-14143341D01*
X15712920Y-14143341D02*
X15712920Y-14105246D01*
X15712920Y-14105246D02*
X15722444Y-14057627D01*
X15722444Y-14057627D02*
X15731968Y-14029055D01*
X15731968Y-14029055D02*
X15741491Y-14010008D01*
X15741491Y-14010008D02*
X15760539Y-13981436D01*
X15760539Y-13981436D02*
X15770063Y-13971912D01*
X15836729Y-14019531D02*
X15846253Y-14010008D01*
X15846253Y-14010008D02*
X15865301Y-14000484D01*
X15865301Y-14000484D02*
X15912920Y-14000484D01*
X15912920Y-14000484D02*
X15931968Y-14010008D01*
X15931968Y-14010008D02*
X15941491Y-14019531D01*
X15941491Y-14019531D02*
X15951015Y-14038579D01*
X15951015Y-14038579D02*
X15951015Y-14057627D01*
X15951015Y-14057627D02*
X15941491Y-14086198D01*
X15941491Y-14086198D02*
X15827206Y-14200484D01*
X15827206Y-14200484D02*
X15951015Y-14200484D01*
X16189110Y-14200484D02*
X16189110Y-14000484D01*
X16274825Y-14200484D02*
X16274825Y-14095722D01*
X16274825Y-14095722D02*
X16265301Y-14076674D01*
X16265301Y-14076674D02*
X16246253Y-14067150D01*
X16246253Y-14067150D02*
X16217682Y-14067150D01*
X16217682Y-14067150D02*
X16198634Y-14076674D01*
X16198634Y-14076674D02*
X16189110Y-14086198D01*
X16398634Y-14200484D02*
X16379587Y-14190960D01*
X16379587Y-14190960D02*
X16370063Y-14181436D01*
X16370063Y-14181436D02*
X16360539Y-14162388D01*
X16360539Y-14162388D02*
X16360539Y-14105246D01*
X16360539Y-14105246D02*
X16370063Y-14086198D01*
X16370063Y-14086198D02*
X16379587Y-14076674D01*
X16379587Y-14076674D02*
X16398634Y-14067150D01*
X16398634Y-14067150D02*
X16427206Y-14067150D01*
X16427206Y-14067150D02*
X16446253Y-14076674D01*
X16446253Y-14076674D02*
X16455777Y-14086198D01*
X16455777Y-14086198D02*
X16465301Y-14105246D01*
X16465301Y-14105246D02*
X16465301Y-14162388D01*
X16465301Y-14162388D02*
X16455777Y-14181436D01*
X16455777Y-14181436D02*
X16446253Y-14190960D01*
X16446253Y-14190960D02*
X16427206Y-14200484D01*
X16427206Y-14200484D02*
X16398634Y-14200484D01*
X16579587Y-14200484D02*
X16560539Y-14190960D01*
X16560539Y-14190960D02*
X16551015Y-14171912D01*
X16551015Y-14171912D02*
X16551015Y-14000484D01*
X16731968Y-14190960D02*
X16712920Y-14200484D01*
X16712920Y-14200484D02*
X16674825Y-14200484D01*
X16674825Y-14200484D02*
X16655777Y-14190960D01*
X16655777Y-14190960D02*
X16646253Y-14171912D01*
X16646253Y-14171912D02*
X16646253Y-14095722D01*
X16646253Y-14095722D02*
X16655777Y-14076674D01*
X16655777Y-14076674D02*
X16674825Y-14067150D01*
X16674825Y-14067150D02*
X16712920Y-14067150D01*
X16712920Y-14067150D02*
X16731968Y-14076674D01*
X16731968Y-14076674D02*
X16741491Y-14095722D01*
X16741491Y-14095722D02*
X16741491Y-14114769D01*
X16741491Y-14114769D02*
X16646253Y-14133817D01*
X16817682Y-14190960D02*
X16836730Y-14200484D01*
X16836730Y-14200484D02*
X16874825Y-14200484D01*
X16874825Y-14200484D02*
X16893873Y-14190960D01*
X16893873Y-14190960D02*
X16903396Y-14171912D01*
X16903396Y-14171912D02*
X16903396Y-14162388D01*
X16903396Y-14162388D02*
X16893873Y-14143341D01*
X16893873Y-14143341D02*
X16874825Y-14133817D01*
X16874825Y-14133817D02*
X16846253Y-14133817D01*
X16846253Y-14133817D02*
X16827206Y-14124293D01*
X16827206Y-14124293D02*
X16817682Y-14105246D01*
X16817682Y-14105246D02*
X16817682Y-14095722D01*
X16817682Y-14095722D02*
X16827206Y-14076674D01*
X16827206Y-14076674D02*
X16846253Y-14067150D01*
X16846253Y-14067150D02*
X16874825Y-14067150D01*
X16874825Y-14067150D02*
X16893873Y-14076674D01*
X16970063Y-14276674D02*
X16979587Y-14267150D01*
X16979587Y-14267150D02*
X16998634Y-14238579D01*
X16998634Y-14238579D02*
X17008158Y-14219531D01*
X17008158Y-14219531D02*
X17017682Y-14190960D01*
X17017682Y-14190960D02*
X17027206Y-14143341D01*
X17027206Y-14143341D02*
X17027206Y-14105246D01*
X17027206Y-14105246D02*
X17017682Y-14057627D01*
X17017682Y-14057627D02*
X17008158Y-14029055D01*
X17008158Y-14029055D02*
X16998634Y-14010008D01*
X16998634Y-14010008D02*
X16979587Y-13981436D01*
X16979587Y-13981436D02*
X16970063Y-13971912D01*
D10*
X12145000Y-14323000D02*
X12145000Y-14423000D01*
X12095000Y-14373000D02*
X12195000Y-14373000D01*
D11*
X12560539Y-14464484D02*
X12446253Y-14464484D01*
X12503396Y-14464484D02*
X12503396Y-14264484D01*
X12503396Y-14264484D02*
X12484348Y-14293055D01*
X12484348Y-14293055D02*
X12465301Y-14312103D01*
X12465301Y-14312103D02*
X12446253Y-14321627D01*
X12646253Y-14445436D02*
X12655777Y-14454960D01*
X12655777Y-14454960D02*
X12646253Y-14464484D01*
X12646253Y-14464484D02*
X12636729Y-14454960D01*
X12636729Y-14454960D02*
X12646253Y-14445436D01*
X12646253Y-14445436D02*
X12646253Y-14464484D01*
X12779586Y-14264484D02*
X12798634Y-14264484D01*
X12798634Y-14264484D02*
X12817682Y-14274008D01*
X12817682Y-14274008D02*
X12827205Y-14283531D01*
X12827205Y-14283531D02*
X12836729Y-14302579D01*
X12836729Y-14302579D02*
X12846253Y-14340674D01*
X12846253Y-14340674D02*
X12846253Y-14388293D01*
X12846253Y-14388293D02*
X12836729Y-14426388D01*
X12836729Y-14426388D02*
X12827205Y-14445436D01*
X12827205Y-14445436D02*
X12817682Y-14454960D01*
X12817682Y-14454960D02*
X12798634Y-14464484D01*
X12798634Y-14464484D02*
X12779586Y-14464484D01*
X12779586Y-14464484D02*
X12760539Y-14454960D01*
X12760539Y-14454960D02*
X12751015Y-14445436D01*
X12751015Y-14445436D02*
X12741491Y-14426388D01*
X12741491Y-14426388D02*
X12731967Y-14388293D01*
X12731967Y-14388293D02*
X12731967Y-14340674D01*
X12731967Y-14340674D02*
X12741491Y-14302579D01*
X12741491Y-14302579D02*
X12751015Y-14283531D01*
X12751015Y-14283531D02*
X12760539Y-14274008D01*
X12760539Y-14274008D02*
X12779586Y-14264484D01*
X12970062Y-14264484D02*
X12989110Y-14264484D01*
X12989110Y-14264484D02*
X13008158Y-14274008D01*
X13008158Y-14274008D02*
X13017682Y-14283531D01*
X13017682Y-14283531D02*
X13027205Y-14302579D01*
X13027205Y-14302579D02*
X13036729Y-14340674D01*
X13036729Y-14340674D02*
X13036729Y-14388293D01*
X13036729Y-14388293D02*
X13027205Y-14426388D01*
X13027205Y-14426388D02*
X13017682Y-14445436D01*
X13017682Y-14445436D02*
X13008158Y-14454960D01*
X13008158Y-14454960D02*
X12989110Y-14464484D01*
X12989110Y-14464484D02*
X12970062Y-14464484D01*
X12970062Y-14464484D02*
X12951015Y-14454960D01*
X12951015Y-14454960D02*
X12941491Y-14445436D01*
X12941491Y-14445436D02*
X12931967Y-14426388D01*
X12931967Y-14426388D02*
X12922443Y-14388293D01*
X12922443Y-14388293D02*
X12922443Y-14340674D01*
X12922443Y-14340674D02*
X12931967Y-14302579D01*
X12931967Y-14302579D02*
X12941491Y-14283531D01*
X12941491Y-14283531D02*
X12951015Y-14274008D01*
X12951015Y-14274008D02*
X12970062Y-14264484D01*
X13160539Y-14264484D02*
X13179586Y-14264484D01*
X13179586Y-14264484D02*
X13198634Y-14274008D01*
X13198634Y-14274008D02*
X13208158Y-14283531D01*
X13208158Y-14283531D02*
X13217682Y-14302579D01*
X13217682Y-14302579D02*
X13227205Y-14340674D01*
X13227205Y-14340674D02*
X13227205Y-14388293D01*
X13227205Y-14388293D02*
X13217682Y-14426388D01*
X13217682Y-14426388D02*
X13208158Y-14445436D01*
X13208158Y-14445436D02*
X13198634Y-14454960D01*
X13198634Y-14454960D02*
X13179586Y-14464484D01*
X13179586Y-14464484D02*
X13160539Y-14464484D01*
X13160539Y-14464484D02*
X13141491Y-14454960D01*
X13141491Y-14454960D02*
X13131967Y-14445436D01*
X13131967Y-14445436D02*
X13122443Y-14426388D01*
X13122443Y-14426388D02*
X13112920Y-14388293D01*
X13112920Y-14388293D02*
X13112920Y-14340674D01*
X13112920Y-14340674D02*
X13122443Y-14302579D01*
X13122443Y-14302579D02*
X13131967Y-14283531D01*
X13131967Y-14283531D02*
X13141491Y-14274008D01*
X13141491Y-14274008D02*
X13160539Y-14264484D01*
X13312920Y-14464484D02*
X13312920Y-14331150D01*
X13312920Y-14350198D02*
X13322443Y-14340674D01*
X13322443Y-14340674D02*
X13341491Y-14331150D01*
X13341491Y-14331150D02*
X13370063Y-14331150D01*
X13370063Y-14331150D02*
X13389110Y-14340674D01*
X13389110Y-14340674D02*
X13398634Y-14359722D01*
X13398634Y-14359722D02*
X13398634Y-14464484D01*
X13398634Y-14359722D02*
X13408158Y-14340674D01*
X13408158Y-14340674D02*
X13427205Y-14331150D01*
X13427205Y-14331150D02*
X13455777Y-14331150D01*
X13455777Y-14331150D02*
X13474824Y-14340674D01*
X13474824Y-14340674D02*
X13484348Y-14359722D01*
X13484348Y-14359722D02*
X13484348Y-14464484D01*
X13579586Y-14464484D02*
X13579586Y-14331150D01*
X13579586Y-14350198D02*
X13589110Y-14340674D01*
X13589110Y-14340674D02*
X13608158Y-14331150D01*
X13608158Y-14331150D02*
X13636729Y-14331150D01*
X13636729Y-14331150D02*
X13655777Y-14340674D01*
X13655777Y-14340674D02*
X13665301Y-14359722D01*
X13665301Y-14359722D02*
X13665301Y-14464484D01*
X13665301Y-14359722D02*
X13674824Y-14340674D01*
X13674824Y-14340674D02*
X13693872Y-14331150D01*
X13693872Y-14331150D02*
X13722443Y-14331150D01*
X13722443Y-14331150D02*
X13741491Y-14340674D01*
X13741491Y-14340674D02*
X13751015Y-14359722D01*
X13751015Y-14359722D02*
X13751015Y-14464484D01*
X14141491Y-14254960D02*
X13970063Y-14512103D01*
X14398634Y-14264484D02*
X14417682Y-14264484D01*
X14417682Y-14264484D02*
X14436729Y-14274008D01*
X14436729Y-14274008D02*
X14446253Y-14283531D01*
X14446253Y-14283531D02*
X14455777Y-14302579D01*
X14455777Y-14302579D02*
X14465301Y-14340674D01*
X14465301Y-14340674D02*
X14465301Y-14388293D01*
X14465301Y-14388293D02*
X14455777Y-14426388D01*
X14455777Y-14426388D02*
X14446253Y-14445436D01*
X14446253Y-14445436D02*
X14436729Y-14454960D01*
X14436729Y-14454960D02*
X14417682Y-14464484D01*
X14417682Y-14464484D02*
X14398634Y-14464484D01*
X14398634Y-14464484D02*
X14379586Y-14454960D01*
X14379586Y-14454960D02*
X14370063Y-14445436D01*
X14370063Y-14445436D02*
X14360539Y-14426388D01*
X14360539Y-14426388D02*
X14351015Y-14388293D01*
X14351015Y-14388293D02*
X14351015Y-14340674D01*
X14351015Y-14340674D02*
X14360539Y-14302579D01*
X14360539Y-14302579D02*
X14370063Y-14283531D01*
X14370063Y-14283531D02*
X14379586Y-14274008D01*
X14379586Y-14274008D02*
X14398634Y-14264484D01*
X14551015Y-14445436D02*
X14560539Y-14454960D01*
X14560539Y-14454960D02*
X14551015Y-14464484D01*
X14551015Y-14464484D02*
X14541491Y-14454960D01*
X14541491Y-14454960D02*
X14551015Y-14445436D01*
X14551015Y-14445436D02*
X14551015Y-14464484D01*
X14684348Y-14264484D02*
X14703396Y-14264484D01*
X14703396Y-14264484D02*
X14722444Y-14274008D01*
X14722444Y-14274008D02*
X14731967Y-14283531D01*
X14731967Y-14283531D02*
X14741491Y-14302579D01*
X14741491Y-14302579D02*
X14751015Y-14340674D01*
X14751015Y-14340674D02*
X14751015Y-14388293D01*
X14751015Y-14388293D02*
X14741491Y-14426388D01*
X14741491Y-14426388D02*
X14731967Y-14445436D01*
X14731967Y-14445436D02*
X14722444Y-14454960D01*
X14722444Y-14454960D02*
X14703396Y-14464484D01*
X14703396Y-14464484D02*
X14684348Y-14464484D01*
X14684348Y-14464484D02*
X14665301Y-14454960D01*
X14665301Y-14454960D02*
X14655777Y-14445436D01*
X14655777Y-14445436D02*
X14646253Y-14426388D01*
X14646253Y-14426388D02*
X14636729Y-14388293D01*
X14636729Y-14388293D02*
X14636729Y-14340674D01*
X14636729Y-14340674D02*
X14646253Y-14302579D01*
X14646253Y-14302579D02*
X14655777Y-14283531D01*
X14655777Y-14283531D02*
X14665301Y-14274008D01*
X14665301Y-14274008D02*
X14684348Y-14264484D01*
X14817682Y-14264484D02*
X14941491Y-14264484D01*
X14941491Y-14264484D02*
X14874825Y-14340674D01*
X14874825Y-14340674D02*
X14903396Y-14340674D01*
X14903396Y-14340674D02*
X14922444Y-14350198D01*
X14922444Y-14350198D02*
X14931967Y-14359722D01*
X14931967Y-14359722D02*
X14941491Y-14378769D01*
X14941491Y-14378769D02*
X14941491Y-14426388D01*
X14941491Y-14426388D02*
X14931967Y-14445436D01*
X14931967Y-14445436D02*
X14922444Y-14454960D01*
X14922444Y-14454960D02*
X14903396Y-14464484D01*
X14903396Y-14464484D02*
X14846253Y-14464484D01*
X14846253Y-14464484D02*
X14827206Y-14454960D01*
X14827206Y-14454960D02*
X14817682Y-14445436D01*
X15036729Y-14464484D02*
X15074825Y-14464484D01*
X15074825Y-14464484D02*
X15093872Y-14454960D01*
X15093872Y-14454960D02*
X15103396Y-14445436D01*
X15103396Y-14445436D02*
X15122444Y-14416865D01*
X15122444Y-14416865D02*
X15131967Y-14378769D01*
X15131967Y-14378769D02*
X15131967Y-14302579D01*
X15131967Y-14302579D02*
X15122444Y-14283531D01*
X15122444Y-14283531D02*
X15112920Y-14274008D01*
X15112920Y-14274008D02*
X15093872Y-14264484D01*
X15093872Y-14264484D02*
X15055777Y-14264484D01*
X15055777Y-14264484D02*
X15036729Y-14274008D01*
X15036729Y-14274008D02*
X15027206Y-14283531D01*
X15027206Y-14283531D02*
X15017682Y-14302579D01*
X15017682Y-14302579D02*
X15017682Y-14350198D01*
X15017682Y-14350198D02*
X15027206Y-14369246D01*
X15027206Y-14369246D02*
X15036729Y-14378769D01*
X15036729Y-14378769D02*
X15055777Y-14388293D01*
X15055777Y-14388293D02*
X15093872Y-14388293D01*
X15093872Y-14388293D02*
X15112920Y-14378769D01*
X15112920Y-14378769D02*
X15122444Y-14369246D01*
X15122444Y-14369246D02*
X15131967Y-14350198D01*
X15303396Y-14331150D02*
X15303396Y-14464484D01*
X15255777Y-14254960D02*
X15208158Y-14397817D01*
X15208158Y-14397817D02*
X15331967Y-14397817D01*
X15398634Y-14264484D02*
X15398634Y-14302579D01*
X15474825Y-14264484D02*
X15474825Y-14302579D01*
X15770063Y-14540674D02*
X15760539Y-14531150D01*
X15760539Y-14531150D02*
X15741491Y-14502579D01*
X15741491Y-14502579D02*
X15731968Y-14483531D01*
X15731968Y-14483531D02*
X15722444Y-14454960D01*
X15722444Y-14454960D02*
X15712920Y-14407341D01*
X15712920Y-14407341D02*
X15712920Y-14369246D01*
X15712920Y-14369246D02*
X15722444Y-14321627D01*
X15722444Y-14321627D02*
X15731968Y-14293055D01*
X15731968Y-14293055D02*
X15741491Y-14274008D01*
X15741491Y-14274008D02*
X15760539Y-14245436D01*
X15760539Y-14245436D02*
X15770063Y-14235912D01*
X15941491Y-14264484D02*
X15846253Y-14264484D01*
X15846253Y-14264484D02*
X15836729Y-14359722D01*
X15836729Y-14359722D02*
X15846253Y-14350198D01*
X15846253Y-14350198D02*
X15865301Y-14340674D01*
X15865301Y-14340674D02*
X15912920Y-14340674D01*
X15912920Y-14340674D02*
X15931968Y-14350198D01*
X15931968Y-14350198D02*
X15941491Y-14359722D01*
X15941491Y-14359722D02*
X15951015Y-14378769D01*
X15951015Y-14378769D02*
X15951015Y-14426388D01*
X15951015Y-14426388D02*
X15941491Y-14445436D01*
X15941491Y-14445436D02*
X15931968Y-14454960D01*
X15931968Y-14454960D02*
X15912920Y-14464484D01*
X15912920Y-14464484D02*
X15865301Y-14464484D01*
X15865301Y-14464484D02*
X15846253Y-14454960D01*
X15846253Y-14454960D02*
X15836729Y-14445436D01*
X16074825Y-14264484D02*
X16093872Y-14264484D01*
X16093872Y-14264484D02*
X16112920Y-14274008D01*
X16112920Y-14274008D02*
X16122444Y-14283531D01*
X16122444Y-14283531D02*
X16131968Y-14302579D01*
X16131968Y-14302579D02*
X16141491Y-14340674D01*
X16141491Y-14340674D02*
X16141491Y-14388293D01*
X16141491Y-14388293D02*
X16131968Y-14426388D01*
X16131968Y-14426388D02*
X16122444Y-14445436D01*
X16122444Y-14445436D02*
X16112920Y-14454960D01*
X16112920Y-14454960D02*
X16093872Y-14464484D01*
X16093872Y-14464484D02*
X16074825Y-14464484D01*
X16074825Y-14464484D02*
X16055777Y-14454960D01*
X16055777Y-14454960D02*
X16046253Y-14445436D01*
X16046253Y-14445436D02*
X16036729Y-14426388D01*
X16036729Y-14426388D02*
X16027206Y-14388293D01*
X16027206Y-14388293D02*
X16027206Y-14340674D01*
X16027206Y-14340674D02*
X16036729Y-14302579D01*
X16036729Y-14302579D02*
X16046253Y-14283531D01*
X16046253Y-14283531D02*
X16055777Y-14274008D01*
X16055777Y-14274008D02*
X16074825Y-14264484D01*
X16379587Y-14464484D02*
X16379587Y-14264484D01*
X16465301Y-14464484D02*
X16465301Y-14359722D01*
X16465301Y-14359722D02*
X16455777Y-14340674D01*
X16455777Y-14340674D02*
X16436730Y-14331150D01*
X16436730Y-14331150D02*
X16408158Y-14331150D01*
X16408158Y-14331150D02*
X16389110Y-14340674D01*
X16389110Y-14340674D02*
X16379587Y-14350198D01*
X16589110Y-14464484D02*
X16570063Y-14454960D01*
X16570063Y-14454960D02*
X16560539Y-14445436D01*
X16560539Y-14445436D02*
X16551015Y-14426388D01*
X16551015Y-14426388D02*
X16551015Y-14369246D01*
X16551015Y-14369246D02*
X16560539Y-14350198D01*
X16560539Y-14350198D02*
X16570063Y-14340674D01*
X16570063Y-14340674D02*
X16589110Y-14331150D01*
X16589110Y-14331150D02*
X16617682Y-14331150D01*
X16617682Y-14331150D02*
X16636730Y-14340674D01*
X16636730Y-14340674D02*
X16646253Y-14350198D01*
X16646253Y-14350198D02*
X16655777Y-14369246D01*
X16655777Y-14369246D02*
X16655777Y-14426388D01*
X16655777Y-14426388D02*
X16646253Y-14445436D01*
X16646253Y-14445436D02*
X16636730Y-14454960D01*
X16636730Y-14454960D02*
X16617682Y-14464484D01*
X16617682Y-14464484D02*
X16589110Y-14464484D01*
X16770063Y-14464484D02*
X16751015Y-14454960D01*
X16751015Y-14454960D02*
X16741491Y-14435912D01*
X16741491Y-14435912D02*
X16741491Y-14264484D01*
X16922444Y-14454960D02*
X16903396Y-14464484D01*
X16903396Y-14464484D02*
X16865301Y-14464484D01*
X16865301Y-14464484D02*
X16846253Y-14454960D01*
X16846253Y-14454960D02*
X16836730Y-14435912D01*
X16836730Y-14435912D02*
X16836730Y-14359722D01*
X16836730Y-14359722D02*
X16846253Y-14340674D01*
X16846253Y-14340674D02*
X16865301Y-14331150D01*
X16865301Y-14331150D02*
X16903396Y-14331150D01*
X16903396Y-14331150D02*
X16922444Y-14340674D01*
X16922444Y-14340674D02*
X16931968Y-14359722D01*
X16931968Y-14359722D02*
X16931968Y-14378769D01*
X16931968Y-14378769D02*
X16836730Y-14397817D01*
X17008158Y-14454960D02*
X17027206Y-14464484D01*
X17027206Y-14464484D02*
X17065301Y-14464484D01*
X17065301Y-14464484D02*
X17084349Y-14454960D01*
X17084349Y-14454960D02*
X17093873Y-14435912D01*
X17093873Y-14435912D02*
X17093873Y-14426388D01*
X17093873Y-14426388D02*
X17084349Y-14407341D01*
X17084349Y-14407341D02*
X17065301Y-14397817D01*
X17065301Y-14397817D02*
X17036730Y-14397817D01*
X17036730Y-14397817D02*
X17017682Y-14388293D01*
X17017682Y-14388293D02*
X17008158Y-14369246D01*
X17008158Y-14369246D02*
X17008158Y-14359722D01*
X17008158Y-14359722D02*
X17017682Y-14340674D01*
X17017682Y-14340674D02*
X17036730Y-14331150D01*
X17036730Y-14331150D02*
X17065301Y-14331150D01*
X17065301Y-14331150D02*
X17084349Y-14340674D01*
X17160539Y-14540674D02*
X17170063Y-14531150D01*
X17170063Y-14531150D02*
X17189111Y-14502579D01*
X17189111Y-14502579D02*
X17198634Y-14483531D01*
X17198634Y-14483531D02*
X17208158Y-14454960D01*
X17208158Y-14454960D02*
X17217682Y-14407341D01*
X17217682Y-14407341D02*
X17217682Y-14369246D01*
X17217682Y-14369246D02*
X17208158Y-14321627D01*
X17208158Y-14321627D02*
X17198634Y-14293055D01*
X17198634Y-14293055D02*
X17189111Y-14274008D01*
X17189111Y-14274008D02*
X17170063Y-14245436D01*
X17170063Y-14245436D02*
X17160539Y-14235912D01*
M02*
