%TF.GenerationSoftware,KiCad,Pcbnew,7.0.9*%
%TF.CreationDate,2024-03-24T12:36:59+01:00*%
%TF.ProjectId,PowerPiNano,506f7765-7250-4694-9e61-6e6f2e6b6963,rev?*%
%TF.SameCoordinates,Original*%
%TF.FileFunction,Soldermask,Top*%
%TF.FilePolarity,Negative*%
%FSLAX46Y46*%
G04 Gerber Fmt 4.6, Leading zero omitted, Abs format (unit mm)*
G04 Created by KiCad (PCBNEW 7.0.9) date 2024-03-24 12:36:59*
%MOMM*%
%LPD*%
G01*
G04 APERTURE LIST*
G04 Aperture macros list*
%AMRoundRect*
0 Rectangle with rounded corners*
0 $1 Rounding radius*
0 $2 $3 $4 $5 $6 $7 $8 $9 X,Y pos of 4 corners*
0 Add a 4 corners polygon primitive as box body*
4,1,4,$2,$3,$4,$5,$6,$7,$8,$9,$2,$3,0*
0 Add four circle primitives for the rounded corners*
1,1,$1+$1,$2,$3*
1,1,$1+$1,$4,$5*
1,1,$1+$1,$6,$7*
1,1,$1+$1,$8,$9*
0 Add four rect primitives between the rounded corners*
20,1,$1+$1,$2,$3,$4,$5,0*
20,1,$1+$1,$4,$5,$6,$7,0*
20,1,$1+$1,$6,$7,$8,$9,0*
20,1,$1+$1,$8,$9,$2,$3,0*%
%AMRotRect*
0 Rectangle, with rotation*
0 The origin of the aperture is its center*
0 $1 length*
0 $2 width*
0 $3 Rotation angle, in degrees counterclockwise*
0 Add horizontal line*
21,1,$1,$2,0,0,$3*%
G04 Aperture macros list end*
%ADD10RoundRect,0.250000X0.475000X-0.250000X0.475000X0.250000X-0.475000X0.250000X-0.475000X-0.250000X0*%
%ADD11RoundRect,0.250000X-0.550000X1.050000X-0.550000X-1.050000X0.550000X-1.050000X0.550000X1.050000X0*%
%ADD12RoundRect,0.150000X-0.587500X-0.150000X0.587500X-0.150000X0.587500X0.150000X-0.587500X0.150000X0*%
%ADD13C,0.900000*%
%ADD14R,0.500000X2.500000*%
%ADD15R,2.000000X2.500000*%
%ADD16RoundRect,0.050000X-0.238649X-0.309359X0.309359X0.238649X0.238649X0.309359X-0.309359X-0.238649X0*%
%ADD17RoundRect,0.050000X0.238649X-0.309359X0.309359X-0.238649X-0.238649X0.309359X-0.309359X0.238649X0*%
%ADD18RotRect,3.200000X3.200000X45.000000*%
%ADD19RoundRect,0.250000X0.250000X0.475000X-0.250000X0.475000X-0.250000X-0.475000X0.250000X-0.475000X0*%
%ADD20C,1.000000*%
%ADD21RoundRect,0.218750X-0.218750X-0.256250X0.218750X-0.256250X0.218750X0.256250X-0.218750X0.256250X0*%
%ADD22R,1.800000X1.500000*%
%ADD23R,1.700000X0.650000*%
%ADD24RoundRect,0.250000X-0.475000X0.250000X-0.475000X-0.250000X0.475000X-0.250000X0.475000X0.250000X0*%
%ADD25R,1.500000X1.800000*%
%ADD26R,1.600000X1.400000*%
%ADD27RoundRect,0.218750X0.218750X0.256250X-0.218750X0.256250X-0.218750X-0.256250X0.218750X-0.256250X0*%
%ADD28R,1.700000X1.700000*%
%ADD29O,1.700000X1.700000*%
%ADD30C,1.500000*%
%ADD31RoundRect,0.250000X-0.250000X-0.475000X0.250000X-0.475000X0.250000X0.475000X-0.250000X0.475000X0*%
%ADD32RoundRect,0.150000X-0.150000X0.875000X-0.150000X-0.875000X0.150000X-0.875000X0.150000X0.875000X0*%
%ADD33R,1.500000X2.000000*%
%ADD34R,3.800000X2.000000*%
G04 APERTURE END LIST*
D10*
%TO.C,C12*%
X150625000Y-113850000D03*
X150625000Y-115750000D03*
%TD*%
D11*
%TO.C,C11*%
X154600000Y-113900000D03*
X154600000Y-117500000D03*
%TD*%
D12*
%TO.C,Q4*%
X163362500Y-106750000D03*
X163362500Y-108650000D03*
X165237500Y-107700000D03*
%TD*%
D13*
%TO.C,J2*%
X150740000Y-85170000D03*
X146340000Y-85170000D03*
D14*
X150140000Y-88270000D03*
X149340000Y-88270000D03*
X148540000Y-88270000D03*
X147740000Y-88270000D03*
X146940000Y-88270000D03*
D15*
X152970000Y-87770000D03*
X152970000Y-82270000D03*
X144070000Y-87770000D03*
X144070000Y-82270000D03*
%TD*%
D16*
%TO.C,U1*%
X139862214Y-102592202D03*
X140145057Y-102875045D03*
X140427899Y-103157887D03*
X140710742Y-103440730D03*
X140993585Y-103723573D03*
X141276427Y-104006415D03*
X141559270Y-104289258D03*
X141842113Y-104572101D03*
X142124956Y-104854944D03*
X142407798Y-105137786D03*
X142690641Y-105420629D03*
X142973484Y-105703472D03*
X143256326Y-105986314D03*
X143539169Y-106269157D03*
D17*
X144723573Y-106269157D03*
X145006416Y-105986314D03*
X145289258Y-105703472D03*
X145572101Y-105420629D03*
X145854944Y-105137786D03*
X146137786Y-104854944D03*
X146420629Y-104572101D03*
X146703472Y-104289258D03*
X146986315Y-104006415D03*
X147269157Y-103723573D03*
X147552000Y-103440730D03*
X147834843Y-103157887D03*
X148117685Y-102875045D03*
X148400528Y-102592202D03*
D16*
X148400528Y-101407798D03*
X148117685Y-101124955D03*
X147834843Y-100842113D03*
X147552000Y-100559270D03*
X147269157Y-100276427D03*
X146986315Y-99993585D03*
X146703472Y-99710742D03*
X146420629Y-99427899D03*
X146137786Y-99145056D03*
X145854944Y-98862214D03*
X145572101Y-98579371D03*
X145289258Y-98296528D03*
X145006416Y-98013686D03*
X144723573Y-97730843D03*
D17*
X143539169Y-97730843D03*
X143256326Y-98013686D03*
X142973484Y-98296528D03*
X142690641Y-98579371D03*
X142407798Y-98862214D03*
X142124956Y-99145056D03*
X141842113Y-99427899D03*
X141559270Y-99710742D03*
X141276427Y-99993585D03*
X140993585Y-100276427D03*
X140710742Y-100559270D03*
X140427899Y-100842113D03*
X140145057Y-101124955D03*
X139862214Y-101407798D03*
D18*
X144131371Y-102000000D03*
%TD*%
D12*
%TO.C,Q6*%
X163362500Y-94950000D03*
X163362500Y-96850000D03*
X165237500Y-95900000D03*
%TD*%
D19*
%TO.C,C4*%
X140300000Y-97300000D03*
X138400000Y-97300000D03*
%TD*%
D20*
%TO.C,TP3*%
X149300000Y-92700000D03*
%TD*%
D21*
%TO.C,D1*%
X163545629Y-128147500D03*
X165120629Y-128147500D03*
%TD*%
D10*
%TO.C,C1*%
X157109887Y-106312742D03*
X157109887Y-104412742D03*
%TD*%
D22*
%TO.C,R12*%
X167500000Y-109647500D03*
X167500000Y-106647500D03*
%TD*%
D23*
%TO.C,U2*%
X140450000Y-113395000D03*
X140450000Y-114665000D03*
X140450000Y-115935000D03*
X140450000Y-117205000D03*
X147750000Y-117205000D03*
X147750000Y-115935000D03*
X147750000Y-114665000D03*
X147750000Y-113395000D03*
%TD*%
D22*
%TO.C,R13*%
X161100000Y-103747500D03*
X161100000Y-100747500D03*
%TD*%
%TO.C,R15*%
X167500000Y-103747500D03*
X167500000Y-100747500D03*
%TD*%
%TO.C,R2*%
X143100000Y-91587258D03*
X143100000Y-94587258D03*
%TD*%
%TO.C,R19*%
X167500000Y-91885000D03*
X167500000Y-88885000D03*
%TD*%
%TO.C,R23*%
X133800000Y-121400000D03*
X133800000Y-124400000D03*
%TD*%
%TO.C,R17*%
X167500000Y-97847500D03*
X167500000Y-94847500D03*
%TD*%
%TO.C,R20*%
X161100000Y-85900000D03*
X161100000Y-82900000D03*
%TD*%
D24*
%TO.C,C2*%
X157109887Y-96362742D03*
X157109887Y-98262742D03*
%TD*%
D25*
%TO.C,R4*%
X137900000Y-99500000D03*
X134900000Y-99500000D03*
%TD*%
%TO.C,R1*%
X154620629Y-93950000D03*
X151620629Y-93950000D03*
%TD*%
D24*
%TO.C,C7*%
X137320629Y-113797500D03*
X137320629Y-115697500D03*
%TD*%
D26*
%TO.C,SW1*%
X152540000Y-127050000D03*
X144540000Y-127050000D03*
X152540000Y-122550000D03*
X144540000Y-122550000D03*
%TD*%
D27*
%TO.C,D9*%
X137987500Y-123500000D03*
X136412500Y-123500000D03*
%TD*%
D20*
%TO.C,TP2*%
X133920629Y-91600000D03*
%TD*%
D22*
%TO.C,R7*%
X161100000Y-121547500D03*
X161100000Y-118547500D03*
%TD*%
D28*
%TO.C,J3*%
X130624956Y-91245056D03*
D29*
X130624956Y-93785056D03*
X130624956Y-96325056D03*
X130624956Y-98865056D03*
X130624956Y-101405056D03*
X130624956Y-103945056D03*
%TD*%
D30*
%TO.C,Y1*%
X153120629Y-99000000D03*
X153120629Y-103880000D03*
%TD*%
D21*
%TO.C,D2*%
X163545629Y-122247500D03*
X165120629Y-122247500D03*
%TD*%
D22*
%TO.C,R10*%
X167500000Y-115547500D03*
X167500000Y-112547500D03*
%TD*%
D12*
%TO.C,Q3*%
X163362500Y-112650000D03*
X163362500Y-114550000D03*
X165237500Y-113600000D03*
%TD*%
%TO.C,Q7*%
X163362500Y-89050000D03*
X163362500Y-90950000D03*
X165237500Y-90000000D03*
%TD*%
D31*
%TO.C,C3*%
X147050000Y-107100000D03*
X148950000Y-107100000D03*
%TD*%
D19*
%TO.C,C9*%
X136800000Y-97300000D03*
X134900000Y-97300000D03*
%TD*%
D22*
%TO.C,R5*%
X137320629Y-120547500D03*
X137320629Y-117547500D03*
%TD*%
%TO.C,R9*%
X161100000Y-115547500D03*
X161100000Y-112547500D03*
%TD*%
%TO.C,R8*%
X167500000Y-121547500D03*
X167500000Y-118547500D03*
%TD*%
D25*
%TO.C,R22*%
X151700000Y-91500000D03*
X154700000Y-91500000D03*
%TD*%
D22*
%TO.C,R3*%
X145600000Y-91587258D03*
X145600000Y-94587258D03*
%TD*%
%TO.C,R18*%
X161090000Y-91900000D03*
X161090000Y-88900000D03*
%TD*%
D21*
%TO.C,D6*%
X163545629Y-98547500D03*
X165120629Y-98547500D03*
%TD*%
D12*
%TO.C,Q1*%
X163362500Y-124550000D03*
X163362500Y-126450000D03*
X165237500Y-125500000D03*
%TD*%
D22*
%TO.C,R14*%
X167500000Y-127447500D03*
X167500000Y-124447500D03*
%TD*%
D12*
%TO.C,Q5*%
X163362500Y-100850000D03*
X163362500Y-102750000D03*
X165237500Y-101800000D03*
%TD*%
D22*
%TO.C,R6*%
X161100000Y-127447500D03*
X161100000Y-124447500D03*
%TD*%
%TO.C,R16*%
X161100000Y-97847500D03*
X161100000Y-94847500D03*
%TD*%
D21*
%TO.C,D8*%
X163545629Y-86647500D03*
X165120629Y-86647500D03*
%TD*%
D31*
%TO.C,C8*%
X147570629Y-95700000D03*
X149470629Y-95700000D03*
%TD*%
D20*
%TO.C,TP1*%
X152540629Y-109700000D03*
%TD*%
D22*
%TO.C,R11*%
X161100000Y-109647500D03*
X161100000Y-106647500D03*
%TD*%
D32*
%TO.C,U4*%
X148545000Y-110650000D03*
X147275000Y-110650000D03*
X146005000Y-110650000D03*
X144735000Y-110650000D03*
X143465000Y-110650000D03*
X142195000Y-110650000D03*
X140925000Y-110650000D03*
X139655000Y-110650000D03*
X139655000Y-119950000D03*
X140925000Y-119950000D03*
X142195000Y-119950000D03*
X143465000Y-119950000D03*
X144735000Y-119950000D03*
X146005000Y-119950000D03*
X147275000Y-119950000D03*
X148545000Y-119950000D03*
%TD*%
D21*
%TO.C,D4*%
X163545629Y-110347500D03*
X165120629Y-110347500D03*
%TD*%
D31*
%TO.C,C6*%
X138400000Y-95200000D03*
X140300000Y-95200000D03*
%TD*%
D21*
%TO.C,D7*%
X163545629Y-92585000D03*
X165120629Y-92585000D03*
%TD*%
%TO.C,D3*%
X163545629Y-116247500D03*
X165120629Y-116247500D03*
%TD*%
D22*
%TO.C,R21*%
X167500000Y-85900000D03*
X167500000Y-82900000D03*
%TD*%
D33*
%TO.C,U3*%
X136681371Y-88110000D03*
X138981371Y-88110000D03*
D34*
X138981371Y-81810000D03*
D33*
X141281371Y-88110000D03*
%TD*%
D31*
%TO.C,C5*%
X134900000Y-95200000D03*
X136800000Y-95200000D03*
%TD*%
D12*
%TO.C,Q2*%
X163362500Y-118650000D03*
X163362500Y-120550000D03*
X165237500Y-119600000D03*
%TD*%
D28*
%TO.C,J6*%
X130620629Y-110947500D03*
D29*
X130620629Y-113487500D03*
X130620629Y-116027500D03*
X130620629Y-118567500D03*
X130620629Y-121107500D03*
X130620629Y-123647500D03*
%TD*%
D21*
%TO.C,D5*%
X163545629Y-104447500D03*
X165120629Y-104447500D03*
%TD*%
D12*
%TO.C,Q8*%
X163362500Y-83150000D03*
X163362500Y-85050000D03*
X165237500Y-84100000D03*
%TD*%
D28*
%TO.C,J1*%
X147276371Y-130100000D03*
D29*
X149816371Y-130100000D03*
%TD*%
D11*
%TO.C,C10*%
X132875000Y-83175000D03*
X132875000Y-86775000D03*
%TD*%
D28*
%TO.C,J4*%
X172671371Y-128000000D03*
D29*
X172671371Y-125460000D03*
X172671371Y-122920000D03*
X172671371Y-120380000D03*
X172671371Y-117840000D03*
X172671371Y-115300000D03*
X172671371Y-112760000D03*
X172671371Y-110220000D03*
X172671371Y-107680000D03*
X172671371Y-105140000D03*
X172671371Y-102600000D03*
X172671371Y-100060000D03*
X172671371Y-97520000D03*
X172671371Y-94980000D03*
X172671371Y-92440000D03*
X172671371Y-89900000D03*
X172671371Y-87360000D03*
X172671371Y-84820000D03*
%TD*%
D28*
%TO.C,J5*%
X124411371Y-128000000D03*
D29*
X124411371Y-125460000D03*
X124411371Y-122920000D03*
X124411371Y-120380000D03*
X124411371Y-117840000D03*
X124411371Y-115300000D03*
X124411371Y-112760000D03*
X124411371Y-110220000D03*
X124411371Y-107680000D03*
X124411371Y-105140000D03*
X124411371Y-102600000D03*
X124411371Y-100060000D03*
X124411371Y-97520000D03*
X124411371Y-94980000D03*
X124411371Y-92440000D03*
X124411371Y-89900000D03*
X124411371Y-87360000D03*
X124411371Y-84820000D03*
%TD*%
M02*
