%TF.GenerationSoftware,KiCad,Pcbnew,7.0.9*%
%TF.CreationDate,2024-03-24T12:36:59+01:00*%
%TF.ProjectId,PowerPiNano,506f7765-7250-4694-9e61-6e6f2e6b6963,rev?*%
%TF.SameCoordinates,Original*%
%TF.FileFunction,Copper,L2,Bot*%
%TF.FilePolarity,Positive*%
%FSLAX46Y46*%
G04 Gerber Fmt 4.6, Leading zero omitted, Abs format (unit mm)*
G04 Created by KiCad (PCBNEW 7.0.9) date 2024-03-24 12:36:59*
%MOMM*%
%LPD*%
G01*
G04 APERTURE LIST*
%TA.AperFunction,ComponentPad*%
%ADD10R,1.700000X1.700000*%
%TD*%
%TA.AperFunction,ComponentPad*%
%ADD11O,1.700000X1.700000*%
%TD*%
%TA.AperFunction,ComponentPad*%
%ADD12C,1.500000*%
%TD*%
%TA.AperFunction,ViaPad*%
%ADD13C,0.800000*%
%TD*%
%TA.AperFunction,Conductor*%
%ADD14C,0.200000*%
%TD*%
%TA.AperFunction,Conductor*%
%ADD15C,0.250000*%
%TD*%
G04 APERTURE END LIST*
D10*
%TO.P,J3,1,Pin_1*%
%TO.N,+3V3*%
X130624956Y-91245056D03*
D11*
%TO.P,J3,2,Pin_2*%
%TO.N,GPIO0*%
X130624956Y-93785056D03*
%TO.P,J3,3,Pin_3*%
%TO.N,GPIO1*%
X130624956Y-96325056D03*
%TO.P,J3,4,Pin_4*%
%TO.N,GPIO2*%
X130624956Y-98865056D03*
%TO.P,J3,5,Pin_5*%
%TO.N,GPIO3*%
X130624956Y-101405056D03*
%TO.P,J3,6,Pin_6*%
%TO.N,GND*%
X130624956Y-103945056D03*
%TD*%
D12*
%TO.P,Y1,1,1*%
%TO.N,Net-(C2-Pad2)*%
X153120629Y-99000000D03*
%TO.P,Y1,2,2*%
%TO.N,Net-(U1-XIN)*%
X153120629Y-103880000D03*
%TD*%
D10*
%TO.P,J6,1,Pin_1*%
%TO.N,+3V3*%
X130620629Y-110947500D03*
D11*
%TO.P,J6,2,Pin_2*%
%TO.N,GPIO4*%
X130620629Y-113487500D03*
%TO.P,J6,3,Pin_3*%
%TO.N,GPIO5*%
X130620629Y-116027500D03*
%TO.P,J6,4,Pin_4*%
%TO.N,GPIO6*%
X130620629Y-118567500D03*
%TO.P,J6,5,Pin_5*%
%TO.N,GPIO7*%
X130620629Y-121107500D03*
%TO.P,J6,6,Pin_6*%
%TO.N,GND*%
X130620629Y-123647500D03*
%TD*%
D10*
%TO.P,J1,1,Pin_1*%
%TO.N,/SWDIO*%
X147276371Y-130100000D03*
D11*
%TO.P,J1,2,Pin_2*%
%TO.N,/SWCLK*%
X149816371Y-130100000D03*
%TD*%
D10*
%TO.P,J4,1,Pin_1*%
%TO.N,GND*%
X172671371Y-128000000D03*
D11*
%TO.P,J4,2,Pin_2*%
%TO.N,GPIO15*%
X172671371Y-125460000D03*
%TO.P,J4,3,Pin_3*%
%TO.N,GPIO16*%
X172671371Y-122920000D03*
%TO.P,J4,4,Pin_4*%
%TO.N,GPIO17*%
X172671371Y-120380000D03*
%TO.P,J4,5,Pin_5*%
%TO.N,OUT18*%
X172671371Y-117840000D03*
%TO.P,J4,6,Pin_6*%
%TO.N,OUT19*%
X172671371Y-115300000D03*
%TO.P,J4,7,Pin_7*%
%TO.N,OUT20*%
X172671371Y-112760000D03*
%TO.P,J4,8,Pin_8*%
%TO.N,OUT21*%
X172671371Y-110220000D03*
%TO.P,J4,9,Pin_9*%
%TO.N,OUT22*%
X172671371Y-107680000D03*
%TO.P,J4,10,Pin_10*%
%TO.N,OUT23*%
X172671371Y-105140000D03*
%TO.P,J4,11,Pin_11*%
%TO.N,OUT24*%
X172671371Y-102600000D03*
%TO.P,J4,12,Pin_12*%
%TO.N,OUT25*%
X172671371Y-100060000D03*
%TO.P,J4,13,Pin_13*%
%TO.N,GPIO26_ADC0*%
X172671371Y-97520000D03*
%TO.P,J4,14,Pin_14*%
%TO.N,GPIO27_ADC1*%
X172671371Y-94980000D03*
%TO.P,J4,15,Pin_15*%
%TO.N,GPIO28_ADC2*%
X172671371Y-92440000D03*
%TO.P,J4,16,Pin_16*%
%TO.N,GPIO29_ADC3*%
X172671371Y-89900000D03*
%TO.P,J4,17,Pin_17*%
%TO.N,+3V3*%
X172671371Y-87360000D03*
%TO.P,J4,18,Pin_18*%
%TO.N,RUN*%
X172671371Y-84820000D03*
%TD*%
D10*
%TO.P,J5,1,Pin_1*%
%TO.N,GND*%
X124411371Y-128000000D03*
D11*
%TO.P,J5,2,Pin_2*%
%TO.N,GPIO14*%
X124411371Y-125460000D03*
%TO.P,J5,3,Pin_3*%
%TO.N,GPIO13*%
X124411371Y-122920000D03*
%TO.P,J5,4,Pin_4*%
%TO.N,GPIO12*%
X124411371Y-120380000D03*
%TO.P,J5,5,Pin_5*%
%TO.N,GPIO11*%
X124411371Y-117840000D03*
%TO.P,J5,6,Pin_6*%
%TO.N,GPIO10*%
X124411371Y-115300000D03*
%TO.P,J5,7,Pin_7*%
%TO.N,GPIO9*%
X124411371Y-112760000D03*
%TO.P,J5,8,Pin_8*%
%TO.N,GPIO8*%
X124411371Y-110220000D03*
%TO.P,J5,9,Pin_9*%
%TO.N,GPIO7*%
X124411371Y-107680000D03*
%TO.P,J5,10,Pin_10*%
%TO.N,GPIO6*%
X124411371Y-105140000D03*
%TO.P,J5,11,Pin_11*%
%TO.N,GPIO5*%
X124411371Y-102600000D03*
%TO.P,J5,12,Pin_12*%
%TO.N,GPIO4*%
X124411371Y-100060000D03*
%TO.P,J5,13,Pin_13*%
%TO.N,GPIO3*%
X124411371Y-97520000D03*
%TO.P,J5,14,Pin_14*%
%TO.N,GPIO2*%
X124411371Y-94980000D03*
%TO.P,J5,15,Pin_15*%
%TO.N,GPIO1*%
X124411371Y-92440000D03*
%TO.P,J5,16,Pin_16*%
%TO.N,GPIO0*%
X124411371Y-89900000D03*
%TO.P,J5,17,Pin_17*%
%TO.N,+3V3*%
X124411371Y-87360000D03*
%TO.P,J5,18,Pin_18*%
%TO.N,V_EXT*%
X124411371Y-84820000D03*
%TD*%
D13*
%TO.N,GND*%
X139200500Y-95194709D03*
X144731371Y-101400000D03*
X163347500Y-101866871D03*
X144731371Y-102600000D03*
X163337500Y-84100000D03*
X143531371Y-101400000D03*
X137300000Y-114897000D03*
X148889692Y-97289692D03*
X134900000Y-96200000D03*
X157100000Y-107500000D03*
X163385000Y-90066871D03*
X144131371Y-103200000D03*
X142920629Y-102000000D03*
X163347500Y-113666871D03*
X134700000Y-88110000D03*
X148600000Y-127050000D03*
X146000000Y-88000000D03*
X163347500Y-125566871D03*
X139200000Y-123500000D03*
X157844622Y-95044622D03*
X151400000Y-87700000D03*
X163362500Y-119664500D03*
X145331371Y-102000000D03*
X144220629Y-100700000D03*
X143700000Y-117400000D03*
X143531371Y-102600000D03*
X163347500Y-95966871D03*
X152935686Y-115864314D03*
X145770000Y-82270000D03*
X144131371Y-102000000D03*
X151400000Y-82200000D03*
X163347500Y-107766871D03*
%TO.N,Net-(U1-XIN)*%
X147492878Y-105779180D03*
%TO.N,/+1V1*%
X146600000Y-102800000D03*
X140701356Y-98700000D03*
X143670845Y-99129157D03*
%TO.N,+3V3*%
X144100000Y-97400000D03*
X141500000Y-93100000D03*
%TO.N,/SWDIO*%
X150927384Y-107006755D03*
%TO.N,/SWCLK*%
X150178982Y-106257647D03*
%TO.N,Net-(U1-XOUT)*%
X145315589Y-103926346D03*
X153120629Y-94000000D03*
%TO.N,QSPI_SS*%
X138599500Y-101444622D03*
X142100000Y-113300000D03*
X137320629Y-119047500D03*
%TO.N,GPIO8*%
X134999500Y-107300000D03*
%TO.N,GPIO9*%
X135000214Y-108299502D03*
%TO.N,GPIO10*%
X134999947Y-109299004D03*
%TO.N,GPIO11*%
X135000013Y-110298506D03*
%TO.N,GPIO12*%
X134999997Y-111298008D03*
%TO.N,GPIO13*%
X135000001Y-112297510D03*
%TO.N,GPIO14*%
X135000000Y-113297012D03*
%TO.N,GPIO15*%
X147699500Y-108700000D03*
%TO.N,GPIO16*%
X154177407Y-107822593D03*
%TO.N,GPIO17*%
X155167005Y-108246505D03*
%TO.N,GPIO22*%
X161000000Y-102300000D03*
X151000000Y-99400000D03*
%TO.N,GPIO25*%
X161100000Y-84400000D03*
X157600000Y-89200500D03*
%TO.N,GPIO26_ADC0*%
X147894268Y-97199481D03*
%TO.N,GPIO27_ADC1*%
X146900000Y-97000000D03*
%TO.N,GPIO28_ADC2*%
X145955057Y-96580724D03*
%TO.N,GPIO29_ADC3*%
X144973558Y-95984314D03*
%TO.N,QSPI_SD3*%
X142628595Y-100107453D03*
X146300000Y-114600000D03*
%TO.N,QSPI_SCLK*%
X146200000Y-115900000D03*
X141787738Y-101071810D03*
%TO.N,QSPI_SD0*%
X144120129Y-104900000D03*
X146200000Y-117200000D03*
%TO.N,QSPI_SD2*%
X142000000Y-115900000D03*
X139899123Y-99310037D03*
%TO.N,QSPI_SD1*%
X139350903Y-100227068D03*
X142000000Y-114700000D03*
%TO.N,Net-(C2-Pad2)*%
X156000000Y-94000000D03*
%TO.N,RUN*%
X169700000Y-82900000D03*
X147484912Y-101950829D03*
X155200000Y-89000000D03*
X151059961Y-96059962D03*
%TD*%
D14*
%TO.N,Net-(U1-XIN)*%
X147492878Y-105779180D02*
X149392058Y-103880000D01*
X149392058Y-103880000D02*
X153120629Y-103880000D01*
%TO.N,/+1V1*%
X146600000Y-102800000D02*
X146600000Y-101700000D01*
X146600000Y-101700000D02*
X144029157Y-99129157D01*
X140701356Y-98700000D02*
X141801356Y-97600000D01*
X141801356Y-97600000D02*
X142220629Y-97600000D01*
X146600000Y-102800000D02*
X146700000Y-102800000D01*
X143670845Y-99050216D02*
X143670845Y-99129157D01*
X142220629Y-97600000D02*
X143670845Y-99050216D01*
X144029157Y-99129157D02*
X143670845Y-99129157D01*
%TO.N,+3V3*%
X144100000Y-96100000D02*
X141500000Y-93500000D01*
X141500000Y-93500000D02*
X141500000Y-93100000D01*
X144100000Y-97400000D02*
X144100000Y-96100000D01*
%TO.N,/SWDIO*%
X148746371Y-131570000D02*
X147276371Y-130100000D01*
X150441371Y-131570000D02*
X148746371Y-131570000D01*
X151281371Y-130730000D02*
X150441371Y-131570000D01*
X151281371Y-107360742D02*
X151281371Y-130730000D01*
X150927384Y-107006755D02*
X151281371Y-107360742D01*
%TO.N,/SWCLK*%
X150220629Y-129695742D02*
X149816371Y-130100000D01*
X150178982Y-106257647D02*
X150220629Y-106299294D01*
X150220629Y-106299294D02*
X150220629Y-129695742D01*
%TO.N,Net-(U1-XOUT)*%
X146973654Y-103926346D02*
X150300000Y-100600000D01*
X153120629Y-96289421D02*
X153120629Y-94000000D01*
X150300000Y-100600000D02*
X150300000Y-99110050D01*
X145315589Y-103926346D02*
X146973654Y-103926346D01*
X150300000Y-99110050D02*
X153120629Y-96289421D01*
D15*
%TO.N,QSPI_SS*%
X137320629Y-119047500D02*
X139398434Y-119047500D01*
X138599500Y-101444622D02*
X140720629Y-103565751D01*
X140720629Y-111920629D02*
X142100000Y-113300000D01*
X142300305Y-116625000D02*
X142725000Y-116200305D01*
X140720629Y-103565751D02*
X140720629Y-111920629D01*
X142725000Y-116200305D02*
X142725000Y-113925000D01*
X142725000Y-113925000D02*
X142100000Y-113300000D01*
X141820934Y-116625000D02*
X142300305Y-116625000D01*
X139398434Y-119047500D02*
X141820934Y-116625000D01*
D14*
%TO.N,GPIO8*%
X127731371Y-106900000D02*
X124411371Y-110220000D01*
X134599500Y-106900000D02*
X127731371Y-106900000D01*
X134999500Y-107300000D02*
X134599500Y-106900000D01*
%TO.N,GPIO9*%
X134000712Y-107300000D02*
X129000000Y-107300000D01*
X124940000Y-112760000D02*
X124411371Y-112760000D01*
X129000000Y-107300000D02*
X125900000Y-110400000D01*
X125900000Y-110400000D02*
X125900000Y-111800000D01*
X135000214Y-108299502D02*
X134000712Y-107300000D01*
X125900000Y-111800000D02*
X124940000Y-112760000D01*
%TO.N,GPIO10*%
X126300000Y-113411371D02*
X124411371Y-115300000D01*
X126300000Y-110565686D02*
X126300000Y-113411371D01*
X134999947Y-109299004D02*
X133400943Y-107700000D01*
X129165686Y-107700000D02*
X126300000Y-110565686D01*
X133400943Y-107700000D02*
X129165686Y-107700000D01*
%TO.N,GPIO11*%
X135000013Y-110298506D02*
X132801507Y-108100000D01*
X132801507Y-108100000D02*
X129331372Y-108100000D01*
X126700000Y-115551371D02*
X124411371Y-117840000D01*
X129331372Y-108100000D02*
X126700000Y-110731372D01*
X126700000Y-110731372D02*
X126700000Y-115551371D01*
%TO.N,GPIO12*%
X127100000Y-117691371D02*
X124411371Y-120380000D01*
X127100000Y-110897058D02*
X127100000Y-117691371D01*
X134999997Y-111298008D02*
X132201989Y-108500000D01*
X132201989Y-108500000D02*
X129497058Y-108500000D01*
X129497058Y-108500000D02*
X127100000Y-110897058D01*
%TO.N,GPIO13*%
X127500000Y-111062744D02*
X127500000Y-119831371D01*
X135000001Y-112297510D02*
X131602491Y-108900000D01*
X127500000Y-119831371D02*
X124411371Y-122920000D01*
X129662744Y-108900000D02*
X127500000Y-111062744D01*
X131602491Y-108900000D02*
X129662744Y-108900000D01*
%TO.N,GPIO14*%
X133500000Y-111797012D02*
X133500000Y-111363195D01*
X131436805Y-109300000D02*
X129968129Y-109300000D01*
X127900000Y-121971371D02*
X124411371Y-125460000D01*
X135000000Y-113297012D02*
X133500000Y-111797012D01*
X127900000Y-111368129D02*
X127900000Y-121971371D01*
X129968129Y-109300000D02*
X127900000Y-111368129D01*
X133500000Y-111363195D02*
X131436805Y-109300000D01*
%TO.N,GPIO15*%
X170825570Y-125460000D02*
X172671371Y-125460000D01*
X147699500Y-108700000D02*
X148900000Y-108700000D01*
X149478982Y-105967697D02*
X149889032Y-105557647D01*
X150923217Y-105557647D02*
X170825570Y-125460000D01*
X149889032Y-105557647D02*
X150923217Y-105557647D01*
X149478982Y-108121018D02*
X149478982Y-105967697D01*
X148900000Y-108700000D02*
X149478982Y-108121018D01*
%TO.N,GPIO16*%
X154177407Y-107822593D02*
X154177407Y-108246151D01*
X168851256Y-122920000D02*
X172671371Y-122920000D01*
X154177407Y-108246151D02*
X168851256Y-122920000D01*
%TO.N,GPIO17*%
X155167005Y-108246505D02*
X167300500Y-120380000D01*
X167300500Y-120380000D02*
X172671371Y-120380000D01*
%TO.N,GPIO22*%
X152400000Y-100800000D02*
X157400000Y-100800000D01*
X158900000Y-102300000D02*
X161000000Y-102300000D01*
X151000000Y-99400000D02*
X152400000Y-100800000D01*
X157400000Y-100800000D02*
X158900000Y-102300000D01*
%TO.N,GPIO25*%
X157600000Y-87900000D02*
X161100000Y-84400000D01*
X157600000Y-89200500D02*
X157600000Y-87900000D01*
%TO.N,GPIO26_ADC0*%
X168151371Y-93000000D02*
X172671371Y-97520000D01*
X147894268Y-97199481D02*
X152093749Y-93000000D01*
X152093749Y-93000000D02*
X168151371Y-93000000D01*
%TO.N,GPIO27_ADC1*%
X150925731Y-92600000D02*
X170291371Y-92600000D01*
X146900000Y-97000000D02*
X146900000Y-96625731D01*
X170291371Y-92600000D02*
X172671371Y-94980000D01*
X146900000Y-96625731D02*
X150925731Y-92600000D01*
%TO.N,GPIO28_ADC2*%
X150694356Y-92200000D02*
X172431371Y-92200000D01*
X145955057Y-96580724D02*
X146313632Y-96580724D01*
X146313632Y-96580724D02*
X150694356Y-92200000D01*
X172431371Y-92200000D02*
X172671371Y-92440000D01*
%TO.N,GPIO29_ADC3*%
X146447446Y-95881224D02*
X152328670Y-90000000D01*
X159623609Y-89366871D02*
X172138242Y-89366871D01*
X144973558Y-95984314D02*
X145076648Y-95881224D01*
X145076648Y-95881224D02*
X146447446Y-95881224D01*
X172138242Y-89366871D02*
X172671371Y-89900000D01*
X152328670Y-90000000D02*
X158990480Y-90000000D01*
X158990480Y-90000000D02*
X159623609Y-89366871D01*
%TO.N,QSPI_SD3*%
X141900000Y-101949498D02*
X141900000Y-110200000D01*
X142628595Y-100107453D02*
X142500000Y-100236048D01*
X141900000Y-110200000D02*
X146300000Y-114600000D01*
X142628595Y-100107453D02*
X142679597Y-100056451D01*
X142500000Y-101349498D02*
X141900000Y-101949498D01*
X142500000Y-100236048D02*
X142500000Y-101349498D01*
X142628595Y-100107453D02*
X142671321Y-100064727D01*
%TO.N,QSPI_SCLK*%
X141500000Y-101359548D02*
X141500000Y-110841258D01*
X141320629Y-111020629D02*
X141500000Y-111200000D01*
X141787738Y-101071810D02*
X141500000Y-101359548D01*
X141320629Y-111020629D02*
X141400000Y-111100000D01*
X141400000Y-111100000D02*
X146200000Y-115900000D01*
X141500000Y-110841258D02*
X141320629Y-111020629D01*
X141400000Y-111100000D02*
X141500000Y-111200000D01*
%TO.N,QSPI_SD0*%
X144120129Y-104900000D02*
X147000000Y-107779871D01*
X147000000Y-109100500D02*
X147000000Y-116400000D01*
X147000000Y-107779871D02*
X147000000Y-109300000D01*
X147000000Y-116400000D02*
X146200000Y-117200000D01*
%TO.N,QSPI_SD2*%
X138389963Y-99310037D02*
X137500000Y-100200000D01*
X139899123Y-99310037D02*
X138389963Y-99310037D01*
X137500000Y-111400000D02*
X142000000Y-115900000D01*
X137500000Y-100200000D02*
X137500000Y-111400000D01*
%TO.N,QSPI_SD1*%
X138772932Y-100227068D02*
X137900000Y-101100000D01*
X137900000Y-101100000D02*
X137900000Y-110600000D01*
X139350903Y-100227068D02*
X138772932Y-100227068D01*
X137900000Y-110600000D02*
X142000000Y-114700000D01*
%TO.N,Net-(C2-Pad2)*%
X153120629Y-97579371D02*
X156000000Y-94700000D01*
X156000000Y-94700000D02*
X156000000Y-94000000D01*
X153120629Y-99000000D02*
X153120629Y-97579371D01*
%TO.N,RUN*%
X155200000Y-89000000D02*
X161300000Y-82900000D01*
X161300000Y-82900000D02*
X169700000Y-82900000D01*
X147484912Y-100926973D02*
X151059961Y-97351924D01*
X151059961Y-97351924D02*
X151059961Y-96059962D01*
X147484912Y-101950829D02*
X147484912Y-100926973D01*
%TD*%
%TA.AperFunction,Conductor*%
%TO.N,GND*%
G36*
X172001735Y-79300598D02*
G01*
X172142940Y-79308527D01*
X172298780Y-79317279D01*
X172305670Y-79318055D01*
X172554372Y-79360311D01*
X172597257Y-79367598D01*
X172604041Y-79369146D01*
X172888242Y-79451023D01*
X172894809Y-79453322D01*
X173031428Y-79509911D01*
X173168060Y-79566505D01*
X173174309Y-79569515D01*
X173343444Y-79662992D01*
X173433170Y-79712582D01*
X173439062Y-79716284D01*
X173680268Y-79887429D01*
X173685708Y-79891767D01*
X173906236Y-80088843D01*
X173911156Y-80093763D01*
X174108232Y-80314291D01*
X174112570Y-80319731D01*
X174283715Y-80560937D01*
X174287417Y-80566829D01*
X174430480Y-80825682D01*
X174433499Y-80831951D01*
X174546677Y-81105190D01*
X174548976Y-81111757D01*
X174630853Y-81395958D01*
X174632401Y-81402742D01*
X174681942Y-81694315D01*
X174682721Y-81701229D01*
X174699402Y-81998264D01*
X174699500Y-82001741D01*
X174699500Y-128998258D01*
X174699402Y-129001735D01*
X174682721Y-129298770D01*
X174681942Y-129305684D01*
X174632401Y-129597257D01*
X174630853Y-129604041D01*
X174548976Y-129888242D01*
X174546677Y-129894809D01*
X174433499Y-130168048D01*
X174430480Y-130174317D01*
X174287417Y-130433170D01*
X174283715Y-130439062D01*
X174112570Y-130680268D01*
X174108232Y-130685708D01*
X173911156Y-130906236D01*
X173906236Y-130911156D01*
X173685708Y-131108232D01*
X173680268Y-131112570D01*
X173439062Y-131283715D01*
X173433170Y-131287417D01*
X173174317Y-131430480D01*
X173168048Y-131433499D01*
X172894809Y-131546677D01*
X172888242Y-131548976D01*
X172604041Y-131630853D01*
X172597257Y-131632401D01*
X172305684Y-131681942D01*
X172298770Y-131682721D01*
X172001735Y-131699402D01*
X171998258Y-131699500D01*
X151036204Y-131699500D01*
X150969165Y-131679815D01*
X150923410Y-131627011D01*
X150913466Y-131557853D01*
X150942491Y-131494297D01*
X150948523Y-131487819D01*
X151186526Y-131249815D01*
X151449430Y-130986910D01*
X151455903Y-130981279D01*
X151465595Y-130973959D01*
X151465599Y-130973958D01*
X151497830Y-130938600D01*
X151499738Y-130936602D01*
X151513545Y-130922797D01*
X151515055Y-130920592D01*
X151520394Y-130913851D01*
X151527336Y-130906236D01*
X151541287Y-130890933D01*
X151543787Y-130884478D01*
X151557120Y-130859182D01*
X151561027Y-130853481D01*
X151568128Y-130823285D01*
X151570663Y-130815101D01*
X151581871Y-130786173D01*
X151581871Y-130779248D01*
X151585166Y-130750855D01*
X151586749Y-130744123D01*
X151586750Y-130744119D01*
X151582466Y-130713408D01*
X151581871Y-130704833D01*
X151581871Y-107423580D01*
X151582466Y-107415004D01*
X151584142Y-107402981D01*
X151584144Y-107402977D01*
X151581937Y-107355232D01*
X151581871Y-107352369D01*
X151581871Y-107332901D01*
X151581870Y-107332895D01*
X151581380Y-107330275D01*
X151580387Y-107321722D01*
X151579383Y-107299998D01*
X151578956Y-107290750D01*
X151576159Y-107284417D01*
X151567703Y-107257110D01*
X151566432Y-107250309D01*
X151550107Y-107223944D01*
X151546106Y-107216354D01*
X151533577Y-107187977D01*
X151533576Y-107187976D01*
X151528935Y-107177464D01*
X151532952Y-107175690D01*
X151518334Y-107131130D01*
X151519333Y-107111061D01*
X151533066Y-107006755D01*
X151517934Y-106891818D01*
X151528699Y-106822787D01*
X151575079Y-106770531D01*
X151642348Y-106751645D01*
X151709148Y-106772125D01*
X151728553Y-106787954D01*
X161169706Y-116229108D01*
X170568651Y-125628053D01*
X170574293Y-125634537D01*
X170581609Y-125644224D01*
X170581610Y-125644225D01*
X170581612Y-125644228D01*
X170605420Y-125665932D01*
X170616934Y-125676429D01*
X170618982Y-125678384D01*
X170632773Y-125692175D01*
X170634233Y-125693175D01*
X170634989Y-125693693D01*
X170641728Y-125699031D01*
X170664633Y-125719913D01*
X170664635Y-125719914D01*
X170664637Y-125719916D01*
X170671093Y-125722417D01*
X170696377Y-125735743D01*
X170702090Y-125739657D01*
X170716784Y-125743112D01*
X170732268Y-125746755D01*
X170740481Y-125749298D01*
X170769396Y-125760500D01*
X170769397Y-125760500D01*
X170776323Y-125760500D01*
X170804711Y-125763793D01*
X170811452Y-125765379D01*
X170842164Y-125761094D01*
X170850738Y-125760500D01*
X171572792Y-125760500D01*
X171639831Y-125780185D01*
X171685586Y-125832989D01*
X171691452Y-125848503D01*
X171696139Y-125863954D01*
X171793686Y-126046450D01*
X171793688Y-126046452D01*
X171924960Y-126206410D01*
X172021580Y-126285702D01*
X172084921Y-126337685D01*
X172232638Y-126416642D01*
X172282482Y-126465605D01*
X172297942Y-126533743D01*
X172274110Y-126599422D01*
X172218552Y-126641791D01*
X172174184Y-126650000D01*
X171773526Y-126650000D01*
X171713998Y-126656401D01*
X171713991Y-126656403D01*
X171579284Y-126706645D01*
X171579277Y-126706649D01*
X171464183Y-126792809D01*
X171464180Y-126792812D01*
X171378020Y-126907906D01*
X171378016Y-126907913D01*
X171327774Y-127042620D01*
X171327772Y-127042627D01*
X171321371Y-127102155D01*
X171321371Y-127750000D01*
X172237685Y-127750000D01*
X172211878Y-127790156D01*
X172171371Y-127928111D01*
X172171371Y-128071889D01*
X172211878Y-128209844D01*
X172237685Y-128250000D01*
X171321371Y-128250000D01*
X171321371Y-128897844D01*
X171327772Y-128957372D01*
X171327774Y-128957379D01*
X171378016Y-129092086D01*
X171378020Y-129092093D01*
X171464180Y-129207187D01*
X171464183Y-129207190D01*
X171579277Y-129293350D01*
X171579284Y-129293354D01*
X171713991Y-129343596D01*
X171713998Y-129343598D01*
X171773526Y-129349999D01*
X171773543Y-129350000D01*
X172421371Y-129350000D01*
X172421371Y-128435501D01*
X172529056Y-128484680D01*
X172635608Y-128500000D01*
X172707134Y-128500000D01*
X172813686Y-128484680D01*
X172921371Y-128435501D01*
X172921371Y-129350000D01*
X173569199Y-129350000D01*
X173569215Y-129349999D01*
X173628743Y-129343598D01*
X173628750Y-129343596D01*
X173763457Y-129293354D01*
X173763464Y-129293350D01*
X173878558Y-129207190D01*
X173878561Y-129207187D01*
X173964721Y-129092093D01*
X173964725Y-129092086D01*
X174014967Y-128957379D01*
X174014969Y-128957372D01*
X174021370Y-128897844D01*
X174021371Y-128897827D01*
X174021371Y-128250000D01*
X173105057Y-128250000D01*
X173130864Y-128209844D01*
X173171371Y-128071889D01*
X173171371Y-127928111D01*
X173130864Y-127790156D01*
X173105057Y-127750000D01*
X174021371Y-127750000D01*
X174021371Y-127102172D01*
X174021370Y-127102155D01*
X174014969Y-127042627D01*
X174014967Y-127042620D01*
X173964725Y-126907913D01*
X173964721Y-126907906D01*
X173878561Y-126792812D01*
X173878558Y-126792809D01*
X173763464Y-126706649D01*
X173763457Y-126706645D01*
X173628750Y-126656403D01*
X173628743Y-126656401D01*
X173569215Y-126650000D01*
X173168558Y-126650000D01*
X173101519Y-126630315D01*
X173055764Y-126577511D01*
X173045820Y-126508353D01*
X173074845Y-126444797D01*
X173110104Y-126416642D01*
X173257821Y-126337685D01*
X173417781Y-126206410D01*
X173549056Y-126046450D01*
X173646603Y-125863954D01*
X173706671Y-125665934D01*
X173726954Y-125460000D01*
X173706671Y-125254066D01*
X173646603Y-125056046D01*
X173549056Y-124873550D01*
X173497073Y-124810209D01*
X173417781Y-124713589D01*
X173257823Y-124582317D01*
X173257824Y-124582317D01*
X173257821Y-124582315D01*
X173075325Y-124484768D01*
X172877305Y-124424700D01*
X172877303Y-124424699D01*
X172877305Y-124424699D01*
X172671371Y-124404417D01*
X172465438Y-124424699D01*
X172267414Y-124484769D01*
X172157269Y-124543643D01*
X172084921Y-124582315D01*
X172084919Y-124582316D01*
X172084918Y-124582317D01*
X171924960Y-124713589D01*
X171793688Y-124873547D01*
X171696140Y-125056043D01*
X171696139Y-125056046D01*
X171691452Y-125071497D01*
X171653154Y-125129935D01*
X171589341Y-125158391D01*
X171572792Y-125159500D01*
X171001403Y-125159500D01*
X170934364Y-125139815D01*
X170913722Y-125123181D01*
X169222722Y-123432181D01*
X169189237Y-123370858D01*
X169194221Y-123301166D01*
X169236093Y-123245233D01*
X169301557Y-123220816D01*
X169310403Y-123220500D01*
X171572792Y-123220500D01*
X171639831Y-123240185D01*
X171685586Y-123292989D01*
X171691452Y-123308503D01*
X171696139Y-123323954D01*
X171793686Y-123506450D01*
X171793688Y-123506452D01*
X171924960Y-123666410D01*
X171989516Y-123719389D01*
X172084921Y-123797685D01*
X172267417Y-123895232D01*
X172465437Y-123955300D01*
X172465436Y-123955300D01*
X172483900Y-123957118D01*
X172671371Y-123975583D01*
X172877305Y-123955300D01*
X173075325Y-123895232D01*
X173257821Y-123797685D01*
X173417781Y-123666410D01*
X173549056Y-123506450D01*
X173646603Y-123323954D01*
X173706671Y-123125934D01*
X173726954Y-122920000D01*
X173706671Y-122714066D01*
X173646603Y-122516046D01*
X173549056Y-122333550D01*
X173462676Y-122228295D01*
X173417781Y-122173589D01*
X173279954Y-122060479D01*
X173257821Y-122042315D01*
X173086077Y-121950515D01*
X173075327Y-121944769D01*
X173075326Y-121944768D01*
X173075325Y-121944768D01*
X172877305Y-121884700D01*
X172877303Y-121884699D01*
X172877305Y-121884699D01*
X172671371Y-121864417D01*
X172465438Y-121884699D01*
X172267414Y-121944769D01*
X172157269Y-122003643D01*
X172084921Y-122042315D01*
X172084919Y-122042316D01*
X172084918Y-122042317D01*
X171924960Y-122173589D01*
X171799492Y-122326475D01*
X171793686Y-122333550D01*
X171755014Y-122405898D01*
X171696140Y-122516043D01*
X171696139Y-122516046D01*
X171691452Y-122531497D01*
X171653154Y-122589935D01*
X171589341Y-122618391D01*
X171572792Y-122619500D01*
X169027089Y-122619500D01*
X168960050Y-122599815D01*
X168939408Y-122583181D01*
X167248408Y-120892181D01*
X167214923Y-120830858D01*
X167219907Y-120761166D01*
X167261779Y-120705233D01*
X167327243Y-120680816D01*
X167336089Y-120680500D01*
X171572792Y-120680500D01*
X171639831Y-120700185D01*
X171685586Y-120752989D01*
X171691452Y-120768503D01*
X171696139Y-120783954D01*
X171793686Y-120966450D01*
X171793688Y-120966452D01*
X171924960Y-121126410D01*
X172021580Y-121205702D01*
X172084921Y-121257685D01*
X172267417Y-121355232D01*
X172465437Y-121415300D01*
X172465436Y-121415300D01*
X172483900Y-121417118D01*
X172671371Y-121435583D01*
X172877305Y-121415300D01*
X173075325Y-121355232D01*
X173257821Y-121257685D01*
X173417781Y-121126410D01*
X173549056Y-120966450D01*
X173646603Y-120783954D01*
X173706671Y-120585934D01*
X173726954Y-120380000D01*
X173706671Y-120174066D01*
X173646603Y-119976046D01*
X173549056Y-119793550D01*
X173497073Y-119730209D01*
X173417781Y-119633589D01*
X173257823Y-119502317D01*
X173257824Y-119502317D01*
X173257821Y-119502315D01*
X173075325Y-119404768D01*
X172877305Y-119344700D01*
X172877303Y-119344699D01*
X172877305Y-119344699D01*
X172671371Y-119324417D01*
X172465438Y-119344699D01*
X172267414Y-119404769D01*
X172157269Y-119463643D01*
X172084921Y-119502315D01*
X172084919Y-119502316D01*
X172084918Y-119502317D01*
X171924960Y-119633589D01*
X171793688Y-119793547D01*
X171793686Y-119793550D01*
X171755014Y-119865898D01*
X171696140Y-119976043D01*
X171696139Y-119976046D01*
X171691452Y-119991497D01*
X171653154Y-120049935D01*
X171589341Y-120078391D01*
X171572792Y-120079500D01*
X167476333Y-120079500D01*
X167409294Y-120059815D01*
X167388652Y-120043181D01*
X165185471Y-117840000D01*
X171615788Y-117840000D01*
X171636070Y-118045932D01*
X171636071Y-118045934D01*
X171696139Y-118243954D01*
X171793686Y-118426450D01*
X171793688Y-118426452D01*
X171924960Y-118586410D01*
X171964939Y-118619219D01*
X172084921Y-118717685D01*
X172267417Y-118815232D01*
X172465437Y-118875300D01*
X172465436Y-118875300D01*
X172483900Y-118877118D01*
X172671371Y-118895583D01*
X172877305Y-118875300D01*
X173075325Y-118815232D01*
X173257821Y-118717685D01*
X173417781Y-118586410D01*
X173549056Y-118426450D01*
X173646603Y-118243954D01*
X173706671Y-118045934D01*
X173726954Y-117840000D01*
X173706671Y-117634066D01*
X173646603Y-117436046D01*
X173549056Y-117253550D01*
X173497073Y-117190209D01*
X173417781Y-117093589D01*
X173257823Y-116962317D01*
X173257824Y-116962317D01*
X173257821Y-116962315D01*
X173075325Y-116864768D01*
X172877305Y-116804700D01*
X172877303Y-116804699D01*
X172877305Y-116804699D01*
X172671371Y-116784417D01*
X172465438Y-116804699D01*
X172267414Y-116864769D01*
X172157269Y-116923643D01*
X172084921Y-116962315D01*
X172084919Y-116962316D01*
X172084918Y-116962317D01*
X171924960Y-117093589D01*
X171793688Y-117253547D01*
X171793686Y-117253550D01*
X171755014Y-117325898D01*
X171696140Y-117436043D01*
X171636070Y-117634067D01*
X171615788Y-117840000D01*
X165185471Y-117840000D01*
X162645471Y-115300000D01*
X171615788Y-115300000D01*
X171636070Y-115505932D01*
X171636071Y-115505934D01*
X171696139Y-115703954D01*
X171793686Y-115886450D01*
X171804806Y-115900000D01*
X171924960Y-116046410D01*
X172021580Y-116125702D01*
X172084921Y-116177685D01*
X172267417Y-116275232D01*
X172465437Y-116335300D01*
X172465436Y-116335300D01*
X172483900Y-116337118D01*
X172671371Y-116355583D01*
X172877305Y-116335300D01*
X173075325Y-116275232D01*
X173257821Y-116177685D01*
X173417781Y-116046410D01*
X173549056Y-115886450D01*
X173646603Y-115703954D01*
X173706671Y-115505934D01*
X173726954Y-115300000D01*
X173706671Y-115094066D01*
X173646603Y-114896046D01*
X173549056Y-114713550D01*
X173497073Y-114650209D01*
X173417781Y-114553589D01*
X173257823Y-114422317D01*
X173257824Y-114422317D01*
X173257821Y-114422315D01*
X173075325Y-114324768D01*
X172877305Y-114264700D01*
X172877303Y-114264699D01*
X172877305Y-114264699D01*
X172671371Y-114244417D01*
X172465438Y-114264699D01*
X172267414Y-114324769D01*
X172157269Y-114383643D01*
X172084921Y-114422315D01*
X172084919Y-114422316D01*
X172084918Y-114422317D01*
X171924960Y-114553589D01*
X171804806Y-114700000D01*
X171793686Y-114713550D01*
X171770589Y-114756762D01*
X171696140Y-114896043D01*
X171636070Y-115094067D01*
X171615788Y-115300000D01*
X162645471Y-115300000D01*
X160105471Y-112760000D01*
X171615788Y-112760000D01*
X171636070Y-112965932D01*
X171636071Y-112965934D01*
X171696139Y-113163954D01*
X171793686Y-113346450D01*
X171793688Y-113346452D01*
X171924960Y-113506410D01*
X172016732Y-113581724D01*
X172084921Y-113637685D01*
X172267417Y-113735232D01*
X172465437Y-113795300D01*
X172465436Y-113795300D01*
X172483900Y-113797118D01*
X172671371Y-113815583D01*
X172877305Y-113795300D01*
X173075325Y-113735232D01*
X173257821Y-113637685D01*
X173417781Y-113506410D01*
X173549056Y-113346450D01*
X173646603Y-113163954D01*
X173706671Y-112965934D01*
X173726954Y-112760000D01*
X173706671Y-112554066D01*
X173646603Y-112356046D01*
X173549056Y-112173550D01*
X173483328Y-112093460D01*
X173417781Y-112013589D01*
X173288442Y-111907445D01*
X173257821Y-111882315D01*
X173087925Y-111791502D01*
X173075327Y-111784769D01*
X173075326Y-111784768D01*
X173075325Y-111784768D01*
X172877305Y-111724700D01*
X172877303Y-111724699D01*
X172877305Y-111724699D01*
X172671371Y-111704417D01*
X172465438Y-111724699D01*
X172267414Y-111784769D01*
X172206644Y-111817252D01*
X172084921Y-111882315D01*
X172084919Y-111882316D01*
X172084918Y-111882317D01*
X171924960Y-112013589D01*
X171793688Y-112173547D01*
X171696140Y-112356043D01*
X171636070Y-112554067D01*
X171615788Y-112760000D01*
X160105471Y-112760000D01*
X157565471Y-110220000D01*
X171615788Y-110220000D01*
X171636070Y-110425932D01*
X171644969Y-110455268D01*
X171696139Y-110623954D01*
X171793686Y-110806450D01*
X171803139Y-110817968D01*
X171924960Y-110966410D01*
X171999077Y-111027235D01*
X172084921Y-111097685D01*
X172267417Y-111195232D01*
X172465437Y-111255300D01*
X172465436Y-111255300D01*
X172483900Y-111257118D01*
X172671371Y-111275583D01*
X172877305Y-111255300D01*
X173075325Y-111195232D01*
X173257821Y-111097685D01*
X173417781Y-110966410D01*
X173549056Y-110806450D01*
X173646603Y-110623954D01*
X173706671Y-110425934D01*
X173726954Y-110220000D01*
X173706671Y-110014066D01*
X173646603Y-109816046D01*
X173549056Y-109633550D01*
X173497073Y-109570209D01*
X173417781Y-109473589D01*
X173300048Y-109376969D01*
X173257821Y-109342315D01*
X173075325Y-109244768D01*
X172877305Y-109184700D01*
X172877303Y-109184699D01*
X172877305Y-109184699D01*
X172671371Y-109164417D01*
X172465438Y-109184699D01*
X172267414Y-109244769D01*
X172165953Y-109299002D01*
X172084921Y-109342315D01*
X172084919Y-109342316D01*
X172084918Y-109342317D01*
X171924960Y-109473589D01*
X171793688Y-109633547D01*
X171696140Y-109816043D01*
X171636070Y-110014067D01*
X171615788Y-110220000D01*
X157565471Y-110220000D01*
X155794903Y-108449432D01*
X155761418Y-108388109D01*
X155759645Y-108345568D01*
X155772687Y-108246505D01*
X155752049Y-108089743D01*
X155691541Y-107943664D01*
X155595287Y-107818223D01*
X155469846Y-107721969D01*
X155440286Y-107709725D01*
X155368524Y-107680000D01*
X171615788Y-107680000D01*
X171636070Y-107885932D01*
X171636071Y-107885934D01*
X171696139Y-108083954D01*
X171793686Y-108266450D01*
X171798010Y-108271719D01*
X171924960Y-108426410D01*
X171961338Y-108456264D01*
X172084921Y-108557685D01*
X172267417Y-108655232D01*
X172465437Y-108715300D01*
X172465436Y-108715300D01*
X172483900Y-108717118D01*
X172671371Y-108735583D01*
X172877305Y-108715300D01*
X173075325Y-108655232D01*
X173257821Y-108557685D01*
X173417781Y-108426410D01*
X173549056Y-108266450D01*
X173646603Y-108083954D01*
X173706671Y-107885934D01*
X173726954Y-107680000D01*
X173706671Y-107474066D01*
X173646603Y-107276046D01*
X173549056Y-107093550D01*
X173477825Y-107006754D01*
X173417781Y-106933589D01*
X173257823Y-106802317D01*
X173257824Y-106802317D01*
X173257821Y-106802315D01*
X173075325Y-106704768D01*
X172877305Y-106644700D01*
X172877303Y-106644699D01*
X172877305Y-106644699D01*
X172671371Y-106624417D01*
X172465438Y-106644699D01*
X172340476Y-106682606D01*
X172270233Y-106703914D01*
X172267414Y-106704769D01*
X172179717Y-106751645D01*
X172084921Y-106802315D01*
X172084919Y-106802316D01*
X172084918Y-106802317D01*
X171924960Y-106933589D01*
X171793688Y-107093547D01*
X171793686Y-107093550D01*
X171756477Y-107163163D01*
X171696140Y-107276043D01*
X171636070Y-107474067D01*
X171615788Y-107680000D01*
X155368524Y-107680000D01*
X155323767Y-107661461D01*
X155323765Y-107661460D01*
X155167006Y-107640823D01*
X155167004Y-107640823D01*
X155010244Y-107661460D01*
X155010239Y-107661462D01*
X154911754Y-107702256D01*
X154842285Y-107709725D01*
X154779806Y-107678450D01*
X154749741Y-107635147D01*
X154737417Y-107605395D01*
X154715009Y-107551296D01*
X154701944Y-107519754D01*
X154701943Y-107519753D01*
X154701943Y-107519752D01*
X154605689Y-107394311D01*
X154480248Y-107298057D01*
X154462607Y-107290750D01*
X154334169Y-107237549D01*
X154334167Y-107237548D01*
X154177408Y-107216911D01*
X154177406Y-107216911D01*
X154020646Y-107237548D01*
X154020644Y-107237549D01*
X153874567Y-107298056D01*
X153749125Y-107394311D01*
X153652870Y-107519753D01*
X153623550Y-107590539D01*
X153579709Y-107644942D01*
X153513415Y-107667007D01*
X153445715Y-107649728D01*
X153421308Y-107630767D01*
X151180139Y-105389598D01*
X151174495Y-105383112D01*
X151167173Y-105373417D01*
X151131841Y-105341207D01*
X151129790Y-105339249D01*
X151116014Y-105325473D01*
X151113803Y-105323958D01*
X151107070Y-105318625D01*
X151084150Y-105297731D01*
X151077687Y-105295227D01*
X151052409Y-105281903D01*
X151046698Y-105277991D01*
X151046695Y-105277990D01*
X151046696Y-105277990D01*
X151016519Y-105270891D01*
X151008311Y-105268350D01*
X150979390Y-105257147D01*
X150972466Y-105257147D01*
X150944075Y-105253853D01*
X150937336Y-105252268D01*
X150906626Y-105256552D01*
X150898051Y-105257147D01*
X149951873Y-105257147D01*
X149943299Y-105256552D01*
X149931270Y-105254874D01*
X149931267Y-105254874D01*
X149906251Y-105256030D01*
X149883522Y-105257081D01*
X149880659Y-105257147D01*
X149861187Y-105257147D01*
X149860239Y-105257324D01*
X149858547Y-105257640D01*
X149850019Y-105258629D01*
X149820829Y-105259979D01*
X149819040Y-105260062D01*
X149812695Y-105262862D01*
X149785412Y-105271312D01*
X149778600Y-105272585D01*
X149778599Y-105272586D01*
X149773586Y-105275690D01*
X149752238Y-105288907D01*
X149744639Y-105292912D01*
X149716267Y-105305440D01*
X149711368Y-105310340D01*
X149688974Y-105328078D01*
X149683080Y-105331727D01*
X149664391Y-105356474D01*
X149658750Y-105362957D01*
X149310930Y-105710777D01*
X149304446Y-105716419D01*
X149294750Y-105723741D01*
X149262541Y-105759071D01*
X149260567Y-105761139D01*
X149246809Y-105774897D01*
X149246804Y-105774903D01*
X149245288Y-105777117D01*
X149239958Y-105783845D01*
X149219065Y-105806763D01*
X149219065Y-105806764D01*
X149216560Y-105813230D01*
X149203241Y-105838499D01*
X149199327Y-105844212D01*
X149199325Y-105844218D01*
X149192226Y-105874396D01*
X149189684Y-105882604D01*
X149178482Y-105911523D01*
X149178482Y-105918448D01*
X149175188Y-105946838D01*
X149173603Y-105953574D01*
X149173603Y-105953578D01*
X149177887Y-105984287D01*
X149178482Y-105992863D01*
X149178482Y-107945185D01*
X149158797Y-108012224D01*
X149142163Y-108032866D01*
X148811848Y-108363181D01*
X148750525Y-108396666D01*
X148724167Y-108399500D01*
X148286982Y-108399500D01*
X148219943Y-108379815D01*
X148188606Y-108350986D01*
X148184446Y-108345565D01*
X148127782Y-108271718D01*
X148002341Y-108175464D01*
X147945078Y-108151745D01*
X147856262Y-108114956D01*
X147856260Y-108114955D01*
X147699501Y-108094318D01*
X147699499Y-108094318D01*
X147542739Y-108114955D01*
X147542734Y-108114957D01*
X147471952Y-108144276D01*
X147402483Y-108151745D01*
X147340004Y-108120470D01*
X147304352Y-108060380D01*
X147300500Y-108029715D01*
X147300500Y-107842710D01*
X147301095Y-107834134D01*
X147302771Y-107822111D01*
X147302773Y-107822107D01*
X147300566Y-107774362D01*
X147300500Y-107771499D01*
X147300500Y-107752030D01*
X147300499Y-107752024D01*
X147300009Y-107749404D01*
X147299016Y-107740851D01*
X147298435Y-107728282D01*
X147297585Y-107709880D01*
X147294788Y-107703547D01*
X147286332Y-107676241D01*
X147285061Y-107669438D01*
X147268738Y-107643076D01*
X147264731Y-107635473D01*
X147252207Y-107607108D01*
X147252206Y-107607107D01*
X147252206Y-107607106D01*
X147247309Y-107602209D01*
X147229563Y-107579805D01*
X147225918Y-107573918D01*
X147201172Y-107555231D01*
X147194694Y-107549594D01*
X145424281Y-105779181D01*
X146887196Y-105779181D01*
X146907833Y-105935940D01*
X146907834Y-105935942D01*
X146968342Y-106082021D01*
X147064596Y-106207462D01*
X147190037Y-106303716D01*
X147336116Y-106364224D01*
X147414497Y-106374543D01*
X147492877Y-106384862D01*
X147492878Y-106384862D01*
X147492879Y-106384862D01*
X147545132Y-106377982D01*
X147649640Y-106364224D01*
X147795719Y-106303716D01*
X147921160Y-106207462D01*
X148017414Y-106082021D01*
X148077922Y-105935942D01*
X148098560Y-105779180D01*
X148085518Y-105680116D01*
X148096283Y-105611082D01*
X148120773Y-105576254D01*
X148557028Y-105140000D01*
X171615788Y-105140000D01*
X171636070Y-105345932D01*
X171649316Y-105389598D01*
X171696139Y-105543954D01*
X171793686Y-105726450D01*
X171793688Y-105726452D01*
X171924960Y-105886410D01*
X171985316Y-105935942D01*
X172084921Y-106017685D01*
X172267417Y-106115232D01*
X172465437Y-106175300D01*
X172465436Y-106175300D01*
X172483900Y-106177118D01*
X172671371Y-106195583D01*
X172877305Y-106175300D01*
X173075325Y-106115232D01*
X173257821Y-106017685D01*
X173417781Y-105886410D01*
X173549056Y-105726450D01*
X173646603Y-105543954D01*
X173706671Y-105345934D01*
X173726954Y-105140000D01*
X173706671Y-104934066D01*
X173646603Y-104736046D01*
X173549056Y-104553550D01*
X173460018Y-104445056D01*
X173417781Y-104393589D01*
X173257823Y-104262317D01*
X173257824Y-104262317D01*
X173257821Y-104262315D01*
X173075325Y-104164768D01*
X172877305Y-104104700D01*
X172877303Y-104104699D01*
X172877305Y-104104699D01*
X172671371Y-104084417D01*
X172465438Y-104104699D01*
X172267414Y-104164769D01*
X172210698Y-104195085D01*
X172084921Y-104262315D01*
X172084919Y-104262316D01*
X172084918Y-104262317D01*
X171924960Y-104393589D01*
X171793688Y-104553547D01*
X171793686Y-104553550D01*
X171770376Y-104597159D01*
X171696140Y-104736043D01*
X171636070Y-104934067D01*
X171615788Y-105140000D01*
X148557028Y-105140000D01*
X149480210Y-104216819D01*
X149541533Y-104183334D01*
X149567891Y-104180500D01*
X152129166Y-104180500D01*
X152196205Y-104200185D01*
X152238524Y-104246047D01*
X152326491Y-104410623D01*
X152326493Y-104410626D01*
X152445271Y-104555357D01*
X152590002Y-104674135D01*
X152590005Y-104674137D01*
X152755126Y-104762395D01*
X152755128Y-104762396D01*
X152934295Y-104816746D01*
X152934297Y-104816747D01*
X152951003Y-104818392D01*
X153120629Y-104835099D01*
X153306960Y-104816747D01*
X153486130Y-104762396D01*
X153651254Y-104674136D01*
X153795986Y-104555357D01*
X153914765Y-104410625D01*
X154003025Y-104245501D01*
X154057376Y-104066331D01*
X154075728Y-103880000D01*
X154057376Y-103693669D01*
X154003025Y-103514499D01*
X153985424Y-103481569D01*
X153914766Y-103349376D01*
X153914764Y-103349373D01*
X153795986Y-103204642D01*
X153651255Y-103085864D01*
X153651252Y-103085862D01*
X153486131Y-102997604D01*
X153306962Y-102943253D01*
X153306960Y-102943252D01*
X153120629Y-102924901D01*
X152934297Y-102943252D01*
X152934295Y-102943253D01*
X152755126Y-102997604D01*
X152590005Y-103085862D01*
X152590002Y-103085864D01*
X152445271Y-103204642D01*
X152326493Y-103349373D01*
X152326491Y-103349376D01*
X152238524Y-103513953D01*
X152189562Y-103563797D01*
X152129166Y-103579500D01*
X149454899Y-103579500D01*
X149446325Y-103578905D01*
X149434296Y-103577227D01*
X149434293Y-103577227D01*
X149409277Y-103578383D01*
X149386548Y-103579434D01*
X149383685Y-103579500D01*
X149364213Y-103579500D01*
X149363265Y-103579677D01*
X149361573Y-103579993D01*
X149353045Y-103580982D01*
X149323855Y-103582332D01*
X149322066Y-103582415D01*
X149315721Y-103585215D01*
X149288438Y-103593665D01*
X149281626Y-103594938D01*
X149281625Y-103594939D01*
X149263500Y-103606161D01*
X149255264Y-103611260D01*
X149247665Y-103615265D01*
X149219293Y-103627793D01*
X149214394Y-103632693D01*
X149192000Y-103650431D01*
X149186106Y-103654080D01*
X149167417Y-103678827D01*
X149161776Y-103685310D01*
X147695804Y-105151281D01*
X147634481Y-105184766D01*
X147591938Y-105186539D01*
X147492879Y-105173498D01*
X147492877Y-105173498D01*
X147336117Y-105194135D01*
X147336115Y-105194136D01*
X147190038Y-105254643D01*
X147064596Y-105350898D01*
X146968341Y-105476340D01*
X146907834Y-105622417D01*
X146907833Y-105622419D01*
X146887196Y-105779178D01*
X146887196Y-105779181D01*
X145424281Y-105779181D01*
X144748027Y-105102927D01*
X144714542Y-105041604D01*
X144712769Y-104999063D01*
X144725811Y-104900000D01*
X144714850Y-104816746D01*
X144705173Y-104743239D01*
X144705173Y-104743238D01*
X144644665Y-104597159D01*
X144548411Y-104471718D01*
X144422970Y-104375464D01*
X144276891Y-104314956D01*
X144276889Y-104314955D01*
X144120130Y-104294318D01*
X144120128Y-104294318D01*
X143963368Y-104314955D01*
X143963366Y-104314956D01*
X143817289Y-104375463D01*
X143691847Y-104471718D01*
X143595592Y-104597160D01*
X143535085Y-104743237D01*
X143535084Y-104743239D01*
X143514447Y-104899998D01*
X143514447Y-104900001D01*
X143535084Y-105056760D01*
X143535085Y-105056762D01*
X143592388Y-105195105D01*
X143595593Y-105202841D01*
X143691847Y-105328282D01*
X143817288Y-105424536D01*
X143963367Y-105485044D01*
X144021065Y-105492640D01*
X144120128Y-105505682D01*
X144120129Y-105505682D01*
X144219190Y-105492640D01*
X144288225Y-105503405D01*
X144323056Y-105527898D01*
X146663181Y-107868023D01*
X146696666Y-107929346D01*
X146699500Y-107955704D01*
X146699500Y-113929922D01*
X146679815Y-113996961D01*
X146627011Y-114042716D01*
X146557853Y-114052660D01*
X146528048Y-114044483D01*
X146456765Y-114014957D01*
X146456760Y-114014955D01*
X146300001Y-113994318D01*
X146299999Y-113994318D01*
X146200938Y-114007359D01*
X146131902Y-113996593D01*
X146097072Y-113972101D01*
X142236819Y-110111848D01*
X142203334Y-110050525D01*
X142200500Y-110024167D01*
X142200500Y-102125330D01*
X142220185Y-102058291D01*
X142236815Y-102037653D01*
X142668059Y-101606408D01*
X142674532Y-101600777D01*
X142684224Y-101593457D01*
X142684228Y-101593456D01*
X142716459Y-101558098D01*
X142718367Y-101556100D01*
X142732174Y-101542295D01*
X142733684Y-101540090D01*
X142739023Y-101533349D01*
X142749061Y-101522338D01*
X142759916Y-101510431D01*
X142762416Y-101503976D01*
X142775749Y-101478680D01*
X142779656Y-101472979D01*
X142786757Y-101442783D01*
X142789292Y-101434599D01*
X142800500Y-101405671D01*
X142800500Y-101398746D01*
X142803795Y-101370353D01*
X142805378Y-101363621D01*
X142805379Y-101363617D01*
X142801095Y-101332906D01*
X142800500Y-101324331D01*
X142800500Y-100769078D01*
X142820185Y-100702039D01*
X142872989Y-100656284D01*
X142877048Y-100654517D01*
X142931436Y-100631989D01*
X143056877Y-100535735D01*
X143153131Y-100410294D01*
X143213639Y-100264215D01*
X143233296Y-100114907D01*
X143234277Y-100107454D01*
X143234277Y-100107451D01*
X143218162Y-99985044D01*
X143213639Y-99950691D01*
X143153131Y-99804612D01*
X143153130Y-99804611D01*
X143153130Y-99804610D01*
X143137223Y-99783880D01*
X143112028Y-99718711D01*
X143126066Y-99650266D01*
X143174880Y-99600276D01*
X143242971Y-99584612D01*
X143308721Y-99608248D01*
X143311084Y-99610017D01*
X143368002Y-99653692D01*
X143368003Y-99653692D01*
X143368004Y-99653693D01*
X143514083Y-99714201D01*
X143592464Y-99724520D01*
X143670844Y-99734839D01*
X143670845Y-99734839D01*
X143670846Y-99734839D01*
X143723099Y-99727959D01*
X143827607Y-99714201D01*
X143921385Y-99675357D01*
X143973680Y-99653696D01*
X143973681Y-99653694D01*
X143973686Y-99653693D01*
X143975128Y-99652586D01*
X143976564Y-99652030D01*
X143980721Y-99649631D01*
X143981095Y-99650278D01*
X144040291Y-99627386D01*
X144108737Y-99641417D01*
X144138303Y-99663274D01*
X146263181Y-101788152D01*
X146296666Y-101849475D01*
X146299500Y-101875833D01*
X146299500Y-102212518D01*
X146279815Y-102279557D01*
X146250986Y-102310894D01*
X146171719Y-102371716D01*
X146075463Y-102497160D01*
X146014956Y-102643237D01*
X146014955Y-102643239D01*
X145994318Y-102799998D01*
X145994318Y-102800001D01*
X146014955Y-102956760D01*
X146014956Y-102956762D01*
X146067993Y-103084806D01*
X146075464Y-103102841D01*
X146171718Y-103228282D01*
X146297159Y-103324536D01*
X146443238Y-103385044D01*
X146443239Y-103385044D01*
X146448649Y-103387285D01*
X146503052Y-103431126D01*
X146525117Y-103497420D01*
X146507838Y-103565119D01*
X146456701Y-103612730D01*
X146401196Y-103625846D01*
X145903071Y-103625846D01*
X145836032Y-103606161D01*
X145804695Y-103577332D01*
X145804614Y-103577227D01*
X145756482Y-103514499D01*
X145743872Y-103498065D01*
X145743871Y-103498064D01*
X145618430Y-103401810D01*
X145577953Y-103385044D01*
X145472351Y-103341302D01*
X145472349Y-103341301D01*
X145315590Y-103320664D01*
X145315588Y-103320664D01*
X145158828Y-103341301D01*
X145158826Y-103341302D01*
X145012749Y-103401809D01*
X144887307Y-103498064D01*
X144791052Y-103623506D01*
X144730545Y-103769583D01*
X144730544Y-103769585D01*
X144709907Y-103926344D01*
X144709907Y-103926347D01*
X144730544Y-104083106D01*
X144730545Y-104083108D01*
X144790110Y-104226912D01*
X144791053Y-104229187D01*
X144887307Y-104354628D01*
X145012748Y-104450882D01*
X145158827Y-104511390D01*
X145237208Y-104521709D01*
X145315588Y-104532028D01*
X145315589Y-104532028D01*
X145315590Y-104532028D01*
X145367843Y-104525148D01*
X145472351Y-104511390D01*
X145618430Y-104450882D01*
X145743871Y-104354628D01*
X145804695Y-104275359D01*
X145861123Y-104234157D01*
X145903071Y-104226846D01*
X146910813Y-104226846D01*
X146919387Y-104227441D01*
X146931415Y-104229118D01*
X146931415Y-104229117D01*
X146931419Y-104229119D01*
X146974574Y-104227124D01*
X146979164Y-104226912D01*
X146982027Y-104226846D01*
X147001497Y-104226846D01*
X147001498Y-104226846D01*
X147004123Y-104226355D01*
X147012675Y-104225362D01*
X147013899Y-104225305D01*
X147043646Y-104223931D01*
X147049976Y-104221135D01*
X147077283Y-104212678D01*
X147084087Y-104211407D01*
X147110451Y-104195082D01*
X147118046Y-104191079D01*
X147146419Y-104178552D01*
X147151315Y-104173655D01*
X147173723Y-104155907D01*
X147179606Y-104152265D01*
X147198303Y-104127504D01*
X147203920Y-104121049D01*
X150468063Y-100856907D01*
X150474536Y-100851276D01*
X150484224Y-100843959D01*
X150484228Y-100843958D01*
X150516449Y-100808611D01*
X150518357Y-100806613D01*
X150532175Y-100792797D01*
X150533692Y-100790581D01*
X150539017Y-100783856D01*
X150559916Y-100760933D01*
X150562415Y-100754480D01*
X150575749Y-100729184D01*
X150579657Y-100723480D01*
X150586757Y-100693291D01*
X150589291Y-100685106D01*
X150600500Y-100656173D01*
X150600500Y-100649248D01*
X150603795Y-100620855D01*
X150605378Y-100614123D01*
X150605379Y-100614119D01*
X150601095Y-100583408D01*
X150600500Y-100574833D01*
X150600500Y-100070077D01*
X150620185Y-100003038D01*
X150672989Y-99957283D01*
X150742147Y-99947339D01*
X150771947Y-99955514D01*
X150843238Y-99985044D01*
X150921619Y-99995363D01*
X150999999Y-100005682D01*
X151000000Y-100005682D01*
X151099061Y-99992640D01*
X151168096Y-100003405D01*
X151202927Y-100027898D01*
X152143078Y-100968049D01*
X152148721Y-100974533D01*
X152156041Y-100984226D01*
X152156042Y-100984228D01*
X152174552Y-101001102D01*
X152191375Y-101016439D01*
X152193423Y-101018394D01*
X152207203Y-101032174D01*
X152209413Y-101033688D01*
X152216143Y-101039018D01*
X152227016Y-101048930D01*
X152239064Y-101059914D01*
X152239065Y-101059914D01*
X152239067Y-101059916D01*
X152245530Y-101062419D01*
X152270807Y-101075743D01*
X152276519Y-101079656D01*
X152306702Y-101086754D01*
X152314903Y-101089294D01*
X152343827Y-101100500D01*
X152350751Y-101100500D01*
X152379141Y-101103793D01*
X152385881Y-101105379D01*
X152416591Y-101101095D01*
X152425166Y-101100500D01*
X157224167Y-101100500D01*
X157291206Y-101120185D01*
X157311848Y-101136819D01*
X158643078Y-102468049D01*
X158648721Y-102474533D01*
X158656041Y-102484226D01*
X158656042Y-102484228D01*
X158670227Y-102497159D01*
X158691375Y-102516439D01*
X158693423Y-102518394D01*
X158707203Y-102532174D01*
X158709413Y-102533688D01*
X158716143Y-102539018D01*
X158727016Y-102548930D01*
X158739064Y-102559914D01*
X158739065Y-102559914D01*
X158739067Y-102559916D01*
X158745530Y-102562419D01*
X158770807Y-102575743D01*
X158776519Y-102579656D01*
X158806702Y-102586754D01*
X158814903Y-102589294D01*
X158843827Y-102600500D01*
X158850751Y-102600500D01*
X158879141Y-102603793D01*
X158885881Y-102605379D01*
X158916591Y-102601095D01*
X158925166Y-102600500D01*
X160412518Y-102600500D01*
X160479557Y-102620185D01*
X160510892Y-102649013D01*
X160571718Y-102728282D01*
X160697159Y-102824536D01*
X160843238Y-102885044D01*
X160921619Y-102895363D01*
X160999999Y-102905682D01*
X161000000Y-102905682D01*
X161000001Y-102905682D01*
X161052254Y-102898802D01*
X161156762Y-102885044D01*
X161302841Y-102824536D01*
X161428282Y-102728282D01*
X161524536Y-102602841D01*
X161525713Y-102600000D01*
X171615788Y-102600000D01*
X171636070Y-102805932D01*
X171660068Y-102885043D01*
X171696139Y-103003954D01*
X171793686Y-103186450D01*
X171793688Y-103186452D01*
X171924960Y-103346410D01*
X172021580Y-103425702D01*
X172084921Y-103477685D01*
X172267417Y-103575232D01*
X172465437Y-103635300D01*
X172465436Y-103635300D01*
X172483900Y-103637118D01*
X172671371Y-103655583D01*
X172877305Y-103635300D01*
X173075325Y-103575232D01*
X173257821Y-103477685D01*
X173417781Y-103346410D01*
X173549056Y-103186450D01*
X173646603Y-103003954D01*
X173706671Y-102805934D01*
X173726954Y-102600000D01*
X173706671Y-102394066D01*
X173646603Y-102196046D01*
X173549056Y-102013550D01*
X173497073Y-101950209D01*
X173417781Y-101853589D01*
X173257823Y-101722317D01*
X173257824Y-101722317D01*
X173257821Y-101722315D01*
X173075325Y-101624768D01*
X172877305Y-101564700D01*
X172877303Y-101564699D01*
X172877305Y-101564699D01*
X172671371Y-101544417D01*
X172465438Y-101564699D01*
X172267414Y-101624769D01*
X172178761Y-101672156D01*
X172084921Y-101722315D01*
X172084919Y-101722316D01*
X172084918Y-101722317D01*
X171924960Y-101853589D01*
X171793688Y-102013547D01*
X171793686Y-102013550D01*
X171773059Y-102052140D01*
X171696140Y-102196043D01*
X171636070Y-102394067D01*
X171615788Y-102600000D01*
X161525713Y-102600000D01*
X161585044Y-102456762D01*
X161605682Y-102300000D01*
X161603409Y-102282738D01*
X161585044Y-102143239D01*
X161585044Y-102143238D01*
X161524536Y-101997159D01*
X161428282Y-101871718D01*
X161302841Y-101775464D01*
X161156762Y-101714956D01*
X161156760Y-101714955D01*
X161000001Y-101694318D01*
X160999999Y-101694318D01*
X160843239Y-101714955D01*
X160843237Y-101714956D01*
X160697160Y-101775463D01*
X160571716Y-101871719D01*
X160510894Y-101950986D01*
X160454466Y-101992189D01*
X160412518Y-101999500D01*
X159075834Y-101999500D01*
X159008795Y-101979815D01*
X158988153Y-101963181D01*
X157656922Y-100631951D01*
X157651278Y-100625465D01*
X157643956Y-100615770D01*
X157608624Y-100583560D01*
X157606573Y-100581602D01*
X157592797Y-100567826D01*
X157590586Y-100566311D01*
X157583853Y-100560978D01*
X157560933Y-100540084D01*
X157554470Y-100537580D01*
X157529192Y-100524256D01*
X157523481Y-100520344D01*
X157523478Y-100520343D01*
X157523479Y-100520343D01*
X157493302Y-100513244D01*
X157485094Y-100510703D01*
X157456173Y-100499500D01*
X157449249Y-100499500D01*
X157420858Y-100496206D01*
X157414119Y-100494621D01*
X157383409Y-100498905D01*
X157374834Y-100499500D01*
X152575833Y-100499500D01*
X152508794Y-100479815D01*
X152488152Y-100463181D01*
X152084971Y-100060000D01*
X171615788Y-100060000D01*
X171636070Y-100265932D01*
X171649072Y-100308794D01*
X171696139Y-100463954D01*
X171793686Y-100646450D01*
X171828340Y-100688677D01*
X171924960Y-100806410D01*
X172002452Y-100870005D01*
X172084921Y-100937685D01*
X172267417Y-101035232D01*
X172465437Y-101095300D01*
X172465436Y-101095300D01*
X172483900Y-101097118D01*
X172671371Y-101115583D01*
X172877305Y-101095300D01*
X173075325Y-101035232D01*
X173257821Y-100937685D01*
X173417781Y-100806410D01*
X173549056Y-100646450D01*
X173646603Y-100463954D01*
X173706671Y-100265934D01*
X173726954Y-100060000D01*
X173706671Y-99854066D01*
X173646603Y-99656046D01*
X173549056Y-99473550D01*
X173491370Y-99403259D01*
X173417781Y-99313589D01*
X173262717Y-99186333D01*
X173257821Y-99182315D01*
X173075325Y-99084768D01*
X172877305Y-99024700D01*
X172877303Y-99024699D01*
X172877305Y-99024699D01*
X172671371Y-99004417D01*
X172465438Y-99024699D01*
X172267414Y-99084769D01*
X172173049Y-99135209D01*
X172084921Y-99182315D01*
X172084919Y-99182316D01*
X172084918Y-99182317D01*
X171924960Y-99313589D01*
X171799226Y-99466799D01*
X171793686Y-99473550D01*
X171769981Y-99517899D01*
X171696140Y-99656043D01*
X171636070Y-99854067D01*
X171615788Y-100060000D01*
X152084971Y-100060000D01*
X151627898Y-99602927D01*
X151594413Y-99541604D01*
X151592640Y-99499063D01*
X151605682Y-99400000D01*
X151585044Y-99243238D01*
X151524536Y-99097159D01*
X151428282Y-98971718D01*
X151302841Y-98875464D01*
X151302840Y-98875463D01*
X151302838Y-98875462D01*
X151231554Y-98845936D01*
X151177150Y-98802095D01*
X151155085Y-98735801D01*
X151172364Y-98668102D01*
X151191321Y-98643698D01*
X153288688Y-96546331D01*
X153295161Y-96540700D01*
X153304853Y-96533380D01*
X153304857Y-96533379D01*
X153337088Y-96498021D01*
X153338996Y-96496023D01*
X153352803Y-96482218D01*
X153354313Y-96480013D01*
X153359652Y-96473272D01*
X153361118Y-96471663D01*
X153380545Y-96450354D01*
X153383045Y-96443899D01*
X153396379Y-96418604D01*
X153400285Y-96412902D01*
X153400284Y-96412902D01*
X153400286Y-96412901D01*
X153407386Y-96382712D01*
X153409920Y-96374527D01*
X153421129Y-96345594D01*
X153421129Y-96338669D01*
X153424424Y-96310276D01*
X153426007Y-96303544D01*
X153426008Y-96303540D01*
X153421724Y-96272829D01*
X153421129Y-96264254D01*
X153421129Y-94587482D01*
X153440814Y-94520443D01*
X153469643Y-94489106D01*
X153480597Y-94480701D01*
X153548911Y-94428282D01*
X153645165Y-94302841D01*
X153705673Y-94156762D01*
X153726311Y-94000000D01*
X153705673Y-93843238D01*
X153645165Y-93697159D01*
X153548911Y-93571718D01*
X153485257Y-93522874D01*
X153444056Y-93466448D01*
X153439901Y-93396702D01*
X153474114Y-93335781D01*
X153535831Y-93303029D01*
X153560745Y-93300500D01*
X155559884Y-93300500D01*
X155626923Y-93320185D01*
X155672678Y-93372989D01*
X155682622Y-93442147D01*
X155653597Y-93505703D01*
X155635374Y-93522873D01*
X155571718Y-93571718D01*
X155475463Y-93697160D01*
X155414956Y-93843237D01*
X155414955Y-93843239D01*
X155394318Y-93999998D01*
X155394318Y-94000001D01*
X155414955Y-94156760D01*
X155414956Y-94156762D01*
X155475464Y-94302841D01*
X155571718Y-94428282D01*
X155615160Y-94461616D01*
X155656363Y-94518044D01*
X155660518Y-94587790D01*
X155627355Y-94647673D01*
X152952577Y-97322451D01*
X152946093Y-97328093D01*
X152936397Y-97335415D01*
X152904188Y-97370745D01*
X152902214Y-97372813D01*
X152888456Y-97386571D01*
X152888451Y-97386577D01*
X152886935Y-97388791D01*
X152881605Y-97395519D01*
X152860712Y-97418437D01*
X152860712Y-97418438D01*
X152858207Y-97424904D01*
X152844888Y-97450173D01*
X152840974Y-97455886D01*
X152840972Y-97455892D01*
X152833873Y-97486070D01*
X152831331Y-97494278D01*
X152820129Y-97523197D01*
X152820129Y-97530122D01*
X152816835Y-97558512D01*
X152815250Y-97565248D01*
X152815250Y-97565252D01*
X152819534Y-97595961D01*
X152820129Y-97604537D01*
X152820129Y-98008537D01*
X152800444Y-98075576D01*
X152754582Y-98117895D01*
X152590005Y-98205862D01*
X152590002Y-98205864D01*
X152445271Y-98324642D01*
X152326493Y-98469373D01*
X152326491Y-98469376D01*
X152238233Y-98634497D01*
X152183882Y-98813666D01*
X152183881Y-98813668D01*
X152165530Y-99000000D01*
X152183881Y-99186331D01*
X152183882Y-99186333D01*
X152238233Y-99365502D01*
X152326491Y-99530623D01*
X152326493Y-99530626D01*
X152445271Y-99675357D01*
X152590002Y-99794135D01*
X152590005Y-99794137D01*
X152746980Y-99878041D01*
X152755128Y-99882396D01*
X152934295Y-99936746D01*
X152934297Y-99936747D01*
X152947944Y-99938091D01*
X153120629Y-99955099D01*
X153306960Y-99936747D01*
X153486130Y-99882396D01*
X153651254Y-99794136D01*
X153795986Y-99675357D01*
X153914765Y-99530625D01*
X154003025Y-99365501D01*
X154057376Y-99186331D01*
X154075728Y-99000000D01*
X154057376Y-98813669D01*
X154003025Y-98634499D01*
X154003024Y-98634497D01*
X153914766Y-98469376D01*
X153914764Y-98469373D01*
X153795986Y-98324642D01*
X153651255Y-98205864D01*
X153651252Y-98205862D01*
X153486676Y-98117895D01*
X153436832Y-98068933D01*
X153421129Y-98008537D01*
X153421129Y-97755204D01*
X153440814Y-97688165D01*
X153457448Y-97667523D01*
X154128419Y-96996552D01*
X156168063Y-94956907D01*
X156174536Y-94951276D01*
X156184224Y-94943959D01*
X156184228Y-94943958D01*
X156216449Y-94908611D01*
X156218357Y-94906613D01*
X156232175Y-94892797D01*
X156233692Y-94890581D01*
X156239017Y-94883856D01*
X156259916Y-94860933D01*
X156262415Y-94854480D01*
X156275750Y-94829183D01*
X156275766Y-94829158D01*
X156279657Y-94823480D01*
X156286757Y-94793285D01*
X156289294Y-94785094D01*
X156300500Y-94756173D01*
X156300500Y-94749247D01*
X156303794Y-94720855D01*
X156305379Y-94714118D01*
X156301094Y-94683405D01*
X156300500Y-94674831D01*
X156300500Y-94587482D01*
X156320185Y-94520443D01*
X156349014Y-94489106D01*
X156359968Y-94480701D01*
X156428282Y-94428282D01*
X156524536Y-94302841D01*
X156585044Y-94156762D01*
X156605682Y-94000000D01*
X156585044Y-93843238D01*
X156524536Y-93697159D01*
X156428282Y-93571718D01*
X156364628Y-93522874D01*
X156323427Y-93466448D01*
X156319272Y-93396702D01*
X156353485Y-93335781D01*
X156415202Y-93303029D01*
X156440116Y-93300500D01*
X167975538Y-93300500D01*
X168042577Y-93320185D01*
X168063219Y-93336819D01*
X171682072Y-96955672D01*
X171715557Y-97016995D01*
X171710573Y-97086687D01*
X171703752Y-97101800D01*
X171696141Y-97116039D01*
X171636070Y-97314067D01*
X171615788Y-97520000D01*
X171636070Y-97725932D01*
X171661412Y-97809473D01*
X171696139Y-97923954D01*
X171793686Y-98106450D01*
X171793688Y-98106452D01*
X171924960Y-98266410D01*
X172021580Y-98345702D01*
X172084921Y-98397685D01*
X172267417Y-98495232D01*
X172465437Y-98555300D01*
X172465436Y-98555300D01*
X172483900Y-98557118D01*
X172671371Y-98575583D01*
X172877305Y-98555300D01*
X173075325Y-98495232D01*
X173257821Y-98397685D01*
X173417781Y-98266410D01*
X173549056Y-98106450D01*
X173646603Y-97923954D01*
X173706671Y-97725934D01*
X173726954Y-97520000D01*
X173706671Y-97314066D01*
X173646603Y-97116046D01*
X173549056Y-96933550D01*
X173484154Y-96854466D01*
X173417781Y-96773589D01*
X173278879Y-96659597D01*
X173257821Y-96642315D01*
X173075325Y-96544768D01*
X172877305Y-96484700D01*
X172877303Y-96484699D01*
X172877305Y-96484699D01*
X172671371Y-96464417D01*
X172465438Y-96484699D01*
X172267410Y-96544770D01*
X172253171Y-96552381D01*
X172184768Y-96566620D01*
X172119525Y-96541616D01*
X172107043Y-96530701D01*
X168688523Y-93112181D01*
X168655038Y-93050858D01*
X168660022Y-92981166D01*
X168701894Y-92925233D01*
X168767358Y-92900816D01*
X168776204Y-92900500D01*
X170115538Y-92900500D01*
X170182577Y-92920185D01*
X170203219Y-92936819D01*
X171682072Y-94415672D01*
X171715557Y-94476995D01*
X171710573Y-94546687D01*
X171703752Y-94561800D01*
X171696141Y-94576039D01*
X171636070Y-94774067D01*
X171615788Y-94980000D01*
X171636070Y-95185932D01*
X171636071Y-95185934D01*
X171696139Y-95383954D01*
X171793686Y-95566450D01*
X171828340Y-95608677D01*
X171924960Y-95726410D01*
X172005478Y-95792488D01*
X172084921Y-95857685D01*
X172267417Y-95955232D01*
X172465437Y-96015300D01*
X172465436Y-96015300D01*
X172483900Y-96017118D01*
X172671371Y-96035583D01*
X172877305Y-96015300D01*
X173075325Y-95955232D01*
X173257821Y-95857685D01*
X173417781Y-95726410D01*
X173549056Y-95566450D01*
X173646603Y-95383954D01*
X173706671Y-95185934D01*
X173726954Y-94980000D01*
X173706671Y-94774066D01*
X173646603Y-94576046D01*
X173549056Y-94393550D01*
X173497073Y-94330209D01*
X173417781Y-94233589D01*
X173257823Y-94102317D01*
X173257824Y-94102317D01*
X173257821Y-94102315D01*
X173075325Y-94004768D01*
X172877305Y-93944700D01*
X172877303Y-93944699D01*
X172877305Y-93944699D01*
X172671371Y-93924417D01*
X172465438Y-93944699D01*
X172267410Y-94004770D01*
X172253171Y-94012381D01*
X172184768Y-94026620D01*
X172119525Y-94001616D01*
X172107043Y-93990701D01*
X170828523Y-92712181D01*
X170795038Y-92650858D01*
X170800022Y-92581166D01*
X170841894Y-92525233D01*
X170907358Y-92500816D01*
X170916204Y-92500500D01*
X171509360Y-92500500D01*
X171576399Y-92520185D01*
X171622154Y-92572989D01*
X171632763Y-92612346D01*
X171636070Y-92645932D01*
X171661412Y-92729473D01*
X171696139Y-92843954D01*
X171793686Y-93026450D01*
X171793688Y-93026452D01*
X171924960Y-93186410D01*
X172010683Y-93256760D01*
X172084921Y-93317685D01*
X172267417Y-93415232D01*
X172465437Y-93475300D01*
X172465436Y-93475300D01*
X172483900Y-93477118D01*
X172671371Y-93495583D01*
X172877305Y-93475300D01*
X173075325Y-93415232D01*
X173257821Y-93317685D01*
X173417781Y-93186410D01*
X173549056Y-93026450D01*
X173646603Y-92843954D01*
X173706671Y-92645934D01*
X173726954Y-92440000D01*
X173706671Y-92234066D01*
X173646603Y-92036046D01*
X173549056Y-91853550D01*
X173470520Y-91757853D01*
X173417781Y-91693589D01*
X173257823Y-91562317D01*
X173257824Y-91562317D01*
X173257821Y-91562315D01*
X173075325Y-91464768D01*
X172877305Y-91404700D01*
X172877303Y-91404699D01*
X172877305Y-91404699D01*
X172671371Y-91384417D01*
X172465438Y-91404699D01*
X172267414Y-91464769D01*
X172157269Y-91523643D01*
X172084921Y-91562315D01*
X172084919Y-91562316D01*
X172084918Y-91562317D01*
X171924960Y-91693589D01*
X171793182Y-91854164D01*
X171735436Y-91893499D01*
X171697328Y-91899500D01*
X151153503Y-91899500D01*
X151086464Y-91879815D01*
X151040709Y-91827011D01*
X151030765Y-91757853D01*
X151059790Y-91694297D01*
X151065822Y-91687819D01*
X152416822Y-90336819D01*
X152478145Y-90303334D01*
X152504503Y-90300500D01*
X158927639Y-90300500D01*
X158936213Y-90301095D01*
X158948241Y-90302772D01*
X158948241Y-90302771D01*
X158948245Y-90302773D01*
X158991400Y-90300778D01*
X158995990Y-90300566D01*
X158998853Y-90300500D01*
X159018323Y-90300500D01*
X159018324Y-90300500D01*
X159020949Y-90300009D01*
X159029501Y-90299016D01*
X159030725Y-90298959D01*
X159060472Y-90297585D01*
X159066802Y-90294789D01*
X159094109Y-90286332D01*
X159100913Y-90285061D01*
X159127277Y-90268736D01*
X159134872Y-90264733D01*
X159163245Y-90252206D01*
X159168141Y-90247309D01*
X159190549Y-90229561D01*
X159196432Y-90225919D01*
X159215129Y-90201158D01*
X159220754Y-90194695D01*
X159711763Y-89703687D01*
X159773085Y-89670205D01*
X159799443Y-89667371D01*
X171501887Y-89667371D01*
X171568926Y-89687056D01*
X171614681Y-89739860D01*
X171625290Y-89803525D01*
X171615788Y-89899999D01*
X171636070Y-90105932D01*
X171636071Y-90105934D01*
X171696139Y-90303954D01*
X171793686Y-90486450D01*
X171793688Y-90486452D01*
X171924960Y-90646410D01*
X172021580Y-90725702D01*
X172084921Y-90777685D01*
X172267417Y-90875232D01*
X172465437Y-90935300D01*
X172465436Y-90935300D01*
X172483900Y-90937118D01*
X172671371Y-90955583D01*
X172877305Y-90935300D01*
X173075325Y-90875232D01*
X173257821Y-90777685D01*
X173417781Y-90646410D01*
X173549056Y-90486450D01*
X173646603Y-90303954D01*
X173706671Y-90105934D01*
X173726954Y-89900000D01*
X173706671Y-89694066D01*
X173646603Y-89496046D01*
X173549056Y-89313550D01*
X173456279Y-89200500D01*
X173417781Y-89153589D01*
X173283924Y-89043737D01*
X173257821Y-89022315D01*
X173075325Y-88924768D01*
X172877305Y-88864700D01*
X172877303Y-88864699D01*
X172877305Y-88864699D01*
X172671371Y-88844417D01*
X172465438Y-88864699D01*
X172267412Y-88924769D01*
X172084926Y-89022311D01*
X172084921Y-89022314D01*
X172084921Y-89022315D01*
X172065533Y-89038225D01*
X172001225Y-89065537D01*
X171986871Y-89066371D01*
X159686451Y-89066371D01*
X159677877Y-89065776D01*
X159665848Y-89064098D01*
X159665845Y-89064098D01*
X159640829Y-89065254D01*
X159618100Y-89066305D01*
X159615237Y-89066371D01*
X159595765Y-89066371D01*
X159595760Y-89066371D01*
X159595758Y-89066372D01*
X159593124Y-89066864D01*
X159584594Y-89067853D01*
X159553617Y-89069286D01*
X159553615Y-89069286D01*
X159547274Y-89072086D01*
X159519988Y-89080535D01*
X159513181Y-89081807D01*
X159513175Y-89081810D01*
X159486811Y-89098132D01*
X159479212Y-89102137D01*
X159450846Y-89114663D01*
X159445945Y-89119564D01*
X159423551Y-89137302D01*
X159417657Y-89140951D01*
X159398968Y-89165698D01*
X159393326Y-89172181D01*
X159137227Y-89428282D01*
X158902328Y-89663181D01*
X158841005Y-89696666D01*
X158814647Y-89699500D01*
X158225465Y-89699500D01*
X158158426Y-89679815D01*
X158112671Y-89627011D01*
X158102727Y-89557853D01*
X158122283Y-89511426D01*
X158120472Y-89510381D01*
X158124534Y-89503343D01*
X158124536Y-89503341D01*
X158185044Y-89357262D01*
X158205682Y-89200500D01*
X158201552Y-89169133D01*
X158185044Y-89043739D01*
X158185044Y-89043738D01*
X158124536Y-88897659D01*
X158028282Y-88772218D01*
X158028280Y-88772217D01*
X158028280Y-88772216D01*
X157949014Y-88711394D01*
X157907811Y-88654966D01*
X157900500Y-88613018D01*
X157900500Y-88075832D01*
X157920185Y-88008793D01*
X157936814Y-87988156D01*
X158564970Y-87360000D01*
X171615788Y-87360000D01*
X171636070Y-87565932D01*
X171636071Y-87565934D01*
X171696139Y-87763954D01*
X171793686Y-87946450D01*
X171793688Y-87946452D01*
X171924960Y-88106410D01*
X172021580Y-88185702D01*
X172084921Y-88237685D01*
X172267417Y-88335232D01*
X172465437Y-88395300D01*
X172465436Y-88395300D01*
X172483900Y-88397118D01*
X172671371Y-88415583D01*
X172877305Y-88395300D01*
X173075325Y-88335232D01*
X173257821Y-88237685D01*
X173417781Y-88106410D01*
X173549056Y-87946450D01*
X173646603Y-87763954D01*
X173706671Y-87565934D01*
X173726954Y-87360000D01*
X173706671Y-87154066D01*
X173646603Y-86956046D01*
X173549056Y-86773550D01*
X173497073Y-86710209D01*
X173417781Y-86613589D01*
X173257823Y-86482317D01*
X173257824Y-86482317D01*
X173257821Y-86482315D01*
X173075325Y-86384768D01*
X172877305Y-86324700D01*
X172877303Y-86324699D01*
X172877305Y-86324699D01*
X172671371Y-86304417D01*
X172465438Y-86324699D01*
X172267414Y-86384769D01*
X172157269Y-86443643D01*
X172084921Y-86482315D01*
X172084919Y-86482316D01*
X172084918Y-86482317D01*
X171924960Y-86613589D01*
X171793688Y-86773547D01*
X171696140Y-86956043D01*
X171636070Y-87154067D01*
X171615788Y-87360000D01*
X158564970Y-87360000D01*
X160897073Y-85027896D01*
X160958394Y-84994413D01*
X161000936Y-84992640D01*
X161100000Y-85005682D01*
X161100001Y-85005682D01*
X161152254Y-84998802D01*
X161256762Y-84985044D01*
X161402841Y-84924536D01*
X161528282Y-84828282D01*
X161534637Y-84820000D01*
X171615788Y-84820000D01*
X171636070Y-85025932D01*
X171639972Y-85038794D01*
X171696139Y-85223954D01*
X171793686Y-85406450D01*
X171793688Y-85406452D01*
X171924960Y-85566410D01*
X172021580Y-85645702D01*
X172084921Y-85697685D01*
X172267417Y-85795232D01*
X172465437Y-85855300D01*
X172465436Y-85855300D01*
X172483900Y-85857118D01*
X172671371Y-85875583D01*
X172877305Y-85855300D01*
X173075325Y-85795232D01*
X173257821Y-85697685D01*
X173417781Y-85566410D01*
X173549056Y-85406450D01*
X173646603Y-85223954D01*
X173706671Y-85025934D01*
X173726954Y-84820000D01*
X173706671Y-84614066D01*
X173646603Y-84416046D01*
X173549056Y-84233550D01*
X173497073Y-84170209D01*
X173417781Y-84073589D01*
X173257823Y-83942317D01*
X173257824Y-83942317D01*
X173257821Y-83942315D01*
X173075325Y-83844768D01*
X172877305Y-83784700D01*
X172877303Y-83784699D01*
X172877305Y-83784699D01*
X172671371Y-83764417D01*
X172465438Y-83784699D01*
X172267414Y-83844769D01*
X172209991Y-83875463D01*
X172084921Y-83942315D01*
X172084919Y-83942316D01*
X172084918Y-83942317D01*
X171924960Y-84073589D01*
X171793688Y-84233547D01*
X171696140Y-84416043D01*
X171636070Y-84614067D01*
X171615788Y-84820000D01*
X161534637Y-84820000D01*
X161624536Y-84702841D01*
X161685044Y-84556762D01*
X161705682Y-84400000D01*
X161693346Y-84306302D01*
X161685044Y-84243239D01*
X161685044Y-84243238D01*
X161624536Y-84097159D01*
X161528282Y-83971718D01*
X161402841Y-83875464D01*
X161256762Y-83814956D01*
X161211938Y-83809054D01*
X161111282Y-83795803D01*
X161047386Y-83767536D01*
X161008915Y-83709212D01*
X161008084Y-83639347D01*
X161039785Y-83585185D01*
X161388152Y-83236819D01*
X161449475Y-83203334D01*
X161475833Y-83200500D01*
X169112518Y-83200500D01*
X169179557Y-83220185D01*
X169210892Y-83249013D01*
X169271718Y-83328282D01*
X169397159Y-83424536D01*
X169543238Y-83485044D01*
X169621619Y-83495363D01*
X169699999Y-83505682D01*
X169700000Y-83505682D01*
X169700001Y-83505682D01*
X169752254Y-83498802D01*
X169856762Y-83485044D01*
X170002841Y-83424536D01*
X170128282Y-83328282D01*
X170224536Y-83202841D01*
X170285044Y-83056762D01*
X170305682Y-82900000D01*
X170285044Y-82743238D01*
X170224536Y-82597159D01*
X170128282Y-82471718D01*
X170002841Y-82375464D01*
X169856762Y-82314956D01*
X169856760Y-82314955D01*
X169700001Y-82294318D01*
X169699999Y-82294318D01*
X169543239Y-82314955D01*
X169543237Y-82314956D01*
X169397160Y-82375463D01*
X169271716Y-82471719D01*
X169210894Y-82550986D01*
X169154466Y-82592189D01*
X169112518Y-82599500D01*
X161362842Y-82599500D01*
X161354268Y-82598905D01*
X161342239Y-82597227D01*
X161342236Y-82597227D01*
X161317220Y-82598383D01*
X161294491Y-82599434D01*
X161291628Y-82599500D01*
X161272156Y-82599500D01*
X161272151Y-82599500D01*
X161272149Y-82599501D01*
X161269515Y-82599993D01*
X161260985Y-82600982D01*
X161230008Y-82602415D01*
X161230006Y-82602415D01*
X161223665Y-82605215D01*
X161196379Y-82613664D01*
X161189572Y-82614936D01*
X161189566Y-82614939D01*
X161163202Y-82631261D01*
X161155603Y-82635266D01*
X161127237Y-82647792D01*
X161122336Y-82652693D01*
X161099942Y-82670431D01*
X161094048Y-82674080D01*
X161075359Y-82698827D01*
X161069718Y-82705310D01*
X155402926Y-88372101D01*
X155341603Y-88405586D01*
X155299060Y-88407359D01*
X155200001Y-88394318D01*
X155199999Y-88394318D01*
X155043239Y-88414955D01*
X155043237Y-88414956D01*
X154897160Y-88475463D01*
X154771718Y-88571718D01*
X154675463Y-88697160D01*
X154614956Y-88843237D01*
X154614955Y-88843239D01*
X154594318Y-88999998D01*
X154594318Y-89000001D01*
X154614955Y-89156760D01*
X154614956Y-89156762D01*
X154675464Y-89302841D01*
X154771718Y-89428282D01*
X154835371Y-89477125D01*
X154876573Y-89533552D01*
X154880728Y-89603298D01*
X154846515Y-89664219D01*
X154784798Y-89696971D01*
X154759884Y-89699500D01*
X152391512Y-89699500D01*
X152382938Y-89698905D01*
X152370909Y-89697227D01*
X152370906Y-89697227D01*
X152345890Y-89698383D01*
X152323161Y-89699434D01*
X152320298Y-89699500D01*
X152300826Y-89699500D01*
X152300821Y-89699500D01*
X152300819Y-89699501D01*
X152298185Y-89699993D01*
X152289655Y-89700982D01*
X152258678Y-89702415D01*
X152258676Y-89702415D01*
X152252335Y-89705215D01*
X152225049Y-89713664D01*
X152218242Y-89714936D01*
X152218236Y-89714939D01*
X152191872Y-89731261D01*
X152184273Y-89735266D01*
X152155907Y-89747792D01*
X152151006Y-89752693D01*
X152128612Y-89770431D01*
X152122718Y-89774080D01*
X152104029Y-89798827D01*
X152098388Y-89805310D01*
X146359294Y-95544405D01*
X146297971Y-95577890D01*
X146271613Y-95580724D01*
X145476111Y-95580724D01*
X145409072Y-95561039D01*
X145400640Y-95555111D01*
X145276399Y-95459778D01*
X145130320Y-95399270D01*
X145130318Y-95399269D01*
X144973559Y-95378632D01*
X144973557Y-95378632D01*
X144816797Y-95399269D01*
X144816795Y-95399270D01*
X144670718Y-95459777D01*
X144545276Y-95556032D01*
X144449021Y-95681474D01*
X144419701Y-95752260D01*
X144375860Y-95806663D01*
X144309566Y-95828728D01*
X144241866Y-95811449D01*
X144217459Y-95792488D01*
X142016017Y-93591046D01*
X141982532Y-93529723D01*
X141987516Y-93460031D01*
X142005321Y-93427882D01*
X142024536Y-93402841D01*
X142085044Y-93256762D01*
X142105682Y-93100000D01*
X142099212Y-93050858D01*
X142085044Y-92943239D01*
X142085044Y-92943238D01*
X142024536Y-92797159D01*
X141928282Y-92671718D01*
X141802841Y-92575464D01*
X141656762Y-92514956D01*
X141656760Y-92514955D01*
X141500001Y-92494318D01*
X141499999Y-92494318D01*
X141343239Y-92514955D01*
X141343237Y-92514956D01*
X141197160Y-92575463D01*
X141071718Y-92671718D01*
X140975463Y-92797160D01*
X140914956Y-92943237D01*
X140914955Y-92943239D01*
X140894318Y-93099998D01*
X140894318Y-93100001D01*
X140914955Y-93256760D01*
X140914956Y-93256762D01*
X140971933Y-93394318D01*
X140975464Y-93402841D01*
X141071718Y-93528282D01*
X141197159Y-93624536D01*
X141197162Y-93624537D01*
X141201878Y-93627260D01*
X141242184Y-93664575D01*
X141247796Y-93672768D01*
X141252689Y-93677661D01*
X141270435Y-93700065D01*
X141274077Y-93705948D01*
X141274080Y-93705951D01*
X141298826Y-93724639D01*
X141305311Y-93730282D01*
X143763181Y-96188152D01*
X143796666Y-96249475D01*
X143799500Y-96275833D01*
X143799500Y-96812518D01*
X143779815Y-96879557D01*
X143750986Y-96910892D01*
X143735122Y-96923066D01*
X143671719Y-96971716D01*
X143575463Y-97097160D01*
X143514956Y-97243237D01*
X143514955Y-97243239D01*
X143494318Y-97399998D01*
X143494318Y-97400001D01*
X143514955Y-97556760D01*
X143514956Y-97556762D01*
X143575464Y-97702841D01*
X143671718Y-97828282D01*
X143797159Y-97924536D01*
X143943238Y-97985044D01*
X143960929Y-97987373D01*
X144099999Y-98005682D01*
X144100000Y-98005682D01*
X144100001Y-98005682D01*
X144152254Y-97998802D01*
X144256762Y-97985044D01*
X144402841Y-97924536D01*
X144528282Y-97828282D01*
X144624536Y-97702841D01*
X144685044Y-97556762D01*
X144701959Y-97428281D01*
X144705682Y-97400001D01*
X144705682Y-97399998D01*
X144685044Y-97243239D01*
X144685044Y-97243238D01*
X144624536Y-97097159D01*
X144528282Y-96971718D01*
X144528280Y-96971717D01*
X144528280Y-96971716D01*
X144478536Y-96933547D01*
X144449013Y-96910893D01*
X144407811Y-96854466D01*
X144400500Y-96812518D01*
X144400500Y-96552952D01*
X144420185Y-96485913D01*
X144472989Y-96440158D01*
X144542147Y-96430214D01*
X144599983Y-96454574D01*
X144670717Y-96508850D01*
X144816796Y-96569358D01*
X144895177Y-96579677D01*
X144973557Y-96589996D01*
X144973558Y-96589996D01*
X144973559Y-96589996D01*
X145015320Y-96584498D01*
X145130320Y-96569358D01*
X145187332Y-96545742D01*
X145256797Y-96538274D01*
X145319277Y-96569548D01*
X145354930Y-96629637D01*
X145357721Y-96644119D01*
X145370012Y-96737484D01*
X145370013Y-96737486D01*
X145430521Y-96883565D01*
X145526775Y-97009006D01*
X145652216Y-97105260D01*
X145798295Y-97165768D01*
X145876676Y-97176087D01*
X145955056Y-97186406D01*
X145955057Y-97186406D01*
X145955058Y-97186406D01*
X146033415Y-97176090D01*
X146111819Y-97165768D01*
X146173830Y-97140081D01*
X146243300Y-97132613D01*
X146305779Y-97163888D01*
X146335844Y-97207190D01*
X146375287Y-97302415D01*
X146375464Y-97302841D01*
X146471718Y-97428282D01*
X146597159Y-97524536D01*
X146743238Y-97585044D01*
X146821619Y-97595363D01*
X146899999Y-97605682D01*
X146900000Y-97605682D01*
X146900001Y-97605682D01*
X146952254Y-97598802D01*
X147056762Y-97585044D01*
X147202841Y-97524536D01*
X147220236Y-97511188D01*
X147285403Y-97485993D01*
X147353848Y-97500030D01*
X147394097Y-97534075D01*
X147412848Y-97558512D01*
X147449042Y-97605682D01*
X147465986Y-97627763D01*
X147591427Y-97724017D01*
X147737506Y-97784525D01*
X147815887Y-97794844D01*
X147894267Y-97805163D01*
X147894268Y-97805163D01*
X147894269Y-97805163D01*
X147946522Y-97798283D01*
X148051030Y-97784525D01*
X148197109Y-97724017D01*
X148322550Y-97627763D01*
X148418804Y-97502322D01*
X148479312Y-97356243D01*
X148499950Y-97199481D01*
X148486908Y-97100417D01*
X148497673Y-97031383D01*
X148522163Y-96996555D01*
X152181901Y-93336819D01*
X152243224Y-93303334D01*
X152269582Y-93300500D01*
X152680513Y-93300500D01*
X152747552Y-93320185D01*
X152793307Y-93372989D01*
X152803251Y-93442147D01*
X152774226Y-93505703D01*
X152756003Y-93522873D01*
X152692347Y-93571718D01*
X152596092Y-93697160D01*
X152535585Y-93843237D01*
X152535584Y-93843239D01*
X152514947Y-93999998D01*
X152514947Y-94000001D01*
X152535584Y-94156760D01*
X152535585Y-94156762D01*
X152596093Y-94302841D01*
X152682671Y-94415672D01*
X152692348Y-94428283D01*
X152771615Y-94489106D01*
X152812818Y-94545534D01*
X152820129Y-94587482D01*
X152820129Y-96113587D01*
X152800444Y-96180626D01*
X152783810Y-96201268D01*
X151572484Y-97412594D01*
X151511161Y-97446079D01*
X151441469Y-97441095D01*
X151385536Y-97399223D01*
X151361990Y-97342029D01*
X151361055Y-97335322D01*
X151360461Y-97326753D01*
X151360461Y-96647444D01*
X151380146Y-96580405D01*
X151408975Y-96549068D01*
X151412524Y-96546345D01*
X151488243Y-96488244D01*
X151584497Y-96362803D01*
X151645005Y-96216724D01*
X151665643Y-96059962D01*
X151662433Y-96035583D01*
X151645005Y-95903201D01*
X151645005Y-95903200D01*
X151584497Y-95757121D01*
X151488243Y-95631680D01*
X151362802Y-95535426D01*
X151216723Y-95474918D01*
X151216721Y-95474917D01*
X151059962Y-95454280D01*
X151059960Y-95454280D01*
X150903200Y-95474917D01*
X150903198Y-95474918D01*
X150757121Y-95535425D01*
X150631679Y-95631680D01*
X150535424Y-95757122D01*
X150474917Y-95903199D01*
X150474916Y-95903201D01*
X150454279Y-96059960D01*
X150454279Y-96059963D01*
X150474916Y-96216722D01*
X150474917Y-96216724D01*
X150513667Y-96310276D01*
X150535425Y-96362803D01*
X150631679Y-96488244D01*
X150631680Y-96488245D01*
X150658533Y-96508850D01*
X150706613Y-96545743D01*
X150710947Y-96549068D01*
X150752150Y-96605496D01*
X150759461Y-96647444D01*
X150759461Y-97176090D01*
X150739776Y-97243129D01*
X150723142Y-97263771D01*
X147316860Y-100670053D01*
X147310376Y-100675695D01*
X147300680Y-100683017D01*
X147268471Y-100718347D01*
X147266497Y-100720415D01*
X147252739Y-100734173D01*
X147252734Y-100734179D01*
X147251218Y-100736393D01*
X147245888Y-100743121D01*
X147224995Y-100766039D01*
X147224995Y-100766040D01*
X147222490Y-100772506D01*
X147209171Y-100797775D01*
X147205257Y-100803488D01*
X147205255Y-100803494D01*
X147198156Y-100833672D01*
X147195614Y-100841880D01*
X147184412Y-100870799D01*
X147184412Y-100877724D01*
X147181118Y-100906114D01*
X147179533Y-100912850D01*
X147179533Y-100912854D01*
X147182996Y-100937682D01*
X147183817Y-100943563D01*
X147184412Y-100952139D01*
X147184412Y-101363347D01*
X147164727Y-101430386D01*
X147135898Y-101461721D01*
X147113803Y-101478677D01*
X147056629Y-101522547D01*
X147050992Y-101529894D01*
X146994563Y-101571095D01*
X146924817Y-101575247D01*
X146863897Y-101541032D01*
X146854276Y-101529305D01*
X146847309Y-101522338D01*
X146829563Y-101499934D01*
X146825918Y-101494047D01*
X146801172Y-101475360D01*
X146794694Y-101469723D01*
X144286079Y-98961108D01*
X144280435Y-98954622D01*
X144273115Y-98944929D01*
X144247595Y-98921664D01*
X144216574Y-98877480D01*
X144195382Y-98826318D01*
X144195381Y-98826317D01*
X144195381Y-98826316D01*
X144099127Y-98700875D01*
X143973686Y-98604621D01*
X143964794Y-98600938D01*
X143827607Y-98544113D01*
X143827605Y-98544112D01*
X143670847Y-98523475D01*
X143670845Y-98523475D01*
X143656172Y-98525406D01*
X143641537Y-98527333D01*
X143572502Y-98516565D01*
X143537674Y-98492074D01*
X142477551Y-97431951D01*
X142471907Y-97425465D01*
X142464585Y-97415770D01*
X142429253Y-97383560D01*
X142427202Y-97381602D01*
X142413426Y-97367826D01*
X142411215Y-97366311D01*
X142404482Y-97360978D01*
X142381562Y-97340084D01*
X142375099Y-97337580D01*
X142349821Y-97324256D01*
X142344110Y-97320344D01*
X142344107Y-97320343D01*
X142344108Y-97320343D01*
X142313931Y-97313244D01*
X142305723Y-97310703D01*
X142276802Y-97299500D01*
X142269878Y-97299500D01*
X142241487Y-97296206D01*
X142234748Y-97294621D01*
X142204038Y-97298905D01*
X142195463Y-97299500D01*
X141864198Y-97299500D01*
X141855624Y-97298905D01*
X141843595Y-97297227D01*
X141843592Y-97297227D01*
X141818576Y-97298383D01*
X141795847Y-97299434D01*
X141792984Y-97299500D01*
X141773512Y-97299500D01*
X141773507Y-97299500D01*
X141773505Y-97299501D01*
X141770871Y-97299993D01*
X141762341Y-97300982D01*
X141731364Y-97302415D01*
X141731362Y-97302415D01*
X141725021Y-97305215D01*
X141697735Y-97313664D01*
X141690928Y-97314936D01*
X141690922Y-97314939D01*
X141664558Y-97331261D01*
X141656959Y-97335266D01*
X141628593Y-97347792D01*
X141623692Y-97352693D01*
X141601298Y-97370431D01*
X141595404Y-97374080D01*
X141576715Y-97398827D01*
X141571074Y-97405310D01*
X140904282Y-98072101D01*
X140842959Y-98105586D01*
X140800416Y-98107359D01*
X140701357Y-98094318D01*
X140701355Y-98094318D01*
X140544595Y-98114955D01*
X140544593Y-98114956D01*
X140398516Y-98175463D01*
X140273074Y-98271718D01*
X140176819Y-98397160D01*
X140116312Y-98543237D01*
X140116312Y-98543238D01*
X140107946Y-98606779D01*
X140079678Y-98670675D01*
X140021353Y-98709146D01*
X139968822Y-98713531D01*
X139899124Y-98704355D01*
X139899122Y-98704355D01*
X139742362Y-98724992D01*
X139742360Y-98724993D01*
X139596283Y-98785500D01*
X139470839Y-98881756D01*
X139439180Y-98923016D01*
X139414929Y-98954622D01*
X139410017Y-98961023D01*
X139353589Y-99002226D01*
X139311641Y-99009537D01*
X138452805Y-99009537D01*
X138444231Y-99008942D01*
X138432202Y-99007264D01*
X138432199Y-99007264D01*
X138407183Y-99008420D01*
X138384454Y-99009471D01*
X138381591Y-99009537D01*
X138362119Y-99009537D01*
X138362114Y-99009537D01*
X138362112Y-99009538D01*
X138359478Y-99010030D01*
X138350948Y-99011019D01*
X138319971Y-99012452D01*
X138319969Y-99012452D01*
X138313628Y-99015252D01*
X138286342Y-99023701D01*
X138279535Y-99024973D01*
X138279529Y-99024976D01*
X138253165Y-99041298D01*
X138245566Y-99045303D01*
X138217200Y-99057829D01*
X138212299Y-99062730D01*
X138189905Y-99080468D01*
X138184011Y-99084117D01*
X138165322Y-99108864D01*
X138159681Y-99115347D01*
X137331948Y-99943080D01*
X137325464Y-99948722D01*
X137315768Y-99956044D01*
X137283559Y-99991374D01*
X137281585Y-99993442D01*
X137267827Y-100007200D01*
X137267822Y-100007206D01*
X137266306Y-100009420D01*
X137260976Y-100016148D01*
X137240083Y-100039066D01*
X137240083Y-100039067D01*
X137237578Y-100045533D01*
X137224259Y-100070802D01*
X137220345Y-100076515D01*
X137220343Y-100076521D01*
X137213244Y-100106699D01*
X137210702Y-100114907D01*
X137199500Y-100143826D01*
X137199500Y-100150751D01*
X137196206Y-100179141D01*
X137194621Y-100185877D01*
X137194621Y-100185881D01*
X137198905Y-100216590D01*
X137199500Y-100225166D01*
X137199500Y-111337158D01*
X137198905Y-111345732D01*
X137197227Y-111357763D01*
X137199434Y-111405509D01*
X137199500Y-111408372D01*
X137199500Y-111427845D01*
X137199993Y-111430482D01*
X137200982Y-111439015D01*
X137202415Y-111469991D01*
X137202416Y-111469997D01*
X137205214Y-111476334D01*
X137213664Y-111503620D01*
X137214937Y-111510429D01*
X137214937Y-111510430D01*
X137231260Y-111536793D01*
X137235263Y-111544386D01*
X137247794Y-111572765D01*
X137247795Y-111572766D01*
X137247796Y-111572768D01*
X137252689Y-111577661D01*
X137270435Y-111600065D01*
X137274077Y-111605948D01*
X137274080Y-111605951D01*
X137298826Y-111624639D01*
X137305311Y-111630282D01*
X141372101Y-115697072D01*
X141405586Y-115758395D01*
X141407359Y-115800938D01*
X141394318Y-115899998D01*
X141394318Y-115900001D01*
X141414955Y-116056760D01*
X141414956Y-116056762D01*
X141475464Y-116202842D01*
X141542686Y-116290447D01*
X141567880Y-116355616D01*
X141553842Y-116424061D01*
X141531991Y-116453614D01*
X139299927Y-118685681D01*
X139238604Y-118719166D01*
X139212246Y-118722000D01*
X137888928Y-118722000D01*
X137821889Y-118702315D01*
X137790552Y-118673486D01*
X137748912Y-118619219D01*
X137748911Y-118619218D01*
X137623470Y-118522964D01*
X137477391Y-118462456D01*
X137477389Y-118462455D01*
X137320630Y-118441818D01*
X137320628Y-118441818D01*
X137163868Y-118462455D01*
X137163866Y-118462456D01*
X137017789Y-118522963D01*
X136892347Y-118619218D01*
X136796092Y-118744660D01*
X136735585Y-118890737D01*
X136735584Y-118890739D01*
X136714947Y-119047498D01*
X136714947Y-119047501D01*
X136735584Y-119204260D01*
X136735585Y-119204262D01*
X136784472Y-119322287D01*
X136796093Y-119350341D01*
X136892347Y-119475782D01*
X137017788Y-119572036D01*
X137163867Y-119632544D01*
X137242248Y-119642863D01*
X137320628Y-119653182D01*
X137320629Y-119653182D01*
X137320630Y-119653182D01*
X137372883Y-119646302D01*
X137477391Y-119632544D01*
X137623470Y-119572036D01*
X137748911Y-119475782D01*
X137790552Y-119421513D01*
X137846980Y-119380311D01*
X137888928Y-119373000D01*
X139381512Y-119373000D01*
X139386915Y-119373235D01*
X139427241Y-119376764D01*
X139466374Y-119366277D01*
X139471596Y-119365119D01*
X139511479Y-119358088D01*
X139511484Y-119358084D01*
X139516533Y-119356247D01*
X139533258Y-119349319D01*
X139538115Y-119347054D01*
X139538118Y-119347054D01*
X139571275Y-119323835D01*
X139575824Y-119320938D01*
X139610889Y-119300694D01*
X139636915Y-119269676D01*
X139640556Y-119265702D01*
X141919442Y-116986819D01*
X141980765Y-116953334D01*
X142007123Y-116950500D01*
X142283383Y-116950500D01*
X142288786Y-116950735D01*
X142329112Y-116954264D01*
X142368245Y-116943777D01*
X142373467Y-116942619D01*
X142413350Y-116935588D01*
X142413355Y-116935584D01*
X142418404Y-116933747D01*
X142435129Y-116926819D01*
X142439986Y-116924554D01*
X142439989Y-116924554D01*
X142473146Y-116901335D01*
X142477695Y-116898438D01*
X142512760Y-116878194D01*
X142538786Y-116847176D01*
X142542426Y-116843203D01*
X142943210Y-116442420D01*
X142947172Y-116438789D01*
X142978194Y-116412760D01*
X142998444Y-116377683D01*
X143001333Y-116373150D01*
X143024553Y-116339989D01*
X143024555Y-116339981D01*
X143026816Y-116335133D01*
X143033754Y-116318384D01*
X143035583Y-116313357D01*
X143035588Y-116313350D01*
X143042622Y-116273452D01*
X143043779Y-116268234D01*
X143054263Y-116229112D01*
X143050735Y-116188794D01*
X143050500Y-116183391D01*
X143050500Y-113941909D01*
X143050736Y-113936502D01*
X143054263Y-113896191D01*
X143043786Y-113857092D01*
X143042617Y-113851824D01*
X143035588Y-113811955D01*
X143035587Y-113811954D01*
X143035587Y-113811951D01*
X143033765Y-113806947D01*
X143026815Y-113790168D01*
X143024554Y-113785319D01*
X143024553Y-113785318D01*
X143024553Y-113785316D01*
X143001333Y-113752154D01*
X142998435Y-113747604D01*
X142994845Y-113741387D01*
X142978194Y-113712545D01*
X142978191Y-113712542D01*
X142978190Y-113712541D01*
X142961189Y-113698276D01*
X142947182Y-113686522D01*
X142943210Y-113682883D01*
X142828272Y-113567945D01*
X142732011Y-113471684D01*
X142698526Y-113410361D01*
X142696753Y-113367816D01*
X142705682Y-113299999D01*
X142705682Y-113299998D01*
X142691923Y-113195492D01*
X142685044Y-113143238D01*
X142685043Y-113143236D01*
X142682940Y-113135387D01*
X142686278Y-113134492D01*
X142680510Y-113080865D01*
X142711781Y-113018384D01*
X142771868Y-112982728D01*
X142841693Y-112985217D01*
X142890222Y-113015193D01*
X145572101Y-115697072D01*
X145605586Y-115758395D01*
X145607359Y-115800938D01*
X145594318Y-115899998D01*
X145594318Y-115900001D01*
X145614955Y-116056760D01*
X145614956Y-116056762D01*
X145667407Y-116183391D01*
X145675464Y-116202841D01*
X145771718Y-116328282D01*
X145897159Y-116424536D01*
X145920488Y-116434199D01*
X145923481Y-116435439D01*
X145977884Y-116479280D01*
X145999949Y-116545575D01*
X145982670Y-116613274D01*
X145931532Y-116660884D01*
X145923481Y-116664561D01*
X145897160Y-116675463D01*
X145771718Y-116771718D01*
X145675463Y-116897160D01*
X145614956Y-117043237D01*
X145614955Y-117043239D01*
X145594318Y-117199998D01*
X145594318Y-117200001D01*
X145614955Y-117356760D01*
X145614956Y-117356762D01*
X145647796Y-117436046D01*
X145675464Y-117502841D01*
X145771718Y-117628282D01*
X145897159Y-117724536D01*
X146043238Y-117785044D01*
X146121619Y-117795363D01*
X146199999Y-117805682D01*
X146200000Y-117805682D01*
X146200001Y-117805682D01*
X146252254Y-117798802D01*
X146356762Y-117785044D01*
X146502841Y-117724536D01*
X146628282Y-117628282D01*
X146724536Y-117502841D01*
X146785044Y-117356762D01*
X146805682Y-117200000D01*
X146792640Y-117100936D01*
X146803405Y-117031902D01*
X146827895Y-116997074D01*
X147168059Y-116656910D01*
X147174532Y-116651279D01*
X147184224Y-116643959D01*
X147184228Y-116643958D01*
X147216459Y-116608600D01*
X147218367Y-116606602D01*
X147232174Y-116592797D01*
X147233684Y-116590592D01*
X147239023Y-116583851D01*
X147241368Y-116581278D01*
X147259916Y-116560933D01*
X147262417Y-116554476D01*
X147275750Y-116529184D01*
X147279657Y-116523481D01*
X147286757Y-116493294D01*
X147289296Y-116485092D01*
X147300500Y-116456173D01*
X147300500Y-116449248D01*
X147303794Y-116420856D01*
X147305379Y-116414119D01*
X147301095Y-116383408D01*
X147300500Y-116374833D01*
X147300500Y-109370284D01*
X147320185Y-109303245D01*
X147372989Y-109257490D01*
X147442147Y-109247546D01*
X147471946Y-109255721D01*
X147542738Y-109285044D01*
X147621119Y-109295363D01*
X147699499Y-109305682D01*
X147699500Y-109305682D01*
X147699501Y-109305682D01*
X147775093Y-109295730D01*
X147856262Y-109285044D01*
X148002341Y-109224536D01*
X148127782Y-109128282D01*
X148188606Y-109049013D01*
X148245034Y-109007811D01*
X148286982Y-109000500D01*
X148837159Y-109000500D01*
X148845733Y-109001095D01*
X148857761Y-109002772D01*
X148857761Y-109002771D01*
X148857765Y-109002773D01*
X148900920Y-109000778D01*
X148905510Y-109000566D01*
X148908373Y-109000500D01*
X148927843Y-109000500D01*
X148927844Y-109000500D01*
X148930469Y-109000009D01*
X148939021Y-108999016D01*
X148940245Y-108998959D01*
X148969992Y-108997585D01*
X148976322Y-108994789D01*
X149003629Y-108986332D01*
X149010433Y-108985061D01*
X149036797Y-108968736D01*
X149044392Y-108964733D01*
X149072765Y-108952206D01*
X149077661Y-108947309D01*
X149100069Y-108929561D01*
X149105952Y-108925919D01*
X149124649Y-108901158D01*
X149130266Y-108894703D01*
X149647041Y-108377928D01*
X149653514Y-108372297D01*
X149663206Y-108364977D01*
X149663210Y-108364976D01*
X149695441Y-108329618D01*
X149697350Y-108327619D01*
X149708457Y-108316513D01*
X149769783Y-108283035D01*
X149839474Y-108288027D01*
X149895404Y-108329903D01*
X149919814Y-108395370D01*
X149920129Y-108404204D01*
X149920129Y-128921810D01*
X149900444Y-128988849D01*
X149847640Y-129034604D01*
X149808284Y-129045213D01*
X149610438Y-129064699D01*
X149412414Y-129124769D01*
X149324485Y-129171769D01*
X149229921Y-129222315D01*
X149229919Y-129222316D01*
X149229918Y-129222317D01*
X149069960Y-129353589D01*
X148938688Y-129513547D01*
X148938686Y-129513550D01*
X148916474Y-129555106D01*
X148841140Y-129696043D01*
X148781070Y-129894067D01*
X148760788Y-130100000D01*
X148781070Y-130305932D01*
X148781071Y-130305934D01*
X148841139Y-130503954D01*
X148938686Y-130686450D01*
X148957310Y-130709143D01*
X149069960Y-130846410D01*
X149156016Y-130917033D01*
X149229921Y-130977685D01*
X149339286Y-131036142D01*
X149389130Y-131085105D01*
X149404590Y-131153243D01*
X149380758Y-131218922D01*
X149325200Y-131261291D01*
X149280832Y-131269500D01*
X148922204Y-131269500D01*
X148855165Y-131249815D01*
X148834523Y-131233181D01*
X148363190Y-130761848D01*
X148329705Y-130700525D01*
X148326871Y-130674167D01*
X148326871Y-129230249D01*
X148326870Y-129230247D01*
X148315239Y-129171770D01*
X148315238Y-129171769D01*
X148270923Y-129105447D01*
X148204601Y-129061132D01*
X148204600Y-129061131D01*
X148146123Y-129049500D01*
X148146119Y-129049500D01*
X146406623Y-129049500D01*
X146406618Y-129049500D01*
X146348141Y-129061131D01*
X146348140Y-129061132D01*
X146281818Y-129105447D01*
X146237503Y-129171769D01*
X146237502Y-129171770D01*
X146225871Y-129230247D01*
X146225871Y-130969752D01*
X146237502Y-131028229D01*
X146237503Y-131028230D01*
X146281818Y-131094552D01*
X146348140Y-131138867D01*
X146348141Y-131138868D01*
X146406618Y-131150499D01*
X146406621Y-131150500D01*
X146406623Y-131150500D01*
X147850538Y-131150500D01*
X147917577Y-131170185D01*
X147938219Y-131186819D01*
X148239219Y-131487819D01*
X148272704Y-131549142D01*
X148267720Y-131618834D01*
X148225848Y-131674767D01*
X148160384Y-131699184D01*
X148151538Y-131699500D01*
X125001742Y-131699500D01*
X124998265Y-131699402D01*
X124701229Y-131682721D01*
X124694315Y-131681942D01*
X124402742Y-131632401D01*
X124395958Y-131630853D01*
X124111757Y-131548976D01*
X124105190Y-131546677D01*
X123870282Y-131449376D01*
X123831947Y-131433497D01*
X123825682Y-131430480D01*
X123566829Y-131287417D01*
X123560937Y-131283715D01*
X123319731Y-131112570D01*
X123314291Y-131108232D01*
X123093763Y-130911156D01*
X123088843Y-130906236D01*
X122891767Y-130685708D01*
X122887429Y-130680268D01*
X122716284Y-130439062D01*
X122712582Y-130433170D01*
X122575101Y-130184416D01*
X122569515Y-130174309D01*
X122566505Y-130168060D01*
X122509911Y-130031428D01*
X122453322Y-129894809D01*
X122451023Y-129888242D01*
X122369146Y-129604041D01*
X122367598Y-129597257D01*
X122353965Y-129517020D01*
X122318055Y-129305670D01*
X122317279Y-129298780D01*
X122305672Y-129092093D01*
X122300598Y-129001735D01*
X122300500Y-128998258D01*
X122300500Y-128897844D01*
X123061371Y-128897844D01*
X123067772Y-128957372D01*
X123067774Y-128957379D01*
X123118016Y-129092086D01*
X123118020Y-129092093D01*
X123204180Y-129207187D01*
X123204183Y-129207190D01*
X123319277Y-129293350D01*
X123319284Y-129293354D01*
X123453991Y-129343596D01*
X123453998Y-129343598D01*
X123513526Y-129349999D01*
X123513543Y-129350000D01*
X124161371Y-129350000D01*
X124161371Y-128435501D01*
X124269056Y-128484680D01*
X124375608Y-128500000D01*
X124447134Y-128500000D01*
X124553686Y-128484680D01*
X124661371Y-128435501D01*
X124661371Y-129350000D01*
X125309199Y-129350000D01*
X125309215Y-129349999D01*
X125368743Y-129343598D01*
X125368750Y-129343596D01*
X125503457Y-129293354D01*
X125503464Y-129293350D01*
X125618558Y-129207190D01*
X125618561Y-129207187D01*
X125704721Y-129092093D01*
X125704725Y-129092086D01*
X125754967Y-128957379D01*
X125754969Y-128957372D01*
X125761370Y-128897844D01*
X125761371Y-128897827D01*
X125761371Y-128250000D01*
X124845057Y-128250000D01*
X124870864Y-128209844D01*
X124911371Y-128071889D01*
X124911371Y-127928111D01*
X124870864Y-127790156D01*
X124845057Y-127750000D01*
X125761371Y-127750000D01*
X125761371Y-127102172D01*
X125761370Y-127102155D01*
X125754969Y-127042627D01*
X125754967Y-127042620D01*
X125704725Y-126907913D01*
X125704721Y-126907906D01*
X125618561Y-126792812D01*
X125618558Y-126792809D01*
X125503464Y-126706649D01*
X125503457Y-126706645D01*
X125368750Y-126656403D01*
X125368743Y-126656401D01*
X125309215Y-126650000D01*
X124908558Y-126650000D01*
X124841519Y-126630315D01*
X124795764Y-126577511D01*
X124785820Y-126508353D01*
X124814845Y-126444797D01*
X124850104Y-126416642D01*
X124997821Y-126337685D01*
X125157781Y-126206410D01*
X125289056Y-126046450D01*
X125386603Y-125863954D01*
X125446671Y-125665934D01*
X125466954Y-125460000D01*
X125446671Y-125254066D01*
X125386603Y-125056046D01*
X125383635Y-125050493D01*
X125378991Y-125041804D01*
X125364750Y-124973401D01*
X125389751Y-124908157D01*
X125400662Y-124895678D01*
X126398840Y-123897500D01*
X129289993Y-123897500D01*
X129347196Y-124110986D01*
X129347199Y-124110992D01*
X129447028Y-124325078D01*
X129582523Y-124518582D01*
X129749546Y-124685605D01*
X129943050Y-124821100D01*
X130157136Y-124920929D01*
X130157145Y-124920933D01*
X130370629Y-124978134D01*
X130370629Y-124083001D01*
X130478314Y-124132180D01*
X130584866Y-124147500D01*
X130656392Y-124147500D01*
X130762944Y-124132180D01*
X130870629Y-124083001D01*
X130870629Y-124978133D01*
X131084112Y-124920933D01*
X131084121Y-124920929D01*
X131298207Y-124821100D01*
X131491711Y-124685605D01*
X131658734Y-124518582D01*
X131794229Y-124325078D01*
X131894058Y-124110992D01*
X131894061Y-124110986D01*
X131951265Y-123897500D01*
X131054315Y-123897500D01*
X131080122Y-123857344D01*
X131120629Y-123719389D01*
X131120629Y-123575611D01*
X131080122Y-123437656D01*
X131054315Y-123397500D01*
X131951265Y-123397500D01*
X131951264Y-123397499D01*
X131894061Y-123184013D01*
X131894058Y-123184007D01*
X131794229Y-122969922D01*
X131794228Y-122969920D01*
X131658742Y-122776426D01*
X131658737Y-122776420D01*
X131491711Y-122609394D01*
X131298207Y-122473899D01*
X131084121Y-122374070D01*
X131084115Y-122374067D01*
X130961978Y-122341341D01*
X130902318Y-122304976D01*
X130871789Y-122242129D01*
X130880084Y-122172753D01*
X130924569Y-122118875D01*
X130958073Y-122102907D01*
X131024583Y-122082732D01*
X131207079Y-121985185D01*
X131367039Y-121853910D01*
X131498314Y-121693950D01*
X131595861Y-121511454D01*
X131655929Y-121313434D01*
X131676212Y-121107500D01*
X131655929Y-120901566D01*
X131595861Y-120703546D01*
X131498314Y-120521050D01*
X131437836Y-120447357D01*
X131367039Y-120361089D01*
X131207081Y-120229817D01*
X131207082Y-120229817D01*
X131207079Y-120229815D01*
X131024583Y-120132268D01*
X130826563Y-120072200D01*
X130826561Y-120072199D01*
X130826563Y-120072199D01*
X130620629Y-120051917D01*
X130414696Y-120072199D01*
X130216672Y-120132269D01*
X130138477Y-120174066D01*
X130034179Y-120229815D01*
X130034177Y-120229816D01*
X130034176Y-120229817D01*
X129874218Y-120361089D01*
X129742946Y-120521047D01*
X129742944Y-120521050D01*
X129704272Y-120593398D01*
X129645398Y-120703543D01*
X129585328Y-120901567D01*
X129565046Y-121107500D01*
X129585328Y-121313432D01*
X129598008Y-121355232D01*
X129645397Y-121511454D01*
X129742944Y-121693950D01*
X129742946Y-121693952D01*
X129874218Y-121853910D01*
X129967790Y-121930701D01*
X130034179Y-121985185D01*
X130216675Y-122082732D01*
X130283180Y-122102905D01*
X130341618Y-122141202D01*
X130370075Y-122205014D01*
X130359516Y-122274081D01*
X130313292Y-122326475D01*
X130279279Y-122341341D01*
X130157143Y-122374067D01*
X130157136Y-122374070D01*
X129943051Y-122473899D01*
X129943049Y-122473900D01*
X129749555Y-122609386D01*
X129749549Y-122609391D01*
X129582520Y-122776420D01*
X129582515Y-122776426D01*
X129447029Y-122969920D01*
X129447028Y-122969922D01*
X129347199Y-123184007D01*
X129347196Y-123184013D01*
X129289993Y-123397499D01*
X129289993Y-123397500D01*
X130186943Y-123397500D01*
X130161136Y-123437656D01*
X130120629Y-123575611D01*
X130120629Y-123719389D01*
X130161136Y-123857344D01*
X130186943Y-123897500D01*
X129289993Y-123897500D01*
X126398840Y-123897500D01*
X128068059Y-122228281D01*
X128074532Y-122222650D01*
X128084224Y-122215330D01*
X128084228Y-122215329D01*
X128116459Y-122179971D01*
X128118367Y-122177973D01*
X128132174Y-122164168D01*
X128133684Y-122161963D01*
X128139023Y-122155222D01*
X128151804Y-122141202D01*
X128159916Y-122132304D01*
X128162416Y-122125849D01*
X128175749Y-122100553D01*
X128179656Y-122094852D01*
X128186757Y-122064656D01*
X128189292Y-122056472D01*
X128200500Y-122027544D01*
X128200500Y-122020619D01*
X128203795Y-121992226D01*
X128205378Y-121985494D01*
X128205379Y-121985490D01*
X128201095Y-121954780D01*
X128200500Y-121946205D01*
X128200500Y-118567500D01*
X129565046Y-118567500D01*
X129585328Y-118773432D01*
X129598008Y-118815232D01*
X129645397Y-118971454D01*
X129742944Y-119153950D01*
X129742946Y-119153952D01*
X129874218Y-119313910D01*
X129946221Y-119373000D01*
X130034179Y-119445185D01*
X130216675Y-119542732D01*
X130414695Y-119602800D01*
X130414694Y-119602800D01*
X130433158Y-119604618D01*
X130620629Y-119623083D01*
X130826563Y-119602800D01*
X131024583Y-119542732D01*
X131207079Y-119445185D01*
X131367039Y-119313910D01*
X131498314Y-119153950D01*
X131595861Y-118971454D01*
X131655929Y-118773434D01*
X131676212Y-118567500D01*
X131655929Y-118361566D01*
X131595861Y-118163546D01*
X131498314Y-117981050D01*
X131446331Y-117917709D01*
X131367039Y-117821089D01*
X131207081Y-117689817D01*
X131207082Y-117689817D01*
X131207079Y-117689815D01*
X131024583Y-117592268D01*
X130826563Y-117532200D01*
X130826561Y-117532199D01*
X130826563Y-117532199D01*
X130620629Y-117511917D01*
X130414696Y-117532199D01*
X130216672Y-117592269D01*
X130149300Y-117628281D01*
X130034179Y-117689815D01*
X130034177Y-117689816D01*
X130034176Y-117689817D01*
X129874218Y-117821089D01*
X129742946Y-117981047D01*
X129742944Y-117981050D01*
X129704272Y-118053398D01*
X129645398Y-118163543D01*
X129585328Y-118361567D01*
X129565046Y-118567500D01*
X128200500Y-118567500D01*
X128200500Y-116027500D01*
X129565046Y-116027500D01*
X129585328Y-116233432D01*
X129598008Y-116275232D01*
X129645397Y-116431454D01*
X129742944Y-116613950D01*
X129742946Y-116613952D01*
X129874218Y-116773910D01*
X129958639Y-116843191D01*
X130034179Y-116905185D01*
X130216675Y-117002732D01*
X130414695Y-117062800D01*
X130414694Y-117062800D01*
X130433158Y-117064618D01*
X130620629Y-117083083D01*
X130826563Y-117062800D01*
X131024583Y-117002732D01*
X131207079Y-116905185D01*
X131367039Y-116773910D01*
X131498314Y-116613950D01*
X131595861Y-116431454D01*
X131655929Y-116233434D01*
X131676212Y-116027500D01*
X131655929Y-115821566D01*
X131595861Y-115623546D01*
X131498314Y-115441050D01*
X131444489Y-115375464D01*
X131367039Y-115281089D01*
X131249306Y-115184469D01*
X131207079Y-115149815D01*
X131024583Y-115052268D01*
X130826563Y-114992200D01*
X130826561Y-114992199D01*
X130826563Y-114992199D01*
X130620629Y-114971917D01*
X130414696Y-114992199D01*
X130216672Y-115052269D01*
X130138477Y-115094066D01*
X130034179Y-115149815D01*
X130034177Y-115149816D01*
X130034176Y-115149817D01*
X129874218Y-115281089D01*
X129742946Y-115441047D01*
X129742944Y-115441050D01*
X129704272Y-115513398D01*
X129645398Y-115623543D01*
X129585328Y-115821567D01*
X129565046Y-116027500D01*
X128200500Y-116027500D01*
X128200500Y-113487500D01*
X129565046Y-113487500D01*
X129585328Y-113693432D01*
X129613201Y-113785316D01*
X129645397Y-113891454D01*
X129742944Y-114073950D01*
X129776597Y-114114956D01*
X129874218Y-114233910D01*
X129967790Y-114310701D01*
X130034179Y-114365185D01*
X130216675Y-114462732D01*
X130414695Y-114522800D01*
X130414694Y-114522800D01*
X130433158Y-114524618D01*
X130620629Y-114543083D01*
X130826563Y-114522800D01*
X131024583Y-114462732D01*
X131207079Y-114365185D01*
X131367039Y-114233910D01*
X131498314Y-114073950D01*
X131595861Y-113891454D01*
X131655929Y-113693434D01*
X131676212Y-113487500D01*
X131655929Y-113281566D01*
X131595861Y-113083546D01*
X131498314Y-112901050D01*
X131395249Y-112775464D01*
X131367039Y-112741089D01*
X131244825Y-112640792D01*
X131207079Y-112609815D01*
X131024583Y-112512268D01*
X130826563Y-112452200D01*
X130826561Y-112452199D01*
X130826563Y-112452199D01*
X130620629Y-112431917D01*
X130414696Y-112452199D01*
X130216672Y-112512269D01*
X130138477Y-112554066D01*
X130034179Y-112609815D01*
X130034177Y-112609816D01*
X130034176Y-112609817D01*
X129874218Y-112741089D01*
X129742946Y-112901047D01*
X129742944Y-112901050D01*
X129704272Y-112973398D01*
X129645398Y-113083543D01*
X129585328Y-113281567D01*
X129565046Y-113487500D01*
X128200500Y-113487500D01*
X128200500Y-111543962D01*
X128220185Y-111476923D01*
X128236819Y-111456281D01*
X129358448Y-110334652D01*
X129419771Y-110301167D01*
X129489463Y-110306151D01*
X129545396Y-110348023D01*
X129569813Y-110413487D01*
X129570129Y-110422333D01*
X129570129Y-111817252D01*
X129581760Y-111875729D01*
X129581761Y-111875730D01*
X129626076Y-111942052D01*
X129692398Y-111986367D01*
X129692399Y-111986368D01*
X129750876Y-111997999D01*
X129750879Y-111998000D01*
X129750881Y-111998000D01*
X131490379Y-111998000D01*
X131490380Y-111997999D01*
X131507133Y-111994667D01*
X131548858Y-111986368D01*
X131548858Y-111986367D01*
X131548860Y-111986367D01*
X131615181Y-111942052D01*
X131659496Y-111875731D01*
X131659496Y-111875729D01*
X131659497Y-111875729D01*
X131671128Y-111817252D01*
X131671129Y-111817250D01*
X131671129Y-110258657D01*
X131690814Y-110191618D01*
X131743618Y-110145863D01*
X131812776Y-110135919D01*
X131876332Y-110164944D01*
X131882810Y-110170976D01*
X133163181Y-111451347D01*
X133196666Y-111512670D01*
X133199500Y-111539028D01*
X133199500Y-111734170D01*
X133198905Y-111742744D01*
X133197227Y-111754775D01*
X133199434Y-111802521D01*
X133199500Y-111805384D01*
X133199500Y-111824857D01*
X133199993Y-111827494D01*
X133200982Y-111836027D01*
X133202415Y-111867003D01*
X133202416Y-111867009D01*
X133205214Y-111873346D01*
X133213664Y-111900632D01*
X133214937Y-111907441D01*
X133214937Y-111907442D01*
X133231260Y-111933805D01*
X133235263Y-111941398D01*
X133247794Y-111969777D01*
X133247795Y-111969778D01*
X133247796Y-111969780D01*
X133252689Y-111974673D01*
X133270435Y-111997077D01*
X133274077Y-112002960D01*
X133274080Y-112002963D01*
X133298826Y-112021651D01*
X133305311Y-112027294D01*
X134372101Y-113094084D01*
X134405586Y-113155407D01*
X134407359Y-113197950D01*
X134394318Y-113297010D01*
X134394318Y-113297013D01*
X134414955Y-113453772D01*
X134414956Y-113453774D01*
X134442089Y-113519280D01*
X134475464Y-113599853D01*
X134571718Y-113725294D01*
X134697159Y-113821548D01*
X134843238Y-113882056D01*
X134921619Y-113892375D01*
X134999999Y-113902694D01*
X135000000Y-113902694D01*
X135000001Y-113902694D01*
X135052254Y-113895814D01*
X135156762Y-113882056D01*
X135302841Y-113821548D01*
X135428282Y-113725294D01*
X135524536Y-113599853D01*
X135585044Y-113453774D01*
X135602232Y-113323218D01*
X135605682Y-113297013D01*
X135605682Y-113297010D01*
X135587039Y-113155407D01*
X135585044Y-113140250D01*
X135524536Y-112994171D01*
X135431362Y-112872745D01*
X135406170Y-112807578D01*
X135420208Y-112739134D01*
X135431359Y-112721782D01*
X135524537Y-112600351D01*
X135585045Y-112454272D01*
X135600464Y-112337151D01*
X135605683Y-112297511D01*
X135605683Y-112297508D01*
X135585045Y-112140749D01*
X135585045Y-112140748D01*
X135524537Y-111994669D01*
X135524536Y-111994668D01*
X135524536Y-111994667D01*
X135431363Y-111873242D01*
X135406169Y-111808073D01*
X135420207Y-111739628D01*
X135431355Y-111722280D01*
X135524533Y-111600849D01*
X135585041Y-111454770D01*
X135605679Y-111298008D01*
X135602054Y-111270477D01*
X135585041Y-111141247D01*
X135585041Y-111141246D01*
X135524533Y-110995167D01*
X135524532Y-110995166D01*
X135524532Y-110995165D01*
X135431369Y-110873753D01*
X135406175Y-110808584D01*
X135420213Y-110740139D01*
X135431361Y-110722791D01*
X135524549Y-110601347D01*
X135585057Y-110455268D01*
X135600936Y-110334652D01*
X135605695Y-110298507D01*
X135605695Y-110298504D01*
X135586939Y-110156042D01*
X135585057Y-110141744D01*
X135524549Y-109995665D01*
X135524548Y-109995664D01*
X135524548Y-109995663D01*
X135431344Y-109874197D01*
X135406150Y-109809028D01*
X135420188Y-109740583D01*
X135431340Y-109723231D01*
X135524483Y-109601845D01*
X135584991Y-109455766D01*
X135605629Y-109299004D01*
X135598854Y-109247546D01*
X135584991Y-109142243D01*
X135584991Y-109142242D01*
X135524483Y-108996163D01*
X135524482Y-108996162D01*
X135524482Y-108996161D01*
X135431444Y-108874912D01*
X135406250Y-108809743D01*
X135420288Y-108741298D01*
X135431437Y-108723949D01*
X135524750Y-108602343D01*
X135585258Y-108456264D01*
X135605896Y-108299502D01*
X135604385Y-108288027D01*
X135592137Y-108194994D01*
X135585258Y-108142740D01*
X135524750Y-107996661D01*
X135524749Y-107996660D01*
X135524749Y-107996659D01*
X135431221Y-107874771D01*
X135406027Y-107809602D01*
X135420065Y-107741157D01*
X135431218Y-107723803D01*
X135524036Y-107602841D01*
X135584544Y-107456762D01*
X135605182Y-107300000D01*
X135602028Y-107276046D01*
X135584544Y-107143239D01*
X135584544Y-107143238D01*
X135524036Y-106997159D01*
X135427782Y-106871718D01*
X135302341Y-106775464D01*
X135156262Y-106714956D01*
X135156260Y-106714955D01*
X134999501Y-106694318D01*
X134999499Y-106694318D01*
X134900438Y-106707359D01*
X134831402Y-106696593D01*
X134796569Y-106672098D01*
X134792297Y-106667826D01*
X134790086Y-106666311D01*
X134783353Y-106660978D01*
X134760433Y-106640084D01*
X134753970Y-106637580D01*
X134728692Y-106624256D01*
X134722981Y-106620344D01*
X134722978Y-106620343D01*
X134722979Y-106620343D01*
X134692802Y-106613244D01*
X134684594Y-106610703D01*
X134655673Y-106599500D01*
X134648749Y-106599500D01*
X134620358Y-106596206D01*
X134613619Y-106594621D01*
X134582909Y-106598905D01*
X134574334Y-106599500D01*
X127794212Y-106599500D01*
X127785638Y-106598905D01*
X127773609Y-106597227D01*
X127773606Y-106597227D01*
X127748590Y-106598383D01*
X127725861Y-106599434D01*
X127722998Y-106599500D01*
X127703526Y-106599500D01*
X127702578Y-106599677D01*
X127700886Y-106599993D01*
X127692358Y-106600982D01*
X127663168Y-106602332D01*
X127661379Y-106602415D01*
X127655034Y-106605215D01*
X127627751Y-106613665D01*
X127620939Y-106614938D01*
X127620938Y-106614939D01*
X127605630Y-106624417D01*
X127594577Y-106631260D01*
X127586978Y-106635265D01*
X127558606Y-106647793D01*
X127553707Y-106652693D01*
X127531313Y-106670431D01*
X127525419Y-106674080D01*
X127506730Y-106698827D01*
X127501089Y-106705310D01*
X124975697Y-109230701D01*
X124914374Y-109264186D01*
X124844682Y-109259202D01*
X124829564Y-109252379D01*
X124815327Y-109244769D01*
X124815326Y-109244768D01*
X124815325Y-109244768D01*
X124617305Y-109184700D01*
X124617303Y-109184699D01*
X124617305Y-109184699D01*
X124411371Y-109164417D01*
X124205438Y-109184699D01*
X124007414Y-109244769D01*
X123905953Y-109299002D01*
X123824921Y-109342315D01*
X123824919Y-109342316D01*
X123824918Y-109342317D01*
X123664960Y-109473589D01*
X123533688Y-109633547D01*
X123436140Y-109816043D01*
X123376070Y-110014067D01*
X123355788Y-110220000D01*
X123376070Y-110425932D01*
X123384969Y-110455268D01*
X123436139Y-110623954D01*
X123533686Y-110806450D01*
X123543139Y-110817968D01*
X123664960Y-110966410D01*
X123739077Y-111027235D01*
X123824921Y-111097685D01*
X124007417Y-111195232D01*
X124205437Y-111255300D01*
X124205436Y-111255300D01*
X124223900Y-111257118D01*
X124411371Y-111275583D01*
X124617305Y-111255300D01*
X124815325Y-111195232D01*
X124997821Y-111097685D01*
X125157781Y-110966410D01*
X125289056Y-110806450D01*
X125366142Y-110662232D01*
X125415105Y-110612389D01*
X125483242Y-110596929D01*
X125548922Y-110620761D01*
X125591291Y-110676319D01*
X125599500Y-110720687D01*
X125599500Y-111624166D01*
X125579815Y-111691205D01*
X125563181Y-111711847D01*
X125294183Y-111980844D01*
X125232860Y-112014329D01*
X125163168Y-112009345D01*
X125127837Y-111989016D01*
X125124610Y-111986368D01*
X125070611Y-111942052D01*
X124997824Y-111882317D01*
X124997822Y-111882316D01*
X124997821Y-111882315D01*
X124842391Y-111799235D01*
X124815327Y-111784769D01*
X124815326Y-111784768D01*
X124815325Y-111784768D01*
X124617305Y-111724700D01*
X124617303Y-111724699D01*
X124617305Y-111724699D01*
X124411371Y-111704417D01*
X124205438Y-111724699D01*
X124007414Y-111784769D01*
X123946644Y-111817252D01*
X123824921Y-111882315D01*
X123824919Y-111882316D01*
X123824918Y-111882317D01*
X123664960Y-112013589D01*
X123533688Y-112173547D01*
X123436140Y-112356043D01*
X123376070Y-112554067D01*
X123355788Y-112760000D01*
X123376070Y-112965932D01*
X123376071Y-112965934D01*
X123436139Y-113163954D01*
X123533686Y-113346450D01*
X123533688Y-113346452D01*
X123664960Y-113506410D01*
X123756732Y-113581724D01*
X123824921Y-113637685D01*
X124007417Y-113735232D01*
X124205437Y-113795300D01*
X124205436Y-113795300D01*
X124223900Y-113797118D01*
X124411371Y-113815583D01*
X124617305Y-113795300D01*
X124815325Y-113735232D01*
X124997821Y-113637685D01*
X125157781Y-113506410D01*
X125289056Y-113346450D01*
X125386603Y-113163954D01*
X125446671Y-112965934D01*
X125466954Y-112760000D01*
X125463558Y-112725523D01*
X125476576Y-112656879D01*
X125499277Y-112625692D01*
X125787820Y-112337150D01*
X125849142Y-112303666D01*
X125918834Y-112308650D01*
X125974767Y-112350522D01*
X125999184Y-112415986D01*
X125999500Y-112424832D01*
X125999500Y-113235537D01*
X125979815Y-113302576D01*
X125963181Y-113323218D01*
X124975697Y-114310701D01*
X124914374Y-114344186D01*
X124844682Y-114339202D01*
X124829564Y-114332379D01*
X124815327Y-114324769D01*
X124815326Y-114324768D01*
X124815325Y-114324768D01*
X124617305Y-114264700D01*
X124617303Y-114264699D01*
X124617305Y-114264699D01*
X124411371Y-114244417D01*
X124205438Y-114264699D01*
X124007414Y-114324769D01*
X123897269Y-114383643D01*
X123824921Y-114422315D01*
X123824919Y-114422316D01*
X123824918Y-114422317D01*
X123664960Y-114553589D01*
X123544806Y-114700000D01*
X123533686Y-114713550D01*
X123510589Y-114756762D01*
X123436140Y-114896043D01*
X123376070Y-115094067D01*
X123355788Y-115300000D01*
X123376070Y-115505932D01*
X123376071Y-115505934D01*
X123436139Y-115703954D01*
X123533686Y-115886450D01*
X123544806Y-115900000D01*
X123664960Y-116046410D01*
X123761580Y-116125702D01*
X123824921Y-116177685D01*
X124007417Y-116275232D01*
X124205437Y-116335300D01*
X124205436Y-116335300D01*
X124223900Y-116337118D01*
X124411371Y-116355583D01*
X124617305Y-116335300D01*
X124815325Y-116275232D01*
X124997821Y-116177685D01*
X125157781Y-116046410D01*
X125289056Y-115886450D01*
X125386603Y-115703954D01*
X125446671Y-115505934D01*
X125466954Y-115300000D01*
X125446671Y-115094066D01*
X125386603Y-114896046D01*
X125378991Y-114881806D01*
X125364750Y-114813404D01*
X125389750Y-114748160D01*
X125400669Y-114735672D01*
X125825640Y-114310701D01*
X126187820Y-113948521D01*
X126249142Y-113915037D01*
X126318834Y-113920021D01*
X126374767Y-113961893D01*
X126399184Y-114027357D01*
X126399500Y-114036203D01*
X126399500Y-115375537D01*
X126379815Y-115442576D01*
X126363181Y-115463218D01*
X124975697Y-116850701D01*
X124914374Y-116884186D01*
X124844682Y-116879202D01*
X124829564Y-116872379D01*
X124815327Y-116864769D01*
X124815326Y-116864768D01*
X124815325Y-116864768D01*
X124617305Y-116804700D01*
X124617303Y-116804699D01*
X124617305Y-116804699D01*
X124411371Y-116784417D01*
X124205438Y-116804699D01*
X124007414Y-116864769D01*
X123897269Y-116923643D01*
X123824921Y-116962315D01*
X123824919Y-116962316D01*
X123824918Y-116962317D01*
X123664960Y-117093589D01*
X123533688Y-117253547D01*
X123533686Y-117253550D01*
X123495014Y-117325898D01*
X123436140Y-117436043D01*
X123376070Y-117634067D01*
X123355788Y-117840000D01*
X123376070Y-118045932D01*
X123376071Y-118045934D01*
X123436139Y-118243954D01*
X123533686Y-118426450D01*
X123533688Y-118426452D01*
X123664960Y-118586410D01*
X123704939Y-118619219D01*
X123824921Y-118717685D01*
X124007417Y-118815232D01*
X124205437Y-118875300D01*
X124205436Y-118875300D01*
X124223900Y-118877118D01*
X124411371Y-118895583D01*
X124617305Y-118875300D01*
X124815325Y-118815232D01*
X124997821Y-118717685D01*
X125157781Y-118586410D01*
X125289056Y-118426450D01*
X125386603Y-118243954D01*
X125446671Y-118045934D01*
X125466954Y-117840000D01*
X125446671Y-117634066D01*
X125386603Y-117436046D01*
X125378991Y-117421806D01*
X125364750Y-117353404D01*
X125389750Y-117288160D01*
X125400669Y-117275672D01*
X126063067Y-116613274D01*
X126587820Y-116088520D01*
X126649142Y-116055037D01*
X126718834Y-116060021D01*
X126774767Y-116101893D01*
X126799184Y-116167357D01*
X126799500Y-116176203D01*
X126799500Y-117515537D01*
X126779815Y-117582576D01*
X126763181Y-117603218D01*
X124975697Y-119390701D01*
X124914374Y-119424186D01*
X124844682Y-119419202D01*
X124829564Y-119412379D01*
X124815327Y-119404769D01*
X124815326Y-119404768D01*
X124815325Y-119404768D01*
X124617305Y-119344700D01*
X124617303Y-119344699D01*
X124617305Y-119344699D01*
X124411371Y-119324417D01*
X124205438Y-119344699D01*
X124007414Y-119404769D01*
X123897269Y-119463643D01*
X123824921Y-119502315D01*
X123824919Y-119502316D01*
X123824918Y-119502317D01*
X123664960Y-119633589D01*
X123533688Y-119793547D01*
X123533686Y-119793550D01*
X123495014Y-119865898D01*
X123436140Y-119976043D01*
X123376070Y-120174067D01*
X123355788Y-120380000D01*
X123376070Y-120585932D01*
X123398434Y-120659656D01*
X123436139Y-120783954D01*
X123533686Y-120966450D01*
X123533688Y-120966452D01*
X123664960Y-121126410D01*
X123761580Y-121205702D01*
X123824921Y-121257685D01*
X124007417Y-121355232D01*
X124205437Y-121415300D01*
X124205436Y-121415300D01*
X124223900Y-121417118D01*
X124411371Y-121435583D01*
X124617305Y-121415300D01*
X124815325Y-121355232D01*
X124997821Y-121257685D01*
X125157781Y-121126410D01*
X125289056Y-120966450D01*
X125386603Y-120783954D01*
X125446671Y-120585934D01*
X125466954Y-120380000D01*
X125446671Y-120174066D01*
X125386603Y-119976046D01*
X125378991Y-119961806D01*
X125364750Y-119893404D01*
X125389750Y-119828160D01*
X125400662Y-119815679D01*
X126987819Y-118228523D01*
X127049142Y-118195038D01*
X127118834Y-118200022D01*
X127174767Y-118241894D01*
X127199184Y-118307358D01*
X127199500Y-118316204D01*
X127199500Y-119655537D01*
X127179815Y-119722576D01*
X127163181Y-119743218D01*
X124975697Y-121930701D01*
X124914374Y-121964186D01*
X124844682Y-121959202D01*
X124829564Y-121952379D01*
X124815327Y-121944769D01*
X124815326Y-121944768D01*
X124815325Y-121944768D01*
X124617305Y-121884700D01*
X124617303Y-121884699D01*
X124617305Y-121884699D01*
X124411371Y-121864417D01*
X124205438Y-121884699D01*
X124007414Y-121944769D01*
X123897269Y-122003643D01*
X123824921Y-122042315D01*
X123824919Y-122042316D01*
X123824918Y-122042317D01*
X123664960Y-122173589D01*
X123539492Y-122326475D01*
X123533686Y-122333550D01*
X123495014Y-122405898D01*
X123436140Y-122516043D01*
X123376070Y-122714067D01*
X123355788Y-122920000D01*
X123376070Y-123125932D01*
X123376071Y-123125934D01*
X123436139Y-123323954D01*
X123533686Y-123506450D01*
X123533688Y-123506452D01*
X123664960Y-123666410D01*
X123729516Y-123719389D01*
X123824921Y-123797685D01*
X124007417Y-123895232D01*
X124205437Y-123955300D01*
X124205436Y-123955300D01*
X124223900Y-123957118D01*
X124411371Y-123975583D01*
X124617305Y-123955300D01*
X124815325Y-123895232D01*
X124997821Y-123797685D01*
X125157781Y-123666410D01*
X125289056Y-123506450D01*
X125386603Y-123323954D01*
X125446671Y-123125934D01*
X125466954Y-122920000D01*
X125446671Y-122714066D01*
X125386603Y-122516046D01*
X125383635Y-122510493D01*
X125378991Y-122501804D01*
X125364750Y-122433401D01*
X125389751Y-122368157D01*
X125400661Y-122355679D01*
X127387820Y-120368520D01*
X127449142Y-120335037D01*
X127518834Y-120340021D01*
X127574767Y-120381893D01*
X127599184Y-120447357D01*
X127599500Y-120456203D01*
X127599500Y-121795536D01*
X127579815Y-121862575D01*
X127563181Y-121883217D01*
X124975697Y-124470700D01*
X124914374Y-124504185D01*
X124844682Y-124499201D01*
X124829566Y-124492379D01*
X124815330Y-124484770D01*
X124815327Y-124484769D01*
X124815325Y-124484768D01*
X124617305Y-124424700D01*
X124617303Y-124424699D01*
X124617305Y-124424699D01*
X124411371Y-124404417D01*
X124205438Y-124424699D01*
X124007414Y-124484769D01*
X123897269Y-124543643D01*
X123824921Y-124582315D01*
X123824919Y-124582316D01*
X123824918Y-124582317D01*
X123664960Y-124713589D01*
X123533688Y-124873547D01*
X123436140Y-125056043D01*
X123376070Y-125254067D01*
X123355788Y-125460000D01*
X123376070Y-125665932D01*
X123394781Y-125727614D01*
X123436139Y-125863954D01*
X123533686Y-126046450D01*
X123533688Y-126046452D01*
X123664960Y-126206410D01*
X123761580Y-126285702D01*
X123824921Y-126337685D01*
X123972638Y-126416642D01*
X124022482Y-126465605D01*
X124037942Y-126533743D01*
X124014110Y-126599422D01*
X123958552Y-126641791D01*
X123914184Y-126650000D01*
X123513526Y-126650000D01*
X123453998Y-126656401D01*
X123453991Y-126656403D01*
X123319284Y-126706645D01*
X123319277Y-126706649D01*
X123204183Y-126792809D01*
X123204180Y-126792812D01*
X123118020Y-126907906D01*
X123118016Y-126907913D01*
X123067774Y-127042620D01*
X123067772Y-127042627D01*
X123061371Y-127102155D01*
X123061371Y-127750000D01*
X123977685Y-127750000D01*
X123951878Y-127790156D01*
X123911371Y-127928111D01*
X123911371Y-128071889D01*
X123951878Y-128209844D01*
X123977685Y-128250000D01*
X123061371Y-128250000D01*
X123061371Y-128897844D01*
X122300500Y-128897844D01*
X122300500Y-107680000D01*
X123355788Y-107680000D01*
X123376070Y-107885932D01*
X123376071Y-107885934D01*
X123436139Y-108083954D01*
X123533686Y-108266450D01*
X123538010Y-108271719D01*
X123664960Y-108426410D01*
X123701338Y-108456264D01*
X123824921Y-108557685D01*
X124007417Y-108655232D01*
X124205437Y-108715300D01*
X124205436Y-108715300D01*
X124223900Y-108717118D01*
X124411371Y-108735583D01*
X124617305Y-108715300D01*
X124815325Y-108655232D01*
X124997821Y-108557685D01*
X125157781Y-108426410D01*
X125289056Y-108266450D01*
X125386603Y-108083954D01*
X125446671Y-107885934D01*
X125466954Y-107680000D01*
X125446671Y-107474066D01*
X125386603Y-107276046D01*
X125289056Y-107093550D01*
X125217825Y-107006754D01*
X125157781Y-106933589D01*
X124997823Y-106802317D01*
X124997824Y-106802317D01*
X124997821Y-106802315D01*
X124815325Y-106704768D01*
X124617305Y-106644700D01*
X124617303Y-106644699D01*
X124617305Y-106644699D01*
X124411371Y-106624417D01*
X124205438Y-106644699D01*
X124080476Y-106682606D01*
X124010233Y-106703914D01*
X124007414Y-106704769D01*
X123919717Y-106751645D01*
X123824921Y-106802315D01*
X123824919Y-106802316D01*
X123824918Y-106802317D01*
X123664960Y-106933589D01*
X123533688Y-107093547D01*
X123533686Y-107093550D01*
X123496477Y-107163163D01*
X123436140Y-107276043D01*
X123376070Y-107474067D01*
X123355788Y-107680000D01*
X122300500Y-107680000D01*
X122300500Y-105140000D01*
X123355788Y-105140000D01*
X123376070Y-105345932D01*
X123389316Y-105389598D01*
X123436139Y-105543954D01*
X123533686Y-105726450D01*
X123533688Y-105726452D01*
X123664960Y-105886410D01*
X123725316Y-105935942D01*
X123824921Y-106017685D01*
X124007417Y-106115232D01*
X124205437Y-106175300D01*
X124205436Y-106175300D01*
X124223900Y-106177118D01*
X124411371Y-106195583D01*
X124617305Y-106175300D01*
X124815325Y-106115232D01*
X124997821Y-106017685D01*
X125157781Y-105886410D01*
X125289056Y-105726450D01*
X125386603Y-105543954D01*
X125446671Y-105345934D01*
X125466954Y-105140000D01*
X125446671Y-104934066D01*
X125386603Y-104736046D01*
X125289056Y-104553550D01*
X125200018Y-104445056D01*
X125157781Y-104393589D01*
X124997823Y-104262317D01*
X124997824Y-104262317D01*
X124997821Y-104262315D01*
X124871989Y-104195056D01*
X129294320Y-104195056D01*
X129351523Y-104408542D01*
X129351526Y-104408548D01*
X129451355Y-104622634D01*
X129586850Y-104816138D01*
X129753873Y-104983161D01*
X129947377Y-105118656D01*
X130161463Y-105218485D01*
X130161472Y-105218489D01*
X130374956Y-105275690D01*
X130374956Y-104380557D01*
X130482641Y-104429736D01*
X130589193Y-104445056D01*
X130660719Y-104445056D01*
X130767271Y-104429736D01*
X130874956Y-104380557D01*
X130874956Y-105275689D01*
X131088439Y-105218489D01*
X131088448Y-105218485D01*
X131302534Y-105118656D01*
X131496038Y-104983161D01*
X131663061Y-104816138D01*
X131798556Y-104622634D01*
X131898385Y-104408548D01*
X131898388Y-104408542D01*
X131955592Y-104195056D01*
X131058642Y-104195056D01*
X131084449Y-104154900D01*
X131124956Y-104016945D01*
X131124956Y-103873167D01*
X131084449Y-103735212D01*
X131058642Y-103695056D01*
X131955592Y-103695056D01*
X131955591Y-103695055D01*
X131898388Y-103481569D01*
X131898385Y-103481563D01*
X131798556Y-103267478D01*
X131798555Y-103267476D01*
X131663069Y-103073982D01*
X131663064Y-103073976D01*
X131496038Y-102906950D01*
X131302534Y-102771455D01*
X131088448Y-102671626D01*
X131088442Y-102671623D01*
X130966305Y-102638897D01*
X130906645Y-102602532D01*
X130876116Y-102539685D01*
X130884411Y-102470309D01*
X130928896Y-102416431D01*
X130962400Y-102400463D01*
X131028910Y-102380288D01*
X131211406Y-102282741D01*
X131371366Y-102151466D01*
X131502641Y-101991506D01*
X131600188Y-101809010D01*
X131660256Y-101610990D01*
X131680539Y-101405056D01*
X131660256Y-101199122D01*
X131600188Y-101001102D01*
X131502641Y-100818606D01*
X131447654Y-100751604D01*
X131371366Y-100658645D01*
X131226897Y-100540084D01*
X131211406Y-100527371D01*
X131028910Y-100429824D01*
X130830890Y-100369756D01*
X130830888Y-100369755D01*
X130830890Y-100369755D01*
X130624956Y-100349473D01*
X130419023Y-100369755D01*
X130220999Y-100429825D01*
X130127476Y-100479815D01*
X130038506Y-100527371D01*
X130038504Y-100527372D01*
X130038503Y-100527373D01*
X129878545Y-100658645D01*
X129752601Y-100812111D01*
X129747271Y-100818606D01*
X129708599Y-100890954D01*
X129649725Y-101001099D01*
X129589655Y-101199123D01*
X129569373Y-101405056D01*
X129589655Y-101610988D01*
X129595425Y-101630008D01*
X129649724Y-101809010D01*
X129747271Y-101991506D01*
X129765362Y-102013550D01*
X129878545Y-102151466D01*
X129968587Y-102225360D01*
X130038506Y-102282741D01*
X130221002Y-102380288D01*
X130287507Y-102400461D01*
X130345945Y-102438758D01*
X130374402Y-102502570D01*
X130363843Y-102571637D01*
X130317619Y-102624031D01*
X130283606Y-102638897D01*
X130161470Y-102671623D01*
X130161463Y-102671626D01*
X129947378Y-102771455D01*
X129947376Y-102771456D01*
X129753882Y-102906942D01*
X129753876Y-102906947D01*
X129586847Y-103073976D01*
X129586842Y-103073982D01*
X129451356Y-103267476D01*
X129451355Y-103267478D01*
X129351526Y-103481563D01*
X129351523Y-103481569D01*
X129294320Y-103695055D01*
X129294320Y-103695056D01*
X130191270Y-103695056D01*
X130165463Y-103735212D01*
X130124956Y-103873167D01*
X130124956Y-104016945D01*
X130165463Y-104154900D01*
X130191270Y-104195056D01*
X129294320Y-104195056D01*
X124871989Y-104195056D01*
X124815325Y-104164768D01*
X124617305Y-104104700D01*
X124617303Y-104104699D01*
X124617305Y-104104699D01*
X124411371Y-104084417D01*
X124205438Y-104104699D01*
X124007414Y-104164769D01*
X123950698Y-104195085D01*
X123824921Y-104262315D01*
X123824919Y-104262316D01*
X123824918Y-104262317D01*
X123664960Y-104393589D01*
X123533688Y-104553547D01*
X123533686Y-104553550D01*
X123510376Y-104597159D01*
X123436140Y-104736043D01*
X123376070Y-104934067D01*
X123355788Y-105140000D01*
X122300500Y-105140000D01*
X122300500Y-102600000D01*
X123355788Y-102600000D01*
X123376070Y-102805932D01*
X123400068Y-102885043D01*
X123436139Y-103003954D01*
X123533686Y-103186450D01*
X123533688Y-103186452D01*
X123664960Y-103346410D01*
X123761580Y-103425702D01*
X123824921Y-103477685D01*
X124007417Y-103575232D01*
X124205437Y-103635300D01*
X124205436Y-103635300D01*
X124223900Y-103637118D01*
X124411371Y-103655583D01*
X124617305Y-103635300D01*
X124815325Y-103575232D01*
X124997821Y-103477685D01*
X125157781Y-103346410D01*
X125289056Y-103186450D01*
X125386603Y-103003954D01*
X125446671Y-102805934D01*
X125466954Y-102600000D01*
X125446671Y-102394066D01*
X125386603Y-102196046D01*
X125289056Y-102013550D01*
X125237073Y-101950209D01*
X125157781Y-101853589D01*
X124997823Y-101722317D01*
X124997824Y-101722317D01*
X124997821Y-101722315D01*
X124815325Y-101624768D01*
X124617305Y-101564700D01*
X124617303Y-101564699D01*
X124617305Y-101564699D01*
X124411371Y-101544417D01*
X124205438Y-101564699D01*
X124007414Y-101624769D01*
X123918761Y-101672156D01*
X123824921Y-101722315D01*
X123824919Y-101722316D01*
X123824918Y-101722317D01*
X123664960Y-101853589D01*
X123533688Y-102013547D01*
X123533686Y-102013550D01*
X123513059Y-102052140D01*
X123436140Y-102196043D01*
X123376070Y-102394067D01*
X123355788Y-102600000D01*
X122300500Y-102600000D01*
X122300500Y-100060000D01*
X123355788Y-100060000D01*
X123376070Y-100265932D01*
X123389072Y-100308794D01*
X123436139Y-100463954D01*
X123533686Y-100646450D01*
X123568340Y-100688677D01*
X123664960Y-100806410D01*
X123742452Y-100870005D01*
X123824921Y-100937685D01*
X124007417Y-101035232D01*
X124205437Y-101095300D01*
X124205436Y-101095300D01*
X124223900Y-101097118D01*
X124411371Y-101115583D01*
X124617305Y-101095300D01*
X124815325Y-101035232D01*
X124997821Y-100937685D01*
X125157781Y-100806410D01*
X125289056Y-100646450D01*
X125386603Y-100463954D01*
X125446671Y-100265934D01*
X125466954Y-100060000D01*
X125446671Y-99854066D01*
X125386603Y-99656046D01*
X125289056Y-99473550D01*
X125231370Y-99403259D01*
X125157781Y-99313589D01*
X125002717Y-99186333D01*
X124997821Y-99182315D01*
X124815325Y-99084768D01*
X124617305Y-99024700D01*
X124617303Y-99024699D01*
X124617305Y-99024699D01*
X124411371Y-99004417D01*
X124205438Y-99024699D01*
X124007414Y-99084769D01*
X123913049Y-99135209D01*
X123824921Y-99182315D01*
X123824919Y-99182316D01*
X123824918Y-99182317D01*
X123664960Y-99313589D01*
X123539226Y-99466799D01*
X123533686Y-99473550D01*
X123509981Y-99517899D01*
X123436140Y-99656043D01*
X123376070Y-99854067D01*
X123355788Y-100060000D01*
X122300500Y-100060000D01*
X122300500Y-98865056D01*
X129569373Y-98865056D01*
X129589655Y-99070988D01*
X129607301Y-99129158D01*
X129649724Y-99269010D01*
X129747271Y-99451506D01*
X129765362Y-99473550D01*
X129878545Y-99611466D01*
X129956398Y-99675357D01*
X130038506Y-99742741D01*
X130221002Y-99840288D01*
X130419022Y-99900356D01*
X130419021Y-99900356D01*
X130437485Y-99902174D01*
X130624956Y-99920639D01*
X130830890Y-99900356D01*
X131028910Y-99840288D01*
X131211406Y-99742741D01*
X131371366Y-99611466D01*
X131502641Y-99451506D01*
X131600188Y-99269010D01*
X131660256Y-99070990D01*
X131680539Y-98865056D01*
X131660256Y-98659122D01*
X131600188Y-98461102D01*
X131502641Y-98278606D01*
X131417995Y-98175464D01*
X131371366Y-98118645D01*
X131211408Y-97987373D01*
X131211409Y-97987373D01*
X131211406Y-97987371D01*
X131028910Y-97889824D01*
X130830890Y-97829756D01*
X130830888Y-97829755D01*
X130830890Y-97829755D01*
X130624956Y-97809473D01*
X130419023Y-97829755D01*
X130220999Y-97889825D01*
X130157146Y-97923956D01*
X130038506Y-97987371D01*
X130038504Y-97987372D01*
X130038503Y-97987373D01*
X129878545Y-98118645D01*
X129747273Y-98278603D01*
X129747271Y-98278606D01*
X129708599Y-98350954D01*
X129649725Y-98461099D01*
X129589655Y-98659123D01*
X129569373Y-98865056D01*
X122300500Y-98865056D01*
X122300500Y-97520000D01*
X123355788Y-97520000D01*
X123376070Y-97725932D01*
X123401412Y-97809473D01*
X123436139Y-97923954D01*
X123533686Y-98106450D01*
X123533688Y-98106452D01*
X123664960Y-98266410D01*
X123761580Y-98345702D01*
X123824921Y-98397685D01*
X124007417Y-98495232D01*
X124205437Y-98555300D01*
X124205436Y-98555300D01*
X124223900Y-98557118D01*
X124411371Y-98575583D01*
X124617305Y-98555300D01*
X124815325Y-98495232D01*
X124997821Y-98397685D01*
X125157781Y-98266410D01*
X125289056Y-98106450D01*
X125386603Y-97923954D01*
X125446671Y-97725934D01*
X125466954Y-97520000D01*
X125446671Y-97314066D01*
X125386603Y-97116046D01*
X125289056Y-96933550D01*
X125224154Y-96854466D01*
X125157781Y-96773589D01*
X125018879Y-96659597D01*
X124997821Y-96642315D01*
X124815325Y-96544768D01*
X124617305Y-96484700D01*
X124617303Y-96484699D01*
X124617305Y-96484699D01*
X124411371Y-96464417D01*
X124205438Y-96484699D01*
X124007414Y-96544769D01*
X123897269Y-96603643D01*
X123824921Y-96642315D01*
X123824919Y-96642316D01*
X123824918Y-96642317D01*
X123664960Y-96773589D01*
X123551775Y-96911508D01*
X123533686Y-96933550D01*
X123513286Y-96971716D01*
X123436140Y-97116043D01*
X123376070Y-97314067D01*
X123355788Y-97520000D01*
X122300500Y-97520000D01*
X122300500Y-96325056D01*
X129569373Y-96325056D01*
X129589655Y-96530988D01*
X129614969Y-96614436D01*
X129649724Y-96729010D01*
X129747271Y-96911506D01*
X129765362Y-96933550D01*
X129878545Y-97071466D01*
X129932867Y-97116046D01*
X130038506Y-97202741D01*
X130221002Y-97300288D01*
X130419022Y-97360356D01*
X130419021Y-97360356D01*
X130425337Y-97360978D01*
X130624956Y-97380639D01*
X130830890Y-97360356D01*
X131028910Y-97300288D01*
X131211406Y-97202741D01*
X131371366Y-97071466D01*
X131502641Y-96911506D01*
X131600188Y-96729010D01*
X131660256Y-96530990D01*
X131680539Y-96325056D01*
X131660256Y-96119122D01*
X131600188Y-95921102D01*
X131502641Y-95738606D01*
X131414890Y-95631680D01*
X131371366Y-95578645D01*
X131226523Y-95459777D01*
X131211406Y-95447371D01*
X131028910Y-95349824D01*
X130830890Y-95289756D01*
X130830888Y-95289755D01*
X130830890Y-95289755D01*
X130624956Y-95269473D01*
X130419023Y-95289755D01*
X130220999Y-95349825D01*
X130157146Y-95383956D01*
X130038506Y-95447371D01*
X130038504Y-95447372D01*
X130038503Y-95447373D01*
X129878545Y-95578645D01*
X129747273Y-95738603D01*
X129747271Y-95738606D01*
X129737374Y-95757122D01*
X129649725Y-95921099D01*
X129589655Y-96119123D01*
X129569373Y-96325056D01*
X122300500Y-96325056D01*
X122300500Y-94980000D01*
X123355788Y-94980000D01*
X123376070Y-95185932D01*
X123376071Y-95185934D01*
X123436139Y-95383954D01*
X123533686Y-95566450D01*
X123568340Y-95608677D01*
X123664960Y-95726410D01*
X123745478Y-95792488D01*
X123824921Y-95857685D01*
X124007417Y-95955232D01*
X124205437Y-96015300D01*
X124205436Y-96015300D01*
X124223900Y-96017118D01*
X124411371Y-96035583D01*
X124617305Y-96015300D01*
X124815325Y-95955232D01*
X124997821Y-95857685D01*
X125157781Y-95726410D01*
X125289056Y-95566450D01*
X125386603Y-95383954D01*
X125446671Y-95185934D01*
X125466954Y-94980000D01*
X125446671Y-94774066D01*
X125386603Y-94576046D01*
X125289056Y-94393550D01*
X125237073Y-94330209D01*
X125157781Y-94233589D01*
X124997823Y-94102317D01*
X124997824Y-94102317D01*
X124997821Y-94102315D01*
X124815325Y-94004768D01*
X124617305Y-93944700D01*
X124617303Y-93944699D01*
X124617305Y-93944699D01*
X124411371Y-93924417D01*
X124205438Y-93944699D01*
X124007414Y-94004769D01*
X123897269Y-94063643D01*
X123824921Y-94102315D01*
X123824919Y-94102316D01*
X123824918Y-94102317D01*
X123664960Y-94233589D01*
X123551775Y-94371508D01*
X123533686Y-94393550D01*
X123515121Y-94428282D01*
X123436140Y-94576043D01*
X123376070Y-94774067D01*
X123355788Y-94980000D01*
X122300500Y-94980000D01*
X122300500Y-93785056D01*
X129569373Y-93785056D01*
X129589655Y-93990988D01*
X129593836Y-94004770D01*
X129649724Y-94189010D01*
X129747271Y-94371506D01*
X129765362Y-94393550D01*
X129878545Y-94531466D01*
X129932867Y-94576046D01*
X130038506Y-94662741D01*
X130221002Y-94760288D01*
X130419022Y-94820356D01*
X130419021Y-94820356D01*
X130437485Y-94822174D01*
X130624956Y-94840639D01*
X130830890Y-94820356D01*
X131028910Y-94760288D01*
X131211406Y-94662741D01*
X131371366Y-94531466D01*
X131502641Y-94371506D01*
X131600188Y-94189010D01*
X131660256Y-93990990D01*
X131680539Y-93785056D01*
X131660256Y-93579122D01*
X131600188Y-93381102D01*
X131502641Y-93198606D01*
X131426398Y-93105703D01*
X131371366Y-93038645D01*
X131211408Y-92907373D01*
X131211409Y-92907373D01*
X131211406Y-92907371D01*
X131028910Y-92809824D01*
X130830890Y-92749756D01*
X130830888Y-92749755D01*
X130830890Y-92749755D01*
X130624956Y-92729473D01*
X130419023Y-92749755D01*
X130220999Y-92809825D01*
X130157146Y-92843956D01*
X130038506Y-92907371D01*
X130038504Y-92907372D01*
X130038503Y-92907373D01*
X129878545Y-93038645D01*
X129747273Y-93198603D01*
X129649725Y-93381099D01*
X129589655Y-93579123D01*
X129569373Y-93785056D01*
X122300500Y-93785056D01*
X122300500Y-92440000D01*
X123355788Y-92440000D01*
X123376070Y-92645932D01*
X123401412Y-92729473D01*
X123436139Y-92843954D01*
X123533686Y-93026450D01*
X123533688Y-93026452D01*
X123664960Y-93186410D01*
X123750683Y-93256760D01*
X123824921Y-93317685D01*
X124007417Y-93415232D01*
X124205437Y-93475300D01*
X124205436Y-93475300D01*
X124223900Y-93477118D01*
X124411371Y-93495583D01*
X124617305Y-93475300D01*
X124815325Y-93415232D01*
X124997821Y-93317685D01*
X125157781Y-93186410D01*
X125289056Y-93026450D01*
X125386603Y-92843954D01*
X125446671Y-92645934D01*
X125466954Y-92440000D01*
X125446671Y-92234066D01*
X125410495Y-92114808D01*
X129574456Y-92114808D01*
X129586087Y-92173285D01*
X129586088Y-92173286D01*
X129630403Y-92239608D01*
X129696725Y-92283923D01*
X129696726Y-92283924D01*
X129755203Y-92295555D01*
X129755206Y-92295556D01*
X129755208Y-92295556D01*
X131494706Y-92295556D01*
X131494707Y-92295555D01*
X131509524Y-92292608D01*
X131553185Y-92283924D01*
X131553185Y-92283923D01*
X131553187Y-92283923D01*
X131619508Y-92239608D01*
X131663823Y-92173287D01*
X131663823Y-92173285D01*
X131663824Y-92173285D01*
X131675455Y-92114808D01*
X131675456Y-92114806D01*
X131675456Y-90375305D01*
X131675455Y-90375303D01*
X131663824Y-90316826D01*
X131663823Y-90316825D01*
X131619508Y-90250503D01*
X131553186Y-90206188D01*
X131553185Y-90206187D01*
X131494708Y-90194556D01*
X131494704Y-90194556D01*
X129755208Y-90194556D01*
X129755203Y-90194556D01*
X129696726Y-90206187D01*
X129696725Y-90206188D01*
X129630403Y-90250503D01*
X129586088Y-90316825D01*
X129586087Y-90316826D01*
X129574456Y-90375303D01*
X129574456Y-92114808D01*
X125410495Y-92114808D01*
X125386603Y-92036046D01*
X125289056Y-91853550D01*
X125210520Y-91757853D01*
X125157781Y-91693589D01*
X124997823Y-91562317D01*
X124997824Y-91562317D01*
X124997821Y-91562315D01*
X124815325Y-91464768D01*
X124617305Y-91404700D01*
X124617303Y-91404699D01*
X124617305Y-91404699D01*
X124411371Y-91384417D01*
X124205438Y-91404699D01*
X124007414Y-91464769D01*
X123897269Y-91523643D01*
X123824921Y-91562315D01*
X123824919Y-91562316D01*
X123824918Y-91562317D01*
X123664960Y-91693589D01*
X123533688Y-91853547D01*
X123436140Y-92036043D01*
X123376070Y-92234067D01*
X123355788Y-92440000D01*
X122300500Y-92440000D01*
X122300500Y-89900000D01*
X123355788Y-89900000D01*
X123376070Y-90105932D01*
X123376071Y-90105934D01*
X123436139Y-90303954D01*
X123533686Y-90486450D01*
X123533688Y-90486452D01*
X123664960Y-90646410D01*
X123761580Y-90725702D01*
X123824921Y-90777685D01*
X124007417Y-90875232D01*
X124205437Y-90935300D01*
X124205436Y-90935300D01*
X124223900Y-90937118D01*
X124411371Y-90955583D01*
X124617305Y-90935300D01*
X124815325Y-90875232D01*
X124997821Y-90777685D01*
X125157781Y-90646410D01*
X125289056Y-90486450D01*
X125386603Y-90303954D01*
X125446671Y-90105934D01*
X125466954Y-89900000D01*
X125446671Y-89694066D01*
X125386603Y-89496046D01*
X125289056Y-89313550D01*
X125196279Y-89200500D01*
X125157781Y-89153589D01*
X125023924Y-89043737D01*
X124997821Y-89022315D01*
X124815325Y-88924768D01*
X124617305Y-88864700D01*
X124617303Y-88864699D01*
X124617305Y-88864699D01*
X124411371Y-88844417D01*
X124205438Y-88864699D01*
X124007414Y-88924769D01*
X123897269Y-88983643D01*
X123824921Y-89022315D01*
X123824919Y-89022316D01*
X123824918Y-89022317D01*
X123664960Y-89153589D01*
X123533688Y-89313547D01*
X123436140Y-89496043D01*
X123376070Y-89694067D01*
X123355788Y-89900000D01*
X122300500Y-89900000D01*
X122300500Y-87360000D01*
X123355788Y-87360000D01*
X123376070Y-87565932D01*
X123376071Y-87565934D01*
X123436139Y-87763954D01*
X123533686Y-87946450D01*
X123533688Y-87946452D01*
X123664960Y-88106410D01*
X123761580Y-88185702D01*
X123824921Y-88237685D01*
X124007417Y-88335232D01*
X124205437Y-88395300D01*
X124205436Y-88395300D01*
X124223900Y-88397118D01*
X124411371Y-88415583D01*
X124617305Y-88395300D01*
X124815325Y-88335232D01*
X124997821Y-88237685D01*
X125157781Y-88106410D01*
X125289056Y-87946450D01*
X125386603Y-87763954D01*
X125446671Y-87565934D01*
X125466954Y-87360000D01*
X125446671Y-87154066D01*
X125386603Y-86956046D01*
X125289056Y-86773550D01*
X125237073Y-86710209D01*
X125157781Y-86613589D01*
X124997823Y-86482317D01*
X124997824Y-86482317D01*
X124997821Y-86482315D01*
X124815325Y-86384768D01*
X124617305Y-86324700D01*
X124617303Y-86324699D01*
X124617305Y-86324699D01*
X124411371Y-86304417D01*
X124205438Y-86324699D01*
X124007414Y-86384769D01*
X123897269Y-86443643D01*
X123824921Y-86482315D01*
X123824919Y-86482316D01*
X123824918Y-86482317D01*
X123664960Y-86613589D01*
X123533688Y-86773547D01*
X123436140Y-86956043D01*
X123376070Y-87154067D01*
X123355788Y-87360000D01*
X122300500Y-87360000D01*
X122300500Y-84820000D01*
X123355788Y-84820000D01*
X123376070Y-85025932D01*
X123379972Y-85038794D01*
X123436139Y-85223954D01*
X123533686Y-85406450D01*
X123533688Y-85406452D01*
X123664960Y-85566410D01*
X123761580Y-85645702D01*
X123824921Y-85697685D01*
X124007417Y-85795232D01*
X124205437Y-85855300D01*
X124205436Y-85855300D01*
X124223900Y-85857118D01*
X124411371Y-85875583D01*
X124617305Y-85855300D01*
X124815325Y-85795232D01*
X124997821Y-85697685D01*
X125157781Y-85566410D01*
X125289056Y-85406450D01*
X125386603Y-85223954D01*
X125389643Y-85213933D01*
X145585668Y-85213933D01*
X145601058Y-85301210D01*
X145616135Y-85386711D01*
X145685623Y-85547804D01*
X145685624Y-85547806D01*
X145685626Y-85547809D01*
X145740278Y-85621218D01*
X145790390Y-85688530D01*
X145924786Y-85801302D01*
X146002488Y-85840325D01*
X146081562Y-85880038D01*
X146081563Y-85880038D01*
X146081567Y-85880040D01*
X146252279Y-85920500D01*
X146252282Y-85920500D01*
X146383701Y-85920500D01*
X146383709Y-85920500D01*
X146514255Y-85905241D01*
X146679117Y-85845237D01*
X146825696Y-85748830D01*
X146946092Y-85621218D01*
X147033812Y-85469281D01*
X147084130Y-85301210D01*
X147089213Y-85213933D01*
X149985668Y-85213933D01*
X150001058Y-85301210D01*
X150016135Y-85386711D01*
X150085623Y-85547804D01*
X150085624Y-85547806D01*
X150085626Y-85547809D01*
X150140278Y-85621218D01*
X150190390Y-85688530D01*
X150324786Y-85801302D01*
X150402488Y-85840325D01*
X150481562Y-85880038D01*
X150481563Y-85880038D01*
X150481567Y-85880040D01*
X150652279Y-85920500D01*
X150652282Y-85920500D01*
X150783701Y-85920500D01*
X150783709Y-85920500D01*
X150914255Y-85905241D01*
X151079117Y-85845237D01*
X151225696Y-85748830D01*
X151346092Y-85621218D01*
X151433812Y-85469281D01*
X151484130Y-85301210D01*
X151494331Y-85126065D01*
X151463865Y-84953289D01*
X151394377Y-84792196D01*
X151289610Y-84651470D01*
X151217747Y-84591170D01*
X151155214Y-84538698D01*
X151155212Y-84538697D01*
X150998437Y-84459961D01*
X150998433Y-84459960D01*
X150827721Y-84419500D01*
X150696291Y-84419500D01*
X150591854Y-84431707D01*
X150565743Y-84434759D01*
X150565740Y-84434760D01*
X150400884Y-84494762D01*
X150400880Y-84494764D01*
X150254306Y-84591167D01*
X150254305Y-84591168D01*
X150133910Y-84718778D01*
X150046188Y-84870718D01*
X149995870Y-85038789D01*
X149995869Y-85038794D01*
X149985668Y-85213933D01*
X147089213Y-85213933D01*
X147094331Y-85126065D01*
X147063865Y-84953289D01*
X146994377Y-84792196D01*
X146889610Y-84651470D01*
X146817747Y-84591170D01*
X146755214Y-84538698D01*
X146755212Y-84538697D01*
X146598437Y-84459961D01*
X146598433Y-84459960D01*
X146427721Y-84419500D01*
X146296291Y-84419500D01*
X146191854Y-84431707D01*
X146165743Y-84434759D01*
X146165740Y-84434760D01*
X146000884Y-84494762D01*
X146000880Y-84494764D01*
X145854306Y-84591167D01*
X145854305Y-84591168D01*
X145733910Y-84718778D01*
X145646188Y-84870718D01*
X145595870Y-85038789D01*
X145595869Y-85038794D01*
X145585668Y-85213933D01*
X125389643Y-85213933D01*
X125446671Y-85025934D01*
X125466954Y-84820000D01*
X125446671Y-84614066D01*
X125386603Y-84416046D01*
X125289056Y-84233550D01*
X125237073Y-84170209D01*
X125157781Y-84073589D01*
X124997823Y-83942317D01*
X124997824Y-83942317D01*
X124997821Y-83942315D01*
X124815325Y-83844768D01*
X124617305Y-83784700D01*
X124617303Y-83784699D01*
X124617305Y-83784699D01*
X124411371Y-83764417D01*
X124205438Y-83784699D01*
X124007414Y-83844769D01*
X123949991Y-83875463D01*
X123824921Y-83942315D01*
X123824919Y-83942316D01*
X123824918Y-83942317D01*
X123664960Y-84073589D01*
X123533688Y-84233547D01*
X123436140Y-84416043D01*
X123376070Y-84614067D01*
X123355788Y-84820000D01*
X122300500Y-84820000D01*
X122300500Y-82001741D01*
X122300598Y-81998264D01*
X122310214Y-81827028D01*
X122317279Y-81701217D01*
X122318055Y-81694331D01*
X122367598Y-81402741D01*
X122369146Y-81395958D01*
X122451024Y-81111751D01*
X122453322Y-81105190D01*
X122481123Y-81038070D01*
X122566508Y-80831932D01*
X122569511Y-80825697D01*
X122712584Y-80566824D01*
X122716280Y-80560943D01*
X122887433Y-80319725D01*
X122891761Y-80314298D01*
X123088845Y-80093760D01*
X123093763Y-80088843D01*
X123314298Y-79891761D01*
X123319725Y-79887433D01*
X123560943Y-79716280D01*
X123566824Y-79712584D01*
X123825697Y-79569511D01*
X123831932Y-79566508D01*
X124038070Y-79481123D01*
X124105190Y-79453322D01*
X124111751Y-79451024D01*
X124395962Y-79369145D01*
X124402742Y-79367598D01*
X124694331Y-79318055D01*
X124701217Y-79317279D01*
X124863442Y-79308168D01*
X124998265Y-79300598D01*
X125001742Y-79300500D01*
X125047595Y-79300500D01*
X171952405Y-79300500D01*
X171998258Y-79300500D01*
X172001735Y-79300598D01*
G37*
%TD.AperFunction*%
%TD*%
M02*
