M48
; DRILL file {KiCad 7.0.9} date Sun Mar 24 12:36:58 2024
; FORMAT={-:-/ absolute / inch / decimal}
; #@! TF.CreationDate,2024-03-24T12:36:58+01:00
; #@! TF.GenerationSoftware,Kicad,Pcbnew,7.0.9
; #@! TF.FileFunction,Plated,1,2,PTH
FMAT,2
INCH
; #@! TA.AperFunction,Plated,PTH,ViaDrill
T1C0.0157
; #@! TA.AperFunction,Plated,PTH,ComponentDrill
T2C0.0315
; #@! TA.AperFunction,Plated,PTH,ComponentDrill
T3C0.0394
%
G90
G05
T1
X5.3031Y-3.4689
X5.311Y-3.7874
X5.3149Y-4.2244
X5.315Y-4.3031
X5.315Y-4.3818
X5.315Y-4.4605
X5.315Y-4.4212
X5.315Y-4.3425
X5.315Y-4.2638
X5.4055Y-4.5235
X5.4063Y-4.6869
X5.4567Y-3.9939
X5.4803Y-4.8622
X5.4803Y-3.7478
X5.4863Y-3.9459
X5.5078Y-3.9098
X5.5394Y-3.8858
X5.5709Y-3.6654
X5.5822Y-3.9792
X5.5906Y-4.5157
X5.5906Y-4.563
X5.5945Y-4.4606
X5.6153Y-3.9412
X5.6268Y-4.0157
X5.6508Y-3.9921
X5.6508Y-4.0394
X5.6563Y-3.9027
X5.6575Y-4.622
X5.6732Y-3.8346
X5.674Y-4.1299
X5.6745Y-4.0157
X5.6745Y-4.063
X5.678Y-3.9646
X5.6981Y-3.9921
X5.6981Y-4.0394
X5.7076Y-3.7789
X5.7211Y-4.0916
X5.7217Y-4.0157
X5.739Y-3.239
X5.7463Y-3.8024
X5.748Y-3.4646
X5.7559Y-4.563
X5.7559Y-4.6142
X5.7598Y-4.5118
X5.7717Y-4.0472
X5.7835Y-3.8189
X5.8065Y-4.0138
X5.8068Y-4.1645
X5.8149Y-4.2795
X5.8226Y-3.8268
X5.8504Y-5.002
X5.8618Y-3.8303
X5.9126Y-4.1834
X5.942Y-4.2129
X5.9449Y-3.9134
X5.9472Y-3.7819
X5.9606Y-3.2362
X5.9606Y-3.4528
X6.0211Y-4.5616
X6.0284Y-3.7008
X6.07Y-4.245
X6.1089Y-4.2617
X6.1102Y-3.5039
X6.1417Y-3.7008
X6.185Y-4.2323
X6.2047Y-3.5118
X6.2144Y-3.7419
X6.3386Y-4.0276
X6.3425Y-3.3228
X6.4306Y-3.311
X6.431Y-3.7782
X6.431Y-4.0105
X6.431Y-4.2428
X6.431Y-4.4751
X6.431Y-4.9436
X6.4316Y-4.7112
X6.4325Y-3.5459
X6.6811Y-3.2638
T2
X6.0284Y-3.8976
X6.0284Y-4.0898
T3
X4.8981Y-3.3394
X4.8981Y-3.4394
X4.8981Y-3.5394
X4.8981Y-3.6394
X4.8981Y-3.7394
X4.8981Y-3.8394
X4.8981Y-3.9394
X4.8981Y-4.0394
X4.8981Y-4.1394
X4.8981Y-4.2394
X4.8981Y-4.3394
X4.8981Y-4.4394
X4.8981Y-4.5394
X4.8981Y-4.6394
X4.8981Y-4.7394
X4.8981Y-4.8394
X4.8981Y-4.9394
X4.8981Y-5.0394
X5.1425Y-4.368
X5.1425Y-4.468
X5.1425Y-4.568
X5.1425Y-4.668
X5.1425Y-4.768
X5.1425Y-4.868
X5.1427Y-3.5923
X5.1427Y-3.6923
X5.1427Y-3.7923
X5.1427Y-3.8923
X5.1427Y-3.9923
X5.1427Y-4.0923
X5.7983Y-5.122
X5.8983Y-5.122
X6.7981Y-3.3394
X6.7981Y-3.4394
X6.7981Y-3.5394
X6.7981Y-3.6394
X6.7981Y-3.7394
X6.7981Y-3.8394
X6.7981Y-3.9394
X6.7981Y-4.0394
X6.7981Y-4.1394
X6.7981Y-4.2394
X6.7981Y-4.3394
X6.7981Y-4.4394
X6.7981Y-4.5394
X6.7981Y-4.6394
X6.7981Y-4.7394
X6.7981Y-4.8394
X6.7981Y-4.9394
X6.7981Y-5.0394
T0
M30
