%TF.GenerationSoftware,KiCad,Pcbnew,7.0.9*%
%TF.CreationDate,2024-03-24T12:36:59+01:00*%
%TF.ProjectId,PowerPiNano,506f7765-7250-4694-9e61-6e6f2e6b6963,rev?*%
%TF.SameCoordinates,Original*%
%TF.FileFunction,Legend,Top*%
%TF.FilePolarity,Positive*%
%FSLAX46Y46*%
G04 Gerber Fmt 4.6, Leading zero omitted, Abs format (unit mm)*
G04 Created by KiCad (PCBNEW 7.0.9) date 2024-03-24 12:36:59*
%MOMM*%
%LPD*%
G01*
G04 APERTURE LIST*
%ADD10C,0.150000*%
%ADD11C,0.375000*%
%ADD12C,0.187500*%
%ADD13C,0.120000*%
G04 APERTURE END LIST*
D10*
X168700000Y-119500000D02*
X171400000Y-119500000D01*
X171400000Y-126400000D01*
X168700000Y-126400000D01*
X168700000Y-119500000D01*
X126000000Y-89100000D02*
X128700000Y-89100000D01*
X126000000Y-99200000D02*
X128700000Y-99200000D01*
X128700000Y-108600000D01*
X126000000Y-108600000D01*
X126000000Y-99200000D01*
X168700000Y-89100000D02*
X171400000Y-89100000D01*
X171400000Y-98500000D01*
X168700000Y-98500000D01*
X168700000Y-89100000D01*
X128700000Y-98500000D02*
X126000000Y-98500000D01*
D11*
X149987500Y-110900000D02*
G75*
G03*
X149987500Y-110900000I-187500J0D01*
G01*
D10*
X126000000Y-109400000D02*
X128700000Y-109400000D01*
X128700000Y-126400000D01*
X126000000Y-126400000D01*
X126000000Y-109400000D01*
D11*
X141087500Y-112200000D02*
G75*
G03*
X141087500Y-112200000I-187500J0D01*
G01*
D10*
X168700000Y-99200000D02*
X171400000Y-99200000D01*
X171400000Y-118800000D01*
X168700000Y-118800000D01*
X168700000Y-99200000D01*
X128700000Y-89100000D02*
X128700000Y-98500000D01*
X126000000Y-98500000D02*
X126000000Y-89100000D01*
X169508207Y-122632390D02*
X169432017Y-122594295D01*
X169432017Y-122594295D02*
X169317731Y-122594295D01*
X169317731Y-122594295D02*
X169203445Y-122632390D01*
X169203445Y-122632390D02*
X169127255Y-122708580D01*
X169127255Y-122708580D02*
X169089160Y-122784771D01*
X169089160Y-122784771D02*
X169051064Y-122937152D01*
X169051064Y-122937152D02*
X169051064Y-123051438D01*
X169051064Y-123051438D02*
X169089160Y-123203819D01*
X169089160Y-123203819D02*
X169127255Y-123280009D01*
X169127255Y-123280009D02*
X169203445Y-123356200D01*
X169203445Y-123356200D02*
X169317731Y-123394295D01*
X169317731Y-123394295D02*
X169393922Y-123394295D01*
X169393922Y-123394295D02*
X169508207Y-123356200D01*
X169508207Y-123356200D02*
X169546303Y-123318104D01*
X169546303Y-123318104D02*
X169546303Y-123051438D01*
X169546303Y-123051438D02*
X169393922Y-123051438D01*
X170308207Y-123394295D02*
X169851064Y-123394295D01*
X170079636Y-123394295D02*
X170079636Y-122594295D01*
X170079636Y-122594295D02*
X170003445Y-122708580D01*
X170003445Y-122708580D02*
X169927255Y-122784771D01*
X169927255Y-122784771D02*
X169851064Y-122822866D01*
X170993922Y-122594295D02*
X170841541Y-122594295D01*
X170841541Y-122594295D02*
X170765350Y-122632390D01*
X170765350Y-122632390D02*
X170727255Y-122670485D01*
X170727255Y-122670485D02*
X170651065Y-122784771D01*
X170651065Y-122784771D02*
X170612969Y-122937152D01*
X170612969Y-122937152D02*
X170612969Y-123241914D01*
X170612969Y-123241914D02*
X170651065Y-123318104D01*
X170651065Y-123318104D02*
X170689160Y-123356200D01*
X170689160Y-123356200D02*
X170765350Y-123394295D01*
X170765350Y-123394295D02*
X170917731Y-123394295D01*
X170917731Y-123394295D02*
X170993922Y-123356200D01*
X170993922Y-123356200D02*
X171032017Y-123318104D01*
X171032017Y-123318104D02*
X171070112Y-123241914D01*
X171070112Y-123241914D02*
X171070112Y-123051438D01*
X171070112Y-123051438D02*
X171032017Y-122975247D01*
X171032017Y-122975247D02*
X170993922Y-122937152D01*
X170993922Y-122937152D02*
X170917731Y-122899057D01*
X170917731Y-122899057D02*
X170765350Y-122899057D01*
X170765350Y-122899057D02*
X170689160Y-122937152D01*
X170689160Y-122937152D02*
X170651065Y-122975247D01*
X170651065Y-122975247D02*
X170612969Y-123051438D01*
X126808207Y-117532390D02*
X126732017Y-117494295D01*
X126732017Y-117494295D02*
X126617731Y-117494295D01*
X126617731Y-117494295D02*
X126503445Y-117532390D01*
X126503445Y-117532390D02*
X126427255Y-117608580D01*
X126427255Y-117608580D02*
X126389160Y-117684771D01*
X126389160Y-117684771D02*
X126351064Y-117837152D01*
X126351064Y-117837152D02*
X126351064Y-117951438D01*
X126351064Y-117951438D02*
X126389160Y-118103819D01*
X126389160Y-118103819D02*
X126427255Y-118180009D01*
X126427255Y-118180009D02*
X126503445Y-118256200D01*
X126503445Y-118256200D02*
X126617731Y-118294295D01*
X126617731Y-118294295D02*
X126693922Y-118294295D01*
X126693922Y-118294295D02*
X126808207Y-118256200D01*
X126808207Y-118256200D02*
X126846303Y-118218104D01*
X126846303Y-118218104D02*
X126846303Y-117951438D01*
X126846303Y-117951438D02*
X126693922Y-117951438D01*
X127608207Y-118294295D02*
X127151064Y-118294295D01*
X127379636Y-118294295D02*
X127379636Y-117494295D01*
X127379636Y-117494295D02*
X127303445Y-117608580D01*
X127303445Y-117608580D02*
X127227255Y-117684771D01*
X127227255Y-117684771D02*
X127151064Y-117722866D01*
X128370112Y-118294295D02*
X127912969Y-118294295D01*
X128141541Y-118294295D02*
X128141541Y-117494295D01*
X128141541Y-117494295D02*
X128065350Y-117608580D01*
X128065350Y-117608580D02*
X127989160Y-117684771D01*
X127989160Y-117684771D02*
X127912969Y-117722866D01*
X126808207Y-104832390D02*
X126732017Y-104794295D01*
X126732017Y-104794295D02*
X126617731Y-104794295D01*
X126617731Y-104794295D02*
X126503445Y-104832390D01*
X126503445Y-104832390D02*
X126427255Y-104908580D01*
X126427255Y-104908580D02*
X126389160Y-104984771D01*
X126389160Y-104984771D02*
X126351064Y-105137152D01*
X126351064Y-105137152D02*
X126351064Y-105251438D01*
X126351064Y-105251438D02*
X126389160Y-105403819D01*
X126389160Y-105403819D02*
X126427255Y-105480009D01*
X126427255Y-105480009D02*
X126503445Y-105556200D01*
X126503445Y-105556200D02*
X126617731Y-105594295D01*
X126617731Y-105594295D02*
X126693922Y-105594295D01*
X126693922Y-105594295D02*
X126808207Y-105556200D01*
X126808207Y-105556200D02*
X126846303Y-105518104D01*
X126846303Y-105518104D02*
X126846303Y-105251438D01*
X126846303Y-105251438D02*
X126693922Y-105251438D01*
X127341541Y-104794295D02*
X127417731Y-104794295D01*
X127417731Y-104794295D02*
X127493922Y-104832390D01*
X127493922Y-104832390D02*
X127532017Y-104870485D01*
X127532017Y-104870485D02*
X127570112Y-104946676D01*
X127570112Y-104946676D02*
X127608207Y-105099057D01*
X127608207Y-105099057D02*
X127608207Y-105289533D01*
X127608207Y-105289533D02*
X127570112Y-105441914D01*
X127570112Y-105441914D02*
X127532017Y-105518104D01*
X127532017Y-105518104D02*
X127493922Y-105556200D01*
X127493922Y-105556200D02*
X127417731Y-105594295D01*
X127417731Y-105594295D02*
X127341541Y-105594295D01*
X127341541Y-105594295D02*
X127265350Y-105556200D01*
X127265350Y-105556200D02*
X127227255Y-105518104D01*
X127227255Y-105518104D02*
X127189160Y-105441914D01*
X127189160Y-105441914D02*
X127151064Y-105289533D01*
X127151064Y-105289533D02*
X127151064Y-105099057D01*
X127151064Y-105099057D02*
X127189160Y-104946676D01*
X127189160Y-104946676D02*
X127227255Y-104870485D01*
X127227255Y-104870485D02*
X127265350Y-104832390D01*
X127265350Y-104832390D02*
X127341541Y-104794295D01*
X128293922Y-104794295D02*
X128141541Y-104794295D01*
X128141541Y-104794295D02*
X128065350Y-104832390D01*
X128065350Y-104832390D02*
X128027255Y-104870485D01*
X128027255Y-104870485D02*
X127951065Y-104984771D01*
X127951065Y-104984771D02*
X127912969Y-105137152D01*
X127912969Y-105137152D02*
X127912969Y-105441914D01*
X127912969Y-105441914D02*
X127951065Y-105518104D01*
X127951065Y-105518104D02*
X127989160Y-105556200D01*
X127989160Y-105556200D02*
X128065350Y-105594295D01*
X128065350Y-105594295D02*
X128217731Y-105594295D01*
X128217731Y-105594295D02*
X128293922Y-105556200D01*
X128293922Y-105556200D02*
X128332017Y-105518104D01*
X128332017Y-105518104D02*
X128370112Y-105441914D01*
X128370112Y-105441914D02*
X128370112Y-105251438D01*
X128370112Y-105251438D02*
X128332017Y-105175247D01*
X128332017Y-105175247D02*
X128293922Y-105137152D01*
X128293922Y-105137152D02*
X128217731Y-105099057D01*
X128217731Y-105099057D02*
X128065350Y-105099057D01*
X128065350Y-105099057D02*
X127989160Y-105137152D01*
X127989160Y-105137152D02*
X127951065Y-105175247D01*
X127951065Y-105175247D02*
X127912969Y-105251438D01*
X169241541Y-102194295D02*
X169393922Y-102194295D01*
X169393922Y-102194295D02*
X169470112Y-102232390D01*
X169470112Y-102232390D02*
X169546303Y-102308580D01*
X169546303Y-102308580D02*
X169584398Y-102460961D01*
X169584398Y-102460961D02*
X169584398Y-102727628D01*
X169584398Y-102727628D02*
X169546303Y-102880009D01*
X169546303Y-102880009D02*
X169470112Y-102956200D01*
X169470112Y-102956200D02*
X169393922Y-102994295D01*
X169393922Y-102994295D02*
X169241541Y-102994295D01*
X169241541Y-102994295D02*
X169165350Y-102956200D01*
X169165350Y-102956200D02*
X169089160Y-102880009D01*
X169089160Y-102880009D02*
X169051064Y-102727628D01*
X169051064Y-102727628D02*
X169051064Y-102460961D01*
X169051064Y-102460961D02*
X169089160Y-102308580D01*
X169089160Y-102308580D02*
X169165350Y-102232390D01*
X169165350Y-102232390D02*
X169241541Y-102194295D01*
X169889159Y-102270485D02*
X169927255Y-102232390D01*
X169927255Y-102232390D02*
X170003445Y-102194295D01*
X170003445Y-102194295D02*
X170193921Y-102194295D01*
X170193921Y-102194295D02*
X170270112Y-102232390D01*
X170270112Y-102232390D02*
X170308207Y-102270485D01*
X170308207Y-102270485D02*
X170346302Y-102346676D01*
X170346302Y-102346676D02*
X170346302Y-102422866D01*
X170346302Y-102422866D02*
X170308207Y-102537152D01*
X170308207Y-102537152D02*
X169851064Y-102994295D01*
X169851064Y-102994295D02*
X170346302Y-102994295D01*
X171032017Y-102460961D02*
X171032017Y-102994295D01*
X170841541Y-102156200D02*
X170651064Y-102727628D01*
X170651064Y-102727628D02*
X171146303Y-102727628D01*
X126312969Y-86994295D02*
X126808207Y-86994295D01*
X126808207Y-86994295D02*
X126541541Y-87299057D01*
X126541541Y-87299057D02*
X126655826Y-87299057D01*
X126655826Y-87299057D02*
X126732017Y-87337152D01*
X126732017Y-87337152D02*
X126770112Y-87375247D01*
X126770112Y-87375247D02*
X126808207Y-87451438D01*
X126808207Y-87451438D02*
X126808207Y-87641914D01*
X126808207Y-87641914D02*
X126770112Y-87718104D01*
X126770112Y-87718104D02*
X126732017Y-87756200D01*
X126732017Y-87756200D02*
X126655826Y-87794295D01*
X126655826Y-87794295D02*
X126427255Y-87794295D01*
X126427255Y-87794295D02*
X126351064Y-87756200D01*
X126351064Y-87756200D02*
X126312969Y-87718104D01*
X127036779Y-86994295D02*
X127303446Y-87794295D01*
X127303446Y-87794295D02*
X127570112Y-86994295D01*
X127760588Y-86994295D02*
X128255826Y-86994295D01*
X128255826Y-86994295D02*
X127989160Y-87299057D01*
X127989160Y-87299057D02*
X128103445Y-87299057D01*
X128103445Y-87299057D02*
X128179636Y-87337152D01*
X128179636Y-87337152D02*
X128217731Y-87375247D01*
X128217731Y-87375247D02*
X128255826Y-87451438D01*
X128255826Y-87451438D02*
X128255826Y-87641914D01*
X128255826Y-87641914D02*
X128217731Y-87718104D01*
X128217731Y-87718104D02*
X128179636Y-87756200D01*
X128179636Y-87756200D02*
X128103445Y-87794295D01*
X128103445Y-87794295D02*
X127874874Y-87794295D01*
X127874874Y-87794295D02*
X127798683Y-87756200D01*
X127798683Y-87756200D02*
X127760588Y-87718104D01*
X169408207Y-125132390D02*
X169332017Y-125094295D01*
X169332017Y-125094295D02*
X169217731Y-125094295D01*
X169217731Y-125094295D02*
X169103445Y-125132390D01*
X169103445Y-125132390D02*
X169027255Y-125208580D01*
X169027255Y-125208580D02*
X168989160Y-125284771D01*
X168989160Y-125284771D02*
X168951064Y-125437152D01*
X168951064Y-125437152D02*
X168951064Y-125551438D01*
X168951064Y-125551438D02*
X168989160Y-125703819D01*
X168989160Y-125703819D02*
X169027255Y-125780009D01*
X169027255Y-125780009D02*
X169103445Y-125856200D01*
X169103445Y-125856200D02*
X169217731Y-125894295D01*
X169217731Y-125894295D02*
X169293922Y-125894295D01*
X169293922Y-125894295D02*
X169408207Y-125856200D01*
X169408207Y-125856200D02*
X169446303Y-125818104D01*
X169446303Y-125818104D02*
X169446303Y-125551438D01*
X169446303Y-125551438D02*
X169293922Y-125551438D01*
X170208207Y-125894295D02*
X169751064Y-125894295D01*
X169979636Y-125894295D02*
X169979636Y-125094295D01*
X169979636Y-125094295D02*
X169903445Y-125208580D01*
X169903445Y-125208580D02*
X169827255Y-125284771D01*
X169827255Y-125284771D02*
X169751064Y-125322866D01*
X170932017Y-125094295D02*
X170551065Y-125094295D01*
X170551065Y-125094295D02*
X170512969Y-125475247D01*
X170512969Y-125475247D02*
X170551065Y-125437152D01*
X170551065Y-125437152D02*
X170627255Y-125399057D01*
X170627255Y-125399057D02*
X170817731Y-125399057D01*
X170817731Y-125399057D02*
X170893922Y-125437152D01*
X170893922Y-125437152D02*
X170932017Y-125475247D01*
X170932017Y-125475247D02*
X170970112Y-125551438D01*
X170970112Y-125551438D02*
X170970112Y-125741914D01*
X170970112Y-125741914D02*
X170932017Y-125818104D01*
X170932017Y-125818104D02*
X170893922Y-125856200D01*
X170893922Y-125856200D02*
X170817731Y-125894295D01*
X170817731Y-125894295D02*
X170627255Y-125894295D01*
X170627255Y-125894295D02*
X170551065Y-125856200D01*
X170551065Y-125856200D02*
X170512969Y-125818104D01*
X142551064Y-130456200D02*
X142665350Y-130494295D01*
X142665350Y-130494295D02*
X142855826Y-130494295D01*
X142855826Y-130494295D02*
X142932017Y-130456200D01*
X142932017Y-130456200D02*
X142970112Y-130418104D01*
X142970112Y-130418104D02*
X143008207Y-130341914D01*
X143008207Y-130341914D02*
X143008207Y-130265723D01*
X143008207Y-130265723D02*
X142970112Y-130189533D01*
X142970112Y-130189533D02*
X142932017Y-130151438D01*
X142932017Y-130151438D02*
X142855826Y-130113342D01*
X142855826Y-130113342D02*
X142703445Y-130075247D01*
X142703445Y-130075247D02*
X142627255Y-130037152D01*
X142627255Y-130037152D02*
X142589160Y-129999057D01*
X142589160Y-129999057D02*
X142551064Y-129922866D01*
X142551064Y-129922866D02*
X142551064Y-129846676D01*
X142551064Y-129846676D02*
X142589160Y-129770485D01*
X142589160Y-129770485D02*
X142627255Y-129732390D01*
X142627255Y-129732390D02*
X142703445Y-129694295D01*
X142703445Y-129694295D02*
X142893922Y-129694295D01*
X142893922Y-129694295D02*
X143008207Y-129732390D01*
X143274874Y-129694295D02*
X143465350Y-130494295D01*
X143465350Y-130494295D02*
X143617731Y-129922866D01*
X143617731Y-129922866D02*
X143770112Y-130494295D01*
X143770112Y-130494295D02*
X143960589Y-129694295D01*
X144265351Y-130494295D02*
X144265351Y-129694295D01*
X144798684Y-129694295D02*
X144951065Y-129694295D01*
X144951065Y-129694295D02*
X145027255Y-129732390D01*
X145027255Y-129732390D02*
X145103446Y-129808580D01*
X145103446Y-129808580D02*
X145141541Y-129960961D01*
X145141541Y-129960961D02*
X145141541Y-130227628D01*
X145141541Y-130227628D02*
X145103446Y-130380009D01*
X145103446Y-130380009D02*
X145027255Y-130456200D01*
X145027255Y-130456200D02*
X144951065Y-130494295D01*
X144951065Y-130494295D02*
X144798684Y-130494295D01*
X144798684Y-130494295D02*
X144722493Y-130456200D01*
X144722493Y-130456200D02*
X144646303Y-130380009D01*
X144646303Y-130380009D02*
X144608207Y-130227628D01*
X144608207Y-130227628D02*
X144608207Y-129960961D01*
X144608207Y-129960961D02*
X144646303Y-129808580D01*
X144646303Y-129808580D02*
X144722493Y-129732390D01*
X144722493Y-129732390D02*
X144798684Y-129694295D01*
X152108207Y-108594295D02*
X151651064Y-108594295D01*
X151879636Y-108594295D02*
X151879636Y-107794295D01*
X151879636Y-107794295D02*
X151803445Y-107908580D01*
X151803445Y-107908580D02*
X151727255Y-107984771D01*
X151727255Y-107984771D02*
X151651064Y-108022866D01*
X152336779Y-107794295D02*
X152603446Y-108594295D01*
X152603446Y-108594295D02*
X152870112Y-107794295D01*
X153555826Y-108594295D02*
X153098683Y-108594295D01*
X153327255Y-108594295D02*
X153327255Y-107794295D01*
X153327255Y-107794295D02*
X153251064Y-107908580D01*
X153251064Y-107908580D02*
X153174874Y-107984771D01*
X153174874Y-107984771D02*
X153098683Y-108022866D01*
D12*
X130823355Y-127504345D02*
X130823355Y-126704345D01*
X130823355Y-126704345D02*
X131128117Y-126704345D01*
X131128117Y-126704345D02*
X131204307Y-126742440D01*
X131204307Y-126742440D02*
X131242402Y-126780535D01*
X131242402Y-126780535D02*
X131280498Y-126856726D01*
X131280498Y-126856726D02*
X131280498Y-126971011D01*
X131280498Y-126971011D02*
X131242402Y-127047202D01*
X131242402Y-127047202D02*
X131204307Y-127085297D01*
X131204307Y-127085297D02*
X131128117Y-127123392D01*
X131128117Y-127123392D02*
X130823355Y-127123392D01*
X131737640Y-127504345D02*
X131661450Y-127466250D01*
X131661450Y-127466250D02*
X131623355Y-127428154D01*
X131623355Y-127428154D02*
X131585259Y-127351964D01*
X131585259Y-127351964D02*
X131585259Y-127123392D01*
X131585259Y-127123392D02*
X131623355Y-127047202D01*
X131623355Y-127047202D02*
X131661450Y-127009107D01*
X131661450Y-127009107D02*
X131737640Y-126971011D01*
X131737640Y-126971011D02*
X131851926Y-126971011D01*
X131851926Y-126971011D02*
X131928117Y-127009107D01*
X131928117Y-127009107D02*
X131966212Y-127047202D01*
X131966212Y-127047202D02*
X132004307Y-127123392D01*
X132004307Y-127123392D02*
X132004307Y-127351964D01*
X132004307Y-127351964D02*
X131966212Y-127428154D01*
X131966212Y-127428154D02*
X131928117Y-127466250D01*
X131928117Y-127466250D02*
X131851926Y-127504345D01*
X131851926Y-127504345D02*
X131737640Y-127504345D01*
X132270974Y-126971011D02*
X132423355Y-127504345D01*
X132423355Y-127504345D02*
X132575736Y-127123392D01*
X132575736Y-127123392D02*
X132728117Y-127504345D01*
X132728117Y-127504345D02*
X132880498Y-126971011D01*
X133490022Y-127466250D02*
X133413831Y-127504345D01*
X133413831Y-127504345D02*
X133261450Y-127504345D01*
X133261450Y-127504345D02*
X133185260Y-127466250D01*
X133185260Y-127466250D02*
X133147164Y-127390059D01*
X133147164Y-127390059D02*
X133147164Y-127085297D01*
X133147164Y-127085297D02*
X133185260Y-127009107D01*
X133185260Y-127009107D02*
X133261450Y-126971011D01*
X133261450Y-126971011D02*
X133413831Y-126971011D01*
X133413831Y-126971011D02*
X133490022Y-127009107D01*
X133490022Y-127009107D02*
X133528117Y-127085297D01*
X133528117Y-127085297D02*
X133528117Y-127161488D01*
X133528117Y-127161488D02*
X133147164Y-127237678D01*
X133870974Y-127504345D02*
X133870974Y-126971011D01*
X133870974Y-127123392D02*
X133909069Y-127047202D01*
X133909069Y-127047202D02*
X133947164Y-127009107D01*
X133947164Y-127009107D02*
X134023355Y-126971011D01*
X134023355Y-126971011D02*
X134099545Y-126971011D01*
X134366212Y-127504345D02*
X134366212Y-126704345D01*
X134366212Y-126704345D02*
X134670974Y-126704345D01*
X134670974Y-126704345D02*
X134747164Y-126742440D01*
X134747164Y-126742440D02*
X134785259Y-126780535D01*
X134785259Y-126780535D02*
X134823355Y-126856726D01*
X134823355Y-126856726D02*
X134823355Y-126971011D01*
X134823355Y-126971011D02*
X134785259Y-127047202D01*
X134785259Y-127047202D02*
X134747164Y-127085297D01*
X134747164Y-127085297D02*
X134670974Y-127123392D01*
X134670974Y-127123392D02*
X134366212Y-127123392D01*
X135166212Y-127504345D02*
X135166212Y-126971011D01*
X135166212Y-126704345D02*
X135128116Y-126742440D01*
X135128116Y-126742440D02*
X135166212Y-126780535D01*
X135166212Y-126780535D02*
X135204307Y-126742440D01*
X135204307Y-126742440D02*
X135166212Y-126704345D01*
X135166212Y-126704345D02*
X135166212Y-126780535D01*
X135547164Y-127504345D02*
X135547164Y-126704345D01*
X135547164Y-126704345D02*
X136004307Y-127504345D01*
X136004307Y-127504345D02*
X136004307Y-126704345D01*
X136728116Y-127504345D02*
X136728116Y-127085297D01*
X136728116Y-127085297D02*
X136690021Y-127009107D01*
X136690021Y-127009107D02*
X136613830Y-126971011D01*
X136613830Y-126971011D02*
X136461449Y-126971011D01*
X136461449Y-126971011D02*
X136385259Y-127009107D01*
X136728116Y-127466250D02*
X136651925Y-127504345D01*
X136651925Y-127504345D02*
X136461449Y-127504345D01*
X136461449Y-127504345D02*
X136385259Y-127466250D01*
X136385259Y-127466250D02*
X136347163Y-127390059D01*
X136347163Y-127390059D02*
X136347163Y-127313869D01*
X136347163Y-127313869D02*
X136385259Y-127237678D01*
X136385259Y-127237678D02*
X136461449Y-127199583D01*
X136461449Y-127199583D02*
X136651925Y-127199583D01*
X136651925Y-127199583D02*
X136728116Y-127161488D01*
X137109069Y-126971011D02*
X137109069Y-127504345D01*
X137109069Y-127047202D02*
X137147164Y-127009107D01*
X137147164Y-127009107D02*
X137223354Y-126971011D01*
X137223354Y-126971011D02*
X137337640Y-126971011D01*
X137337640Y-126971011D02*
X137413831Y-127009107D01*
X137413831Y-127009107D02*
X137451926Y-127085297D01*
X137451926Y-127085297D02*
X137451926Y-127504345D01*
X137947164Y-127504345D02*
X137870974Y-127466250D01*
X137870974Y-127466250D02*
X137832879Y-127428154D01*
X137832879Y-127428154D02*
X137794783Y-127351964D01*
X137794783Y-127351964D02*
X137794783Y-127123392D01*
X137794783Y-127123392D02*
X137832879Y-127047202D01*
X137832879Y-127047202D02*
X137870974Y-127009107D01*
X137870974Y-127009107D02*
X137947164Y-126971011D01*
X137947164Y-126971011D02*
X138061450Y-126971011D01*
X138061450Y-126971011D02*
X138137641Y-127009107D01*
X138137641Y-127009107D02*
X138175736Y-127047202D01*
X138175736Y-127047202D02*
X138213831Y-127123392D01*
X138213831Y-127123392D02*
X138213831Y-127351964D01*
X138213831Y-127351964D02*
X138175736Y-127428154D01*
X138175736Y-127428154D02*
X138137641Y-127466250D01*
X138137641Y-127466250D02*
X138061450Y-127504345D01*
X138061450Y-127504345D02*
X137947164Y-127504345D01*
X139051927Y-126704345D02*
X139318594Y-127504345D01*
X139318594Y-127504345D02*
X139585260Y-126704345D01*
X140270974Y-127504345D02*
X139813831Y-127504345D01*
X140042403Y-127504345D02*
X140042403Y-126704345D01*
X140042403Y-126704345D02*
X139966212Y-126818630D01*
X139966212Y-126818630D02*
X139890022Y-126894821D01*
X139890022Y-126894821D02*
X139813831Y-126932916D01*
X140613832Y-127428154D02*
X140651927Y-127466250D01*
X140651927Y-127466250D02*
X140613832Y-127504345D01*
X140613832Y-127504345D02*
X140575736Y-127466250D01*
X140575736Y-127466250D02*
X140613832Y-127428154D01*
X140613832Y-127428154D02*
X140613832Y-127504345D01*
X141413831Y-127504345D02*
X140956688Y-127504345D01*
X141185260Y-127504345D02*
X141185260Y-126704345D01*
X141185260Y-126704345D02*
X141109069Y-126818630D01*
X141109069Y-126818630D02*
X141032879Y-126894821D01*
X141032879Y-126894821D02*
X140956688Y-126932916D01*
X130213831Y-128792345D02*
X130213831Y-127992345D01*
X130213831Y-127992345D02*
X130404307Y-127992345D01*
X130404307Y-127992345D02*
X130518593Y-128030440D01*
X130518593Y-128030440D02*
X130594783Y-128106630D01*
X130594783Y-128106630D02*
X130632878Y-128182821D01*
X130632878Y-128182821D02*
X130670974Y-128335202D01*
X130670974Y-128335202D02*
X130670974Y-128449488D01*
X130670974Y-128449488D02*
X130632878Y-128601869D01*
X130632878Y-128601869D02*
X130594783Y-128678059D01*
X130594783Y-128678059D02*
X130518593Y-128754250D01*
X130518593Y-128754250D02*
X130404307Y-128792345D01*
X130404307Y-128792345D02*
X130213831Y-128792345D01*
X131318593Y-128754250D02*
X131242402Y-128792345D01*
X131242402Y-128792345D02*
X131090021Y-128792345D01*
X131090021Y-128792345D02*
X131013831Y-128754250D01*
X131013831Y-128754250D02*
X130975735Y-128678059D01*
X130975735Y-128678059D02*
X130975735Y-128373297D01*
X130975735Y-128373297D02*
X131013831Y-128297107D01*
X131013831Y-128297107D02*
X131090021Y-128259011D01*
X131090021Y-128259011D02*
X131242402Y-128259011D01*
X131242402Y-128259011D02*
X131318593Y-128297107D01*
X131318593Y-128297107D02*
X131356688Y-128373297D01*
X131356688Y-128373297D02*
X131356688Y-128449488D01*
X131356688Y-128449488D02*
X130975735Y-128525678D01*
X131661449Y-128754250D02*
X131737640Y-128792345D01*
X131737640Y-128792345D02*
X131890021Y-128792345D01*
X131890021Y-128792345D02*
X131966211Y-128754250D01*
X131966211Y-128754250D02*
X132004307Y-128678059D01*
X132004307Y-128678059D02*
X132004307Y-128639964D01*
X132004307Y-128639964D02*
X131966211Y-128563773D01*
X131966211Y-128563773D02*
X131890021Y-128525678D01*
X131890021Y-128525678D02*
X131775735Y-128525678D01*
X131775735Y-128525678D02*
X131699545Y-128487583D01*
X131699545Y-128487583D02*
X131661449Y-128411392D01*
X131661449Y-128411392D02*
X131661449Y-128373297D01*
X131661449Y-128373297D02*
X131699545Y-128297107D01*
X131699545Y-128297107D02*
X131775735Y-128259011D01*
X131775735Y-128259011D02*
X131890021Y-128259011D01*
X131890021Y-128259011D02*
X131966211Y-128297107D01*
X132347164Y-128792345D02*
X132347164Y-128259011D01*
X132347164Y-127992345D02*
X132309068Y-128030440D01*
X132309068Y-128030440D02*
X132347164Y-128068535D01*
X132347164Y-128068535D02*
X132385259Y-128030440D01*
X132385259Y-128030440D02*
X132347164Y-127992345D01*
X132347164Y-127992345D02*
X132347164Y-128068535D01*
X133070973Y-128259011D02*
X133070973Y-128906630D01*
X133070973Y-128906630D02*
X133032878Y-128982821D01*
X133032878Y-128982821D02*
X132994782Y-129020916D01*
X132994782Y-129020916D02*
X132918592Y-129059011D01*
X132918592Y-129059011D02*
X132804306Y-129059011D01*
X132804306Y-129059011D02*
X132728116Y-129020916D01*
X133070973Y-128754250D02*
X132994782Y-128792345D01*
X132994782Y-128792345D02*
X132842401Y-128792345D01*
X132842401Y-128792345D02*
X132766211Y-128754250D01*
X132766211Y-128754250D02*
X132728116Y-128716154D01*
X132728116Y-128716154D02*
X132690020Y-128639964D01*
X132690020Y-128639964D02*
X132690020Y-128411392D01*
X132690020Y-128411392D02*
X132728116Y-128335202D01*
X132728116Y-128335202D02*
X132766211Y-128297107D01*
X132766211Y-128297107D02*
X132842401Y-128259011D01*
X132842401Y-128259011D02*
X132994782Y-128259011D01*
X132994782Y-128259011D02*
X133070973Y-128297107D01*
X133451926Y-128259011D02*
X133451926Y-128792345D01*
X133451926Y-128335202D02*
X133490021Y-128297107D01*
X133490021Y-128297107D02*
X133566211Y-128259011D01*
X133566211Y-128259011D02*
X133680497Y-128259011D01*
X133680497Y-128259011D02*
X133756688Y-128297107D01*
X133756688Y-128297107D02*
X133794783Y-128373297D01*
X133794783Y-128373297D02*
X133794783Y-128792345D01*
X134480498Y-128754250D02*
X134404307Y-128792345D01*
X134404307Y-128792345D02*
X134251926Y-128792345D01*
X134251926Y-128792345D02*
X134175736Y-128754250D01*
X134175736Y-128754250D02*
X134137640Y-128678059D01*
X134137640Y-128678059D02*
X134137640Y-128373297D01*
X134137640Y-128373297D02*
X134175736Y-128297107D01*
X134175736Y-128297107D02*
X134251926Y-128259011D01*
X134251926Y-128259011D02*
X134404307Y-128259011D01*
X134404307Y-128259011D02*
X134480498Y-128297107D01*
X134480498Y-128297107D02*
X134518593Y-128373297D01*
X134518593Y-128373297D02*
X134518593Y-128449488D01*
X134518593Y-128449488D02*
X134137640Y-128525678D01*
X135204307Y-128792345D02*
X135204307Y-127992345D01*
X135204307Y-128754250D02*
X135128116Y-128792345D01*
X135128116Y-128792345D02*
X134975735Y-128792345D01*
X134975735Y-128792345D02*
X134899545Y-128754250D01*
X134899545Y-128754250D02*
X134861450Y-128716154D01*
X134861450Y-128716154D02*
X134823354Y-128639964D01*
X134823354Y-128639964D02*
X134823354Y-128411392D01*
X134823354Y-128411392D02*
X134861450Y-128335202D01*
X134861450Y-128335202D02*
X134899545Y-128297107D01*
X134899545Y-128297107D02*
X134975735Y-128259011D01*
X134975735Y-128259011D02*
X135128116Y-128259011D01*
X135128116Y-128259011D02*
X135204307Y-128297107D01*
X136194784Y-128792345D02*
X136194784Y-127992345D01*
X136194784Y-128297107D02*
X136270974Y-128259011D01*
X136270974Y-128259011D02*
X136423355Y-128259011D01*
X136423355Y-128259011D02*
X136499546Y-128297107D01*
X136499546Y-128297107D02*
X136537641Y-128335202D01*
X136537641Y-128335202D02*
X136575736Y-128411392D01*
X136575736Y-128411392D02*
X136575736Y-128639964D01*
X136575736Y-128639964D02*
X136537641Y-128716154D01*
X136537641Y-128716154D02*
X136499546Y-128754250D01*
X136499546Y-128754250D02*
X136423355Y-128792345D01*
X136423355Y-128792345D02*
X136270974Y-128792345D01*
X136270974Y-128792345D02*
X136194784Y-128754250D01*
X136842403Y-128259011D02*
X137032879Y-128792345D01*
X137223356Y-128259011D02*
X137032879Y-128792345D01*
X137032879Y-128792345D02*
X136956689Y-128982821D01*
X136956689Y-128982821D02*
X136918594Y-129020916D01*
X136918594Y-129020916D02*
X136842403Y-129059011D01*
X137528118Y-128716154D02*
X137566213Y-128754250D01*
X137566213Y-128754250D02*
X137528118Y-128792345D01*
X137528118Y-128792345D02*
X137490022Y-128754250D01*
X137490022Y-128754250D02*
X137528118Y-128716154D01*
X137528118Y-128716154D02*
X137528118Y-128792345D01*
X137528118Y-128297107D02*
X137566213Y-128335202D01*
X137566213Y-128335202D02*
X137528118Y-128373297D01*
X137528118Y-128373297D02*
X137490022Y-128335202D01*
X137490022Y-128335202D02*
X137528118Y-128297107D01*
X137528118Y-128297107D02*
X137528118Y-128373297D01*
X138480498Y-128754250D02*
X138556689Y-128792345D01*
X138556689Y-128792345D02*
X138709070Y-128792345D01*
X138709070Y-128792345D02*
X138785260Y-128754250D01*
X138785260Y-128754250D02*
X138823356Y-128678059D01*
X138823356Y-128678059D02*
X138823356Y-128639964D01*
X138823356Y-128639964D02*
X138785260Y-128563773D01*
X138785260Y-128563773D02*
X138709070Y-128525678D01*
X138709070Y-128525678D02*
X138594784Y-128525678D01*
X138594784Y-128525678D02*
X138518594Y-128487583D01*
X138518594Y-128487583D02*
X138480498Y-128411392D01*
X138480498Y-128411392D02*
X138480498Y-128373297D01*
X138480498Y-128373297D02*
X138518594Y-128297107D01*
X138518594Y-128297107D02*
X138594784Y-128259011D01*
X138594784Y-128259011D02*
X138709070Y-128259011D01*
X138709070Y-128259011D02*
X138785260Y-128297107D01*
X139051927Y-128259011D02*
X139356689Y-128259011D01*
X139166213Y-127992345D02*
X139166213Y-128678059D01*
X139166213Y-128678059D02*
X139204308Y-128754250D01*
X139204308Y-128754250D02*
X139280498Y-128792345D01*
X139280498Y-128792345D02*
X139356689Y-128792345D01*
X139928118Y-128754250D02*
X139851927Y-128792345D01*
X139851927Y-128792345D02*
X139699546Y-128792345D01*
X139699546Y-128792345D02*
X139623356Y-128754250D01*
X139623356Y-128754250D02*
X139585260Y-128678059D01*
X139585260Y-128678059D02*
X139585260Y-128373297D01*
X139585260Y-128373297D02*
X139623356Y-128297107D01*
X139623356Y-128297107D02*
X139699546Y-128259011D01*
X139699546Y-128259011D02*
X139851927Y-128259011D01*
X139851927Y-128259011D02*
X139928118Y-128297107D01*
X139928118Y-128297107D02*
X139966213Y-128373297D01*
X139966213Y-128373297D02*
X139966213Y-128449488D01*
X139966213Y-128449488D02*
X139585260Y-128525678D01*
X140194784Y-128259011D02*
X140499546Y-128259011D01*
X140309070Y-128792345D02*
X140309070Y-128106630D01*
X140309070Y-128106630D02*
X140347165Y-128030440D01*
X140347165Y-128030440D02*
X140423355Y-127992345D01*
X140423355Y-127992345D02*
X140499546Y-127992345D01*
X141109070Y-128792345D02*
X141109070Y-128373297D01*
X141109070Y-128373297D02*
X141070975Y-128297107D01*
X141070975Y-128297107D02*
X140994784Y-128259011D01*
X140994784Y-128259011D02*
X140842403Y-128259011D01*
X140842403Y-128259011D02*
X140766213Y-128297107D01*
X141109070Y-128754250D02*
X141032879Y-128792345D01*
X141032879Y-128792345D02*
X140842403Y-128792345D01*
X140842403Y-128792345D02*
X140766213Y-128754250D01*
X140766213Y-128754250D02*
X140728117Y-128678059D01*
X140728117Y-128678059D02*
X140728117Y-128601869D01*
X140728117Y-128601869D02*
X140766213Y-128525678D01*
X140766213Y-128525678D02*
X140842403Y-128487583D01*
X140842403Y-128487583D02*
X141032879Y-128487583D01*
X141032879Y-128487583D02*
X141109070Y-128449488D01*
X141490023Y-128792345D02*
X141490023Y-128259011D01*
X141490023Y-128411392D02*
X141528118Y-128335202D01*
X141528118Y-128335202D02*
X141566213Y-128297107D01*
X141566213Y-128297107D02*
X141642404Y-128259011D01*
X141642404Y-128259011D02*
X141718594Y-128259011D01*
X141985261Y-128259011D02*
X141985261Y-128792345D01*
X141985261Y-128335202D02*
X142023356Y-128297107D01*
X142023356Y-128297107D02*
X142099546Y-128259011D01*
X142099546Y-128259011D02*
X142213832Y-128259011D01*
X142213832Y-128259011D02*
X142290023Y-128297107D01*
X142290023Y-128297107D02*
X142328118Y-128373297D01*
X142328118Y-128373297D02*
X142328118Y-128792345D01*
D10*
X126808207Y-125132390D02*
X126732017Y-125094295D01*
X126732017Y-125094295D02*
X126617731Y-125094295D01*
X126617731Y-125094295D02*
X126503445Y-125132390D01*
X126503445Y-125132390D02*
X126427255Y-125208580D01*
X126427255Y-125208580D02*
X126389160Y-125284771D01*
X126389160Y-125284771D02*
X126351064Y-125437152D01*
X126351064Y-125437152D02*
X126351064Y-125551438D01*
X126351064Y-125551438D02*
X126389160Y-125703819D01*
X126389160Y-125703819D02*
X126427255Y-125780009D01*
X126427255Y-125780009D02*
X126503445Y-125856200D01*
X126503445Y-125856200D02*
X126617731Y-125894295D01*
X126617731Y-125894295D02*
X126693922Y-125894295D01*
X126693922Y-125894295D02*
X126808207Y-125856200D01*
X126808207Y-125856200D02*
X126846303Y-125818104D01*
X126846303Y-125818104D02*
X126846303Y-125551438D01*
X126846303Y-125551438D02*
X126693922Y-125551438D01*
X127608207Y-125894295D02*
X127151064Y-125894295D01*
X127379636Y-125894295D02*
X127379636Y-125094295D01*
X127379636Y-125094295D02*
X127303445Y-125208580D01*
X127303445Y-125208580D02*
X127227255Y-125284771D01*
X127227255Y-125284771D02*
X127151064Y-125322866D01*
X128293922Y-125360961D02*
X128293922Y-125894295D01*
X128103446Y-125056200D02*
X127912969Y-125627628D01*
X127912969Y-125627628D02*
X128408208Y-125627628D01*
X126808207Y-120032390D02*
X126732017Y-119994295D01*
X126732017Y-119994295D02*
X126617731Y-119994295D01*
X126617731Y-119994295D02*
X126503445Y-120032390D01*
X126503445Y-120032390D02*
X126427255Y-120108580D01*
X126427255Y-120108580D02*
X126389160Y-120184771D01*
X126389160Y-120184771D02*
X126351064Y-120337152D01*
X126351064Y-120337152D02*
X126351064Y-120451438D01*
X126351064Y-120451438D02*
X126389160Y-120603819D01*
X126389160Y-120603819D02*
X126427255Y-120680009D01*
X126427255Y-120680009D02*
X126503445Y-120756200D01*
X126503445Y-120756200D02*
X126617731Y-120794295D01*
X126617731Y-120794295D02*
X126693922Y-120794295D01*
X126693922Y-120794295D02*
X126808207Y-120756200D01*
X126808207Y-120756200D02*
X126846303Y-120718104D01*
X126846303Y-120718104D02*
X126846303Y-120451438D01*
X126846303Y-120451438D02*
X126693922Y-120451438D01*
X127608207Y-120794295D02*
X127151064Y-120794295D01*
X127379636Y-120794295D02*
X127379636Y-119994295D01*
X127379636Y-119994295D02*
X127303445Y-120108580D01*
X127303445Y-120108580D02*
X127227255Y-120184771D01*
X127227255Y-120184771D02*
X127151064Y-120222866D01*
X127912969Y-120070485D02*
X127951065Y-120032390D01*
X127951065Y-120032390D02*
X128027255Y-119994295D01*
X128027255Y-119994295D02*
X128217731Y-119994295D01*
X128217731Y-119994295D02*
X128293922Y-120032390D01*
X128293922Y-120032390D02*
X128332017Y-120070485D01*
X128332017Y-120070485D02*
X128370112Y-120146676D01*
X128370112Y-120146676D02*
X128370112Y-120222866D01*
X128370112Y-120222866D02*
X128332017Y-120337152D01*
X128332017Y-120337152D02*
X127874874Y-120794295D01*
X127874874Y-120794295D02*
X128370112Y-120794295D01*
X169241541Y-112394295D02*
X169393922Y-112394295D01*
X169393922Y-112394295D02*
X169470112Y-112432390D01*
X169470112Y-112432390D02*
X169546303Y-112508580D01*
X169546303Y-112508580D02*
X169584398Y-112660961D01*
X169584398Y-112660961D02*
X169584398Y-112927628D01*
X169584398Y-112927628D02*
X169546303Y-113080009D01*
X169546303Y-113080009D02*
X169470112Y-113156200D01*
X169470112Y-113156200D02*
X169393922Y-113194295D01*
X169393922Y-113194295D02*
X169241541Y-113194295D01*
X169241541Y-113194295D02*
X169165350Y-113156200D01*
X169165350Y-113156200D02*
X169089160Y-113080009D01*
X169089160Y-113080009D02*
X169051064Y-112927628D01*
X169051064Y-112927628D02*
X169051064Y-112660961D01*
X169051064Y-112660961D02*
X169089160Y-112508580D01*
X169089160Y-112508580D02*
X169165350Y-112432390D01*
X169165350Y-112432390D02*
X169241541Y-112394295D01*
X169889159Y-112470485D02*
X169927255Y-112432390D01*
X169927255Y-112432390D02*
X170003445Y-112394295D01*
X170003445Y-112394295D02*
X170193921Y-112394295D01*
X170193921Y-112394295D02*
X170270112Y-112432390D01*
X170270112Y-112432390D02*
X170308207Y-112470485D01*
X170308207Y-112470485D02*
X170346302Y-112546676D01*
X170346302Y-112546676D02*
X170346302Y-112622866D01*
X170346302Y-112622866D02*
X170308207Y-112737152D01*
X170308207Y-112737152D02*
X169851064Y-113194295D01*
X169851064Y-113194295D02*
X170346302Y-113194295D01*
X170841541Y-112394295D02*
X170917731Y-112394295D01*
X170917731Y-112394295D02*
X170993922Y-112432390D01*
X170993922Y-112432390D02*
X171032017Y-112470485D01*
X171032017Y-112470485D02*
X171070112Y-112546676D01*
X171070112Y-112546676D02*
X171108207Y-112699057D01*
X171108207Y-112699057D02*
X171108207Y-112889533D01*
X171108207Y-112889533D02*
X171070112Y-113041914D01*
X171070112Y-113041914D02*
X171032017Y-113118104D01*
X171032017Y-113118104D02*
X170993922Y-113156200D01*
X170993922Y-113156200D02*
X170917731Y-113194295D01*
X170917731Y-113194295D02*
X170841541Y-113194295D01*
X170841541Y-113194295D02*
X170765350Y-113156200D01*
X170765350Y-113156200D02*
X170727255Y-113118104D01*
X170727255Y-113118104D02*
X170689160Y-113041914D01*
X170689160Y-113041914D02*
X170651064Y-112889533D01*
X170651064Y-112889533D02*
X170651064Y-112699057D01*
X170651064Y-112699057D02*
X170689160Y-112546676D01*
X170689160Y-112546676D02*
X170727255Y-112470485D01*
X170727255Y-112470485D02*
X170765350Y-112432390D01*
X170765350Y-112432390D02*
X170841541Y-112394295D01*
X132912969Y-89694295D02*
X133408207Y-89694295D01*
X133408207Y-89694295D02*
X133141541Y-89999057D01*
X133141541Y-89999057D02*
X133255826Y-89999057D01*
X133255826Y-89999057D02*
X133332017Y-90037152D01*
X133332017Y-90037152D02*
X133370112Y-90075247D01*
X133370112Y-90075247D02*
X133408207Y-90151438D01*
X133408207Y-90151438D02*
X133408207Y-90341914D01*
X133408207Y-90341914D02*
X133370112Y-90418104D01*
X133370112Y-90418104D02*
X133332017Y-90456200D01*
X133332017Y-90456200D02*
X133255826Y-90494295D01*
X133255826Y-90494295D02*
X133027255Y-90494295D01*
X133027255Y-90494295D02*
X132951064Y-90456200D01*
X132951064Y-90456200D02*
X132912969Y-90418104D01*
X133636779Y-89694295D02*
X133903446Y-90494295D01*
X133903446Y-90494295D02*
X134170112Y-89694295D01*
X134360588Y-89694295D02*
X134855826Y-89694295D01*
X134855826Y-89694295D02*
X134589160Y-89999057D01*
X134589160Y-89999057D02*
X134703445Y-89999057D01*
X134703445Y-89999057D02*
X134779636Y-90037152D01*
X134779636Y-90037152D02*
X134817731Y-90075247D01*
X134817731Y-90075247D02*
X134855826Y-90151438D01*
X134855826Y-90151438D02*
X134855826Y-90341914D01*
X134855826Y-90341914D02*
X134817731Y-90418104D01*
X134817731Y-90418104D02*
X134779636Y-90456200D01*
X134779636Y-90456200D02*
X134703445Y-90494295D01*
X134703445Y-90494295D02*
X134474874Y-90494295D01*
X134474874Y-90494295D02*
X134398683Y-90456200D01*
X134398683Y-90456200D02*
X134360588Y-90418104D01*
X151951064Y-130456200D02*
X152065350Y-130494295D01*
X152065350Y-130494295D02*
X152255826Y-130494295D01*
X152255826Y-130494295D02*
X152332017Y-130456200D01*
X152332017Y-130456200D02*
X152370112Y-130418104D01*
X152370112Y-130418104D02*
X152408207Y-130341914D01*
X152408207Y-130341914D02*
X152408207Y-130265723D01*
X152408207Y-130265723D02*
X152370112Y-130189533D01*
X152370112Y-130189533D02*
X152332017Y-130151438D01*
X152332017Y-130151438D02*
X152255826Y-130113342D01*
X152255826Y-130113342D02*
X152103445Y-130075247D01*
X152103445Y-130075247D02*
X152027255Y-130037152D01*
X152027255Y-130037152D02*
X151989160Y-129999057D01*
X151989160Y-129999057D02*
X151951064Y-129922866D01*
X151951064Y-129922866D02*
X151951064Y-129846676D01*
X151951064Y-129846676D02*
X151989160Y-129770485D01*
X151989160Y-129770485D02*
X152027255Y-129732390D01*
X152027255Y-129732390D02*
X152103445Y-129694295D01*
X152103445Y-129694295D02*
X152293922Y-129694295D01*
X152293922Y-129694295D02*
X152408207Y-129732390D01*
X152674874Y-129694295D02*
X152865350Y-130494295D01*
X152865350Y-130494295D02*
X153017731Y-129922866D01*
X153017731Y-129922866D02*
X153170112Y-130494295D01*
X153170112Y-130494295D02*
X153360589Y-129694295D01*
X154122494Y-130418104D02*
X154084398Y-130456200D01*
X154084398Y-130456200D02*
X153970113Y-130494295D01*
X153970113Y-130494295D02*
X153893922Y-130494295D01*
X153893922Y-130494295D02*
X153779636Y-130456200D01*
X153779636Y-130456200D02*
X153703446Y-130380009D01*
X153703446Y-130380009D02*
X153665351Y-130303819D01*
X153665351Y-130303819D02*
X153627255Y-130151438D01*
X153627255Y-130151438D02*
X153627255Y-130037152D01*
X153627255Y-130037152D02*
X153665351Y-129884771D01*
X153665351Y-129884771D02*
X153703446Y-129808580D01*
X153703446Y-129808580D02*
X153779636Y-129732390D01*
X153779636Y-129732390D02*
X153893922Y-129694295D01*
X153893922Y-129694295D02*
X153970113Y-129694295D01*
X153970113Y-129694295D02*
X154084398Y-129732390D01*
X154084398Y-129732390D02*
X154122494Y-129770485D01*
X154846303Y-130494295D02*
X154465351Y-130494295D01*
X154465351Y-130494295D02*
X154465351Y-129694295D01*
X155112970Y-130494295D02*
X155112970Y-129694295D01*
X155570113Y-130494295D02*
X155227255Y-130037152D01*
X155570113Y-129694295D02*
X155112970Y-130151438D01*
X126808207Y-89632390D02*
X126732017Y-89594295D01*
X126732017Y-89594295D02*
X126617731Y-89594295D01*
X126617731Y-89594295D02*
X126503445Y-89632390D01*
X126503445Y-89632390D02*
X126427255Y-89708580D01*
X126427255Y-89708580D02*
X126389160Y-89784771D01*
X126389160Y-89784771D02*
X126351064Y-89937152D01*
X126351064Y-89937152D02*
X126351064Y-90051438D01*
X126351064Y-90051438D02*
X126389160Y-90203819D01*
X126389160Y-90203819D02*
X126427255Y-90280009D01*
X126427255Y-90280009D02*
X126503445Y-90356200D01*
X126503445Y-90356200D02*
X126617731Y-90394295D01*
X126617731Y-90394295D02*
X126693922Y-90394295D01*
X126693922Y-90394295D02*
X126808207Y-90356200D01*
X126808207Y-90356200D02*
X126846303Y-90318104D01*
X126846303Y-90318104D02*
X126846303Y-90051438D01*
X126846303Y-90051438D02*
X126693922Y-90051438D01*
X127341541Y-89594295D02*
X127417731Y-89594295D01*
X127417731Y-89594295D02*
X127493922Y-89632390D01*
X127493922Y-89632390D02*
X127532017Y-89670485D01*
X127532017Y-89670485D02*
X127570112Y-89746676D01*
X127570112Y-89746676D02*
X127608207Y-89899057D01*
X127608207Y-89899057D02*
X127608207Y-90089533D01*
X127608207Y-90089533D02*
X127570112Y-90241914D01*
X127570112Y-90241914D02*
X127532017Y-90318104D01*
X127532017Y-90318104D02*
X127493922Y-90356200D01*
X127493922Y-90356200D02*
X127417731Y-90394295D01*
X127417731Y-90394295D02*
X127341541Y-90394295D01*
X127341541Y-90394295D02*
X127265350Y-90356200D01*
X127265350Y-90356200D02*
X127227255Y-90318104D01*
X127227255Y-90318104D02*
X127189160Y-90241914D01*
X127189160Y-90241914D02*
X127151064Y-90089533D01*
X127151064Y-90089533D02*
X127151064Y-89899057D01*
X127151064Y-89899057D02*
X127189160Y-89746676D01*
X127189160Y-89746676D02*
X127227255Y-89670485D01*
X127227255Y-89670485D02*
X127265350Y-89632390D01*
X127265350Y-89632390D02*
X127341541Y-89594295D01*
X128103446Y-89594295D02*
X128179636Y-89594295D01*
X128179636Y-89594295D02*
X128255827Y-89632390D01*
X128255827Y-89632390D02*
X128293922Y-89670485D01*
X128293922Y-89670485D02*
X128332017Y-89746676D01*
X128332017Y-89746676D02*
X128370112Y-89899057D01*
X128370112Y-89899057D02*
X128370112Y-90089533D01*
X128370112Y-90089533D02*
X128332017Y-90241914D01*
X128332017Y-90241914D02*
X128293922Y-90318104D01*
X128293922Y-90318104D02*
X128255827Y-90356200D01*
X128255827Y-90356200D02*
X128179636Y-90394295D01*
X128179636Y-90394295D02*
X128103446Y-90394295D01*
X128103446Y-90394295D02*
X128027255Y-90356200D01*
X128027255Y-90356200D02*
X127989160Y-90318104D01*
X127989160Y-90318104D02*
X127951065Y-90241914D01*
X127951065Y-90241914D02*
X127912969Y-90089533D01*
X127912969Y-90089533D02*
X127912969Y-89899057D01*
X127912969Y-89899057D02*
X127951065Y-89746676D01*
X127951065Y-89746676D02*
X127989160Y-89670485D01*
X127989160Y-89670485D02*
X128027255Y-89632390D01*
X128027255Y-89632390D02*
X128103446Y-89594295D01*
X148746303Y-91594295D02*
X148479636Y-91213342D01*
X148289160Y-91594295D02*
X148289160Y-90794295D01*
X148289160Y-90794295D02*
X148593922Y-90794295D01*
X148593922Y-90794295D02*
X148670112Y-90832390D01*
X148670112Y-90832390D02*
X148708207Y-90870485D01*
X148708207Y-90870485D02*
X148746303Y-90946676D01*
X148746303Y-90946676D02*
X148746303Y-91060961D01*
X148746303Y-91060961D02*
X148708207Y-91137152D01*
X148708207Y-91137152D02*
X148670112Y-91175247D01*
X148670112Y-91175247D02*
X148593922Y-91213342D01*
X148593922Y-91213342D02*
X148289160Y-91213342D01*
X149089160Y-90794295D02*
X149089160Y-91441914D01*
X149089160Y-91441914D02*
X149127255Y-91518104D01*
X149127255Y-91518104D02*
X149165350Y-91556200D01*
X149165350Y-91556200D02*
X149241541Y-91594295D01*
X149241541Y-91594295D02*
X149393922Y-91594295D01*
X149393922Y-91594295D02*
X149470112Y-91556200D01*
X149470112Y-91556200D02*
X149508207Y-91518104D01*
X149508207Y-91518104D02*
X149546303Y-91441914D01*
X149546303Y-91441914D02*
X149546303Y-90794295D01*
X149927255Y-91594295D02*
X149927255Y-90794295D01*
X149927255Y-90794295D02*
X150384398Y-91594295D01*
X150384398Y-91594295D02*
X150384398Y-90794295D01*
X126908207Y-127732390D02*
X126832017Y-127694295D01*
X126832017Y-127694295D02*
X126717731Y-127694295D01*
X126717731Y-127694295D02*
X126603445Y-127732390D01*
X126603445Y-127732390D02*
X126527255Y-127808580D01*
X126527255Y-127808580D02*
X126489160Y-127884771D01*
X126489160Y-127884771D02*
X126451064Y-128037152D01*
X126451064Y-128037152D02*
X126451064Y-128151438D01*
X126451064Y-128151438D02*
X126489160Y-128303819D01*
X126489160Y-128303819D02*
X126527255Y-128380009D01*
X126527255Y-128380009D02*
X126603445Y-128456200D01*
X126603445Y-128456200D02*
X126717731Y-128494295D01*
X126717731Y-128494295D02*
X126793922Y-128494295D01*
X126793922Y-128494295D02*
X126908207Y-128456200D01*
X126908207Y-128456200D02*
X126946303Y-128418104D01*
X126946303Y-128418104D02*
X126946303Y-128151438D01*
X126946303Y-128151438D02*
X126793922Y-128151438D01*
X127289160Y-128494295D02*
X127289160Y-127694295D01*
X127289160Y-127694295D02*
X127746303Y-128494295D01*
X127746303Y-128494295D02*
X127746303Y-127694295D01*
X128127255Y-128494295D02*
X128127255Y-127694295D01*
X128127255Y-127694295D02*
X128317731Y-127694295D01*
X128317731Y-127694295D02*
X128432017Y-127732390D01*
X128432017Y-127732390D02*
X128508207Y-127808580D01*
X128508207Y-127808580D02*
X128546302Y-127884771D01*
X128546302Y-127884771D02*
X128584398Y-128037152D01*
X128584398Y-128037152D02*
X128584398Y-128151438D01*
X128584398Y-128151438D02*
X128546302Y-128303819D01*
X128546302Y-128303819D02*
X128508207Y-128380009D01*
X128508207Y-128380009D02*
X128432017Y-128456200D01*
X128432017Y-128456200D02*
X128317731Y-128494295D01*
X128317731Y-128494295D02*
X128127255Y-128494295D01*
X126808207Y-94632390D02*
X126732017Y-94594295D01*
X126732017Y-94594295D02*
X126617731Y-94594295D01*
X126617731Y-94594295D02*
X126503445Y-94632390D01*
X126503445Y-94632390D02*
X126427255Y-94708580D01*
X126427255Y-94708580D02*
X126389160Y-94784771D01*
X126389160Y-94784771D02*
X126351064Y-94937152D01*
X126351064Y-94937152D02*
X126351064Y-95051438D01*
X126351064Y-95051438D02*
X126389160Y-95203819D01*
X126389160Y-95203819D02*
X126427255Y-95280009D01*
X126427255Y-95280009D02*
X126503445Y-95356200D01*
X126503445Y-95356200D02*
X126617731Y-95394295D01*
X126617731Y-95394295D02*
X126693922Y-95394295D01*
X126693922Y-95394295D02*
X126808207Y-95356200D01*
X126808207Y-95356200D02*
X126846303Y-95318104D01*
X126846303Y-95318104D02*
X126846303Y-95051438D01*
X126846303Y-95051438D02*
X126693922Y-95051438D01*
X127341541Y-94594295D02*
X127417731Y-94594295D01*
X127417731Y-94594295D02*
X127493922Y-94632390D01*
X127493922Y-94632390D02*
X127532017Y-94670485D01*
X127532017Y-94670485D02*
X127570112Y-94746676D01*
X127570112Y-94746676D02*
X127608207Y-94899057D01*
X127608207Y-94899057D02*
X127608207Y-95089533D01*
X127608207Y-95089533D02*
X127570112Y-95241914D01*
X127570112Y-95241914D02*
X127532017Y-95318104D01*
X127532017Y-95318104D02*
X127493922Y-95356200D01*
X127493922Y-95356200D02*
X127417731Y-95394295D01*
X127417731Y-95394295D02*
X127341541Y-95394295D01*
X127341541Y-95394295D02*
X127265350Y-95356200D01*
X127265350Y-95356200D02*
X127227255Y-95318104D01*
X127227255Y-95318104D02*
X127189160Y-95241914D01*
X127189160Y-95241914D02*
X127151064Y-95089533D01*
X127151064Y-95089533D02*
X127151064Y-94899057D01*
X127151064Y-94899057D02*
X127189160Y-94746676D01*
X127189160Y-94746676D02*
X127227255Y-94670485D01*
X127227255Y-94670485D02*
X127265350Y-94632390D01*
X127265350Y-94632390D02*
X127341541Y-94594295D01*
X127912969Y-94670485D02*
X127951065Y-94632390D01*
X127951065Y-94632390D02*
X128027255Y-94594295D01*
X128027255Y-94594295D02*
X128217731Y-94594295D01*
X128217731Y-94594295D02*
X128293922Y-94632390D01*
X128293922Y-94632390D02*
X128332017Y-94670485D01*
X128332017Y-94670485D02*
X128370112Y-94746676D01*
X128370112Y-94746676D02*
X128370112Y-94822866D01*
X128370112Y-94822866D02*
X128332017Y-94937152D01*
X128332017Y-94937152D02*
X127874874Y-95394295D01*
X127874874Y-95394295D02*
X128370112Y-95394295D01*
X169241541Y-109894295D02*
X169393922Y-109894295D01*
X169393922Y-109894295D02*
X169470112Y-109932390D01*
X169470112Y-109932390D02*
X169546303Y-110008580D01*
X169546303Y-110008580D02*
X169584398Y-110160961D01*
X169584398Y-110160961D02*
X169584398Y-110427628D01*
X169584398Y-110427628D02*
X169546303Y-110580009D01*
X169546303Y-110580009D02*
X169470112Y-110656200D01*
X169470112Y-110656200D02*
X169393922Y-110694295D01*
X169393922Y-110694295D02*
X169241541Y-110694295D01*
X169241541Y-110694295D02*
X169165350Y-110656200D01*
X169165350Y-110656200D02*
X169089160Y-110580009D01*
X169089160Y-110580009D02*
X169051064Y-110427628D01*
X169051064Y-110427628D02*
X169051064Y-110160961D01*
X169051064Y-110160961D02*
X169089160Y-110008580D01*
X169089160Y-110008580D02*
X169165350Y-109932390D01*
X169165350Y-109932390D02*
X169241541Y-109894295D01*
X169889159Y-109970485D02*
X169927255Y-109932390D01*
X169927255Y-109932390D02*
X170003445Y-109894295D01*
X170003445Y-109894295D02*
X170193921Y-109894295D01*
X170193921Y-109894295D02*
X170270112Y-109932390D01*
X170270112Y-109932390D02*
X170308207Y-109970485D01*
X170308207Y-109970485D02*
X170346302Y-110046676D01*
X170346302Y-110046676D02*
X170346302Y-110122866D01*
X170346302Y-110122866D02*
X170308207Y-110237152D01*
X170308207Y-110237152D02*
X169851064Y-110694295D01*
X169851064Y-110694295D02*
X170346302Y-110694295D01*
X171108207Y-110694295D02*
X170651064Y-110694295D01*
X170879636Y-110694295D02*
X170879636Y-109894295D01*
X170879636Y-109894295D02*
X170803445Y-110008580D01*
X170803445Y-110008580D02*
X170727255Y-110084771D01*
X170727255Y-110084771D02*
X170651064Y-110122866D01*
X169241541Y-114894295D02*
X169393922Y-114894295D01*
X169393922Y-114894295D02*
X169470112Y-114932390D01*
X169470112Y-114932390D02*
X169546303Y-115008580D01*
X169546303Y-115008580D02*
X169584398Y-115160961D01*
X169584398Y-115160961D02*
X169584398Y-115427628D01*
X169584398Y-115427628D02*
X169546303Y-115580009D01*
X169546303Y-115580009D02*
X169470112Y-115656200D01*
X169470112Y-115656200D02*
X169393922Y-115694295D01*
X169393922Y-115694295D02*
X169241541Y-115694295D01*
X169241541Y-115694295D02*
X169165350Y-115656200D01*
X169165350Y-115656200D02*
X169089160Y-115580009D01*
X169089160Y-115580009D02*
X169051064Y-115427628D01*
X169051064Y-115427628D02*
X169051064Y-115160961D01*
X169051064Y-115160961D02*
X169089160Y-115008580D01*
X169089160Y-115008580D02*
X169165350Y-114932390D01*
X169165350Y-114932390D02*
X169241541Y-114894295D01*
X170346302Y-115694295D02*
X169889159Y-115694295D01*
X170117731Y-115694295D02*
X170117731Y-114894295D01*
X170117731Y-114894295D02*
X170041540Y-115008580D01*
X170041540Y-115008580D02*
X169965350Y-115084771D01*
X169965350Y-115084771D02*
X169889159Y-115122866D01*
X170727255Y-115694295D02*
X170879636Y-115694295D01*
X170879636Y-115694295D02*
X170955826Y-115656200D01*
X170955826Y-115656200D02*
X170993922Y-115618104D01*
X170993922Y-115618104D02*
X171070112Y-115503819D01*
X171070112Y-115503819D02*
X171108207Y-115351438D01*
X171108207Y-115351438D02*
X171108207Y-115046676D01*
X171108207Y-115046676D02*
X171070112Y-114970485D01*
X171070112Y-114970485D02*
X171032017Y-114932390D01*
X171032017Y-114932390D02*
X170955826Y-114894295D01*
X170955826Y-114894295D02*
X170803445Y-114894295D01*
X170803445Y-114894295D02*
X170727255Y-114932390D01*
X170727255Y-114932390D02*
X170689160Y-114970485D01*
X170689160Y-114970485D02*
X170651064Y-115046676D01*
X170651064Y-115046676D02*
X170651064Y-115237152D01*
X170651064Y-115237152D02*
X170689160Y-115313342D01*
X170689160Y-115313342D02*
X170727255Y-115351438D01*
X170727255Y-115351438D02*
X170803445Y-115389533D01*
X170803445Y-115389533D02*
X170955826Y-115389533D01*
X170955826Y-115389533D02*
X171032017Y-115351438D01*
X171032017Y-115351438D02*
X171070112Y-115313342D01*
X171070112Y-115313342D02*
X171108207Y-115237152D01*
X135389160Y-125294295D02*
X135389160Y-124494295D01*
X135389160Y-124494295D02*
X135693922Y-124494295D01*
X135693922Y-124494295D02*
X135770112Y-124532390D01*
X135770112Y-124532390D02*
X135808207Y-124570485D01*
X135808207Y-124570485D02*
X135846303Y-124646676D01*
X135846303Y-124646676D02*
X135846303Y-124760961D01*
X135846303Y-124760961D02*
X135808207Y-124837152D01*
X135808207Y-124837152D02*
X135770112Y-124875247D01*
X135770112Y-124875247D02*
X135693922Y-124913342D01*
X135693922Y-124913342D02*
X135389160Y-124913342D01*
X136341541Y-124494295D02*
X136493922Y-124494295D01*
X136493922Y-124494295D02*
X136570112Y-124532390D01*
X136570112Y-124532390D02*
X136646303Y-124608580D01*
X136646303Y-124608580D02*
X136684398Y-124760961D01*
X136684398Y-124760961D02*
X136684398Y-125027628D01*
X136684398Y-125027628D02*
X136646303Y-125180009D01*
X136646303Y-125180009D02*
X136570112Y-125256200D01*
X136570112Y-125256200D02*
X136493922Y-125294295D01*
X136493922Y-125294295D02*
X136341541Y-125294295D01*
X136341541Y-125294295D02*
X136265350Y-125256200D01*
X136265350Y-125256200D02*
X136189160Y-125180009D01*
X136189160Y-125180009D02*
X136151064Y-125027628D01*
X136151064Y-125027628D02*
X136151064Y-124760961D01*
X136151064Y-124760961D02*
X136189160Y-124608580D01*
X136189160Y-124608580D02*
X136265350Y-124532390D01*
X136265350Y-124532390D02*
X136341541Y-124494295D01*
X136951064Y-124494295D02*
X137141540Y-125294295D01*
X137141540Y-125294295D02*
X137293921Y-124722866D01*
X137293921Y-124722866D02*
X137446302Y-125294295D01*
X137446302Y-125294295D02*
X137636779Y-124494295D01*
X137941541Y-124875247D02*
X138208207Y-124875247D01*
X138322493Y-125294295D02*
X137941541Y-125294295D01*
X137941541Y-125294295D02*
X137941541Y-124494295D01*
X137941541Y-124494295D02*
X138322493Y-124494295D01*
X139122494Y-125294295D02*
X138855827Y-124913342D01*
X138665351Y-125294295D02*
X138665351Y-124494295D01*
X138665351Y-124494295D02*
X138970113Y-124494295D01*
X138970113Y-124494295D02*
X139046303Y-124532390D01*
X139046303Y-124532390D02*
X139084398Y-124570485D01*
X139084398Y-124570485D02*
X139122494Y-124646676D01*
X139122494Y-124646676D02*
X139122494Y-124760961D01*
X139122494Y-124760961D02*
X139084398Y-124837152D01*
X139084398Y-124837152D02*
X139046303Y-124875247D01*
X139046303Y-124875247D02*
X138970113Y-124913342D01*
X138970113Y-124913342D02*
X138665351Y-124913342D01*
X126808207Y-107332390D02*
X126732017Y-107294295D01*
X126732017Y-107294295D02*
X126617731Y-107294295D01*
X126617731Y-107294295D02*
X126503445Y-107332390D01*
X126503445Y-107332390D02*
X126427255Y-107408580D01*
X126427255Y-107408580D02*
X126389160Y-107484771D01*
X126389160Y-107484771D02*
X126351064Y-107637152D01*
X126351064Y-107637152D02*
X126351064Y-107751438D01*
X126351064Y-107751438D02*
X126389160Y-107903819D01*
X126389160Y-107903819D02*
X126427255Y-107980009D01*
X126427255Y-107980009D02*
X126503445Y-108056200D01*
X126503445Y-108056200D02*
X126617731Y-108094295D01*
X126617731Y-108094295D02*
X126693922Y-108094295D01*
X126693922Y-108094295D02*
X126808207Y-108056200D01*
X126808207Y-108056200D02*
X126846303Y-108018104D01*
X126846303Y-108018104D02*
X126846303Y-107751438D01*
X126846303Y-107751438D02*
X126693922Y-107751438D01*
X127341541Y-107294295D02*
X127417731Y-107294295D01*
X127417731Y-107294295D02*
X127493922Y-107332390D01*
X127493922Y-107332390D02*
X127532017Y-107370485D01*
X127532017Y-107370485D02*
X127570112Y-107446676D01*
X127570112Y-107446676D02*
X127608207Y-107599057D01*
X127608207Y-107599057D02*
X127608207Y-107789533D01*
X127608207Y-107789533D02*
X127570112Y-107941914D01*
X127570112Y-107941914D02*
X127532017Y-108018104D01*
X127532017Y-108018104D02*
X127493922Y-108056200D01*
X127493922Y-108056200D02*
X127417731Y-108094295D01*
X127417731Y-108094295D02*
X127341541Y-108094295D01*
X127341541Y-108094295D02*
X127265350Y-108056200D01*
X127265350Y-108056200D02*
X127227255Y-108018104D01*
X127227255Y-108018104D02*
X127189160Y-107941914D01*
X127189160Y-107941914D02*
X127151064Y-107789533D01*
X127151064Y-107789533D02*
X127151064Y-107599057D01*
X127151064Y-107599057D02*
X127189160Y-107446676D01*
X127189160Y-107446676D02*
X127227255Y-107370485D01*
X127227255Y-107370485D02*
X127265350Y-107332390D01*
X127265350Y-107332390D02*
X127341541Y-107294295D01*
X127874874Y-107294295D02*
X128408208Y-107294295D01*
X128408208Y-107294295D02*
X128065350Y-108094295D01*
X126808207Y-97232390D02*
X126732017Y-97194295D01*
X126732017Y-97194295D02*
X126617731Y-97194295D01*
X126617731Y-97194295D02*
X126503445Y-97232390D01*
X126503445Y-97232390D02*
X126427255Y-97308580D01*
X126427255Y-97308580D02*
X126389160Y-97384771D01*
X126389160Y-97384771D02*
X126351064Y-97537152D01*
X126351064Y-97537152D02*
X126351064Y-97651438D01*
X126351064Y-97651438D02*
X126389160Y-97803819D01*
X126389160Y-97803819D02*
X126427255Y-97880009D01*
X126427255Y-97880009D02*
X126503445Y-97956200D01*
X126503445Y-97956200D02*
X126617731Y-97994295D01*
X126617731Y-97994295D02*
X126693922Y-97994295D01*
X126693922Y-97994295D02*
X126808207Y-97956200D01*
X126808207Y-97956200D02*
X126846303Y-97918104D01*
X126846303Y-97918104D02*
X126846303Y-97651438D01*
X126846303Y-97651438D02*
X126693922Y-97651438D01*
X127341541Y-97194295D02*
X127417731Y-97194295D01*
X127417731Y-97194295D02*
X127493922Y-97232390D01*
X127493922Y-97232390D02*
X127532017Y-97270485D01*
X127532017Y-97270485D02*
X127570112Y-97346676D01*
X127570112Y-97346676D02*
X127608207Y-97499057D01*
X127608207Y-97499057D02*
X127608207Y-97689533D01*
X127608207Y-97689533D02*
X127570112Y-97841914D01*
X127570112Y-97841914D02*
X127532017Y-97918104D01*
X127532017Y-97918104D02*
X127493922Y-97956200D01*
X127493922Y-97956200D02*
X127417731Y-97994295D01*
X127417731Y-97994295D02*
X127341541Y-97994295D01*
X127341541Y-97994295D02*
X127265350Y-97956200D01*
X127265350Y-97956200D02*
X127227255Y-97918104D01*
X127227255Y-97918104D02*
X127189160Y-97841914D01*
X127189160Y-97841914D02*
X127151064Y-97689533D01*
X127151064Y-97689533D02*
X127151064Y-97499057D01*
X127151064Y-97499057D02*
X127189160Y-97346676D01*
X127189160Y-97346676D02*
X127227255Y-97270485D01*
X127227255Y-97270485D02*
X127265350Y-97232390D01*
X127265350Y-97232390D02*
X127341541Y-97194295D01*
X127874874Y-97194295D02*
X128370112Y-97194295D01*
X128370112Y-97194295D02*
X128103446Y-97499057D01*
X128103446Y-97499057D02*
X128217731Y-97499057D01*
X128217731Y-97499057D02*
X128293922Y-97537152D01*
X128293922Y-97537152D02*
X128332017Y-97575247D01*
X128332017Y-97575247D02*
X128370112Y-97651438D01*
X128370112Y-97651438D02*
X128370112Y-97841914D01*
X128370112Y-97841914D02*
X128332017Y-97918104D01*
X128332017Y-97918104D02*
X128293922Y-97956200D01*
X128293922Y-97956200D02*
X128217731Y-97994295D01*
X128217731Y-97994295D02*
X127989160Y-97994295D01*
X127989160Y-97994295D02*
X127912969Y-97956200D01*
X127912969Y-97956200D02*
X127874874Y-97918104D01*
X126808207Y-92132390D02*
X126732017Y-92094295D01*
X126732017Y-92094295D02*
X126617731Y-92094295D01*
X126617731Y-92094295D02*
X126503445Y-92132390D01*
X126503445Y-92132390D02*
X126427255Y-92208580D01*
X126427255Y-92208580D02*
X126389160Y-92284771D01*
X126389160Y-92284771D02*
X126351064Y-92437152D01*
X126351064Y-92437152D02*
X126351064Y-92551438D01*
X126351064Y-92551438D02*
X126389160Y-92703819D01*
X126389160Y-92703819D02*
X126427255Y-92780009D01*
X126427255Y-92780009D02*
X126503445Y-92856200D01*
X126503445Y-92856200D02*
X126617731Y-92894295D01*
X126617731Y-92894295D02*
X126693922Y-92894295D01*
X126693922Y-92894295D02*
X126808207Y-92856200D01*
X126808207Y-92856200D02*
X126846303Y-92818104D01*
X126846303Y-92818104D02*
X126846303Y-92551438D01*
X126846303Y-92551438D02*
X126693922Y-92551438D01*
X127341541Y-92094295D02*
X127417731Y-92094295D01*
X127417731Y-92094295D02*
X127493922Y-92132390D01*
X127493922Y-92132390D02*
X127532017Y-92170485D01*
X127532017Y-92170485D02*
X127570112Y-92246676D01*
X127570112Y-92246676D02*
X127608207Y-92399057D01*
X127608207Y-92399057D02*
X127608207Y-92589533D01*
X127608207Y-92589533D02*
X127570112Y-92741914D01*
X127570112Y-92741914D02*
X127532017Y-92818104D01*
X127532017Y-92818104D02*
X127493922Y-92856200D01*
X127493922Y-92856200D02*
X127417731Y-92894295D01*
X127417731Y-92894295D02*
X127341541Y-92894295D01*
X127341541Y-92894295D02*
X127265350Y-92856200D01*
X127265350Y-92856200D02*
X127227255Y-92818104D01*
X127227255Y-92818104D02*
X127189160Y-92741914D01*
X127189160Y-92741914D02*
X127151064Y-92589533D01*
X127151064Y-92589533D02*
X127151064Y-92399057D01*
X127151064Y-92399057D02*
X127189160Y-92246676D01*
X127189160Y-92246676D02*
X127227255Y-92170485D01*
X127227255Y-92170485D02*
X127265350Y-92132390D01*
X127265350Y-92132390D02*
X127341541Y-92094295D01*
X128370112Y-92894295D02*
X127912969Y-92894295D01*
X128141541Y-92894295D02*
X128141541Y-92094295D01*
X128141541Y-92094295D02*
X128065350Y-92208580D01*
X128065350Y-92208580D02*
X127989160Y-92284771D01*
X127989160Y-92284771D02*
X127912969Y-92322866D01*
X126808207Y-99732390D02*
X126732017Y-99694295D01*
X126732017Y-99694295D02*
X126617731Y-99694295D01*
X126617731Y-99694295D02*
X126503445Y-99732390D01*
X126503445Y-99732390D02*
X126427255Y-99808580D01*
X126427255Y-99808580D02*
X126389160Y-99884771D01*
X126389160Y-99884771D02*
X126351064Y-100037152D01*
X126351064Y-100037152D02*
X126351064Y-100151438D01*
X126351064Y-100151438D02*
X126389160Y-100303819D01*
X126389160Y-100303819D02*
X126427255Y-100380009D01*
X126427255Y-100380009D02*
X126503445Y-100456200D01*
X126503445Y-100456200D02*
X126617731Y-100494295D01*
X126617731Y-100494295D02*
X126693922Y-100494295D01*
X126693922Y-100494295D02*
X126808207Y-100456200D01*
X126808207Y-100456200D02*
X126846303Y-100418104D01*
X126846303Y-100418104D02*
X126846303Y-100151438D01*
X126846303Y-100151438D02*
X126693922Y-100151438D01*
X127341541Y-99694295D02*
X127417731Y-99694295D01*
X127417731Y-99694295D02*
X127493922Y-99732390D01*
X127493922Y-99732390D02*
X127532017Y-99770485D01*
X127532017Y-99770485D02*
X127570112Y-99846676D01*
X127570112Y-99846676D02*
X127608207Y-99999057D01*
X127608207Y-99999057D02*
X127608207Y-100189533D01*
X127608207Y-100189533D02*
X127570112Y-100341914D01*
X127570112Y-100341914D02*
X127532017Y-100418104D01*
X127532017Y-100418104D02*
X127493922Y-100456200D01*
X127493922Y-100456200D02*
X127417731Y-100494295D01*
X127417731Y-100494295D02*
X127341541Y-100494295D01*
X127341541Y-100494295D02*
X127265350Y-100456200D01*
X127265350Y-100456200D02*
X127227255Y-100418104D01*
X127227255Y-100418104D02*
X127189160Y-100341914D01*
X127189160Y-100341914D02*
X127151064Y-100189533D01*
X127151064Y-100189533D02*
X127151064Y-99999057D01*
X127151064Y-99999057D02*
X127189160Y-99846676D01*
X127189160Y-99846676D02*
X127227255Y-99770485D01*
X127227255Y-99770485D02*
X127265350Y-99732390D01*
X127265350Y-99732390D02*
X127341541Y-99694295D01*
X128293922Y-99960961D02*
X128293922Y-100494295D01*
X128103446Y-99656200D02*
X127912969Y-100227628D01*
X127912969Y-100227628D02*
X128408208Y-100227628D01*
X169051064Y-97765723D02*
X169432017Y-97765723D01*
X168974874Y-97994295D02*
X169241541Y-97194295D01*
X169241541Y-97194295D02*
X169508207Y-97994295D01*
X169736778Y-97270485D02*
X169774874Y-97232390D01*
X169774874Y-97232390D02*
X169851064Y-97194295D01*
X169851064Y-97194295D02*
X170041540Y-97194295D01*
X170041540Y-97194295D02*
X170117731Y-97232390D01*
X170117731Y-97232390D02*
X170155826Y-97270485D01*
X170155826Y-97270485D02*
X170193921Y-97346676D01*
X170193921Y-97346676D02*
X170193921Y-97422866D01*
X170193921Y-97422866D02*
X170155826Y-97537152D01*
X170155826Y-97537152D02*
X169698683Y-97994295D01*
X169698683Y-97994295D02*
X170193921Y-97994295D01*
X170879636Y-97194295D02*
X170727255Y-97194295D01*
X170727255Y-97194295D02*
X170651064Y-97232390D01*
X170651064Y-97232390D02*
X170612969Y-97270485D01*
X170612969Y-97270485D02*
X170536779Y-97384771D01*
X170536779Y-97384771D02*
X170498683Y-97537152D01*
X170498683Y-97537152D02*
X170498683Y-97841914D01*
X170498683Y-97841914D02*
X170536779Y-97918104D01*
X170536779Y-97918104D02*
X170574874Y-97956200D01*
X170574874Y-97956200D02*
X170651064Y-97994295D01*
X170651064Y-97994295D02*
X170803445Y-97994295D01*
X170803445Y-97994295D02*
X170879636Y-97956200D01*
X170879636Y-97956200D02*
X170917731Y-97918104D01*
X170917731Y-97918104D02*
X170955826Y-97841914D01*
X170955826Y-97841914D02*
X170955826Y-97651438D01*
X170955826Y-97651438D02*
X170917731Y-97575247D01*
X170917731Y-97575247D02*
X170879636Y-97537152D01*
X170879636Y-97537152D02*
X170803445Y-97499057D01*
X170803445Y-97499057D02*
X170651064Y-97499057D01*
X170651064Y-97499057D02*
X170574874Y-97537152D01*
X170574874Y-97537152D02*
X170536779Y-97575247D01*
X170536779Y-97575247D02*
X170498683Y-97651438D01*
X169241541Y-104794295D02*
X169393922Y-104794295D01*
X169393922Y-104794295D02*
X169470112Y-104832390D01*
X169470112Y-104832390D02*
X169546303Y-104908580D01*
X169546303Y-104908580D02*
X169584398Y-105060961D01*
X169584398Y-105060961D02*
X169584398Y-105327628D01*
X169584398Y-105327628D02*
X169546303Y-105480009D01*
X169546303Y-105480009D02*
X169470112Y-105556200D01*
X169470112Y-105556200D02*
X169393922Y-105594295D01*
X169393922Y-105594295D02*
X169241541Y-105594295D01*
X169241541Y-105594295D02*
X169165350Y-105556200D01*
X169165350Y-105556200D02*
X169089160Y-105480009D01*
X169089160Y-105480009D02*
X169051064Y-105327628D01*
X169051064Y-105327628D02*
X169051064Y-105060961D01*
X169051064Y-105060961D02*
X169089160Y-104908580D01*
X169089160Y-104908580D02*
X169165350Y-104832390D01*
X169165350Y-104832390D02*
X169241541Y-104794295D01*
X169889159Y-104870485D02*
X169927255Y-104832390D01*
X169927255Y-104832390D02*
X170003445Y-104794295D01*
X170003445Y-104794295D02*
X170193921Y-104794295D01*
X170193921Y-104794295D02*
X170270112Y-104832390D01*
X170270112Y-104832390D02*
X170308207Y-104870485D01*
X170308207Y-104870485D02*
X170346302Y-104946676D01*
X170346302Y-104946676D02*
X170346302Y-105022866D01*
X170346302Y-105022866D02*
X170308207Y-105137152D01*
X170308207Y-105137152D02*
X169851064Y-105594295D01*
X169851064Y-105594295D02*
X170346302Y-105594295D01*
X170612969Y-104794295D02*
X171108207Y-104794295D01*
X171108207Y-104794295D02*
X170841541Y-105099057D01*
X170841541Y-105099057D02*
X170955826Y-105099057D01*
X170955826Y-105099057D02*
X171032017Y-105137152D01*
X171032017Y-105137152D02*
X171070112Y-105175247D01*
X171070112Y-105175247D02*
X171108207Y-105251438D01*
X171108207Y-105251438D02*
X171108207Y-105441914D01*
X171108207Y-105441914D02*
X171070112Y-105518104D01*
X171070112Y-105518104D02*
X171032017Y-105556200D01*
X171032017Y-105556200D02*
X170955826Y-105594295D01*
X170955826Y-105594295D02*
X170727255Y-105594295D01*
X170727255Y-105594295D02*
X170651064Y-105556200D01*
X170651064Y-105556200D02*
X170612969Y-105518104D01*
X126808207Y-112432390D02*
X126732017Y-112394295D01*
X126732017Y-112394295D02*
X126617731Y-112394295D01*
X126617731Y-112394295D02*
X126503445Y-112432390D01*
X126503445Y-112432390D02*
X126427255Y-112508580D01*
X126427255Y-112508580D02*
X126389160Y-112584771D01*
X126389160Y-112584771D02*
X126351064Y-112737152D01*
X126351064Y-112737152D02*
X126351064Y-112851438D01*
X126351064Y-112851438D02*
X126389160Y-113003819D01*
X126389160Y-113003819D02*
X126427255Y-113080009D01*
X126427255Y-113080009D02*
X126503445Y-113156200D01*
X126503445Y-113156200D02*
X126617731Y-113194295D01*
X126617731Y-113194295D02*
X126693922Y-113194295D01*
X126693922Y-113194295D02*
X126808207Y-113156200D01*
X126808207Y-113156200D02*
X126846303Y-113118104D01*
X126846303Y-113118104D02*
X126846303Y-112851438D01*
X126846303Y-112851438D02*
X126693922Y-112851438D01*
X127341541Y-112394295D02*
X127417731Y-112394295D01*
X127417731Y-112394295D02*
X127493922Y-112432390D01*
X127493922Y-112432390D02*
X127532017Y-112470485D01*
X127532017Y-112470485D02*
X127570112Y-112546676D01*
X127570112Y-112546676D02*
X127608207Y-112699057D01*
X127608207Y-112699057D02*
X127608207Y-112889533D01*
X127608207Y-112889533D02*
X127570112Y-113041914D01*
X127570112Y-113041914D02*
X127532017Y-113118104D01*
X127532017Y-113118104D02*
X127493922Y-113156200D01*
X127493922Y-113156200D02*
X127417731Y-113194295D01*
X127417731Y-113194295D02*
X127341541Y-113194295D01*
X127341541Y-113194295D02*
X127265350Y-113156200D01*
X127265350Y-113156200D02*
X127227255Y-113118104D01*
X127227255Y-113118104D02*
X127189160Y-113041914D01*
X127189160Y-113041914D02*
X127151064Y-112889533D01*
X127151064Y-112889533D02*
X127151064Y-112699057D01*
X127151064Y-112699057D02*
X127189160Y-112546676D01*
X127189160Y-112546676D02*
X127227255Y-112470485D01*
X127227255Y-112470485D02*
X127265350Y-112432390D01*
X127265350Y-112432390D02*
X127341541Y-112394295D01*
X127989160Y-113194295D02*
X128141541Y-113194295D01*
X128141541Y-113194295D02*
X128217731Y-113156200D01*
X128217731Y-113156200D02*
X128255827Y-113118104D01*
X128255827Y-113118104D02*
X128332017Y-113003819D01*
X128332017Y-113003819D02*
X128370112Y-112851438D01*
X128370112Y-112851438D02*
X128370112Y-112546676D01*
X128370112Y-112546676D02*
X128332017Y-112470485D01*
X128332017Y-112470485D02*
X128293922Y-112432390D01*
X128293922Y-112432390D02*
X128217731Y-112394295D01*
X128217731Y-112394295D02*
X128065350Y-112394295D01*
X128065350Y-112394295D02*
X127989160Y-112432390D01*
X127989160Y-112432390D02*
X127951065Y-112470485D01*
X127951065Y-112470485D02*
X127912969Y-112546676D01*
X127912969Y-112546676D02*
X127912969Y-112737152D01*
X127912969Y-112737152D02*
X127951065Y-112813342D01*
X127951065Y-112813342D02*
X127989160Y-112851438D01*
X127989160Y-112851438D02*
X128065350Y-112889533D01*
X128065350Y-112889533D02*
X128217731Y-112889533D01*
X128217731Y-112889533D02*
X128293922Y-112851438D01*
X128293922Y-112851438D02*
X128332017Y-112813342D01*
X128332017Y-112813342D02*
X128370112Y-112737152D01*
X169408207Y-127632390D02*
X169332017Y-127594295D01*
X169332017Y-127594295D02*
X169217731Y-127594295D01*
X169217731Y-127594295D02*
X169103445Y-127632390D01*
X169103445Y-127632390D02*
X169027255Y-127708580D01*
X169027255Y-127708580D02*
X168989160Y-127784771D01*
X168989160Y-127784771D02*
X168951064Y-127937152D01*
X168951064Y-127937152D02*
X168951064Y-128051438D01*
X168951064Y-128051438D02*
X168989160Y-128203819D01*
X168989160Y-128203819D02*
X169027255Y-128280009D01*
X169027255Y-128280009D02*
X169103445Y-128356200D01*
X169103445Y-128356200D02*
X169217731Y-128394295D01*
X169217731Y-128394295D02*
X169293922Y-128394295D01*
X169293922Y-128394295D02*
X169408207Y-128356200D01*
X169408207Y-128356200D02*
X169446303Y-128318104D01*
X169446303Y-128318104D02*
X169446303Y-128051438D01*
X169446303Y-128051438D02*
X169293922Y-128051438D01*
X169789160Y-128394295D02*
X169789160Y-127594295D01*
X169789160Y-127594295D02*
X170246303Y-128394295D01*
X170246303Y-128394295D02*
X170246303Y-127594295D01*
X170627255Y-128394295D02*
X170627255Y-127594295D01*
X170627255Y-127594295D02*
X170817731Y-127594295D01*
X170817731Y-127594295D02*
X170932017Y-127632390D01*
X170932017Y-127632390D02*
X171008207Y-127708580D01*
X171008207Y-127708580D02*
X171046302Y-127784771D01*
X171046302Y-127784771D02*
X171084398Y-127937152D01*
X171084398Y-127937152D02*
X171084398Y-128051438D01*
X171084398Y-128051438D02*
X171046302Y-128203819D01*
X171046302Y-128203819D02*
X171008207Y-128280009D01*
X171008207Y-128280009D02*
X170932017Y-128356200D01*
X170932017Y-128356200D02*
X170817731Y-128394295D01*
X170817731Y-128394295D02*
X170627255Y-128394295D01*
X126808207Y-102232390D02*
X126732017Y-102194295D01*
X126732017Y-102194295D02*
X126617731Y-102194295D01*
X126617731Y-102194295D02*
X126503445Y-102232390D01*
X126503445Y-102232390D02*
X126427255Y-102308580D01*
X126427255Y-102308580D02*
X126389160Y-102384771D01*
X126389160Y-102384771D02*
X126351064Y-102537152D01*
X126351064Y-102537152D02*
X126351064Y-102651438D01*
X126351064Y-102651438D02*
X126389160Y-102803819D01*
X126389160Y-102803819D02*
X126427255Y-102880009D01*
X126427255Y-102880009D02*
X126503445Y-102956200D01*
X126503445Y-102956200D02*
X126617731Y-102994295D01*
X126617731Y-102994295D02*
X126693922Y-102994295D01*
X126693922Y-102994295D02*
X126808207Y-102956200D01*
X126808207Y-102956200D02*
X126846303Y-102918104D01*
X126846303Y-102918104D02*
X126846303Y-102651438D01*
X126846303Y-102651438D02*
X126693922Y-102651438D01*
X127341541Y-102194295D02*
X127417731Y-102194295D01*
X127417731Y-102194295D02*
X127493922Y-102232390D01*
X127493922Y-102232390D02*
X127532017Y-102270485D01*
X127532017Y-102270485D02*
X127570112Y-102346676D01*
X127570112Y-102346676D02*
X127608207Y-102499057D01*
X127608207Y-102499057D02*
X127608207Y-102689533D01*
X127608207Y-102689533D02*
X127570112Y-102841914D01*
X127570112Y-102841914D02*
X127532017Y-102918104D01*
X127532017Y-102918104D02*
X127493922Y-102956200D01*
X127493922Y-102956200D02*
X127417731Y-102994295D01*
X127417731Y-102994295D02*
X127341541Y-102994295D01*
X127341541Y-102994295D02*
X127265350Y-102956200D01*
X127265350Y-102956200D02*
X127227255Y-102918104D01*
X127227255Y-102918104D02*
X127189160Y-102841914D01*
X127189160Y-102841914D02*
X127151064Y-102689533D01*
X127151064Y-102689533D02*
X127151064Y-102499057D01*
X127151064Y-102499057D02*
X127189160Y-102346676D01*
X127189160Y-102346676D02*
X127227255Y-102270485D01*
X127227255Y-102270485D02*
X127265350Y-102232390D01*
X127265350Y-102232390D02*
X127341541Y-102194295D01*
X128332017Y-102194295D02*
X127951065Y-102194295D01*
X127951065Y-102194295D02*
X127912969Y-102575247D01*
X127912969Y-102575247D02*
X127951065Y-102537152D01*
X127951065Y-102537152D02*
X128027255Y-102499057D01*
X128027255Y-102499057D02*
X128217731Y-102499057D01*
X128217731Y-102499057D02*
X128293922Y-102537152D01*
X128293922Y-102537152D02*
X128332017Y-102575247D01*
X128332017Y-102575247D02*
X128370112Y-102651438D01*
X128370112Y-102651438D02*
X128370112Y-102841914D01*
X128370112Y-102841914D02*
X128332017Y-102918104D01*
X128332017Y-102918104D02*
X128293922Y-102956200D01*
X128293922Y-102956200D02*
X128217731Y-102994295D01*
X128217731Y-102994295D02*
X128027255Y-102994295D01*
X128027255Y-102994295D02*
X127951065Y-102956200D01*
X127951065Y-102956200D02*
X127912969Y-102918104D01*
X169051064Y-95165723D02*
X169432017Y-95165723D01*
X168974874Y-95394295D02*
X169241541Y-94594295D01*
X169241541Y-94594295D02*
X169508207Y-95394295D01*
X169736778Y-94670485D02*
X169774874Y-94632390D01*
X169774874Y-94632390D02*
X169851064Y-94594295D01*
X169851064Y-94594295D02*
X170041540Y-94594295D01*
X170041540Y-94594295D02*
X170117731Y-94632390D01*
X170117731Y-94632390D02*
X170155826Y-94670485D01*
X170155826Y-94670485D02*
X170193921Y-94746676D01*
X170193921Y-94746676D02*
X170193921Y-94822866D01*
X170193921Y-94822866D02*
X170155826Y-94937152D01*
X170155826Y-94937152D02*
X169698683Y-95394295D01*
X169698683Y-95394295D02*
X170193921Y-95394295D01*
X170460588Y-94594295D02*
X170993922Y-94594295D01*
X170993922Y-94594295D02*
X170651064Y-95394295D01*
X169012969Y-86994295D02*
X169508207Y-86994295D01*
X169508207Y-86994295D02*
X169241541Y-87299057D01*
X169241541Y-87299057D02*
X169355826Y-87299057D01*
X169355826Y-87299057D02*
X169432017Y-87337152D01*
X169432017Y-87337152D02*
X169470112Y-87375247D01*
X169470112Y-87375247D02*
X169508207Y-87451438D01*
X169508207Y-87451438D02*
X169508207Y-87641914D01*
X169508207Y-87641914D02*
X169470112Y-87718104D01*
X169470112Y-87718104D02*
X169432017Y-87756200D01*
X169432017Y-87756200D02*
X169355826Y-87794295D01*
X169355826Y-87794295D02*
X169127255Y-87794295D01*
X169127255Y-87794295D02*
X169051064Y-87756200D01*
X169051064Y-87756200D02*
X169012969Y-87718104D01*
X169736779Y-86994295D02*
X170003446Y-87794295D01*
X170003446Y-87794295D02*
X170270112Y-86994295D01*
X170460588Y-86994295D02*
X170955826Y-86994295D01*
X170955826Y-86994295D02*
X170689160Y-87299057D01*
X170689160Y-87299057D02*
X170803445Y-87299057D01*
X170803445Y-87299057D02*
X170879636Y-87337152D01*
X170879636Y-87337152D02*
X170917731Y-87375247D01*
X170917731Y-87375247D02*
X170955826Y-87451438D01*
X170955826Y-87451438D02*
X170955826Y-87641914D01*
X170955826Y-87641914D02*
X170917731Y-87718104D01*
X170917731Y-87718104D02*
X170879636Y-87756200D01*
X170879636Y-87756200D02*
X170803445Y-87794295D01*
X170803445Y-87794295D02*
X170574874Y-87794295D01*
X170574874Y-87794295D02*
X170498683Y-87756200D01*
X170498683Y-87756200D02*
X170460588Y-87718104D01*
X169241541Y-99694295D02*
X169393922Y-99694295D01*
X169393922Y-99694295D02*
X169470112Y-99732390D01*
X169470112Y-99732390D02*
X169546303Y-99808580D01*
X169546303Y-99808580D02*
X169584398Y-99960961D01*
X169584398Y-99960961D02*
X169584398Y-100227628D01*
X169584398Y-100227628D02*
X169546303Y-100380009D01*
X169546303Y-100380009D02*
X169470112Y-100456200D01*
X169470112Y-100456200D02*
X169393922Y-100494295D01*
X169393922Y-100494295D02*
X169241541Y-100494295D01*
X169241541Y-100494295D02*
X169165350Y-100456200D01*
X169165350Y-100456200D02*
X169089160Y-100380009D01*
X169089160Y-100380009D02*
X169051064Y-100227628D01*
X169051064Y-100227628D02*
X169051064Y-99960961D01*
X169051064Y-99960961D02*
X169089160Y-99808580D01*
X169089160Y-99808580D02*
X169165350Y-99732390D01*
X169165350Y-99732390D02*
X169241541Y-99694295D01*
X169889159Y-99770485D02*
X169927255Y-99732390D01*
X169927255Y-99732390D02*
X170003445Y-99694295D01*
X170003445Y-99694295D02*
X170193921Y-99694295D01*
X170193921Y-99694295D02*
X170270112Y-99732390D01*
X170270112Y-99732390D02*
X170308207Y-99770485D01*
X170308207Y-99770485D02*
X170346302Y-99846676D01*
X170346302Y-99846676D02*
X170346302Y-99922866D01*
X170346302Y-99922866D02*
X170308207Y-100037152D01*
X170308207Y-100037152D02*
X169851064Y-100494295D01*
X169851064Y-100494295D02*
X170346302Y-100494295D01*
X171070112Y-99694295D02*
X170689160Y-99694295D01*
X170689160Y-99694295D02*
X170651064Y-100075247D01*
X170651064Y-100075247D02*
X170689160Y-100037152D01*
X170689160Y-100037152D02*
X170765350Y-99999057D01*
X170765350Y-99999057D02*
X170955826Y-99999057D01*
X170955826Y-99999057D02*
X171032017Y-100037152D01*
X171032017Y-100037152D02*
X171070112Y-100075247D01*
X171070112Y-100075247D02*
X171108207Y-100151438D01*
X171108207Y-100151438D02*
X171108207Y-100341914D01*
X171108207Y-100341914D02*
X171070112Y-100418104D01*
X171070112Y-100418104D02*
X171032017Y-100456200D01*
X171032017Y-100456200D02*
X170955826Y-100494295D01*
X170955826Y-100494295D02*
X170765350Y-100494295D01*
X170765350Y-100494295D02*
X170689160Y-100456200D01*
X170689160Y-100456200D02*
X170651064Y-100418104D01*
X169508207Y-120032390D02*
X169432017Y-119994295D01*
X169432017Y-119994295D02*
X169317731Y-119994295D01*
X169317731Y-119994295D02*
X169203445Y-120032390D01*
X169203445Y-120032390D02*
X169127255Y-120108580D01*
X169127255Y-120108580D02*
X169089160Y-120184771D01*
X169089160Y-120184771D02*
X169051064Y-120337152D01*
X169051064Y-120337152D02*
X169051064Y-120451438D01*
X169051064Y-120451438D02*
X169089160Y-120603819D01*
X169089160Y-120603819D02*
X169127255Y-120680009D01*
X169127255Y-120680009D02*
X169203445Y-120756200D01*
X169203445Y-120756200D02*
X169317731Y-120794295D01*
X169317731Y-120794295D02*
X169393922Y-120794295D01*
X169393922Y-120794295D02*
X169508207Y-120756200D01*
X169508207Y-120756200D02*
X169546303Y-120718104D01*
X169546303Y-120718104D02*
X169546303Y-120451438D01*
X169546303Y-120451438D02*
X169393922Y-120451438D01*
X170308207Y-120794295D02*
X169851064Y-120794295D01*
X170079636Y-120794295D02*
X170079636Y-119994295D01*
X170079636Y-119994295D02*
X170003445Y-120108580D01*
X170003445Y-120108580D02*
X169927255Y-120184771D01*
X169927255Y-120184771D02*
X169851064Y-120222866D01*
X170574874Y-119994295D02*
X171108208Y-119994295D01*
X171108208Y-119994295D02*
X170765350Y-120794295D01*
X169241541Y-117494295D02*
X169393922Y-117494295D01*
X169393922Y-117494295D02*
X169470112Y-117532390D01*
X169470112Y-117532390D02*
X169546303Y-117608580D01*
X169546303Y-117608580D02*
X169584398Y-117760961D01*
X169584398Y-117760961D02*
X169584398Y-118027628D01*
X169584398Y-118027628D02*
X169546303Y-118180009D01*
X169546303Y-118180009D02*
X169470112Y-118256200D01*
X169470112Y-118256200D02*
X169393922Y-118294295D01*
X169393922Y-118294295D02*
X169241541Y-118294295D01*
X169241541Y-118294295D02*
X169165350Y-118256200D01*
X169165350Y-118256200D02*
X169089160Y-118180009D01*
X169089160Y-118180009D02*
X169051064Y-118027628D01*
X169051064Y-118027628D02*
X169051064Y-117760961D01*
X169051064Y-117760961D02*
X169089160Y-117608580D01*
X169089160Y-117608580D02*
X169165350Y-117532390D01*
X169165350Y-117532390D02*
X169241541Y-117494295D01*
X170346302Y-118294295D02*
X169889159Y-118294295D01*
X170117731Y-118294295D02*
X170117731Y-117494295D01*
X170117731Y-117494295D02*
X170041540Y-117608580D01*
X170041540Y-117608580D02*
X169965350Y-117684771D01*
X169965350Y-117684771D02*
X169889159Y-117722866D01*
X170803445Y-117837152D02*
X170727255Y-117799057D01*
X170727255Y-117799057D02*
X170689160Y-117760961D01*
X170689160Y-117760961D02*
X170651064Y-117684771D01*
X170651064Y-117684771D02*
X170651064Y-117646676D01*
X170651064Y-117646676D02*
X170689160Y-117570485D01*
X170689160Y-117570485D02*
X170727255Y-117532390D01*
X170727255Y-117532390D02*
X170803445Y-117494295D01*
X170803445Y-117494295D02*
X170955826Y-117494295D01*
X170955826Y-117494295D02*
X171032017Y-117532390D01*
X171032017Y-117532390D02*
X171070112Y-117570485D01*
X171070112Y-117570485D02*
X171108207Y-117646676D01*
X171108207Y-117646676D02*
X171108207Y-117684771D01*
X171108207Y-117684771D02*
X171070112Y-117760961D01*
X171070112Y-117760961D02*
X171032017Y-117799057D01*
X171032017Y-117799057D02*
X170955826Y-117837152D01*
X170955826Y-117837152D02*
X170803445Y-117837152D01*
X170803445Y-117837152D02*
X170727255Y-117875247D01*
X170727255Y-117875247D02*
X170689160Y-117913342D01*
X170689160Y-117913342D02*
X170651064Y-117989533D01*
X170651064Y-117989533D02*
X170651064Y-118141914D01*
X170651064Y-118141914D02*
X170689160Y-118218104D01*
X170689160Y-118218104D02*
X170727255Y-118256200D01*
X170727255Y-118256200D02*
X170803445Y-118294295D01*
X170803445Y-118294295D02*
X170955826Y-118294295D01*
X170955826Y-118294295D02*
X171032017Y-118256200D01*
X171032017Y-118256200D02*
X171070112Y-118218104D01*
X171070112Y-118218104D02*
X171108207Y-118141914D01*
X171108207Y-118141914D02*
X171108207Y-117989533D01*
X171108207Y-117989533D02*
X171070112Y-117913342D01*
X171070112Y-117913342D02*
X171032017Y-117875247D01*
X171032017Y-117875247D02*
X170955826Y-117837152D01*
X126808207Y-109932390D02*
X126732017Y-109894295D01*
X126732017Y-109894295D02*
X126617731Y-109894295D01*
X126617731Y-109894295D02*
X126503445Y-109932390D01*
X126503445Y-109932390D02*
X126427255Y-110008580D01*
X126427255Y-110008580D02*
X126389160Y-110084771D01*
X126389160Y-110084771D02*
X126351064Y-110237152D01*
X126351064Y-110237152D02*
X126351064Y-110351438D01*
X126351064Y-110351438D02*
X126389160Y-110503819D01*
X126389160Y-110503819D02*
X126427255Y-110580009D01*
X126427255Y-110580009D02*
X126503445Y-110656200D01*
X126503445Y-110656200D02*
X126617731Y-110694295D01*
X126617731Y-110694295D02*
X126693922Y-110694295D01*
X126693922Y-110694295D02*
X126808207Y-110656200D01*
X126808207Y-110656200D02*
X126846303Y-110618104D01*
X126846303Y-110618104D02*
X126846303Y-110351438D01*
X126846303Y-110351438D02*
X126693922Y-110351438D01*
X127341541Y-109894295D02*
X127417731Y-109894295D01*
X127417731Y-109894295D02*
X127493922Y-109932390D01*
X127493922Y-109932390D02*
X127532017Y-109970485D01*
X127532017Y-109970485D02*
X127570112Y-110046676D01*
X127570112Y-110046676D02*
X127608207Y-110199057D01*
X127608207Y-110199057D02*
X127608207Y-110389533D01*
X127608207Y-110389533D02*
X127570112Y-110541914D01*
X127570112Y-110541914D02*
X127532017Y-110618104D01*
X127532017Y-110618104D02*
X127493922Y-110656200D01*
X127493922Y-110656200D02*
X127417731Y-110694295D01*
X127417731Y-110694295D02*
X127341541Y-110694295D01*
X127341541Y-110694295D02*
X127265350Y-110656200D01*
X127265350Y-110656200D02*
X127227255Y-110618104D01*
X127227255Y-110618104D02*
X127189160Y-110541914D01*
X127189160Y-110541914D02*
X127151064Y-110389533D01*
X127151064Y-110389533D02*
X127151064Y-110199057D01*
X127151064Y-110199057D02*
X127189160Y-110046676D01*
X127189160Y-110046676D02*
X127227255Y-109970485D01*
X127227255Y-109970485D02*
X127265350Y-109932390D01*
X127265350Y-109932390D02*
X127341541Y-109894295D01*
X128065350Y-110237152D02*
X127989160Y-110199057D01*
X127989160Y-110199057D02*
X127951065Y-110160961D01*
X127951065Y-110160961D02*
X127912969Y-110084771D01*
X127912969Y-110084771D02*
X127912969Y-110046676D01*
X127912969Y-110046676D02*
X127951065Y-109970485D01*
X127951065Y-109970485D02*
X127989160Y-109932390D01*
X127989160Y-109932390D02*
X128065350Y-109894295D01*
X128065350Y-109894295D02*
X128217731Y-109894295D01*
X128217731Y-109894295D02*
X128293922Y-109932390D01*
X128293922Y-109932390D02*
X128332017Y-109970485D01*
X128332017Y-109970485D02*
X128370112Y-110046676D01*
X128370112Y-110046676D02*
X128370112Y-110084771D01*
X128370112Y-110084771D02*
X128332017Y-110160961D01*
X128332017Y-110160961D02*
X128293922Y-110199057D01*
X128293922Y-110199057D02*
X128217731Y-110237152D01*
X128217731Y-110237152D02*
X128065350Y-110237152D01*
X128065350Y-110237152D02*
X127989160Y-110275247D01*
X127989160Y-110275247D02*
X127951065Y-110313342D01*
X127951065Y-110313342D02*
X127912969Y-110389533D01*
X127912969Y-110389533D02*
X127912969Y-110541914D01*
X127912969Y-110541914D02*
X127951065Y-110618104D01*
X127951065Y-110618104D02*
X127989160Y-110656200D01*
X127989160Y-110656200D02*
X128065350Y-110694295D01*
X128065350Y-110694295D02*
X128217731Y-110694295D01*
X128217731Y-110694295D02*
X128293922Y-110656200D01*
X128293922Y-110656200D02*
X128332017Y-110618104D01*
X128332017Y-110618104D02*
X128370112Y-110541914D01*
X128370112Y-110541914D02*
X128370112Y-110389533D01*
X128370112Y-110389533D02*
X128332017Y-110313342D01*
X128332017Y-110313342D02*
X128293922Y-110275247D01*
X128293922Y-110275247D02*
X128217731Y-110237152D01*
X126374874Y-84494295D02*
X126641541Y-85294295D01*
X126641541Y-85294295D02*
X126908207Y-84494295D01*
X127174874Y-84875247D02*
X127441540Y-84875247D01*
X127555826Y-85294295D02*
X127174874Y-85294295D01*
X127174874Y-85294295D02*
X127174874Y-84494295D01*
X127174874Y-84494295D02*
X127555826Y-84494295D01*
X127822493Y-84494295D02*
X128355827Y-85294295D01*
X128355827Y-84494295D02*
X127822493Y-85294295D01*
X128546303Y-84494295D02*
X129003446Y-84494295D01*
X128774874Y-85294295D02*
X128774874Y-84494295D01*
X126808207Y-115032390D02*
X126732017Y-114994295D01*
X126732017Y-114994295D02*
X126617731Y-114994295D01*
X126617731Y-114994295D02*
X126503445Y-115032390D01*
X126503445Y-115032390D02*
X126427255Y-115108580D01*
X126427255Y-115108580D02*
X126389160Y-115184771D01*
X126389160Y-115184771D02*
X126351064Y-115337152D01*
X126351064Y-115337152D02*
X126351064Y-115451438D01*
X126351064Y-115451438D02*
X126389160Y-115603819D01*
X126389160Y-115603819D02*
X126427255Y-115680009D01*
X126427255Y-115680009D02*
X126503445Y-115756200D01*
X126503445Y-115756200D02*
X126617731Y-115794295D01*
X126617731Y-115794295D02*
X126693922Y-115794295D01*
X126693922Y-115794295D02*
X126808207Y-115756200D01*
X126808207Y-115756200D02*
X126846303Y-115718104D01*
X126846303Y-115718104D02*
X126846303Y-115451438D01*
X126846303Y-115451438D02*
X126693922Y-115451438D01*
X127608207Y-115794295D02*
X127151064Y-115794295D01*
X127379636Y-115794295D02*
X127379636Y-114994295D01*
X127379636Y-114994295D02*
X127303445Y-115108580D01*
X127303445Y-115108580D02*
X127227255Y-115184771D01*
X127227255Y-115184771D02*
X127151064Y-115222866D01*
X128103446Y-114994295D02*
X128179636Y-114994295D01*
X128179636Y-114994295D02*
X128255827Y-115032390D01*
X128255827Y-115032390D02*
X128293922Y-115070485D01*
X128293922Y-115070485D02*
X128332017Y-115146676D01*
X128332017Y-115146676D02*
X128370112Y-115299057D01*
X128370112Y-115299057D02*
X128370112Y-115489533D01*
X128370112Y-115489533D02*
X128332017Y-115641914D01*
X128332017Y-115641914D02*
X128293922Y-115718104D01*
X128293922Y-115718104D02*
X128255827Y-115756200D01*
X128255827Y-115756200D02*
X128179636Y-115794295D01*
X128179636Y-115794295D02*
X128103446Y-115794295D01*
X128103446Y-115794295D02*
X128027255Y-115756200D01*
X128027255Y-115756200D02*
X127989160Y-115718104D01*
X127989160Y-115718104D02*
X127951065Y-115641914D01*
X127951065Y-115641914D02*
X127912969Y-115489533D01*
X127912969Y-115489533D02*
X127912969Y-115299057D01*
X127912969Y-115299057D02*
X127951065Y-115146676D01*
X127951065Y-115146676D02*
X127989160Y-115070485D01*
X127989160Y-115070485D02*
X128027255Y-115032390D01*
X128027255Y-115032390D02*
X128103446Y-114994295D01*
X169151064Y-92665723D02*
X169532017Y-92665723D01*
X169074874Y-92894295D02*
X169341541Y-92094295D01*
X169341541Y-92094295D02*
X169608207Y-92894295D01*
X169836778Y-92170485D02*
X169874874Y-92132390D01*
X169874874Y-92132390D02*
X169951064Y-92094295D01*
X169951064Y-92094295D02*
X170141540Y-92094295D01*
X170141540Y-92094295D02*
X170217731Y-92132390D01*
X170217731Y-92132390D02*
X170255826Y-92170485D01*
X170255826Y-92170485D02*
X170293921Y-92246676D01*
X170293921Y-92246676D02*
X170293921Y-92322866D01*
X170293921Y-92322866D02*
X170255826Y-92437152D01*
X170255826Y-92437152D02*
X169798683Y-92894295D01*
X169798683Y-92894295D02*
X170293921Y-92894295D01*
X170751064Y-92437152D02*
X170674874Y-92399057D01*
X170674874Y-92399057D02*
X170636779Y-92360961D01*
X170636779Y-92360961D02*
X170598683Y-92284771D01*
X170598683Y-92284771D02*
X170598683Y-92246676D01*
X170598683Y-92246676D02*
X170636779Y-92170485D01*
X170636779Y-92170485D02*
X170674874Y-92132390D01*
X170674874Y-92132390D02*
X170751064Y-92094295D01*
X170751064Y-92094295D02*
X170903445Y-92094295D01*
X170903445Y-92094295D02*
X170979636Y-92132390D01*
X170979636Y-92132390D02*
X171017731Y-92170485D01*
X171017731Y-92170485D02*
X171055826Y-92246676D01*
X171055826Y-92246676D02*
X171055826Y-92284771D01*
X171055826Y-92284771D02*
X171017731Y-92360961D01*
X171017731Y-92360961D02*
X170979636Y-92399057D01*
X170979636Y-92399057D02*
X170903445Y-92437152D01*
X170903445Y-92437152D02*
X170751064Y-92437152D01*
X170751064Y-92437152D02*
X170674874Y-92475247D01*
X170674874Y-92475247D02*
X170636779Y-92513342D01*
X170636779Y-92513342D02*
X170598683Y-92589533D01*
X170598683Y-92589533D02*
X170598683Y-92741914D01*
X170598683Y-92741914D02*
X170636779Y-92818104D01*
X170636779Y-92818104D02*
X170674874Y-92856200D01*
X170674874Y-92856200D02*
X170751064Y-92894295D01*
X170751064Y-92894295D02*
X170903445Y-92894295D01*
X170903445Y-92894295D02*
X170979636Y-92856200D01*
X170979636Y-92856200D02*
X171017731Y-92818104D01*
X171017731Y-92818104D02*
X171055826Y-92741914D01*
X171055826Y-92741914D02*
X171055826Y-92589533D01*
X171055826Y-92589533D02*
X171017731Y-92513342D01*
X171017731Y-92513342D02*
X170979636Y-92475247D01*
X170979636Y-92475247D02*
X170903445Y-92437152D01*
X169646303Y-85294295D02*
X169379636Y-84913342D01*
X169189160Y-85294295D02*
X169189160Y-84494295D01*
X169189160Y-84494295D02*
X169493922Y-84494295D01*
X169493922Y-84494295D02*
X169570112Y-84532390D01*
X169570112Y-84532390D02*
X169608207Y-84570485D01*
X169608207Y-84570485D02*
X169646303Y-84646676D01*
X169646303Y-84646676D02*
X169646303Y-84760961D01*
X169646303Y-84760961D02*
X169608207Y-84837152D01*
X169608207Y-84837152D02*
X169570112Y-84875247D01*
X169570112Y-84875247D02*
X169493922Y-84913342D01*
X169493922Y-84913342D02*
X169189160Y-84913342D01*
X169989160Y-84494295D02*
X169989160Y-85141914D01*
X169989160Y-85141914D02*
X170027255Y-85218104D01*
X170027255Y-85218104D02*
X170065350Y-85256200D01*
X170065350Y-85256200D02*
X170141541Y-85294295D01*
X170141541Y-85294295D02*
X170293922Y-85294295D01*
X170293922Y-85294295D02*
X170370112Y-85256200D01*
X170370112Y-85256200D02*
X170408207Y-85218104D01*
X170408207Y-85218104D02*
X170446303Y-85141914D01*
X170446303Y-85141914D02*
X170446303Y-84494295D01*
X170827255Y-85294295D02*
X170827255Y-84494295D01*
X170827255Y-84494295D02*
X171284398Y-85294295D01*
X171284398Y-85294295D02*
X171284398Y-84494295D01*
X150455826Y-120775247D02*
X150570112Y-120813342D01*
X150570112Y-120813342D02*
X150608207Y-120851438D01*
X150608207Y-120851438D02*
X150646303Y-120927628D01*
X150646303Y-120927628D02*
X150646303Y-121041914D01*
X150646303Y-121041914D02*
X150608207Y-121118104D01*
X150608207Y-121118104D02*
X150570112Y-121156200D01*
X150570112Y-121156200D02*
X150493922Y-121194295D01*
X150493922Y-121194295D02*
X150189160Y-121194295D01*
X150189160Y-121194295D02*
X150189160Y-120394295D01*
X150189160Y-120394295D02*
X150455826Y-120394295D01*
X150455826Y-120394295D02*
X150532017Y-120432390D01*
X150532017Y-120432390D02*
X150570112Y-120470485D01*
X150570112Y-120470485D02*
X150608207Y-120546676D01*
X150608207Y-120546676D02*
X150608207Y-120622866D01*
X150608207Y-120622866D02*
X150570112Y-120699057D01*
X150570112Y-120699057D02*
X150532017Y-120737152D01*
X150532017Y-120737152D02*
X150455826Y-120775247D01*
X150455826Y-120775247D02*
X150189160Y-120775247D01*
X151141541Y-120394295D02*
X151293922Y-120394295D01*
X151293922Y-120394295D02*
X151370112Y-120432390D01*
X151370112Y-120432390D02*
X151446303Y-120508580D01*
X151446303Y-120508580D02*
X151484398Y-120660961D01*
X151484398Y-120660961D02*
X151484398Y-120927628D01*
X151484398Y-120927628D02*
X151446303Y-121080009D01*
X151446303Y-121080009D02*
X151370112Y-121156200D01*
X151370112Y-121156200D02*
X151293922Y-121194295D01*
X151293922Y-121194295D02*
X151141541Y-121194295D01*
X151141541Y-121194295D02*
X151065350Y-121156200D01*
X151065350Y-121156200D02*
X150989160Y-121080009D01*
X150989160Y-121080009D02*
X150951064Y-120927628D01*
X150951064Y-120927628D02*
X150951064Y-120660961D01*
X150951064Y-120660961D02*
X150989160Y-120508580D01*
X150989160Y-120508580D02*
X151065350Y-120432390D01*
X151065350Y-120432390D02*
X151141541Y-120394295D01*
X151979636Y-120394295D02*
X152132017Y-120394295D01*
X152132017Y-120394295D02*
X152208207Y-120432390D01*
X152208207Y-120432390D02*
X152284398Y-120508580D01*
X152284398Y-120508580D02*
X152322493Y-120660961D01*
X152322493Y-120660961D02*
X152322493Y-120927628D01*
X152322493Y-120927628D02*
X152284398Y-121080009D01*
X152284398Y-121080009D02*
X152208207Y-121156200D01*
X152208207Y-121156200D02*
X152132017Y-121194295D01*
X152132017Y-121194295D02*
X151979636Y-121194295D01*
X151979636Y-121194295D02*
X151903445Y-121156200D01*
X151903445Y-121156200D02*
X151827255Y-121080009D01*
X151827255Y-121080009D02*
X151789159Y-120927628D01*
X151789159Y-120927628D02*
X151789159Y-120660961D01*
X151789159Y-120660961D02*
X151827255Y-120508580D01*
X151827255Y-120508580D02*
X151903445Y-120432390D01*
X151903445Y-120432390D02*
X151979636Y-120394295D01*
X152551064Y-120394295D02*
X153008207Y-120394295D01*
X152779635Y-121194295D02*
X152779635Y-120394295D01*
X169051064Y-90065723D02*
X169432017Y-90065723D01*
X168974874Y-90294295D02*
X169241541Y-89494295D01*
X169241541Y-89494295D02*
X169508207Y-90294295D01*
X169736778Y-89570485D02*
X169774874Y-89532390D01*
X169774874Y-89532390D02*
X169851064Y-89494295D01*
X169851064Y-89494295D02*
X170041540Y-89494295D01*
X170041540Y-89494295D02*
X170117731Y-89532390D01*
X170117731Y-89532390D02*
X170155826Y-89570485D01*
X170155826Y-89570485D02*
X170193921Y-89646676D01*
X170193921Y-89646676D02*
X170193921Y-89722866D01*
X170193921Y-89722866D02*
X170155826Y-89837152D01*
X170155826Y-89837152D02*
X169698683Y-90294295D01*
X169698683Y-90294295D02*
X170193921Y-90294295D01*
X170574874Y-90294295D02*
X170727255Y-90294295D01*
X170727255Y-90294295D02*
X170803445Y-90256200D01*
X170803445Y-90256200D02*
X170841541Y-90218104D01*
X170841541Y-90218104D02*
X170917731Y-90103819D01*
X170917731Y-90103819D02*
X170955826Y-89951438D01*
X170955826Y-89951438D02*
X170955826Y-89646676D01*
X170955826Y-89646676D02*
X170917731Y-89570485D01*
X170917731Y-89570485D02*
X170879636Y-89532390D01*
X170879636Y-89532390D02*
X170803445Y-89494295D01*
X170803445Y-89494295D02*
X170651064Y-89494295D01*
X170651064Y-89494295D02*
X170574874Y-89532390D01*
X170574874Y-89532390D02*
X170536779Y-89570485D01*
X170536779Y-89570485D02*
X170498683Y-89646676D01*
X170498683Y-89646676D02*
X170498683Y-89837152D01*
X170498683Y-89837152D02*
X170536779Y-89913342D01*
X170536779Y-89913342D02*
X170574874Y-89951438D01*
X170574874Y-89951438D02*
X170651064Y-89989533D01*
X170651064Y-89989533D02*
X170803445Y-89989533D01*
X170803445Y-89989533D02*
X170879636Y-89951438D01*
X170879636Y-89951438D02*
X170917731Y-89913342D01*
X170917731Y-89913342D02*
X170955826Y-89837152D01*
X126808207Y-122632390D02*
X126732017Y-122594295D01*
X126732017Y-122594295D02*
X126617731Y-122594295D01*
X126617731Y-122594295D02*
X126503445Y-122632390D01*
X126503445Y-122632390D02*
X126427255Y-122708580D01*
X126427255Y-122708580D02*
X126389160Y-122784771D01*
X126389160Y-122784771D02*
X126351064Y-122937152D01*
X126351064Y-122937152D02*
X126351064Y-123051438D01*
X126351064Y-123051438D02*
X126389160Y-123203819D01*
X126389160Y-123203819D02*
X126427255Y-123280009D01*
X126427255Y-123280009D02*
X126503445Y-123356200D01*
X126503445Y-123356200D02*
X126617731Y-123394295D01*
X126617731Y-123394295D02*
X126693922Y-123394295D01*
X126693922Y-123394295D02*
X126808207Y-123356200D01*
X126808207Y-123356200D02*
X126846303Y-123318104D01*
X126846303Y-123318104D02*
X126846303Y-123051438D01*
X126846303Y-123051438D02*
X126693922Y-123051438D01*
X127608207Y-123394295D02*
X127151064Y-123394295D01*
X127379636Y-123394295D02*
X127379636Y-122594295D01*
X127379636Y-122594295D02*
X127303445Y-122708580D01*
X127303445Y-122708580D02*
X127227255Y-122784771D01*
X127227255Y-122784771D02*
X127151064Y-122822866D01*
X127874874Y-122594295D02*
X128370112Y-122594295D01*
X128370112Y-122594295D02*
X128103446Y-122899057D01*
X128103446Y-122899057D02*
X128217731Y-122899057D01*
X128217731Y-122899057D02*
X128293922Y-122937152D01*
X128293922Y-122937152D02*
X128332017Y-122975247D01*
X128332017Y-122975247D02*
X128370112Y-123051438D01*
X128370112Y-123051438D02*
X128370112Y-123241914D01*
X128370112Y-123241914D02*
X128332017Y-123318104D01*
X128332017Y-123318104D02*
X128293922Y-123356200D01*
X128293922Y-123356200D02*
X128217731Y-123394295D01*
X128217731Y-123394295D02*
X127989160Y-123394295D01*
X127989160Y-123394295D02*
X127912969Y-123356200D01*
X127912969Y-123356200D02*
X127874874Y-123318104D01*
X169241541Y-107294295D02*
X169393922Y-107294295D01*
X169393922Y-107294295D02*
X169470112Y-107332390D01*
X169470112Y-107332390D02*
X169546303Y-107408580D01*
X169546303Y-107408580D02*
X169584398Y-107560961D01*
X169584398Y-107560961D02*
X169584398Y-107827628D01*
X169584398Y-107827628D02*
X169546303Y-107980009D01*
X169546303Y-107980009D02*
X169470112Y-108056200D01*
X169470112Y-108056200D02*
X169393922Y-108094295D01*
X169393922Y-108094295D02*
X169241541Y-108094295D01*
X169241541Y-108094295D02*
X169165350Y-108056200D01*
X169165350Y-108056200D02*
X169089160Y-107980009D01*
X169089160Y-107980009D02*
X169051064Y-107827628D01*
X169051064Y-107827628D02*
X169051064Y-107560961D01*
X169051064Y-107560961D02*
X169089160Y-107408580D01*
X169089160Y-107408580D02*
X169165350Y-107332390D01*
X169165350Y-107332390D02*
X169241541Y-107294295D01*
X169889159Y-107370485D02*
X169927255Y-107332390D01*
X169927255Y-107332390D02*
X170003445Y-107294295D01*
X170003445Y-107294295D02*
X170193921Y-107294295D01*
X170193921Y-107294295D02*
X170270112Y-107332390D01*
X170270112Y-107332390D02*
X170308207Y-107370485D01*
X170308207Y-107370485D02*
X170346302Y-107446676D01*
X170346302Y-107446676D02*
X170346302Y-107522866D01*
X170346302Y-107522866D02*
X170308207Y-107637152D01*
X170308207Y-107637152D02*
X169851064Y-108094295D01*
X169851064Y-108094295D02*
X170346302Y-108094295D01*
X170651064Y-107370485D02*
X170689160Y-107332390D01*
X170689160Y-107332390D02*
X170765350Y-107294295D01*
X170765350Y-107294295D02*
X170955826Y-107294295D01*
X170955826Y-107294295D02*
X171032017Y-107332390D01*
X171032017Y-107332390D02*
X171070112Y-107370485D01*
X171070112Y-107370485D02*
X171108207Y-107446676D01*
X171108207Y-107446676D02*
X171108207Y-107522866D01*
X171108207Y-107522866D02*
X171070112Y-107637152D01*
X171070112Y-107637152D02*
X170612969Y-108094295D01*
X170612969Y-108094295D02*
X171108207Y-108094295D01*
X150110714Y-112761104D02*
X150072618Y-112799200D01*
X150072618Y-112799200D02*
X149958333Y-112837295D01*
X149958333Y-112837295D02*
X149882142Y-112837295D01*
X149882142Y-112837295D02*
X149767856Y-112799200D01*
X149767856Y-112799200D02*
X149691666Y-112723009D01*
X149691666Y-112723009D02*
X149653571Y-112646819D01*
X149653571Y-112646819D02*
X149615475Y-112494438D01*
X149615475Y-112494438D02*
X149615475Y-112380152D01*
X149615475Y-112380152D02*
X149653571Y-112227771D01*
X149653571Y-112227771D02*
X149691666Y-112151580D01*
X149691666Y-112151580D02*
X149767856Y-112075390D01*
X149767856Y-112075390D02*
X149882142Y-112037295D01*
X149882142Y-112037295D02*
X149958333Y-112037295D01*
X149958333Y-112037295D02*
X150072618Y-112075390D01*
X150072618Y-112075390D02*
X150110714Y-112113485D01*
X150872618Y-112837295D02*
X150415475Y-112837295D01*
X150644047Y-112837295D02*
X150644047Y-112037295D01*
X150644047Y-112037295D02*
X150567856Y-112151580D01*
X150567856Y-112151580D02*
X150491666Y-112227771D01*
X150491666Y-112227771D02*
X150415475Y-112265866D01*
X151177380Y-112113485D02*
X151215476Y-112075390D01*
X151215476Y-112075390D02*
X151291666Y-112037295D01*
X151291666Y-112037295D02*
X151482142Y-112037295D01*
X151482142Y-112037295D02*
X151558333Y-112075390D01*
X151558333Y-112075390D02*
X151596428Y-112113485D01*
X151596428Y-112113485D02*
X151634523Y-112189676D01*
X151634523Y-112189676D02*
X151634523Y-112265866D01*
X151634523Y-112265866D02*
X151596428Y-112380152D01*
X151596428Y-112380152D02*
X151139285Y-112837295D01*
X151139285Y-112837295D02*
X151634523Y-112837295D01*
X154085714Y-111786104D02*
X154047618Y-111824200D01*
X154047618Y-111824200D02*
X153933333Y-111862295D01*
X153933333Y-111862295D02*
X153857142Y-111862295D01*
X153857142Y-111862295D02*
X153742856Y-111824200D01*
X153742856Y-111824200D02*
X153666666Y-111748009D01*
X153666666Y-111748009D02*
X153628571Y-111671819D01*
X153628571Y-111671819D02*
X153590475Y-111519438D01*
X153590475Y-111519438D02*
X153590475Y-111405152D01*
X153590475Y-111405152D02*
X153628571Y-111252771D01*
X153628571Y-111252771D02*
X153666666Y-111176580D01*
X153666666Y-111176580D02*
X153742856Y-111100390D01*
X153742856Y-111100390D02*
X153857142Y-111062295D01*
X153857142Y-111062295D02*
X153933333Y-111062295D01*
X153933333Y-111062295D02*
X154047618Y-111100390D01*
X154047618Y-111100390D02*
X154085714Y-111138485D01*
X154847618Y-111862295D02*
X154390475Y-111862295D01*
X154619047Y-111862295D02*
X154619047Y-111062295D01*
X154619047Y-111062295D02*
X154542856Y-111176580D01*
X154542856Y-111176580D02*
X154466666Y-111252771D01*
X154466666Y-111252771D02*
X154390475Y-111290866D01*
X155609523Y-111862295D02*
X155152380Y-111862295D01*
X155380952Y-111862295D02*
X155380952Y-111062295D01*
X155380952Y-111062295D02*
X155304761Y-111176580D01*
X155304761Y-111176580D02*
X155228571Y-111252771D01*
X155228571Y-111252771D02*
X155152380Y-111290866D01*
X139296038Y-93986104D02*
X139257942Y-94024200D01*
X139257942Y-94024200D02*
X139143657Y-94062295D01*
X139143657Y-94062295D02*
X139067466Y-94062295D01*
X139067466Y-94062295D02*
X138953180Y-94024200D01*
X138953180Y-94024200D02*
X138876990Y-93948009D01*
X138876990Y-93948009D02*
X138838895Y-93871819D01*
X138838895Y-93871819D02*
X138800799Y-93719438D01*
X138800799Y-93719438D02*
X138800799Y-93605152D01*
X138800799Y-93605152D02*
X138838895Y-93452771D01*
X138838895Y-93452771D02*
X138876990Y-93376580D01*
X138876990Y-93376580D02*
X138953180Y-93300390D01*
X138953180Y-93300390D02*
X139067466Y-93262295D01*
X139067466Y-93262295D02*
X139143657Y-93262295D01*
X139143657Y-93262295D02*
X139257942Y-93300390D01*
X139257942Y-93300390D02*
X139296038Y-93338485D01*
X139981752Y-93528961D02*
X139981752Y-94062295D01*
X139791276Y-93224200D02*
X139600799Y-93795628D01*
X139600799Y-93795628D02*
X140096038Y-93795628D01*
X156976554Y-103333604D02*
X156938458Y-103371700D01*
X156938458Y-103371700D02*
X156824173Y-103409795D01*
X156824173Y-103409795D02*
X156747982Y-103409795D01*
X156747982Y-103409795D02*
X156633696Y-103371700D01*
X156633696Y-103371700D02*
X156557506Y-103295509D01*
X156557506Y-103295509D02*
X156519411Y-103219319D01*
X156519411Y-103219319D02*
X156481315Y-103066938D01*
X156481315Y-103066938D02*
X156481315Y-102952652D01*
X156481315Y-102952652D02*
X156519411Y-102800271D01*
X156519411Y-102800271D02*
X156557506Y-102724080D01*
X156557506Y-102724080D02*
X156633696Y-102647890D01*
X156633696Y-102647890D02*
X156747982Y-102609795D01*
X156747982Y-102609795D02*
X156824173Y-102609795D01*
X156824173Y-102609795D02*
X156938458Y-102647890D01*
X156938458Y-102647890D02*
X156976554Y-102685985D01*
X157738458Y-103409795D02*
X157281315Y-103409795D01*
X157509887Y-103409795D02*
X157509887Y-102609795D01*
X157509887Y-102609795D02*
X157433696Y-102724080D01*
X157433696Y-102724080D02*
X157357506Y-102800271D01*
X157357506Y-102800271D02*
X157281315Y-102838366D01*
X166954464Y-111362295D02*
X166687797Y-110981342D01*
X166497321Y-111362295D02*
X166497321Y-110562295D01*
X166497321Y-110562295D02*
X166802083Y-110562295D01*
X166802083Y-110562295D02*
X166878273Y-110600390D01*
X166878273Y-110600390D02*
X166916368Y-110638485D01*
X166916368Y-110638485D02*
X166954464Y-110714676D01*
X166954464Y-110714676D02*
X166954464Y-110828961D01*
X166954464Y-110828961D02*
X166916368Y-110905152D01*
X166916368Y-110905152D02*
X166878273Y-110943247D01*
X166878273Y-110943247D02*
X166802083Y-110981342D01*
X166802083Y-110981342D02*
X166497321Y-110981342D01*
X167716368Y-111362295D02*
X167259225Y-111362295D01*
X167487797Y-111362295D02*
X167487797Y-110562295D01*
X167487797Y-110562295D02*
X167411606Y-110676580D01*
X167411606Y-110676580D02*
X167335416Y-110752771D01*
X167335416Y-110752771D02*
X167259225Y-110790866D01*
X168021130Y-110638485D02*
X168059226Y-110600390D01*
X168059226Y-110600390D02*
X168135416Y-110562295D01*
X168135416Y-110562295D02*
X168325892Y-110562295D01*
X168325892Y-110562295D02*
X168402083Y-110600390D01*
X168402083Y-110600390D02*
X168440178Y-110638485D01*
X168440178Y-110638485D02*
X168478273Y-110714676D01*
X168478273Y-110714676D02*
X168478273Y-110790866D01*
X168478273Y-110790866D02*
X168440178Y-110905152D01*
X168440178Y-110905152D02*
X167983035Y-111362295D01*
X167983035Y-111362295D02*
X168478273Y-111362295D01*
X160585714Y-105562295D02*
X160319047Y-105181342D01*
X160128571Y-105562295D02*
X160128571Y-104762295D01*
X160128571Y-104762295D02*
X160433333Y-104762295D01*
X160433333Y-104762295D02*
X160509523Y-104800390D01*
X160509523Y-104800390D02*
X160547618Y-104838485D01*
X160547618Y-104838485D02*
X160585714Y-104914676D01*
X160585714Y-104914676D02*
X160585714Y-105028961D01*
X160585714Y-105028961D02*
X160547618Y-105105152D01*
X160547618Y-105105152D02*
X160509523Y-105143247D01*
X160509523Y-105143247D02*
X160433333Y-105181342D01*
X160433333Y-105181342D02*
X160128571Y-105181342D01*
X161347618Y-105562295D02*
X160890475Y-105562295D01*
X161119047Y-105562295D02*
X161119047Y-104762295D01*
X161119047Y-104762295D02*
X161042856Y-104876580D01*
X161042856Y-104876580D02*
X160966666Y-104952771D01*
X160966666Y-104952771D02*
X160890475Y-104990866D01*
X161614285Y-104762295D02*
X162109523Y-104762295D01*
X162109523Y-104762295D02*
X161842857Y-105067057D01*
X161842857Y-105067057D02*
X161957142Y-105067057D01*
X161957142Y-105067057D02*
X162033333Y-105105152D01*
X162033333Y-105105152D02*
X162071428Y-105143247D01*
X162071428Y-105143247D02*
X162109523Y-105219438D01*
X162109523Y-105219438D02*
X162109523Y-105409914D01*
X162109523Y-105409914D02*
X162071428Y-105486104D01*
X162071428Y-105486104D02*
X162033333Y-105524200D01*
X162033333Y-105524200D02*
X161957142Y-105562295D01*
X161957142Y-105562295D02*
X161728571Y-105562295D01*
X161728571Y-105562295D02*
X161652380Y-105524200D01*
X161652380Y-105524200D02*
X161614285Y-105486104D01*
X166954464Y-105612295D02*
X166687797Y-105231342D01*
X166497321Y-105612295D02*
X166497321Y-104812295D01*
X166497321Y-104812295D02*
X166802083Y-104812295D01*
X166802083Y-104812295D02*
X166878273Y-104850390D01*
X166878273Y-104850390D02*
X166916368Y-104888485D01*
X166916368Y-104888485D02*
X166954464Y-104964676D01*
X166954464Y-104964676D02*
X166954464Y-105078961D01*
X166954464Y-105078961D02*
X166916368Y-105155152D01*
X166916368Y-105155152D02*
X166878273Y-105193247D01*
X166878273Y-105193247D02*
X166802083Y-105231342D01*
X166802083Y-105231342D02*
X166497321Y-105231342D01*
X167716368Y-105612295D02*
X167259225Y-105612295D01*
X167487797Y-105612295D02*
X167487797Y-104812295D01*
X167487797Y-104812295D02*
X167411606Y-104926580D01*
X167411606Y-104926580D02*
X167335416Y-105002771D01*
X167335416Y-105002771D02*
X167259225Y-105040866D01*
X168440178Y-104812295D02*
X168059226Y-104812295D01*
X168059226Y-104812295D02*
X168021130Y-105193247D01*
X168021130Y-105193247D02*
X168059226Y-105155152D01*
X168059226Y-105155152D02*
X168135416Y-105117057D01*
X168135416Y-105117057D02*
X168325892Y-105117057D01*
X168325892Y-105117057D02*
X168402083Y-105155152D01*
X168402083Y-105155152D02*
X168440178Y-105193247D01*
X168440178Y-105193247D02*
X168478273Y-105269438D01*
X168478273Y-105269438D02*
X168478273Y-105459914D01*
X168478273Y-105459914D02*
X168440178Y-105536104D01*
X168440178Y-105536104D02*
X168402083Y-105574200D01*
X168402083Y-105574200D02*
X168325892Y-105612295D01*
X168325892Y-105612295D02*
X168135416Y-105612295D01*
X168135416Y-105612295D02*
X168059226Y-105574200D01*
X168059226Y-105574200D02*
X168021130Y-105536104D01*
X142985296Y-90462295D02*
X142718629Y-90081342D01*
X142528153Y-90462295D02*
X142528153Y-89662295D01*
X142528153Y-89662295D02*
X142832915Y-89662295D01*
X142832915Y-89662295D02*
X142909105Y-89700390D01*
X142909105Y-89700390D02*
X142947200Y-89738485D01*
X142947200Y-89738485D02*
X142985296Y-89814676D01*
X142985296Y-89814676D02*
X142985296Y-89928961D01*
X142985296Y-89928961D02*
X142947200Y-90005152D01*
X142947200Y-90005152D02*
X142909105Y-90043247D01*
X142909105Y-90043247D02*
X142832915Y-90081342D01*
X142832915Y-90081342D02*
X142528153Y-90081342D01*
X143290057Y-89738485D02*
X143328153Y-89700390D01*
X143328153Y-89700390D02*
X143404343Y-89662295D01*
X143404343Y-89662295D02*
X143594819Y-89662295D01*
X143594819Y-89662295D02*
X143671010Y-89700390D01*
X143671010Y-89700390D02*
X143709105Y-89738485D01*
X143709105Y-89738485D02*
X143747200Y-89814676D01*
X143747200Y-89814676D02*
X143747200Y-89890866D01*
X143747200Y-89890866D02*
X143709105Y-90005152D01*
X143709105Y-90005152D02*
X143251962Y-90462295D01*
X143251962Y-90462295D02*
X143747200Y-90462295D01*
X166954464Y-93612295D02*
X166687797Y-93231342D01*
X166497321Y-93612295D02*
X166497321Y-92812295D01*
X166497321Y-92812295D02*
X166802083Y-92812295D01*
X166802083Y-92812295D02*
X166878273Y-92850390D01*
X166878273Y-92850390D02*
X166916368Y-92888485D01*
X166916368Y-92888485D02*
X166954464Y-92964676D01*
X166954464Y-92964676D02*
X166954464Y-93078961D01*
X166954464Y-93078961D02*
X166916368Y-93155152D01*
X166916368Y-93155152D02*
X166878273Y-93193247D01*
X166878273Y-93193247D02*
X166802083Y-93231342D01*
X166802083Y-93231342D02*
X166497321Y-93231342D01*
X167716368Y-93612295D02*
X167259225Y-93612295D01*
X167487797Y-93612295D02*
X167487797Y-92812295D01*
X167487797Y-92812295D02*
X167411606Y-92926580D01*
X167411606Y-92926580D02*
X167335416Y-93002771D01*
X167335416Y-93002771D02*
X167259225Y-93040866D01*
X168097321Y-93612295D02*
X168249702Y-93612295D01*
X168249702Y-93612295D02*
X168325892Y-93574200D01*
X168325892Y-93574200D02*
X168363988Y-93536104D01*
X168363988Y-93536104D02*
X168440178Y-93421819D01*
X168440178Y-93421819D02*
X168478273Y-93269438D01*
X168478273Y-93269438D02*
X168478273Y-92964676D01*
X168478273Y-92964676D02*
X168440178Y-92888485D01*
X168440178Y-92888485D02*
X168402083Y-92850390D01*
X168402083Y-92850390D02*
X168325892Y-92812295D01*
X168325892Y-92812295D02*
X168173511Y-92812295D01*
X168173511Y-92812295D02*
X168097321Y-92850390D01*
X168097321Y-92850390D02*
X168059226Y-92888485D01*
X168059226Y-92888485D02*
X168021130Y-92964676D01*
X168021130Y-92964676D02*
X168021130Y-93155152D01*
X168021130Y-93155152D02*
X168059226Y-93231342D01*
X168059226Y-93231342D02*
X168097321Y-93269438D01*
X168097321Y-93269438D02*
X168173511Y-93307533D01*
X168173511Y-93307533D02*
X168325892Y-93307533D01*
X168325892Y-93307533D02*
X168402083Y-93269438D01*
X168402083Y-93269438D02*
X168440178Y-93231342D01*
X168440178Y-93231342D02*
X168478273Y-93155152D01*
X133185714Y-120162295D02*
X132919047Y-119781342D01*
X132728571Y-120162295D02*
X132728571Y-119362295D01*
X132728571Y-119362295D02*
X133033333Y-119362295D01*
X133033333Y-119362295D02*
X133109523Y-119400390D01*
X133109523Y-119400390D02*
X133147618Y-119438485D01*
X133147618Y-119438485D02*
X133185714Y-119514676D01*
X133185714Y-119514676D02*
X133185714Y-119628961D01*
X133185714Y-119628961D02*
X133147618Y-119705152D01*
X133147618Y-119705152D02*
X133109523Y-119743247D01*
X133109523Y-119743247D02*
X133033333Y-119781342D01*
X133033333Y-119781342D02*
X132728571Y-119781342D01*
X133490475Y-119438485D02*
X133528571Y-119400390D01*
X133528571Y-119400390D02*
X133604761Y-119362295D01*
X133604761Y-119362295D02*
X133795237Y-119362295D01*
X133795237Y-119362295D02*
X133871428Y-119400390D01*
X133871428Y-119400390D02*
X133909523Y-119438485D01*
X133909523Y-119438485D02*
X133947618Y-119514676D01*
X133947618Y-119514676D02*
X133947618Y-119590866D01*
X133947618Y-119590866D02*
X133909523Y-119705152D01*
X133909523Y-119705152D02*
X133452380Y-120162295D01*
X133452380Y-120162295D02*
X133947618Y-120162295D01*
X134214285Y-119362295D02*
X134709523Y-119362295D01*
X134709523Y-119362295D02*
X134442857Y-119667057D01*
X134442857Y-119667057D02*
X134557142Y-119667057D01*
X134557142Y-119667057D02*
X134633333Y-119705152D01*
X134633333Y-119705152D02*
X134671428Y-119743247D01*
X134671428Y-119743247D02*
X134709523Y-119819438D01*
X134709523Y-119819438D02*
X134709523Y-120009914D01*
X134709523Y-120009914D02*
X134671428Y-120086104D01*
X134671428Y-120086104D02*
X134633333Y-120124200D01*
X134633333Y-120124200D02*
X134557142Y-120162295D01*
X134557142Y-120162295D02*
X134328571Y-120162295D01*
X134328571Y-120162295D02*
X134252380Y-120124200D01*
X134252380Y-120124200D02*
X134214285Y-120086104D01*
X166954464Y-99612295D02*
X166687797Y-99231342D01*
X166497321Y-99612295D02*
X166497321Y-98812295D01*
X166497321Y-98812295D02*
X166802083Y-98812295D01*
X166802083Y-98812295D02*
X166878273Y-98850390D01*
X166878273Y-98850390D02*
X166916368Y-98888485D01*
X166916368Y-98888485D02*
X166954464Y-98964676D01*
X166954464Y-98964676D02*
X166954464Y-99078961D01*
X166954464Y-99078961D02*
X166916368Y-99155152D01*
X166916368Y-99155152D02*
X166878273Y-99193247D01*
X166878273Y-99193247D02*
X166802083Y-99231342D01*
X166802083Y-99231342D02*
X166497321Y-99231342D01*
X167716368Y-99612295D02*
X167259225Y-99612295D01*
X167487797Y-99612295D02*
X167487797Y-98812295D01*
X167487797Y-98812295D02*
X167411606Y-98926580D01*
X167411606Y-98926580D02*
X167335416Y-99002771D01*
X167335416Y-99002771D02*
X167259225Y-99040866D01*
X167983035Y-98812295D02*
X168516369Y-98812295D01*
X168516369Y-98812295D02*
X168173511Y-99612295D01*
X160585714Y-87762295D02*
X160319047Y-87381342D01*
X160128571Y-87762295D02*
X160128571Y-86962295D01*
X160128571Y-86962295D02*
X160433333Y-86962295D01*
X160433333Y-86962295D02*
X160509523Y-87000390D01*
X160509523Y-87000390D02*
X160547618Y-87038485D01*
X160547618Y-87038485D02*
X160585714Y-87114676D01*
X160585714Y-87114676D02*
X160585714Y-87228961D01*
X160585714Y-87228961D02*
X160547618Y-87305152D01*
X160547618Y-87305152D02*
X160509523Y-87343247D01*
X160509523Y-87343247D02*
X160433333Y-87381342D01*
X160433333Y-87381342D02*
X160128571Y-87381342D01*
X160890475Y-87038485D02*
X160928571Y-87000390D01*
X160928571Y-87000390D02*
X161004761Y-86962295D01*
X161004761Y-86962295D02*
X161195237Y-86962295D01*
X161195237Y-86962295D02*
X161271428Y-87000390D01*
X161271428Y-87000390D02*
X161309523Y-87038485D01*
X161309523Y-87038485D02*
X161347618Y-87114676D01*
X161347618Y-87114676D02*
X161347618Y-87190866D01*
X161347618Y-87190866D02*
X161309523Y-87305152D01*
X161309523Y-87305152D02*
X160852380Y-87762295D01*
X160852380Y-87762295D02*
X161347618Y-87762295D01*
X161842857Y-86962295D02*
X161919047Y-86962295D01*
X161919047Y-86962295D02*
X161995238Y-87000390D01*
X161995238Y-87000390D02*
X162033333Y-87038485D01*
X162033333Y-87038485D02*
X162071428Y-87114676D01*
X162071428Y-87114676D02*
X162109523Y-87267057D01*
X162109523Y-87267057D02*
X162109523Y-87457533D01*
X162109523Y-87457533D02*
X162071428Y-87609914D01*
X162071428Y-87609914D02*
X162033333Y-87686104D01*
X162033333Y-87686104D02*
X161995238Y-87724200D01*
X161995238Y-87724200D02*
X161919047Y-87762295D01*
X161919047Y-87762295D02*
X161842857Y-87762295D01*
X161842857Y-87762295D02*
X161766666Y-87724200D01*
X161766666Y-87724200D02*
X161728571Y-87686104D01*
X161728571Y-87686104D02*
X161690476Y-87609914D01*
X161690476Y-87609914D02*
X161652380Y-87457533D01*
X161652380Y-87457533D02*
X161652380Y-87267057D01*
X161652380Y-87267057D02*
X161690476Y-87114676D01*
X161690476Y-87114676D02*
X161728571Y-87038485D01*
X161728571Y-87038485D02*
X161766666Y-87000390D01*
X161766666Y-87000390D02*
X161842857Y-86962295D01*
X156987296Y-99933604D02*
X156949200Y-99971700D01*
X156949200Y-99971700D02*
X156834915Y-100009795D01*
X156834915Y-100009795D02*
X156758724Y-100009795D01*
X156758724Y-100009795D02*
X156644438Y-99971700D01*
X156644438Y-99971700D02*
X156568248Y-99895509D01*
X156568248Y-99895509D02*
X156530153Y-99819319D01*
X156530153Y-99819319D02*
X156492057Y-99666938D01*
X156492057Y-99666938D02*
X156492057Y-99552652D01*
X156492057Y-99552652D02*
X156530153Y-99400271D01*
X156530153Y-99400271D02*
X156568248Y-99324080D01*
X156568248Y-99324080D02*
X156644438Y-99247890D01*
X156644438Y-99247890D02*
X156758724Y-99209795D01*
X156758724Y-99209795D02*
X156834915Y-99209795D01*
X156834915Y-99209795D02*
X156949200Y-99247890D01*
X156949200Y-99247890D02*
X156987296Y-99285985D01*
X157292057Y-99285985D02*
X157330153Y-99247890D01*
X157330153Y-99247890D02*
X157406343Y-99209795D01*
X157406343Y-99209795D02*
X157596819Y-99209795D01*
X157596819Y-99209795D02*
X157673010Y-99247890D01*
X157673010Y-99247890D02*
X157711105Y-99285985D01*
X157711105Y-99285985D02*
X157749200Y-99362176D01*
X157749200Y-99362176D02*
X157749200Y-99438366D01*
X157749200Y-99438366D02*
X157711105Y-99552652D01*
X157711105Y-99552652D02*
X157253962Y-100009795D01*
X157253962Y-100009795D02*
X157749200Y-100009795D01*
X136266667Y-101562295D02*
X136000000Y-101181342D01*
X135809524Y-101562295D02*
X135809524Y-100762295D01*
X135809524Y-100762295D02*
X136114286Y-100762295D01*
X136114286Y-100762295D02*
X136190476Y-100800390D01*
X136190476Y-100800390D02*
X136228571Y-100838485D01*
X136228571Y-100838485D02*
X136266667Y-100914676D01*
X136266667Y-100914676D02*
X136266667Y-101028961D01*
X136266667Y-101028961D02*
X136228571Y-101105152D01*
X136228571Y-101105152D02*
X136190476Y-101143247D01*
X136190476Y-101143247D02*
X136114286Y-101181342D01*
X136114286Y-101181342D02*
X135809524Y-101181342D01*
X136952381Y-101028961D02*
X136952381Y-101562295D01*
X136761905Y-100724200D02*
X136571428Y-101295628D01*
X136571428Y-101295628D02*
X137066667Y-101295628D01*
X157066667Y-94362295D02*
X156800000Y-93981342D01*
X156609524Y-94362295D02*
X156609524Y-93562295D01*
X156609524Y-93562295D02*
X156914286Y-93562295D01*
X156914286Y-93562295D02*
X156990476Y-93600390D01*
X156990476Y-93600390D02*
X157028571Y-93638485D01*
X157028571Y-93638485D02*
X157066667Y-93714676D01*
X157066667Y-93714676D02*
X157066667Y-93828961D01*
X157066667Y-93828961D02*
X157028571Y-93905152D01*
X157028571Y-93905152D02*
X156990476Y-93943247D01*
X156990476Y-93943247D02*
X156914286Y-93981342D01*
X156914286Y-93981342D02*
X156609524Y-93981342D01*
X157828571Y-94362295D02*
X157371428Y-94362295D01*
X157600000Y-94362295D02*
X157600000Y-93562295D01*
X157600000Y-93562295D02*
X157523809Y-93676580D01*
X157523809Y-93676580D02*
X157447619Y-93752771D01*
X157447619Y-93752771D02*
X157371428Y-93790866D01*
X137166667Y-112786104D02*
X137128571Y-112824200D01*
X137128571Y-112824200D02*
X137014286Y-112862295D01*
X137014286Y-112862295D02*
X136938095Y-112862295D01*
X136938095Y-112862295D02*
X136823809Y-112824200D01*
X136823809Y-112824200D02*
X136747619Y-112748009D01*
X136747619Y-112748009D02*
X136709524Y-112671819D01*
X136709524Y-112671819D02*
X136671428Y-112519438D01*
X136671428Y-112519438D02*
X136671428Y-112405152D01*
X136671428Y-112405152D02*
X136709524Y-112252771D01*
X136709524Y-112252771D02*
X136747619Y-112176580D01*
X136747619Y-112176580D02*
X136823809Y-112100390D01*
X136823809Y-112100390D02*
X136938095Y-112062295D01*
X136938095Y-112062295D02*
X137014286Y-112062295D01*
X137014286Y-112062295D02*
X137128571Y-112100390D01*
X137128571Y-112100390D02*
X137166667Y-112138485D01*
X137433333Y-112062295D02*
X137966667Y-112062295D01*
X137966667Y-112062295D02*
X137623809Y-112862295D01*
X160985994Y-123362295D02*
X160719327Y-122981342D01*
X160528851Y-123362295D02*
X160528851Y-122562295D01*
X160528851Y-122562295D02*
X160833613Y-122562295D01*
X160833613Y-122562295D02*
X160909803Y-122600390D01*
X160909803Y-122600390D02*
X160947898Y-122638485D01*
X160947898Y-122638485D02*
X160985994Y-122714676D01*
X160985994Y-122714676D02*
X160985994Y-122828961D01*
X160985994Y-122828961D02*
X160947898Y-122905152D01*
X160947898Y-122905152D02*
X160909803Y-122943247D01*
X160909803Y-122943247D02*
X160833613Y-122981342D01*
X160833613Y-122981342D02*
X160528851Y-122981342D01*
X161252660Y-122562295D02*
X161785994Y-122562295D01*
X161785994Y-122562295D02*
X161443136Y-123362295D01*
X166954464Y-117362295D02*
X166687797Y-116981342D01*
X166497321Y-117362295D02*
X166497321Y-116562295D01*
X166497321Y-116562295D02*
X166802083Y-116562295D01*
X166802083Y-116562295D02*
X166878273Y-116600390D01*
X166878273Y-116600390D02*
X166916368Y-116638485D01*
X166916368Y-116638485D02*
X166954464Y-116714676D01*
X166954464Y-116714676D02*
X166954464Y-116828961D01*
X166954464Y-116828961D02*
X166916368Y-116905152D01*
X166916368Y-116905152D02*
X166878273Y-116943247D01*
X166878273Y-116943247D02*
X166802083Y-116981342D01*
X166802083Y-116981342D02*
X166497321Y-116981342D01*
X167716368Y-117362295D02*
X167259225Y-117362295D01*
X167487797Y-117362295D02*
X167487797Y-116562295D01*
X167487797Y-116562295D02*
X167411606Y-116676580D01*
X167411606Y-116676580D02*
X167335416Y-116752771D01*
X167335416Y-116752771D02*
X167259225Y-116790866D01*
X168211607Y-116562295D02*
X168287797Y-116562295D01*
X168287797Y-116562295D02*
X168363988Y-116600390D01*
X168363988Y-116600390D02*
X168402083Y-116638485D01*
X168402083Y-116638485D02*
X168440178Y-116714676D01*
X168440178Y-116714676D02*
X168478273Y-116867057D01*
X168478273Y-116867057D02*
X168478273Y-117057533D01*
X168478273Y-117057533D02*
X168440178Y-117209914D01*
X168440178Y-117209914D02*
X168402083Y-117286104D01*
X168402083Y-117286104D02*
X168363988Y-117324200D01*
X168363988Y-117324200D02*
X168287797Y-117362295D01*
X168287797Y-117362295D02*
X168211607Y-117362295D01*
X168211607Y-117362295D02*
X168135416Y-117324200D01*
X168135416Y-117324200D02*
X168097321Y-117286104D01*
X168097321Y-117286104D02*
X168059226Y-117209914D01*
X168059226Y-117209914D02*
X168021130Y-117057533D01*
X168021130Y-117057533D02*
X168021130Y-116867057D01*
X168021130Y-116867057D02*
X168059226Y-116714676D01*
X168059226Y-116714676D02*
X168097321Y-116638485D01*
X168097321Y-116638485D02*
X168135416Y-116600390D01*
X168135416Y-116600390D02*
X168211607Y-116562295D01*
X148566667Y-105786104D02*
X148528571Y-105824200D01*
X148528571Y-105824200D02*
X148414286Y-105862295D01*
X148414286Y-105862295D02*
X148338095Y-105862295D01*
X148338095Y-105862295D02*
X148223809Y-105824200D01*
X148223809Y-105824200D02*
X148147619Y-105748009D01*
X148147619Y-105748009D02*
X148109524Y-105671819D01*
X148109524Y-105671819D02*
X148071428Y-105519438D01*
X148071428Y-105519438D02*
X148071428Y-105405152D01*
X148071428Y-105405152D02*
X148109524Y-105252771D01*
X148109524Y-105252771D02*
X148147619Y-105176580D01*
X148147619Y-105176580D02*
X148223809Y-105100390D01*
X148223809Y-105100390D02*
X148338095Y-105062295D01*
X148338095Y-105062295D02*
X148414286Y-105062295D01*
X148414286Y-105062295D02*
X148528571Y-105100390D01*
X148528571Y-105100390D02*
X148566667Y-105138485D01*
X148833333Y-105062295D02*
X149328571Y-105062295D01*
X149328571Y-105062295D02*
X149061905Y-105367057D01*
X149061905Y-105367057D02*
X149176190Y-105367057D01*
X149176190Y-105367057D02*
X149252381Y-105405152D01*
X149252381Y-105405152D02*
X149290476Y-105443247D01*
X149290476Y-105443247D02*
X149328571Y-105519438D01*
X149328571Y-105519438D02*
X149328571Y-105709914D01*
X149328571Y-105709914D02*
X149290476Y-105786104D01*
X149290476Y-105786104D02*
X149252381Y-105824200D01*
X149252381Y-105824200D02*
X149176190Y-105862295D01*
X149176190Y-105862295D02*
X148947619Y-105862295D01*
X148947619Y-105862295D02*
X148871428Y-105824200D01*
X148871428Y-105824200D02*
X148833333Y-105786104D01*
X135696038Y-93986104D02*
X135657942Y-94024200D01*
X135657942Y-94024200D02*
X135543657Y-94062295D01*
X135543657Y-94062295D02*
X135467466Y-94062295D01*
X135467466Y-94062295D02*
X135353180Y-94024200D01*
X135353180Y-94024200D02*
X135276990Y-93948009D01*
X135276990Y-93948009D02*
X135238895Y-93871819D01*
X135238895Y-93871819D02*
X135200799Y-93719438D01*
X135200799Y-93719438D02*
X135200799Y-93605152D01*
X135200799Y-93605152D02*
X135238895Y-93452771D01*
X135238895Y-93452771D02*
X135276990Y-93376580D01*
X135276990Y-93376580D02*
X135353180Y-93300390D01*
X135353180Y-93300390D02*
X135467466Y-93262295D01*
X135467466Y-93262295D02*
X135543657Y-93262295D01*
X135543657Y-93262295D02*
X135657942Y-93300390D01*
X135657942Y-93300390D02*
X135696038Y-93338485D01*
X136076990Y-94062295D02*
X136229371Y-94062295D01*
X136229371Y-94062295D02*
X136305561Y-94024200D01*
X136305561Y-94024200D02*
X136343657Y-93986104D01*
X136343657Y-93986104D02*
X136419847Y-93871819D01*
X136419847Y-93871819D02*
X136457942Y-93719438D01*
X136457942Y-93719438D02*
X136457942Y-93414676D01*
X136457942Y-93414676D02*
X136419847Y-93338485D01*
X136419847Y-93338485D02*
X136381752Y-93300390D01*
X136381752Y-93300390D02*
X136305561Y-93262295D01*
X136305561Y-93262295D02*
X136153180Y-93262295D01*
X136153180Y-93262295D02*
X136076990Y-93300390D01*
X136076990Y-93300390D02*
X136038895Y-93338485D01*
X136038895Y-93338485D02*
X136000799Y-93414676D01*
X136000799Y-93414676D02*
X136000799Y-93605152D01*
X136000799Y-93605152D02*
X136038895Y-93681342D01*
X136038895Y-93681342D02*
X136076990Y-93719438D01*
X136076990Y-93719438D02*
X136153180Y-93757533D01*
X136153180Y-93757533D02*
X136305561Y-93757533D01*
X136305561Y-93757533D02*
X136381752Y-93719438D01*
X136381752Y-93719438D02*
X136419847Y-93681342D01*
X136419847Y-93681342D02*
X136457942Y-93605152D01*
X137187296Y-122509795D02*
X136920629Y-122128842D01*
X136730153Y-122509795D02*
X136730153Y-121709795D01*
X136730153Y-121709795D02*
X137034915Y-121709795D01*
X137034915Y-121709795D02*
X137111105Y-121747890D01*
X137111105Y-121747890D02*
X137149200Y-121785985D01*
X137149200Y-121785985D02*
X137187296Y-121862176D01*
X137187296Y-121862176D02*
X137187296Y-121976461D01*
X137187296Y-121976461D02*
X137149200Y-122052652D01*
X137149200Y-122052652D02*
X137111105Y-122090747D01*
X137111105Y-122090747D02*
X137034915Y-122128842D01*
X137034915Y-122128842D02*
X136730153Y-122128842D01*
X137911105Y-121709795D02*
X137530153Y-121709795D01*
X137530153Y-121709795D02*
X137492057Y-122090747D01*
X137492057Y-122090747D02*
X137530153Y-122052652D01*
X137530153Y-122052652D02*
X137606343Y-122014557D01*
X137606343Y-122014557D02*
X137796819Y-122014557D01*
X137796819Y-122014557D02*
X137873010Y-122052652D01*
X137873010Y-122052652D02*
X137911105Y-122090747D01*
X137911105Y-122090747D02*
X137949200Y-122166938D01*
X137949200Y-122166938D02*
X137949200Y-122357414D01*
X137949200Y-122357414D02*
X137911105Y-122433604D01*
X137911105Y-122433604D02*
X137873010Y-122471700D01*
X137873010Y-122471700D02*
X137796819Y-122509795D01*
X137796819Y-122509795D02*
X137606343Y-122509795D01*
X137606343Y-122509795D02*
X137530153Y-122471700D01*
X137530153Y-122471700D02*
X137492057Y-122433604D01*
X160966667Y-117362295D02*
X160700000Y-116981342D01*
X160509524Y-117362295D02*
X160509524Y-116562295D01*
X160509524Y-116562295D02*
X160814286Y-116562295D01*
X160814286Y-116562295D02*
X160890476Y-116600390D01*
X160890476Y-116600390D02*
X160928571Y-116638485D01*
X160928571Y-116638485D02*
X160966667Y-116714676D01*
X160966667Y-116714676D02*
X160966667Y-116828961D01*
X160966667Y-116828961D02*
X160928571Y-116905152D01*
X160928571Y-116905152D02*
X160890476Y-116943247D01*
X160890476Y-116943247D02*
X160814286Y-116981342D01*
X160814286Y-116981342D02*
X160509524Y-116981342D01*
X161347619Y-117362295D02*
X161500000Y-117362295D01*
X161500000Y-117362295D02*
X161576190Y-117324200D01*
X161576190Y-117324200D02*
X161614286Y-117286104D01*
X161614286Y-117286104D02*
X161690476Y-117171819D01*
X161690476Y-117171819D02*
X161728571Y-117019438D01*
X161728571Y-117019438D02*
X161728571Y-116714676D01*
X161728571Y-116714676D02*
X161690476Y-116638485D01*
X161690476Y-116638485D02*
X161652381Y-116600390D01*
X161652381Y-116600390D02*
X161576190Y-116562295D01*
X161576190Y-116562295D02*
X161423809Y-116562295D01*
X161423809Y-116562295D02*
X161347619Y-116600390D01*
X161347619Y-116600390D02*
X161309524Y-116638485D01*
X161309524Y-116638485D02*
X161271428Y-116714676D01*
X161271428Y-116714676D02*
X161271428Y-116905152D01*
X161271428Y-116905152D02*
X161309524Y-116981342D01*
X161309524Y-116981342D02*
X161347619Y-117019438D01*
X161347619Y-117019438D02*
X161423809Y-117057533D01*
X161423809Y-117057533D02*
X161576190Y-117057533D01*
X161576190Y-117057533D02*
X161652381Y-117019438D01*
X161652381Y-117019438D02*
X161690476Y-116981342D01*
X161690476Y-116981342D02*
X161728571Y-116905152D01*
X167335417Y-123362295D02*
X167068750Y-122981342D01*
X166878274Y-123362295D02*
X166878274Y-122562295D01*
X166878274Y-122562295D02*
X167183036Y-122562295D01*
X167183036Y-122562295D02*
X167259226Y-122600390D01*
X167259226Y-122600390D02*
X167297321Y-122638485D01*
X167297321Y-122638485D02*
X167335417Y-122714676D01*
X167335417Y-122714676D02*
X167335417Y-122828961D01*
X167335417Y-122828961D02*
X167297321Y-122905152D01*
X167297321Y-122905152D02*
X167259226Y-122943247D01*
X167259226Y-122943247D02*
X167183036Y-122981342D01*
X167183036Y-122981342D02*
X166878274Y-122981342D01*
X167792559Y-122905152D02*
X167716369Y-122867057D01*
X167716369Y-122867057D02*
X167678274Y-122828961D01*
X167678274Y-122828961D02*
X167640178Y-122752771D01*
X167640178Y-122752771D02*
X167640178Y-122714676D01*
X167640178Y-122714676D02*
X167678274Y-122638485D01*
X167678274Y-122638485D02*
X167716369Y-122600390D01*
X167716369Y-122600390D02*
X167792559Y-122562295D01*
X167792559Y-122562295D02*
X167944940Y-122562295D01*
X167944940Y-122562295D02*
X168021131Y-122600390D01*
X168021131Y-122600390D02*
X168059226Y-122638485D01*
X168059226Y-122638485D02*
X168097321Y-122714676D01*
X168097321Y-122714676D02*
X168097321Y-122752771D01*
X168097321Y-122752771D02*
X168059226Y-122828961D01*
X168059226Y-122828961D02*
X168021131Y-122867057D01*
X168021131Y-122867057D02*
X167944940Y-122905152D01*
X167944940Y-122905152D02*
X167792559Y-122905152D01*
X167792559Y-122905152D02*
X167716369Y-122943247D01*
X167716369Y-122943247D02*
X167678274Y-122981342D01*
X167678274Y-122981342D02*
X167640178Y-123057533D01*
X167640178Y-123057533D02*
X167640178Y-123209914D01*
X167640178Y-123209914D02*
X167678274Y-123286104D01*
X167678274Y-123286104D02*
X167716369Y-123324200D01*
X167716369Y-123324200D02*
X167792559Y-123362295D01*
X167792559Y-123362295D02*
X167944940Y-123362295D01*
X167944940Y-123362295D02*
X168021131Y-123324200D01*
X168021131Y-123324200D02*
X168059226Y-123286104D01*
X168059226Y-123286104D02*
X168097321Y-123209914D01*
X168097321Y-123209914D02*
X168097321Y-123057533D01*
X168097321Y-123057533D02*
X168059226Y-122981342D01*
X168059226Y-122981342D02*
X168021131Y-122943247D01*
X168021131Y-122943247D02*
X167944940Y-122905152D01*
X156585714Y-91862295D02*
X156319047Y-91481342D01*
X156128571Y-91862295D02*
X156128571Y-91062295D01*
X156128571Y-91062295D02*
X156433333Y-91062295D01*
X156433333Y-91062295D02*
X156509523Y-91100390D01*
X156509523Y-91100390D02*
X156547618Y-91138485D01*
X156547618Y-91138485D02*
X156585714Y-91214676D01*
X156585714Y-91214676D02*
X156585714Y-91328961D01*
X156585714Y-91328961D02*
X156547618Y-91405152D01*
X156547618Y-91405152D02*
X156509523Y-91443247D01*
X156509523Y-91443247D02*
X156433333Y-91481342D01*
X156433333Y-91481342D02*
X156128571Y-91481342D01*
X156890475Y-91138485D02*
X156928571Y-91100390D01*
X156928571Y-91100390D02*
X157004761Y-91062295D01*
X157004761Y-91062295D02*
X157195237Y-91062295D01*
X157195237Y-91062295D02*
X157271428Y-91100390D01*
X157271428Y-91100390D02*
X157309523Y-91138485D01*
X157309523Y-91138485D02*
X157347618Y-91214676D01*
X157347618Y-91214676D02*
X157347618Y-91290866D01*
X157347618Y-91290866D02*
X157309523Y-91405152D01*
X157309523Y-91405152D02*
X156852380Y-91862295D01*
X156852380Y-91862295D02*
X157347618Y-91862295D01*
X157652380Y-91138485D02*
X157690476Y-91100390D01*
X157690476Y-91100390D02*
X157766666Y-91062295D01*
X157766666Y-91062295D02*
X157957142Y-91062295D01*
X157957142Y-91062295D02*
X158033333Y-91100390D01*
X158033333Y-91100390D02*
X158071428Y-91138485D01*
X158071428Y-91138485D02*
X158109523Y-91214676D01*
X158109523Y-91214676D02*
X158109523Y-91290866D01*
X158109523Y-91290866D02*
X158071428Y-91405152D01*
X158071428Y-91405152D02*
X157614285Y-91862295D01*
X157614285Y-91862295D02*
X158109523Y-91862295D01*
X145485296Y-90462295D02*
X145218629Y-90081342D01*
X145028153Y-90462295D02*
X145028153Y-89662295D01*
X145028153Y-89662295D02*
X145332915Y-89662295D01*
X145332915Y-89662295D02*
X145409105Y-89700390D01*
X145409105Y-89700390D02*
X145447200Y-89738485D01*
X145447200Y-89738485D02*
X145485296Y-89814676D01*
X145485296Y-89814676D02*
X145485296Y-89928961D01*
X145485296Y-89928961D02*
X145447200Y-90005152D01*
X145447200Y-90005152D02*
X145409105Y-90043247D01*
X145409105Y-90043247D02*
X145332915Y-90081342D01*
X145332915Y-90081342D02*
X145028153Y-90081342D01*
X145751962Y-89662295D02*
X146247200Y-89662295D01*
X146247200Y-89662295D02*
X145980534Y-89967057D01*
X145980534Y-89967057D02*
X146094819Y-89967057D01*
X146094819Y-89967057D02*
X146171010Y-90005152D01*
X146171010Y-90005152D02*
X146209105Y-90043247D01*
X146209105Y-90043247D02*
X146247200Y-90119438D01*
X146247200Y-90119438D02*
X146247200Y-90309914D01*
X146247200Y-90309914D02*
X146209105Y-90386104D01*
X146209105Y-90386104D02*
X146171010Y-90424200D01*
X146171010Y-90424200D02*
X146094819Y-90462295D01*
X146094819Y-90462295D02*
X145866248Y-90462295D01*
X145866248Y-90462295D02*
X145790057Y-90424200D01*
X145790057Y-90424200D02*
X145751962Y-90386104D01*
X160575714Y-93777295D02*
X160309047Y-93396342D01*
X160118571Y-93777295D02*
X160118571Y-92977295D01*
X160118571Y-92977295D02*
X160423333Y-92977295D01*
X160423333Y-92977295D02*
X160499523Y-93015390D01*
X160499523Y-93015390D02*
X160537618Y-93053485D01*
X160537618Y-93053485D02*
X160575714Y-93129676D01*
X160575714Y-93129676D02*
X160575714Y-93243961D01*
X160575714Y-93243961D02*
X160537618Y-93320152D01*
X160537618Y-93320152D02*
X160499523Y-93358247D01*
X160499523Y-93358247D02*
X160423333Y-93396342D01*
X160423333Y-93396342D02*
X160118571Y-93396342D01*
X161337618Y-93777295D02*
X160880475Y-93777295D01*
X161109047Y-93777295D02*
X161109047Y-92977295D01*
X161109047Y-92977295D02*
X161032856Y-93091580D01*
X161032856Y-93091580D02*
X160956666Y-93167771D01*
X160956666Y-93167771D02*
X160880475Y-93205866D01*
X161794761Y-93320152D02*
X161718571Y-93282057D01*
X161718571Y-93282057D02*
X161680476Y-93243961D01*
X161680476Y-93243961D02*
X161642380Y-93167771D01*
X161642380Y-93167771D02*
X161642380Y-93129676D01*
X161642380Y-93129676D02*
X161680476Y-93053485D01*
X161680476Y-93053485D02*
X161718571Y-93015390D01*
X161718571Y-93015390D02*
X161794761Y-92977295D01*
X161794761Y-92977295D02*
X161947142Y-92977295D01*
X161947142Y-92977295D02*
X162023333Y-93015390D01*
X162023333Y-93015390D02*
X162061428Y-93053485D01*
X162061428Y-93053485D02*
X162099523Y-93129676D01*
X162099523Y-93129676D02*
X162099523Y-93167771D01*
X162099523Y-93167771D02*
X162061428Y-93243961D01*
X162061428Y-93243961D02*
X162023333Y-93282057D01*
X162023333Y-93282057D02*
X161947142Y-93320152D01*
X161947142Y-93320152D02*
X161794761Y-93320152D01*
X161794761Y-93320152D02*
X161718571Y-93358247D01*
X161718571Y-93358247D02*
X161680476Y-93396342D01*
X161680476Y-93396342D02*
X161642380Y-93472533D01*
X161642380Y-93472533D02*
X161642380Y-93624914D01*
X161642380Y-93624914D02*
X161680476Y-93701104D01*
X161680476Y-93701104D02*
X161718571Y-93739200D01*
X161718571Y-93739200D02*
X161794761Y-93777295D01*
X161794761Y-93777295D02*
X161947142Y-93777295D01*
X161947142Y-93777295D02*
X162023333Y-93739200D01*
X162023333Y-93739200D02*
X162061428Y-93701104D01*
X162061428Y-93701104D02*
X162099523Y-93624914D01*
X162099523Y-93624914D02*
X162099523Y-93472533D01*
X162099523Y-93472533D02*
X162061428Y-93396342D01*
X162061428Y-93396342D02*
X162023333Y-93358247D01*
X162023333Y-93358247D02*
X161947142Y-93320152D01*
X166954464Y-129362295D02*
X166687797Y-128981342D01*
X166497321Y-129362295D02*
X166497321Y-128562295D01*
X166497321Y-128562295D02*
X166802083Y-128562295D01*
X166802083Y-128562295D02*
X166878273Y-128600390D01*
X166878273Y-128600390D02*
X166916368Y-128638485D01*
X166916368Y-128638485D02*
X166954464Y-128714676D01*
X166954464Y-128714676D02*
X166954464Y-128828961D01*
X166954464Y-128828961D02*
X166916368Y-128905152D01*
X166916368Y-128905152D02*
X166878273Y-128943247D01*
X166878273Y-128943247D02*
X166802083Y-128981342D01*
X166802083Y-128981342D02*
X166497321Y-128981342D01*
X167716368Y-129362295D02*
X167259225Y-129362295D01*
X167487797Y-129362295D02*
X167487797Y-128562295D01*
X167487797Y-128562295D02*
X167411606Y-128676580D01*
X167411606Y-128676580D02*
X167335416Y-128752771D01*
X167335416Y-128752771D02*
X167259225Y-128790866D01*
X168402083Y-128828961D02*
X168402083Y-129362295D01*
X168211607Y-128524200D02*
X168021130Y-129095628D01*
X168021130Y-129095628D02*
X168516369Y-129095628D01*
X160985994Y-129362295D02*
X160719327Y-128981342D01*
X160528851Y-129362295D02*
X160528851Y-128562295D01*
X160528851Y-128562295D02*
X160833613Y-128562295D01*
X160833613Y-128562295D02*
X160909803Y-128600390D01*
X160909803Y-128600390D02*
X160947898Y-128638485D01*
X160947898Y-128638485D02*
X160985994Y-128714676D01*
X160985994Y-128714676D02*
X160985994Y-128828961D01*
X160985994Y-128828961D02*
X160947898Y-128905152D01*
X160947898Y-128905152D02*
X160909803Y-128943247D01*
X160909803Y-128943247D02*
X160833613Y-128981342D01*
X160833613Y-128981342D02*
X160528851Y-128981342D01*
X161671708Y-128562295D02*
X161519327Y-128562295D01*
X161519327Y-128562295D02*
X161443136Y-128600390D01*
X161443136Y-128600390D02*
X161405041Y-128638485D01*
X161405041Y-128638485D02*
X161328851Y-128752771D01*
X161328851Y-128752771D02*
X161290755Y-128905152D01*
X161290755Y-128905152D02*
X161290755Y-129209914D01*
X161290755Y-129209914D02*
X161328851Y-129286104D01*
X161328851Y-129286104D02*
X161366946Y-129324200D01*
X161366946Y-129324200D02*
X161443136Y-129362295D01*
X161443136Y-129362295D02*
X161595517Y-129362295D01*
X161595517Y-129362295D02*
X161671708Y-129324200D01*
X161671708Y-129324200D02*
X161709803Y-129286104D01*
X161709803Y-129286104D02*
X161747898Y-129209914D01*
X161747898Y-129209914D02*
X161747898Y-129019438D01*
X161747898Y-129019438D02*
X161709803Y-128943247D01*
X161709803Y-128943247D02*
X161671708Y-128905152D01*
X161671708Y-128905152D02*
X161595517Y-128867057D01*
X161595517Y-128867057D02*
X161443136Y-128867057D01*
X161443136Y-128867057D02*
X161366946Y-128905152D01*
X161366946Y-128905152D02*
X161328851Y-128943247D01*
X161328851Y-128943247D02*
X161290755Y-129019438D01*
X160585714Y-99662295D02*
X160319047Y-99281342D01*
X160128571Y-99662295D02*
X160128571Y-98862295D01*
X160128571Y-98862295D02*
X160433333Y-98862295D01*
X160433333Y-98862295D02*
X160509523Y-98900390D01*
X160509523Y-98900390D02*
X160547618Y-98938485D01*
X160547618Y-98938485D02*
X160585714Y-99014676D01*
X160585714Y-99014676D02*
X160585714Y-99128961D01*
X160585714Y-99128961D02*
X160547618Y-99205152D01*
X160547618Y-99205152D02*
X160509523Y-99243247D01*
X160509523Y-99243247D02*
X160433333Y-99281342D01*
X160433333Y-99281342D02*
X160128571Y-99281342D01*
X161347618Y-99662295D02*
X160890475Y-99662295D01*
X161119047Y-99662295D02*
X161119047Y-98862295D01*
X161119047Y-98862295D02*
X161042856Y-98976580D01*
X161042856Y-98976580D02*
X160966666Y-99052771D01*
X160966666Y-99052771D02*
X160890475Y-99090866D01*
X162033333Y-98862295D02*
X161880952Y-98862295D01*
X161880952Y-98862295D02*
X161804761Y-98900390D01*
X161804761Y-98900390D02*
X161766666Y-98938485D01*
X161766666Y-98938485D02*
X161690476Y-99052771D01*
X161690476Y-99052771D02*
X161652380Y-99205152D01*
X161652380Y-99205152D02*
X161652380Y-99509914D01*
X161652380Y-99509914D02*
X161690476Y-99586104D01*
X161690476Y-99586104D02*
X161728571Y-99624200D01*
X161728571Y-99624200D02*
X161804761Y-99662295D01*
X161804761Y-99662295D02*
X161957142Y-99662295D01*
X161957142Y-99662295D02*
X162033333Y-99624200D01*
X162033333Y-99624200D02*
X162071428Y-99586104D01*
X162071428Y-99586104D02*
X162109523Y-99509914D01*
X162109523Y-99509914D02*
X162109523Y-99319438D01*
X162109523Y-99319438D02*
X162071428Y-99243247D01*
X162071428Y-99243247D02*
X162033333Y-99205152D01*
X162033333Y-99205152D02*
X161957142Y-99167057D01*
X161957142Y-99167057D02*
X161804761Y-99167057D01*
X161804761Y-99167057D02*
X161728571Y-99205152D01*
X161728571Y-99205152D02*
X161690476Y-99243247D01*
X161690476Y-99243247D02*
X161652380Y-99319438D01*
X148387296Y-94533604D02*
X148349200Y-94571700D01*
X148349200Y-94571700D02*
X148234915Y-94609795D01*
X148234915Y-94609795D02*
X148158724Y-94609795D01*
X148158724Y-94609795D02*
X148044438Y-94571700D01*
X148044438Y-94571700D02*
X147968248Y-94495509D01*
X147968248Y-94495509D02*
X147930153Y-94419319D01*
X147930153Y-94419319D02*
X147892057Y-94266938D01*
X147892057Y-94266938D02*
X147892057Y-94152652D01*
X147892057Y-94152652D02*
X147930153Y-94000271D01*
X147930153Y-94000271D02*
X147968248Y-93924080D01*
X147968248Y-93924080D02*
X148044438Y-93847890D01*
X148044438Y-93847890D02*
X148158724Y-93809795D01*
X148158724Y-93809795D02*
X148234915Y-93809795D01*
X148234915Y-93809795D02*
X148349200Y-93847890D01*
X148349200Y-93847890D02*
X148387296Y-93885985D01*
X148844438Y-94152652D02*
X148768248Y-94114557D01*
X148768248Y-94114557D02*
X148730153Y-94076461D01*
X148730153Y-94076461D02*
X148692057Y-94000271D01*
X148692057Y-94000271D02*
X148692057Y-93962176D01*
X148692057Y-93962176D02*
X148730153Y-93885985D01*
X148730153Y-93885985D02*
X148768248Y-93847890D01*
X148768248Y-93847890D02*
X148844438Y-93809795D01*
X148844438Y-93809795D02*
X148996819Y-93809795D01*
X148996819Y-93809795D02*
X149073010Y-93847890D01*
X149073010Y-93847890D02*
X149111105Y-93885985D01*
X149111105Y-93885985D02*
X149149200Y-93962176D01*
X149149200Y-93962176D02*
X149149200Y-94000271D01*
X149149200Y-94000271D02*
X149111105Y-94076461D01*
X149111105Y-94076461D02*
X149073010Y-94114557D01*
X149073010Y-94114557D02*
X148996819Y-94152652D01*
X148996819Y-94152652D02*
X148844438Y-94152652D01*
X148844438Y-94152652D02*
X148768248Y-94190747D01*
X148768248Y-94190747D02*
X148730153Y-94228842D01*
X148730153Y-94228842D02*
X148692057Y-94305033D01*
X148692057Y-94305033D02*
X148692057Y-94457414D01*
X148692057Y-94457414D02*
X148730153Y-94533604D01*
X148730153Y-94533604D02*
X148768248Y-94571700D01*
X148768248Y-94571700D02*
X148844438Y-94609795D01*
X148844438Y-94609795D02*
X148996819Y-94609795D01*
X148996819Y-94609795D02*
X149073010Y-94571700D01*
X149073010Y-94571700D02*
X149111105Y-94533604D01*
X149111105Y-94533604D02*
X149149200Y-94457414D01*
X149149200Y-94457414D02*
X149149200Y-94305033D01*
X149149200Y-94305033D02*
X149111105Y-94228842D01*
X149111105Y-94228842D02*
X149073010Y-94190747D01*
X149073010Y-94190747D02*
X148996819Y-94152652D01*
X160585714Y-111462295D02*
X160319047Y-111081342D01*
X160128571Y-111462295D02*
X160128571Y-110662295D01*
X160128571Y-110662295D02*
X160433333Y-110662295D01*
X160433333Y-110662295D02*
X160509523Y-110700390D01*
X160509523Y-110700390D02*
X160547618Y-110738485D01*
X160547618Y-110738485D02*
X160585714Y-110814676D01*
X160585714Y-110814676D02*
X160585714Y-110928961D01*
X160585714Y-110928961D02*
X160547618Y-111005152D01*
X160547618Y-111005152D02*
X160509523Y-111043247D01*
X160509523Y-111043247D02*
X160433333Y-111081342D01*
X160433333Y-111081342D02*
X160128571Y-111081342D01*
X161347618Y-111462295D02*
X160890475Y-111462295D01*
X161119047Y-111462295D02*
X161119047Y-110662295D01*
X161119047Y-110662295D02*
X161042856Y-110776580D01*
X161042856Y-110776580D02*
X160966666Y-110852771D01*
X160966666Y-110852771D02*
X160890475Y-110890866D01*
X162109523Y-111462295D02*
X161652380Y-111462295D01*
X161880952Y-111462295D02*
X161880952Y-110662295D01*
X161880952Y-110662295D02*
X161804761Y-110776580D01*
X161804761Y-110776580D02*
X161728571Y-110852771D01*
X161728571Y-110852771D02*
X161652380Y-110890866D01*
X139216667Y-92986104D02*
X139178571Y-93024200D01*
X139178571Y-93024200D02*
X139064286Y-93062295D01*
X139064286Y-93062295D02*
X138988095Y-93062295D01*
X138988095Y-93062295D02*
X138873809Y-93024200D01*
X138873809Y-93024200D02*
X138797619Y-92948009D01*
X138797619Y-92948009D02*
X138759524Y-92871819D01*
X138759524Y-92871819D02*
X138721428Y-92719438D01*
X138721428Y-92719438D02*
X138721428Y-92605152D01*
X138721428Y-92605152D02*
X138759524Y-92452771D01*
X138759524Y-92452771D02*
X138797619Y-92376580D01*
X138797619Y-92376580D02*
X138873809Y-92300390D01*
X138873809Y-92300390D02*
X138988095Y-92262295D01*
X138988095Y-92262295D02*
X139064286Y-92262295D01*
X139064286Y-92262295D02*
X139178571Y-92300390D01*
X139178571Y-92300390D02*
X139216667Y-92338485D01*
X139902381Y-92262295D02*
X139750000Y-92262295D01*
X139750000Y-92262295D02*
X139673809Y-92300390D01*
X139673809Y-92300390D02*
X139635714Y-92338485D01*
X139635714Y-92338485D02*
X139559524Y-92452771D01*
X139559524Y-92452771D02*
X139521428Y-92605152D01*
X139521428Y-92605152D02*
X139521428Y-92909914D01*
X139521428Y-92909914D02*
X139559524Y-92986104D01*
X139559524Y-92986104D02*
X139597619Y-93024200D01*
X139597619Y-93024200D02*
X139673809Y-93062295D01*
X139673809Y-93062295D02*
X139826190Y-93062295D01*
X139826190Y-93062295D02*
X139902381Y-93024200D01*
X139902381Y-93024200D02*
X139940476Y-92986104D01*
X139940476Y-92986104D02*
X139978571Y-92909914D01*
X139978571Y-92909914D02*
X139978571Y-92719438D01*
X139978571Y-92719438D02*
X139940476Y-92643247D01*
X139940476Y-92643247D02*
X139902381Y-92605152D01*
X139902381Y-92605152D02*
X139826190Y-92567057D01*
X139826190Y-92567057D02*
X139673809Y-92567057D01*
X139673809Y-92567057D02*
X139597619Y-92605152D01*
X139597619Y-92605152D02*
X139559524Y-92643247D01*
X139559524Y-92643247D02*
X139521428Y-92719438D01*
X166954464Y-87814795D02*
X166687797Y-87433842D01*
X166497321Y-87814795D02*
X166497321Y-87014795D01*
X166497321Y-87014795D02*
X166802083Y-87014795D01*
X166802083Y-87014795D02*
X166878273Y-87052890D01*
X166878273Y-87052890D02*
X166916368Y-87090985D01*
X166916368Y-87090985D02*
X166954464Y-87167176D01*
X166954464Y-87167176D02*
X166954464Y-87281461D01*
X166954464Y-87281461D02*
X166916368Y-87357652D01*
X166916368Y-87357652D02*
X166878273Y-87395747D01*
X166878273Y-87395747D02*
X166802083Y-87433842D01*
X166802083Y-87433842D02*
X166497321Y-87433842D01*
X167259225Y-87090985D02*
X167297321Y-87052890D01*
X167297321Y-87052890D02*
X167373511Y-87014795D01*
X167373511Y-87014795D02*
X167563987Y-87014795D01*
X167563987Y-87014795D02*
X167640178Y-87052890D01*
X167640178Y-87052890D02*
X167678273Y-87090985D01*
X167678273Y-87090985D02*
X167716368Y-87167176D01*
X167716368Y-87167176D02*
X167716368Y-87243366D01*
X167716368Y-87243366D02*
X167678273Y-87357652D01*
X167678273Y-87357652D02*
X167221130Y-87814795D01*
X167221130Y-87814795D02*
X167716368Y-87814795D01*
X168478273Y-87814795D02*
X168021130Y-87814795D01*
X168249702Y-87814795D02*
X168249702Y-87014795D01*
X168249702Y-87014795D02*
X168173511Y-87129080D01*
X168173511Y-87129080D02*
X168097321Y-87205271D01*
X168097321Y-87205271D02*
X168021130Y-87243366D01*
X135666667Y-92986104D02*
X135628571Y-93024200D01*
X135628571Y-93024200D02*
X135514286Y-93062295D01*
X135514286Y-93062295D02*
X135438095Y-93062295D01*
X135438095Y-93062295D02*
X135323809Y-93024200D01*
X135323809Y-93024200D02*
X135247619Y-92948009D01*
X135247619Y-92948009D02*
X135209524Y-92871819D01*
X135209524Y-92871819D02*
X135171428Y-92719438D01*
X135171428Y-92719438D02*
X135171428Y-92605152D01*
X135171428Y-92605152D02*
X135209524Y-92452771D01*
X135209524Y-92452771D02*
X135247619Y-92376580D01*
X135247619Y-92376580D02*
X135323809Y-92300390D01*
X135323809Y-92300390D02*
X135438095Y-92262295D01*
X135438095Y-92262295D02*
X135514286Y-92262295D01*
X135514286Y-92262295D02*
X135628571Y-92300390D01*
X135628571Y-92300390D02*
X135666667Y-92338485D01*
X136390476Y-92262295D02*
X136009524Y-92262295D01*
X136009524Y-92262295D02*
X135971428Y-92643247D01*
X135971428Y-92643247D02*
X136009524Y-92605152D01*
X136009524Y-92605152D02*
X136085714Y-92567057D01*
X136085714Y-92567057D02*
X136276190Y-92567057D01*
X136276190Y-92567057D02*
X136352381Y-92605152D01*
X136352381Y-92605152D02*
X136390476Y-92643247D01*
X136390476Y-92643247D02*
X136428571Y-92719438D01*
X136428571Y-92719438D02*
X136428571Y-92909914D01*
X136428571Y-92909914D02*
X136390476Y-92986104D01*
X136390476Y-92986104D02*
X136352381Y-93024200D01*
X136352381Y-93024200D02*
X136276190Y-93062295D01*
X136276190Y-93062295D02*
X136085714Y-93062295D01*
X136085714Y-93062295D02*
X136009524Y-93024200D01*
X136009524Y-93024200D02*
X135971428Y-92986104D01*
X132360714Y-81161104D02*
X132322618Y-81199200D01*
X132322618Y-81199200D02*
X132208333Y-81237295D01*
X132208333Y-81237295D02*
X132132142Y-81237295D01*
X132132142Y-81237295D02*
X132017856Y-81199200D01*
X132017856Y-81199200D02*
X131941666Y-81123009D01*
X131941666Y-81123009D02*
X131903571Y-81046819D01*
X131903571Y-81046819D02*
X131865475Y-80894438D01*
X131865475Y-80894438D02*
X131865475Y-80780152D01*
X131865475Y-80780152D02*
X131903571Y-80627771D01*
X131903571Y-80627771D02*
X131941666Y-80551580D01*
X131941666Y-80551580D02*
X132017856Y-80475390D01*
X132017856Y-80475390D02*
X132132142Y-80437295D01*
X132132142Y-80437295D02*
X132208333Y-80437295D01*
X132208333Y-80437295D02*
X132322618Y-80475390D01*
X132322618Y-80475390D02*
X132360714Y-80513485D01*
X133122618Y-81237295D02*
X132665475Y-81237295D01*
X132894047Y-81237295D02*
X132894047Y-80437295D01*
X132894047Y-80437295D02*
X132817856Y-80551580D01*
X132817856Y-80551580D02*
X132741666Y-80627771D01*
X132741666Y-80627771D02*
X132665475Y-80665866D01*
X133617857Y-80437295D02*
X133694047Y-80437295D01*
X133694047Y-80437295D02*
X133770238Y-80475390D01*
X133770238Y-80475390D02*
X133808333Y-80513485D01*
X133808333Y-80513485D02*
X133846428Y-80589676D01*
X133846428Y-80589676D02*
X133884523Y-80742057D01*
X133884523Y-80742057D02*
X133884523Y-80932533D01*
X133884523Y-80932533D02*
X133846428Y-81084914D01*
X133846428Y-81084914D02*
X133808333Y-81161104D01*
X133808333Y-81161104D02*
X133770238Y-81199200D01*
X133770238Y-81199200D02*
X133694047Y-81237295D01*
X133694047Y-81237295D02*
X133617857Y-81237295D01*
X133617857Y-81237295D02*
X133541666Y-81199200D01*
X133541666Y-81199200D02*
X133503571Y-81161104D01*
X133503571Y-81161104D02*
X133465476Y-81084914D01*
X133465476Y-81084914D02*
X133427380Y-80932533D01*
X133427380Y-80932533D02*
X133427380Y-80742057D01*
X133427380Y-80742057D02*
X133465476Y-80589676D01*
X133465476Y-80589676D02*
X133503571Y-80513485D01*
X133503571Y-80513485D02*
X133541666Y-80475390D01*
X133541666Y-80475390D02*
X133617857Y-80437295D01*
D13*
%TO.C,C12*%
X149890000Y-115061252D02*
X149890000Y-114538748D01*
X151360000Y-115061252D02*
X151360000Y-114538748D01*
%TO.C,C11*%
X156160000Y-112700000D02*
X156160000Y-113200000D01*
X156410000Y-112950000D02*
X155910000Y-112950000D01*
X155795563Y-113440000D02*
X155660000Y-113440000D01*
X155795563Y-113440000D02*
X156860000Y-114504437D01*
X153404437Y-113440000D02*
X153540000Y-113440000D01*
X153404437Y-113440000D02*
X152340000Y-114504437D01*
X156860000Y-114504437D02*
X156860000Y-117960000D01*
X152340000Y-114504437D02*
X152340000Y-117960000D01*
X156860000Y-117960000D02*
X155660000Y-117960000D01*
X152340000Y-117960000D02*
X153540000Y-117960000D01*
%TO.C,Q4*%
X164300000Y-106140000D02*
X162625000Y-106140000D01*
X164300000Y-106140000D02*
X164950000Y-106140000D01*
X164300000Y-109260000D02*
X163650000Y-109260000D01*
X164300000Y-109260000D02*
X164950000Y-109260000D01*
%TO.C,J2*%
X152530000Y-83720000D02*
X152530000Y-86320000D01*
X152500000Y-80820000D02*
X152500000Y-79160000D01*
X152500000Y-79160000D02*
X144580000Y-79160000D01*
X151770000Y-88630000D02*
X150620000Y-88630000D01*
X150590000Y-89720000D02*
X149890000Y-89720000D01*
X150590000Y-89130000D02*
X150590000Y-89720000D01*
X146490000Y-88630000D02*
X145340000Y-88630000D01*
X144580000Y-79160000D02*
X144580000Y-80820000D01*
X144510000Y-86320000D02*
X144510000Y-83720000D01*
%TO.C,U1*%
X144131371Y-107105311D02*
X143671752Y-106645692D01*
X139485679Y-101540381D02*
X139026060Y-102000000D01*
X144590990Y-106645692D02*
X144131371Y-107105311D01*
X143671752Y-97354308D02*
X144131371Y-96894689D01*
X148777063Y-102459619D02*
X149236682Y-102000000D01*
X144131371Y-96894689D02*
X144590990Y-97354308D01*
X149236682Y-102000000D02*
X148777063Y-101540381D01*
%TO.C,Q6*%
X164300000Y-94340000D02*
X162625000Y-94340000D01*
X164300000Y-94340000D02*
X164950000Y-94340000D01*
X164300000Y-97460000D02*
X163650000Y-97460000D01*
X164300000Y-97460000D02*
X164950000Y-97460000D01*
%TO.C,C4*%
X139611252Y-98035000D02*
X139088748Y-98035000D01*
X139611252Y-96565000D02*
X139088748Y-96565000D01*
%TO.C,TP3*%
X150000000Y-92700000D02*
G75*
G03*
X150000000Y-92700000I-700000J0D01*
G01*
%TO.C,D1*%
X162848129Y-127412500D02*
X162848129Y-128882500D01*
X162848129Y-128882500D02*
X165133129Y-128882500D01*
X165133129Y-127412500D02*
X162848129Y-127412500D01*
%TO.C,C1*%
X156374887Y-105623994D02*
X156374887Y-105101490D01*
X157844887Y-105623994D02*
X157844887Y-105101490D01*
%TO.C,R12*%
X166650000Y-108747500D02*
X166650000Y-107547500D01*
X168350000Y-107547500D02*
X168350000Y-108747500D01*
D10*
%TO.C,U2*%
X141350000Y-112545000D02*
X141350000Y-112750000D01*
X141350000Y-112545000D02*
X146850000Y-112545000D01*
X141350000Y-112750000D02*
X139600000Y-112750000D01*
X141350000Y-118055000D02*
X141350000Y-117755000D01*
X141350000Y-118055000D02*
X146850000Y-118055000D01*
X146850000Y-112545000D02*
X146850000Y-112845000D01*
X146850000Y-118055000D02*
X146850000Y-117755000D01*
D13*
%TO.C,R13*%
X160250000Y-102847500D02*
X160250000Y-101647500D01*
X161950000Y-101647500D02*
X161950000Y-102847500D01*
%TO.C,R15*%
X166650000Y-102847500D02*
X166650000Y-101647500D01*
X168350000Y-101647500D02*
X168350000Y-102847500D01*
%TO.C,R2*%
X143950000Y-92487258D02*
X143950000Y-93687258D01*
X142250000Y-93687258D02*
X142250000Y-92487258D01*
%TO.C,R19*%
X166650000Y-90985000D02*
X166650000Y-89785000D01*
X168350000Y-89785000D02*
X168350000Y-90985000D01*
%TO.C,R23*%
X134650000Y-122300000D02*
X134650000Y-123500000D01*
X132950000Y-123500000D02*
X132950000Y-122300000D01*
%TO.C,R17*%
X166650000Y-96947500D02*
X166650000Y-95747500D01*
X168350000Y-95747500D02*
X168350000Y-96947500D01*
%TO.C,R20*%
X160250000Y-85000000D02*
X160250000Y-83800000D01*
X161950000Y-83800000D02*
X161950000Y-85000000D01*
%TO.C,C2*%
X157844887Y-97051490D02*
X157844887Y-97573994D01*
X156374887Y-97051490D02*
X156374887Y-97573994D01*
%TO.C,R4*%
X137000000Y-100350000D02*
X135800000Y-100350000D01*
X135800000Y-98650000D02*
X137000000Y-98650000D01*
%TO.C,R1*%
X153720629Y-94800000D02*
X152520629Y-94800000D01*
X152520629Y-93100000D02*
X153720629Y-93100000D01*
%TO.C,C7*%
X138055629Y-114486248D02*
X138055629Y-115008752D01*
X136585629Y-114486248D02*
X136585629Y-115008752D01*
%TO.C,SW1*%
X153640000Y-128100000D02*
X152640000Y-128100000D01*
X153640000Y-127100000D02*
X153640000Y-128100000D01*
X151640000Y-126100000D02*
X151640000Y-123500000D01*
X145640000Y-128050000D02*
X151440000Y-128050000D01*
X145540000Y-121550000D02*
X151540000Y-121550000D01*
X145440000Y-126100000D02*
X145440000Y-123500000D01*
%TO.C,D9*%
X138685000Y-124235000D02*
X138685000Y-122765000D01*
X138685000Y-122765000D02*
X136400000Y-122765000D01*
X136400000Y-124235000D02*
X138685000Y-124235000D01*
%TO.C,TP2*%
X134620629Y-91600000D02*
G75*
G03*
X134620629Y-91600000I-700000J0D01*
G01*
%TO.C,R7*%
X160250000Y-120647500D02*
X160250000Y-119447500D01*
X161950000Y-119447500D02*
X161950000Y-120647500D01*
%TO.C,J3*%
X129294956Y-92515056D02*
X129294956Y-105275056D01*
X129294956Y-92515056D02*
X131954956Y-92515056D01*
X129294956Y-105275056D02*
X131954956Y-105275056D01*
X130624956Y-89915056D02*
X131954956Y-89915056D01*
X131954956Y-89915056D02*
X131954956Y-91245056D01*
X131954956Y-92515056D02*
X131954956Y-105275056D01*
%TO.C,Y1*%
X155645629Y-98240000D02*
X155645629Y-104640000D01*
X150595629Y-98240000D02*
X150595629Y-104640000D01*
X155645629Y-98240000D02*
G75*
G03*
X150595629Y-98240000I-2525000J0D01*
G01*
X150595629Y-104640000D02*
G75*
G03*
X155645629Y-104640000I2525000J0D01*
G01*
%TO.C,D2*%
X162848129Y-121512500D02*
X162848129Y-122982500D01*
X162848129Y-122982500D02*
X165133129Y-122982500D01*
X165133129Y-121512500D02*
X162848129Y-121512500D01*
%TO.C,R10*%
X166650000Y-114647500D02*
X166650000Y-113447500D01*
X168350000Y-113447500D02*
X168350000Y-114647500D01*
%TO.C,Q3*%
X164300000Y-112040000D02*
X162625000Y-112040000D01*
X164300000Y-112040000D02*
X164950000Y-112040000D01*
X164300000Y-115160000D02*
X163650000Y-115160000D01*
X164300000Y-115160000D02*
X164950000Y-115160000D01*
%TO.C,Q7*%
X164300000Y-88440000D02*
X162625000Y-88440000D01*
X164300000Y-88440000D02*
X164950000Y-88440000D01*
X164300000Y-91560000D02*
X163650000Y-91560000D01*
X164300000Y-91560000D02*
X164950000Y-91560000D01*
%TO.C,C3*%
X147738748Y-106365000D02*
X148261252Y-106365000D01*
X147738748Y-107835000D02*
X148261252Y-107835000D01*
%TO.C,C9*%
X136111252Y-98035000D02*
X135588748Y-98035000D01*
X136111252Y-96565000D02*
X135588748Y-96565000D01*
%TO.C,R5*%
X136470629Y-119647500D02*
X136470629Y-118447500D01*
X138170629Y-118447500D02*
X138170629Y-119647500D01*
%TO.C,R9*%
X160250000Y-114647500D02*
X160250000Y-113447500D01*
X161950000Y-113447500D02*
X161950000Y-114647500D01*
%TO.C,R8*%
X166650000Y-120647500D02*
X166650000Y-119447500D01*
X168350000Y-119447500D02*
X168350000Y-120647500D01*
%TO.C,R22*%
X152600000Y-90650000D02*
X153800000Y-90650000D01*
X153800000Y-92350000D02*
X152600000Y-92350000D01*
%TO.C,R3*%
X146450000Y-92487258D02*
X146450000Y-93687258D01*
X144750000Y-93687258D02*
X144750000Y-92487258D01*
%TO.C,R18*%
X160240000Y-91000000D02*
X160240000Y-89800000D01*
X161940000Y-89800000D02*
X161940000Y-91000000D01*
%TO.C,D6*%
X162848129Y-97812500D02*
X162848129Y-99282500D01*
X162848129Y-99282500D02*
X165133129Y-99282500D01*
X165133129Y-97812500D02*
X162848129Y-97812500D01*
%TO.C,Q1*%
X164300000Y-123940000D02*
X162625000Y-123940000D01*
X164300000Y-123940000D02*
X164950000Y-123940000D01*
X164300000Y-127060000D02*
X163650000Y-127060000D01*
X164300000Y-127060000D02*
X164950000Y-127060000D01*
%TO.C,R14*%
X166650000Y-126547500D02*
X166650000Y-125347500D01*
X168350000Y-125347500D02*
X168350000Y-126547500D01*
%TO.C,Q5*%
X164300000Y-100240000D02*
X162625000Y-100240000D01*
X164300000Y-100240000D02*
X164950000Y-100240000D01*
X164300000Y-103360000D02*
X163650000Y-103360000D01*
X164300000Y-103360000D02*
X164950000Y-103360000D01*
%TO.C,R6*%
X160250000Y-126547500D02*
X160250000Y-125347500D01*
X161950000Y-125347500D02*
X161950000Y-126547500D01*
%TO.C,R16*%
X160250000Y-96947500D02*
X160250000Y-95747500D01*
X161950000Y-95747500D02*
X161950000Y-96947500D01*
%TO.C,D8*%
X162848129Y-85912500D02*
X162848129Y-87382500D01*
X162848129Y-87382500D02*
X165133129Y-87382500D01*
X165133129Y-85912500D02*
X162848129Y-85912500D01*
%TO.C,C8*%
X148259377Y-94965000D02*
X148781881Y-94965000D01*
X148259377Y-96435000D02*
X148781881Y-96435000D01*
%TO.C,TP1*%
X153240629Y-109700000D02*
G75*
G03*
X153240629Y-109700000I-700000J0D01*
G01*
%TO.C,R11*%
X160250000Y-108747500D02*
X160250000Y-107547500D01*
X161950000Y-107547500D02*
X161950000Y-108747500D01*
%TO.C,U4*%
X149360000Y-111440000D02*
X149105000Y-111440000D01*
X149105000Y-111440000D02*
X149105000Y-109625000D01*
X138840000Y-111440000D02*
X139095000Y-111440000D01*
X149360000Y-115300000D02*
X149360000Y-111440000D01*
X149360000Y-115300000D02*
X149360000Y-119160000D01*
X138840000Y-115300000D02*
X138840000Y-111440000D01*
X138840000Y-115300000D02*
X138840000Y-119160000D01*
X149360000Y-119160000D02*
X149105000Y-119160000D01*
X138840000Y-119160000D02*
X139095000Y-119160000D01*
%TO.C,D4*%
X162848129Y-109612500D02*
X162848129Y-111082500D01*
X162848129Y-111082500D02*
X165133129Y-111082500D01*
X165133129Y-109612500D02*
X162848129Y-109612500D01*
%TO.C,C6*%
X139088748Y-94465000D02*
X139611252Y-94465000D01*
X139088748Y-95935000D02*
X139611252Y-95935000D01*
%TO.C,D7*%
X162848129Y-91850000D02*
X162848129Y-93320000D01*
X162848129Y-93320000D02*
X165133129Y-93320000D01*
X165133129Y-91850000D02*
X162848129Y-91850000D01*
%TO.C,D3*%
X162848129Y-115512500D02*
X162848129Y-116982500D01*
X162848129Y-116982500D02*
X165133129Y-116982500D01*
X165133129Y-115512500D02*
X162848129Y-115512500D01*
%TO.C,R21*%
X166650000Y-85000000D02*
X166650000Y-83800000D01*
X168350000Y-83800000D02*
X168350000Y-85000000D01*
%TO.C,U3*%
X135571371Y-89060000D02*
X135571371Y-83050000D01*
X142391371Y-86810000D02*
X142391371Y-83050000D01*
X135571371Y-83050000D02*
X136831371Y-83050000D01*
X142391371Y-83050000D02*
X141131371Y-83050000D01*
%TO.C,C5*%
X135588748Y-94465000D02*
X136111252Y-94465000D01*
X135588748Y-95935000D02*
X136111252Y-95935000D01*
%TO.C,Q2*%
X164300000Y-118040000D02*
X162625000Y-118040000D01*
X164300000Y-118040000D02*
X164950000Y-118040000D01*
X164300000Y-121160000D02*
X163650000Y-121160000D01*
X164300000Y-121160000D02*
X164950000Y-121160000D01*
%TO.C,J6*%
X129290629Y-112217500D02*
X129290629Y-124977500D01*
X129290629Y-112217500D02*
X131950629Y-112217500D01*
X129290629Y-124977500D02*
X131950629Y-124977500D01*
X130620629Y-109617500D02*
X131950629Y-109617500D01*
X131950629Y-109617500D02*
X131950629Y-110947500D01*
X131950629Y-112217500D02*
X131950629Y-124977500D01*
%TO.C,D5*%
X162848129Y-103712500D02*
X162848129Y-105182500D01*
X162848129Y-105182500D02*
X165133129Y-105182500D01*
X165133129Y-103712500D02*
X162848129Y-103712500D01*
%TO.C,Q8*%
X164300000Y-82540000D02*
X162625000Y-82540000D01*
X164300000Y-82540000D02*
X164950000Y-82540000D01*
X164300000Y-85660000D02*
X163650000Y-85660000D01*
X164300000Y-85660000D02*
X164950000Y-85660000D01*
%TO.C,J1*%
X145946371Y-131430000D02*
X145946371Y-130100000D01*
X147276371Y-131430000D02*
X145946371Y-131430000D01*
X148546371Y-131430000D02*
X151146371Y-131430000D01*
X148546371Y-131430000D02*
X148546371Y-128770000D01*
X151146371Y-131430000D02*
X151146371Y-128770000D01*
X148546371Y-128770000D02*
X151146371Y-128770000D01*
%TO.C,C10*%
X134435000Y-81975000D02*
X134435000Y-82475000D01*
X134685000Y-82225000D02*
X134185000Y-82225000D01*
X134070563Y-82715000D02*
X133935000Y-82715000D01*
X134070563Y-82715000D02*
X135135000Y-83779437D01*
X131679437Y-82715000D02*
X131815000Y-82715000D01*
X131679437Y-82715000D02*
X130615000Y-83779437D01*
X135135000Y-83779437D02*
X135135000Y-87235000D01*
X130615000Y-83779437D02*
X130615000Y-87235000D01*
X135135000Y-87235000D02*
X133935000Y-87235000D01*
X130615000Y-87235000D02*
X131815000Y-87235000D01*
%TD*%
M02*
